<?xml version="1.0" standalone="no"?>
<!DOCTYPE svg PUBLIC "-//W3C//DTD SVG 20010904//EN"
 "http://www.w3.org/TR/2001/REC-SVG-20010904/DTD/svg10.dtd">
<svg version="1.0" xmlns="http://www.w3.org/2000/svg"
 width="2000.000000pt" height="800.000000pt" viewBox="0 0 2000.000000 800.000000"
 preserveAspectRatio="xMidYMid meet">

<g transform="translate(0.000000,800.000000) scale(0.100000,-0.100000)"
fill="#000000" stroke="none">
<path d="M9260 7780 l0 -60 38 2 c36 1 36 1 5 5 -27 4 -33 9 -33 28 0 19 6 24
33 28 l32 4 -32 1 c-25 2 -33 7 -33 21 0 15 8 21 33 24 31 4 31 4 -5 5 l-38 2
0 -60z"/>
<path d="M9830 7780 c0 -33 4 -60 10 -60 6 0 10 27 10 60 0 33 -4 60 -10 60
-6 0 -10 -27 -10 -60z"/>
<path d="M10123 7826 c-11 -19 -4 -106 8 -106 5 0 9 18 9 39 0 22 5 42 13 44
10 4 10 6 0 6 -19 1 -16 19 5 24 13 4 12 5 -5 6 -12 0 -26 -6 -30 -13z"/>
<path d="M10560 7780 l0 -60 43 2 c36 1 38 2 10 5 -27 4 -33 9 -33 28 0 18 6
25 28 28 l27 4 -27 2 c-21 1 -28 6 -28 20 0 15 8 21 33 24 28 3 26 4 -10 5
l-43 2 0 -60z"/>
<path d="M10670 7830 c0 -5 7 -10 15 -10 23 0 21 -87 -2 -93 -10 -3 0 -5 22
-5 22 0 34 2 28 5 -8 3 -13 25 -13 59 0 51 -1 54 -25 54 -14 0 -25 -4 -25 -10z"/>
<path d="M9360 7806 c0 -3 5 -15 12 -26 10 -15 9 -23 -6 -39 -11 -12 -14 -21
-9 -21 6 0 16 7 23 15 12 14 15 14 31 -1 21 -19 27 -6 7 14 -10 10 -10 17 0
33 8 12 10 24 7 27 -4 4 -11 -1 -17 -11 -9 -18 -11 -18 -29 -1 -10 9 -19 14
-19 10z"/>
<path d="M9466 7801 c-3 -4 5 -6 18 -4 13 3 27 0 30 -6 5 -7 -2 -11 -17 -11
-14 0 -30 -7 -37 -15 -18 -22 4 -45 41 -42 25 2 29 6 29 33 0 16 -5 35 -12 42
-14 14 -44 16 -52 3z m44 -45 c0 -20 -19 -31 -32 -18 -6 6 -7 15 -4 21 10 16
36 13 36 -3z"/>
<path d="M9560 7764 c0 -54 18 -59 22 -6 2 25 8 37 18 37 10 0 16 -12 18 -37
2 -21 7 -38 12 -38 5 0 10 17 12 38 4 52 31 50 39 -3 l7 -40 -2 45 -1 45 -62
1 -63 1 0 -43z"/>
<path d="M9720 7749 c0 -33 4 -59 10 -59 6 0 10 8 10 19 0 14 6 17 25 13 19
-3 27 1 34 19 14 40 -1 64 -43 66 l-36 1 0 -59z m65 16 c0 -23 -4 -30 -20 -30
-21 0 -31 25 -21 51 11 28 41 12 41 -21z"/>
<path d="M9879 7789 c-18 -34 3 -69 41 -69 16 0 30 4 30 8 0 4 -12 8 -27 7
-14 0 -28 6 -30 13 -3 8 7 12 31 12 39 0 41 2 26 31 -14 26 -56 25 -71 -2z
m59 -6 c2 -8 -6 -13 -22 -13 -25 0 -33 10 -19 24 10 10 36 3 41 -11z"/>
<path d="M9987 7803 c-15 -14 -6 -34 19 -43 33 -13 21 -34 -15 -25 -19 5 -23
4 -15 -5 17 -17 58 -8 62 12 2 12 -6 21 -23 28 -29 11 -24 35 6 27 11 -3 19
-1 19 4 0 10 -43 12 -53 2z"/>
<path d="M10181 7760 l1 -45 8 35 c5 18 16 39 25 46 14 10 13 12 -9 10 -24 -1
-26 -5 -25 -46z"/>
<path d="M10250 7796 c-28 -35 11 -93 48 -70 35 22 22 84 -18 84 -10 0 -23 -7
-30 -14z m49 -15 c7 -13 6 -24 -3 -37 -12 -15 -16 -16 -30 -5 -19 16 -20 33
-4 49 17 17 26 15 37 -7z"/>
<path d="M10340 7764 c0 -54 18 -59 22 -6 2 25 8 37 18 37 10 0 16 -12 18 -37
2 -21 7 -38 12 -38 5 0 10 17 12 38 2 25 8 37 18 37 10 0 16 -12 18 -37 4 -47
22 -50 22 -4 0 44 -14 53 -82 53 l-58 0 0 -43z"/>
<path d="M2072 7463 l-2 -63 38 2 c36 1 36 1 5 5 -31 4 -32 5 -36 61 l-3 57
-2 -62z"/>
<path d="M2260 7461 c0 -57 1 -59 28 -59 34 0 52 14 52 43 0 27 -24 49 -45 41
-10 -4 -15 1 -15 14 0 11 -4 20 -10 20 -6 0 -10 -26 -10 -59z m59 0 c7 -13 6
-23 -3 -36 -16 -22 -36 -12 -36 19 0 39 22 49 39 17z"/>
<path d="M2470 7460 c0 -33 4 -60 10 -60 6 0 10 27 10 60 0 33 -4 60 -10 60
-6 0 -10 -27 -10 -60z"/>
<path d="M2634 7495 c-17 -27 -12 -73 9 -87 38 -24 77 14 56 53 -8 15 -18 20
-35 16 -13 -2 -24 -1 -24 3 0 15 30 32 45 26 8 -3 15 -1 15 4 0 21 -50 10 -66
-15z m54 -49 c6 -29 -15 -43 -35 -24 -14 14 -14 20 -3 33 16 19 34 15 38 -9z"/>
<path d="M6042 7463 l-2 -63 38 2 c36 1 36 1 5 5 -31 4 -32 5 -36 61 l-3 57
-2 -62z"/>
<path d="M6230 7461 c0 -57 1 -59 28 -59 34 0 52 14 52 43 0 27 -24 49 -45 41
-10 -4 -15 1 -15 14 0 11 -4 20 -10 20 -6 0 -10 -26 -10 -59z m59 0 c7 -13 6
-23 -3 -36 -16 -22 -36 -12 -36 19 0 39 22 49 39 17z"/>
<path d="M6440 7460 c0 -33 4 -60 10 -60 6 0 10 27 10 60 0 33 -4 60 -10 60
-6 0 -10 -27 -10 -60z"/>
<path d="M6604 7507 c-3 -8 -4 -21 -3 -28 1 -8 -1 -22 -6 -32 -17 -39 54 -67
74 -28 6 10 8 21 4 25 -3 3 -6 20 -7 38 -1 28 -5 33 -29 36 -17 2 -29 -2 -33
-11z m54 -14 c5 -17 -26 -29 -40 -15 -6 6 -7 15 -3 22 9 14 37 9 43 -7z m0
-56 c4 -20 -25 -34 -40 -19 -15 15 -1 44 19 40 10 -2 19 -11 21 -21z"/>
<path d="M10012 7463 l-2 -63 38 2 c36 1 36 1 5 5 -31 4 -32 5 -36 61 l-3 57
-2 -62z"/>
<path d="M10200 7461 c0 -57 1 -59 28 -59 34 0 52 14 52 43 0 27 -24 49 -45
41 -10 -4 -15 1 -15 14 0 11 -4 20 -10 20 -6 0 -10 -26 -10 -59z m59 0 c7 -13
6 -23 -3 -36 -16 -22 -36 -12 -36 19 0 39 22 49 39 17z"/>
<path d="M10410 7460 c0 -33 4 -60 10 -60 6 0 10 27 10 60 0 33 -4 60 -10 60
-6 0 -10 -27 -10 -60z"/>
<path d="M10583 7512 c-18 -12 -25 -55 -14 -86 14 -35 49 -32 71 7 13 24 13
30 0 54 -16 29 -37 38 -57 25z m35 -14 c17 -17 15 -63 -3 -78 -22 -18 -35 -3
-35 39 0 50 13 64 38 39z"/>
<path d="M13982 7463 l-2 -63 38 2 c36 1 36 1 5 5 -31 4 -32 5 -36 61 l-3 57
-2 -62z"/>
<path d="M14170 7461 c0 -57 1 -59 28 -59 34 0 52 14 52 43 0 27 -24 49 -45
41 -10 -4 -15 1 -15 14 0 11 -4 20 -10 20 -6 0 -10 -26 -10 -59z m59 0 c7 -13
6 -23 -3 -36 -16 -22 -36 -12 -36 19 0 39 22 49 39 17z"/>
<path d="M14380 7460 c0 -33 4 -60 10 -60 6 0 10 27 10 60 0 33 -4 60 -10 60
-6 0 -10 -27 -10 -60z"/>
<path d="M14540 7510 c0 -5 7 -10 15 -10 23 0 21 -87 -2 -93 -10 -3 0 -5 22
-5 22 0 34 2 28 5 -8 3 -13 25 -13 59 0 51 -1 54 -25 54 -14 0 -25 -4 -25 -10z"/>
<path d="M17952 7463 l-2 -63 38 2 c36 1 36 1 5 5 -31 4 -32 5 -36 61 l-3 57
-2 -62z"/>
<path d="M18140 7461 c0 -57 1 -59 28 -59 34 0 52 14 52 43 0 27 -24 49 -45
41 -10 -4 -15 1 -15 14 0 11 -4 20 -10 20 -6 0 -10 -26 -10 -59z m59 0 c7 -13
6 -23 -3 -36 -16 -22 -36 -12 -36 19 0 39 22 49 39 17z"/>
<path d="M18350 7460 c0 -33 4 -60 10 -60 6 0 10 27 10 60 0 33 -4 60 -10 60
-6 0 -10 -27 -10 -60z"/>
<path d="M18505 7511 c-3 -6 7 -9 22 -8 39 3 40 -24 3 -67 l-32 -36 43 1 c31
2 36 3 16 6 l-28 4 26 30 c28 34 31 49 13 67 -14 14 -54 16 -63 3z"/>
<path d="M2160 7481 c0 -5 8 -7 19 -4 10 3 22 0 25 -6 4 -7 -1 -11 -12 -11
-11 0 -25 -7 -32 -15 -18 -21 3 -44 41 -43 26 1 29 5 29 33 0 17 -5 36 -12 43
-14 14 -58 16 -58 3z m50 -45 c0 -8 -5 -18 -11 -22 -14 -8 -33 11 -25 25 10
16 36 13 36 -3z"/>
<path d="M2372 7478 c-7 -7 -12 -21 -12 -33 0 -12 5 -26 12 -33 13 -13 68 -17
68 -4 0 4 -12 8 -27 7 -14 0 -28 6 -30 13 -3 8 6 12 26 12 24 0 31 4 31 19 0
29 -45 42 -68 19z m56 -15 c2 -8 -6 -13 -22 -13 -25 0 -33 10 -19 24 10 10 36
3 41 -11z"/>
<path d="M6130 7481 c0 -5 8 -7 19 -4 10 3 22 0 25 -6 4 -7 -1 -11 -12 -11
-11 0 -25 -7 -32 -15 -18 -21 3 -44 41 -43 26 1 29 5 29 33 0 17 -5 36 -12 43
-14 14 -58 16 -58 3z m50 -45 c0 -20 -19 -31 -32 -18 -6 6 -7 15 -4 21 10 16
36 13 36 -3z"/>
<path d="M6342 7478 c-7 -7 -12 -21 -12 -33 0 -12 5 -26 12 -33 13 -13 68 -17
68 -4 0 4 -12 8 -27 7 -14 0 -28 6 -30 13 -3 8 6 12 26 12 24 0 31 4 31 19 0
29 -45 42 -68 19z m56 -15 c2 -8 -6 -13 -22 -13 -25 0 -33 10 -19 24 10 10 36
3 41 -11z"/>
<path d="M10100 7481 c0 -5 8 -7 19 -4 10 3 22 0 25 -6 4 -7 -1 -11 -12 -11
-11 0 -25 -7 -32 -15 -18 -21 3 -44 41 -43 26 1 29 5 29 33 0 17 -5 36 -12 43
-14 14 -58 16 -58 3z m50 -45 c0 -20 -19 -31 -32 -18 -6 6 -7 15 -4 21 10 16
36 13 36 -3z"/>
<path d="M10312 7478 c-7 -7 -12 -21 -12 -33 0 -12 5 -26 12 -33 13 -13 68
-17 68 -4 0 4 -12 8 -27 7 -14 0 -28 6 -30 13 -3 8 6 12 26 12 24 0 31 4 31
19 0 29 -45 42 -68 19z m56 -15 c2 -8 -6 -13 -22 -13 -25 0 -33 10 -19 24 10
10 36 3 41 -11z"/>
<path d="M14070 7481 c0 -5 8 -7 19 -4 10 3 22 0 25 -6 4 -7 -1 -11 -12 -11
-11 0 -25 -7 -32 -15 -18 -21 3 -44 41 -43 26 1 29 5 29 33 0 17 -5 36 -12 43
-14 14 -58 16 -58 3z m50 -45 c0 -8 -5 -18 -11 -22 -14 -8 -33 11 -25 25 10
16 36 13 36 -3z"/>
<path d="M14282 7478 c-7 -7 -12 -21 -12 -33 0 -12 5 -26 12 -33 13 -13 68
-17 68 -4 0 4 -12 8 -27 7 -14 0 -28 6 -30 13 -3 8 6 12 26 12 24 0 31 4 31
19 0 29 -45 42 -68 19z m56 -15 c2 -8 -6 -13 -22 -13 -25 0 -33 10 -19 24 10
10 36 3 41 -11z"/>
<path d="M18040 7481 c0 -5 8 -7 19 -4 10 3 22 0 25 -6 4 -7 -1 -11 -12 -11
-11 0 -25 -7 -32 -15 -18 -21 3 -44 41 -43 26 1 29 5 29 33 0 17 -5 36 -12 43
-14 14 -58 16 -58 3z m50 -45 c0 -8 -5 -18 -11 -22 -14 -8 -33 11 -25 25 10
16 36 13 36 -3z"/>
<path d="M18252 7478 c-7 -7 -12 -21 -12 -33 0 -12 5 -26 12 -33 13 -13 68
-17 68 -4 0 4 -12 8 -27 7 -14 0 -28 6 -30 13 -3 8 6 12 26 12 24 0 31 4 31
19 0 29 -45 42 -68 19z m56 -15 c2 -8 -6 -13 -22 -13 -25 0 -33 10 -19 24 10
10 36 3 41 -11z"/>
<path d="M2520 7470 c0 -5 5 -10 10 -10 6 0 10 5 10 10 0 6 -4 10 -10 10 -5 0
-10 -4 -10 -10z"/>
<path d="M6490 7470 c0 -5 5 -10 10 -10 6 0 10 5 10 10 0 6 -4 10 -10 10 -5 0
-10 -4 -10 -10z"/>
<path d="M10460 7470 c0 -5 5 -10 10 -10 6 0 10 5 10 10 0 6 -4 10 -10 10 -5
0 -10 -4 -10 -10z"/>
<path d="M14430 7470 c0 -5 5 -10 10 -10 6 0 10 5 10 10 0 6 -4 10 -10 10 -5
0 -10 -4 -10 -10z"/>
<path d="M18400 7470 c0 -5 5 -10 10 -10 6 0 10 5 10 10 0 6 -4 10 -10 10 -5
0 -10 -4 -10 -10z"/>
<path d="M2520 7410 c0 -5 5 -10 10 -10 6 0 10 5 10 10 0 6 -4 10 -10 10 -5 0
-10 -4 -10 -10z"/>
<path d="M6490 7410 c0 -5 5 -10 10 -10 6 0 10 5 10 10 0 6 -4 10 -10 10 -5 0
-10 -4 -10 -10z"/>
<path d="M10460 7410 c0 -5 5 -10 10 -10 6 0 10 5 10 10 0 6 -4 10 -10 10 -5
0 -10 -4 -10 -10z"/>
<path d="M14430 7410 c0 -5 5 -10 10 -10 6 0 10 5 10 10 0 6 -4 10 -10 10 -5
0 -10 -4 -10 -10z"/>
<path d="M18400 7410 c0 -5 5 -10 10 -10 6 0 10 5 10 10 0 6 -4 10 -10 10 -5
0 -10 -4 -10 -10z"/>
<path d="M800 5725 l0 -1585 1590 0 1590 0 0 1585 0 1585 -1590 0 -1590 0 0
-1585z"/>
<path d="M4770 5725 l0 -1585 1590 0 1590 0 0 1585 0 1585 -1590 0 -1590 0 0
-1585z m1820 970 l0 -55 110 0 110 0 0 -55 0 -55 60 0 60 0 0 -115 0 -115 -60
0 -60 0 0 -115 0 -115 -55 0 -55 0 0 -115 0 -115 55 0 55 0 0 -55 0 -55 60 0
60 0 0 -170 0 -170 110 0 110 0 0 -225 0 -225 -55 0 -55 0 0 -115 0 -115 -170
0 -170 0 0 -60 0 -60 -340 0 -340 0 0 60 0 60 -55 0 -55 0 0 55 0 55 -60 0
-60 0 0 -55 0 -55 -55 0 -55 0 0 55 0 55 -60 0 -60 0 0 230 0 230 60 0 60 0 0
110 0 110 115 0 115 0 0 60 0 60 55 0 55 0 0 -60 0 -60 -55 0 -55 0 0 -110 0
-110 -60 0 -60 0 0 -60 0 -60 -55 0 -55 0 0 -55 0 -55 55 0 55 0 0 -55 0 -55
60 0 60 0 0 -60 0 -60 55 0 55 0 0 -55 0 -55 285 0 285 0 0 55 0 55 55 0 55 0
0 60 0 60 115 0 115 0 0 110 0 110 -60 0 -60 0 0 170 0 170 -55 0 -55 0 0 60
0 60 -170 0 -170 0 0 55 0 55 -55 0 -55 0 0 170 0 170 110 0 110 0 0 -55 0
-55 60 0 60 0 0 110 0 110 55 0 55 0 0 115 0 115 -55 0 -55 0 0 60 0 60 -285
0 -285 0 0 55 0 55 115 0 115 0 0 55 0 55 170 0 170 0 0 -55z m-680 -225 l0
-60 -60 0 -60 0 0 60 0 60 60 0 60 0 0 -60z m-230 -115 l0 -55 115 0 115 0 0
-60 0 -60 110 0 110 0 0 -110 0 -110 -55 0 -55 0 0 55 0 55 -115 0 -115 0 0
55 0 55 -115 0 -115 0 0 60 0 60 -55 0 -55 0 0 55 0 55 115 0 115 0 0 -55z"/>
<path d="M8740 5725 l0 -1585 1590 0 1590 0 0 1585 0 1585 -1590 0 -1590 0 0
-1585z m1820 1085 l0 -60 170 0 170 0 0 -55 0 -55 55 0 55 0 0 -55 0 -55 55 0
55 0 0 -115 0 -115 60 0 60 0 0 -170 0 -170 55 0 55 0 0 -170 0 -170 60 0 60
0 0 -170 0 -170 -60 0 -60 0 0 -115 0 -115 -115 0 -115 0 0 -55 0 -55 -55 0
-55 0 0 -60 0 -60 -115 0 -115 0 0 -55 0 -55 -170 0 -170 0 0 -60 0 -60 -455
0 -455 0 0 60 0 60 -55 0 -55 0 0 285 0 285 55 0 55 0 0 170 0 170 60 0 60 0
0 55 0 55 55 0 55 0 0 115 0 115 60 0 60 0 0 170 0 170 55 0 55 0 0 115 0 115
55 0 55 0 0 55 0 55 60 0 60 0 0 55 0 55 55 0 55 0 0 60 0 60 115 0 115 0 0
-60z"/>
<path d="M10330 6355 l0 -175 -115 0 -115 0 0 -110 0 -110 -55 0 -55 0 0 -115
0 -115 -55 0 -55 0 0 -115 0 -115 -60 0 -60 0 0 -110 0 -110 -55 0 -55 0 0
-170 0 -170 55 0 55 0 0 -60 0 -60 510 0 510 0 0 60 0 60 60 0 60 0 0 55 0 55
110 0 110 0 0 395 0 395 -55 0 -55 0 0 115 0 115 -55 0 -55 0 0 115 0 115 -60
0 -60 0 0 55 0 55 -55 0 -55 0 0 60 0 60 -170 0 -170 0 0 -175z"/>
<path d="M12710 5725 l0 -1585 1590 0 1590 0 0 1585 0 1585 -1590 0 -1590 0 0
-1585z m2160 1085 l0 -60 55 0 55 0 0 -55 0 -55 -55 0 -55 0 0 -170 0 -170
-60 0 -60 0 0 -115 0 -115 -55 0 -55 0 0 -115 0 -115 -55 0 -55 0 0 -110 0
-110 -60 0 -60 0 0 -115 0 -115 -55 0 -55 0 0 -115 0 -115 -55 0 -55 0 0 -110
0 -110 -60 0 -60 0 0 -115 0 -115 -55 0 -55 0 0 -60 0 -60 -55 0 -55 0 0 285
0 285 55 0 55 0 0 60 0 60 55 0 55 0 0 110 0 110 60 0 60 0 0 115 0 115 55 0
55 0 0 115 0 115 55 0 55 0 0 55 0 55 60 0 60 0 0 115 0 115 55 0 55 0 0 170
0 170 55 0 55 0 0 115 0 115 60 0 60 0 0 -60z"/>
<path d="M16680 5725 l0 -1585 1590 0 1590 0 0 1585 0 1585 -1590 0 -1590 0 0
-1585z"/>
<path d="M1342 3903 l-2 -63 38 2 c36 1 36 1 5 5 -31 4 -32 5 -36 61 l-3 57
-2 -62z"/>
<path d="M1530 3901 c0 -57 1 -59 28 -59 34 0 52 14 52 43 0 27 -24 49 -45 41
-10 -4 -15 1 -15 14 0 11 -4 20 -10 20 -6 0 -10 -26 -10 -59z m59 0 c7 -13 6
-23 -3 -36 -16 -22 -36 -12 -36 19 0 39 22 49 39 17z"/>
<path d="M1740 3900 c0 -33 4 -60 10 -60 6 0 10 27 10 60 0 33 -4 60 -10 60
-6 0 -10 -27 -10 -60z"/>
<path d="M1852 3948 c-17 -17 -15 -83 3 -98 18 -15 45 -10 59 13 15 24 -5 52
-38 52 -14 -1 -26 2 -26 6 0 14 30 31 45 25 8 -3 15 -1 15 4 0 14 -44 12 -58
-2z m43 -68 c0 -27 -22 -39 -31 -16 -8 22 3 49 19 43 6 -2 12 -14 12 -27z"/>
<path d="M2006 3938 c-9 -12 -16 -29 -16 -38 0 -30 30 -60 60 -60 16 0 32 5
35 10 4 7 -2 9 -19 4 -34 -8 -56 10 -56 46 0 36 22 54 56 46 17 -5 23 -3 19 4
-12 19 -63 11 -79 -12z"/>
<path d="M2223 3900 c0 -36 2 -50 4 -32 2 17 2 47 0 65 -2 17 -4 3 -4 -33z"/>
<path d="M2490 3900 l0 -60 30 0 c34 0 70 31 70 60 0 29 -36 60 -70 60 l-30 0
0 -60z m61 40 c42 -23 16 -90 -35 -90 -12 0 -16 11 -16 50 0 53 10 61 51 40z"/>
<path d="M2749 3944 c-3 -10 -2 -37 1 -59 4 -34 9 -40 30 -42 14 -1 18 0 8 3
-13 4 -18 16 -18 40 0 25 4 34 18 35 13 0 14 2 2 6 -8 4 -20 13 -26 21 -9 13
-12 12 -15 -4z"/>
<path d="M2930 3901 c0 -57 1 -59 28 -59 34 0 52 14 52 43 0 27 -24 49 -45 41
-10 -4 -15 1 -15 14 0 11 -4 20 -10 20 -6 0 -10 -26 -10 -59z m64 -4 c8 -12 7
-21 -6 -33 -20 -20 -38 -11 -38 20 0 39 23 46 44 13z"/>
<path d="M5312 3903 l-2 -63 38 2 c36 1 36 1 5 5 -31 4 -32 5 -36 61 l-3 57
-2 -62z"/>
<path d="M5500 3901 c0 -57 1 -59 28 -59 34 0 52 14 52 43 0 27 -24 49 -45 41
-10 -4 -15 1 -15 14 0 11 -4 20 -10 20 -6 0 -10 -26 -10 -59z m59 0 c7 -13 6
-23 -3 -36 -16 -22 -36 -12 -36 19 0 39 22 49 39 17z"/>
<path d="M5710 3900 c0 -33 4 -60 10 -60 6 0 10 27 10 60 0 33 -4 60 -10 60
-6 0 -10 -27 -10 -60z"/>
<path d="M5815 3948 c-2 -7 -3 -33 -2 -58 2 -40 5 -45 28 -48 31 -4 54 21 44
45 -4 10 -8 29 -9 43 -1 20 -7 26 -29 28 -16 2 -29 -2 -32 -10z m51 -9 c9 -15
-11 -33 -30 -26 -9 4 -13 13 -10 22 7 17 30 20 40 4z m2 -62 c4 -20 -25 -34
-40 -19 -15 15 -1 44 19 40 10 -2 19 -11 21 -21z"/>
<path d="M5976 3938 c-9 -12 -16 -29 -16 -38 0 -30 30 -60 60 -60 16 0 32 5
35 10 4 7 -2 9 -19 4 -34 -8 -56 10 -56 46 0 36 22 54 56 46 17 -5 23 -3 19 4
-12 19 -63 11 -79 -12z"/>
<path d="M6193 3900 c0 -36 2 -50 4 -32 2 17 2 47 0 65 -2 17 -4 3 -4 -33z"/>
<path d="M6460 3900 l0 -60 30 0 c34 0 70 31 70 60 0 29 -36 60 -70 60 l-30 0
0 -60z m61 40 c42 -23 16 -90 -35 -90 -12 0 -16 11 -16 50 0 53 10 61 51 40z"/>
<path d="M6719 3944 c-3 -10 -2 -37 1 -59 4 -34 9 -40 30 -42 14 -1 18 0 8 3
-13 4 -18 16 -18 40 0 25 4 34 18 35 13 0 14 2 2 6 -8 4 -20 13 -26 21 -9 13
-12 12 -15 -4z"/>
<path d="M6900 3901 c0 -57 1 -59 28 -59 34 0 52 14 52 43 0 27 -24 49 -45 41
-10 -4 -15 1 -15 14 0 11 -4 20 -10 20 -6 0 -10 -26 -10 -59z m64 -4 c8 -12 7
-21 -6 -33 -20 -20 -38 -11 -38 20 0 39 23 46 44 13z"/>
<path d="M9282 3903 l-2 -63 38 2 c36 1 36 1 5 5 -31 4 -32 5 -36 61 l-3 57
-2 -62z"/>
<path d="M9470 3901 c0 -57 1 -59 28 -59 34 0 52 14 52 43 0 27 -24 49 -45 41
-10 -4 -15 1 -15 14 0 11 -4 20 -10 20 -6 0 -10 -26 -10 -59z m59 0 c7 -13 6
-23 -3 -36 -16 -22 -36 -12 -36 19 0 39 22 49 39 17z"/>
<path d="M9680 3900 c0 -33 4 -60 10 -60 6 0 10 27 10 60 0 33 -4 60 -10 60
-6 0 -10 -27 -10 -60z"/>
<path d="M9792 3948 c-17 -17 -15 -83 3 -98 37 -31 78 23 59 78 -10 30 -42 40
-62 20z m46 -43 c4 -45 -10 -64 -33 -45 -18 15 -20 61 -3 78 20 20 33 8 36
-33z"/>
<path d="M9946 3938 c-9 -12 -16 -29 -16 -38 0 -30 30 -60 60 -60 16 0 32 5
35 10 4 7 -2 9 -19 4 -34 -8 -56 10 -56 46 0 36 22 54 56 46 17 -5 23 -3 19 4
-12 19 -63 11 -79 -12z"/>
<path d="M10163 3900 c0 -36 2 -50 4 -32 2 17 2 47 0 65 -2 17 -4 3 -4 -33z"/>
<path d="M10430 3900 l0 -60 30 0 c34 0 70 31 70 60 0 29 -36 60 -70 60 l-30
0 0 -60z m61 40 c42 -23 16 -90 -35 -90 -12 0 -16 11 -16 50 0 53 10 61 51 40z"/>
<path d="M10689 3944 c-3 -10 -2 -37 1 -59 4 -34 9 -40 30 -42 14 -1 18 0 8 3
-13 4 -18 16 -18 40 0 25 4 34 18 35 13 0 14 2 2 6 -8 4 -20 13 -26 21 -9 13
-12 12 -15 -4z"/>
<path d="M10870 3901 c0 -57 1 -59 28 -59 34 0 52 14 52 43 0 27 -24 49 -45
41 -10 -4 -15 1 -15 14 0 11 -4 20 -10 20 -6 0 -10 -26 -10 -59z m64 -4 c8
-12 7 -21 -6 -33 -20 -20 -38 -11 -38 20 0 39 23 46 44 13z"/>
<path d="M13252 3903 l-2 -63 38 2 c36 1 36 1 5 5 -31 4 -32 5 -36 61 l-3 57
-2 -62z"/>
<path d="M13440 3901 c0 -57 1 -59 28 -59 34 0 52 14 52 43 0 27 -24 49 -45
41 -10 -4 -15 1 -15 14 0 11 -4 20 -10 20 -6 0 -10 -26 -10 -59z m59 0 c7 -13
6 -23 -3 -36 -16 -22 -36 -12 -36 19 0 39 22 49 39 17z"/>
<path d="M13650 3900 c0 -33 4 -60 10 -60 6 0 10 27 10 60 0 33 -4 60 -10 60
-6 0 -10 -27 -10 -60z"/>
<path d="M13755 3950 c-3 -5 1 -10 9 -10 24 0 22 -87 -1 -93 -10 -3 2 -5 27
-5 25 0 37 2 28 5 -14 4 -18 15 -18 59 0 47 -3 54 -19 54 -11 0 -23 -4 -26
-10z"/>
<path d="M13916 3938 c-9 -12 -16 -29 -16 -38 0 -30 30 -60 60 -60 16 0 32 5
35 10 4 7 -2 9 -19 4 -34 -8 -56 10 -56 46 0 36 22 54 56 46 17 -5 23 -3 19 4
-12 19 -63 11 -79 -12z"/>
<path d="M14133 3900 c0 -36 2 -50 4 -32 2 17 2 47 0 65 -2 17 -4 3 -4 -33z"/>
<path d="M14400 3900 l0 -60 30 0 c34 0 70 31 70 60 0 29 -36 60 -70 60 l-30
0 0 -60z m61 40 c42 -23 16 -90 -35 -90 -12 0 -16 11 -16 50 0 53 10 61 51 40z"/>
<path d="M14659 3944 c-3 -10 -2 -37 1 -59 4 -34 9 -40 30 -42 14 -1 18 0 8 3
-13 4 -18 16 -18 40 0 25 4 34 18 35 13 0 14 2 2 6 -8 4 -20 13 -26 21 -9 13
-12 12 -15 -4z"/>
<path d="M14840 3901 c0 -57 1 -59 28 -59 34 0 52 14 52 43 0 27 -24 49 -45
41 -10 -4 -15 1 -15 14 0 11 -4 20 -10 20 -6 0 -10 -26 -10 -59z m64 -4 c8
-12 7 -21 -6 -33 -20 -20 -38 -11 -38 20 0 39 23 46 44 13z"/>
<path d="M17222 3903 l-2 -63 38 2 c36 1 36 1 5 5 -31 4 -32 5 -36 61 l-3 57
-2 -62z"/>
<path d="M17410 3901 c0 -57 1 -59 28 -59 34 0 52 14 52 43 0 27 -24 49 -45
41 -10 -4 -15 1 -15 14 0 11 -4 20 -10 20 -6 0 -10 -26 -10 -59z m59 0 c7 -13
6 -23 -3 -36 -16 -22 -36 -12 -36 19 0 39 22 49 39 17z"/>
<path d="M17620 3900 c0 -33 4 -60 10 -60 6 0 10 27 10 60 0 33 -4 60 -10 60
-6 0 -10 -27 -10 -60z"/>
<path d="M17720 3949 c0 -6 8 -8 19 -4 10 3 23 -1 30 -9 10 -11 6 -21 -19 -49
-16 -19 -30 -37 -30 -41 0 -3 17 -5 38 -5 34 1 35 2 9 8 l-29 6 26 24 c29 27
34 66 10 75 -25 10 -54 7 -54 -5z"/>
<path d="M17886 3938 c-9 -12 -16 -29 -16 -38 0 -30 30 -60 60 -60 16 0 32 5
35 10 4 7 -2 9 -19 4 -34 -8 -56 10 -56 46 0 36 22 54 56 46 17 -5 23 -3 19 4
-12 19 -63 11 -79 -12z"/>
<path d="M18103 3900 c0 -36 2 -50 4 -32 2 17 2 47 0 65 -2 17 -4 3 -4 -33z"/>
<path d="M18370 3900 l0 -60 30 0 c34 0 70 31 70 60 0 29 -36 60 -70 60 l-30
0 0 -60z m61 40 c42 -23 16 -90 -35 -90 -12 0 -16 11 -16 50 0 53 10 61 51 40z"/>
<path d="M18629 3944 c-3 -10 -2 -37 1 -59 4 -34 9 -40 30 -42 14 -1 18 0 8 3
-13 4 -18 16 -18 40 0 25 4 34 18 35 13 0 14 2 2 6 -8 4 -20 13 -26 21 -9 13
-12 12 -15 -4z"/>
<path d="M18810 3901 c0 -57 1 -59 28 -59 34 0 52 14 52 43 0 27 -24 49 -45
41 -10 -4 -15 1 -15 14 0 11 -4 20 -10 20 -6 0 -10 -26 -10 -59z m64 -4 c8
-12 7 -21 -6 -33 -20 -20 -38 -11 -38 20 0 39 23 46 44 13z"/>
<path d="M3138 3939 c-2 -7 -1 -30 2 -53 4 -35 9 -41 30 -43 14 -1 18 0 8 3
-13 4 -18 16 -18 39 0 24 5 35 18 38 16 4 16 5 0 6 -10 0 -18 6 -18 11 0 14
-17 13 -22 -1z"/>
<path d="M7108 3939 c-2 -7 -1 -30 2 -53 4 -35 9 -41 30 -43 14 -1 18 0 8 3
-13 4 -18 16 -18 39 0 24 5 35 18 38 16 4 16 5 0 6 -10 0 -18 6 -18 11 0 14
-17 13 -22 -1z"/>
<path d="M11078 3939 c-2 -7 -1 -30 2 -53 4 -35 9 -41 30 -43 14 -1 18 0 8 3
-13 4 -18 16 -18 39 0 24 5 35 18 38 16 4 16 5 0 6 -10 0 -18 6 -18 11 0 14
-17 13 -22 -1z"/>
<path d="M15048 3939 c-2 -7 -1 -30 2 -53 4 -35 9 -41 30 -43 14 -1 18 0 8 3
-13 4 -18 16 -18 39 0 24 5 35 18 38 16 4 16 5 0 6 -10 0 -18 6 -18 11 0 14
-17 13 -22 -1z"/>
<path d="M19018 3939 c-2 -7 -1 -30 2 -53 4 -35 9 -41 30 -43 14 -1 18 0 8 3
-13 4 -18 16 -18 39 0 24 5 35 18 38 16 4 16 5 0 6 -10 0 -18 6 -18 11 0 14
-17 13 -22 -1z"/>
<path d="M1430 3921 c0 -5 8 -7 19 -4 10 3 22 0 25 -6 4 -7 -1 -11 -12 -11
-11 0 -25 -7 -32 -15 -18 -21 3 -44 41 -43 26 1 29 5 29 33 0 17 -5 36 -12 43
-14 14 -58 16 -58 3z m50 -45 c0 -8 -5 -18 -11 -22 -14 -8 -33 11 -25 25 10
16 36 13 36 -3z"/>
<path d="M1642 3918 c-7 -7 -12 -21 -12 -33 0 -12 5 -26 12 -33 13 -13 68 -17
68 -4 0 4 -12 8 -27 7 -14 0 -28 6 -30 13 -3 8 6 12 26 12 24 0 31 4 31 19 0
29 -45 42 -68 19z m56 -15 c2 -8 -6 -13 -22 -13 -25 0 -33 10 -19 24 10 10 36
3 41 -11z"/>
<path d="M2120 3916 c-28 -35 11 -93 48 -70 35 22 22 84 -18 84 -10 0 -23 -7
-30 -14z m49 -15 c7 -13 6 -24 -3 -37 -12 -15 -16 -16 -30 -5 -19 16 -20 33
-4 49 17 17 26 15 37 -7z"/>
<path d="M2270 3916 c-28 -35 11 -93 48 -70 35 22 22 84 -18 84 -10 0 -23 -7
-30 -14z m45 -32 c0 -32 -21 -39 -38 -12 -8 12 -7 21 3 32 19 24 35 14 35 -20z"/>
<path d="M2360 3883 c0 -23 5 -43 10 -43 6 0 10 16 10 35 0 28 5 38 23 44 19
8 18 9 -10 9 -32 -1 -33 -2 -33 -45z"/>
<path d="M2610 3885 c0 -25 5 -45 10 -45 6 0 10 20 10 45 0 25 -4 45 -10 45
-5 0 -10 -20 -10 -45z"/>
<path d="M2667 3923 c-15 -14 -6 -34 19 -43 28 -11 23 -35 -7 -27 -11 3 -19 1
-19 -4 0 -14 46 -11 59 5 12 15 2 27 -32 39 -24 9 -11 30 14 24 11 -3 19 -1
19 4 0 10 -43 12 -53 2z"/>
<path d="M2810 3883 c0 -23 5 -43 10 -43 6 0 10 13 10 29 0 19 8 35 21 45 21
14 21 15 -10 14 -30 -1 -31 -3 -31 -45z"/>
<path d="M2880 3885 c0 -25 5 -45 10 -45 6 0 10 20 10 45 0 25 -4 45 -10 45
-5 0 -10 -20 -10 -45z"/>
<path d="M3044 3890 c1 -44 2 -45 34 -46 32 -1 32 -1 30 45 -1 35 -2 39 -5 14
-5 -35 -29 -62 -43 -47 -5 5 -11 25 -13 44 -3 27 -4 25 -3 -10z"/>
<path d="M3210 3885 c0 -25 5 -45 10 -45 6 0 10 20 10 45 0 25 -4 45 -10 45
-5 0 -10 -20 -10 -45z"/>
<path d="M3260 3916 c-28 -35 11 -93 48 -70 35 22 22 84 -18 84 -10 0 -23 -7
-30 -14z m54 -19 c8 -12 7 -21 -6 -33 -20 -20 -38 -11 -38 20 0 39 23 46 44
13z"/>
<path d="M3362 3881 c1 -35 2 -39 5 -14 5 35 29 62 43 47 5 -5 11 -25 13 -44
3 -27 4 -25 3 10 -1 44 -2 45 -33 46 -33 1 -33 1 -31 -45z"/>
<path d="M5400 3921 c0 -5 8 -7 19 -4 10 3 22 0 25 -6 4 -7 -1 -11 -12 -11
-11 0 -25 -7 -32 -15 -18 -21 3 -44 41 -43 26 1 29 5 29 33 0 17 -5 36 -12 43
-14 14 -58 16 -58 3z m50 -45 c0 -8 -5 -18 -11 -22 -14 -8 -33 11 -25 25 10
16 36 13 36 -3z"/>
<path d="M5612 3918 c-7 -7 -12 -21 -12 -33 0 -12 5 -26 12 -33 13 -13 68 -17
68 -4 0 4 -12 8 -27 7 -14 0 -28 6 -30 13 -3 8 6 12 26 12 24 0 31 4 31 19 0
29 -45 42 -68 19z m56 -15 c2 -8 -6 -13 -22 -13 -25 0 -33 10 -19 24 10 10 36
3 41 -11z"/>
<path d="M6090 3916 c-28 -35 11 -93 48 -70 35 22 22 84 -18 84 -10 0 -23 -7
-30 -14z m49 -15 c7 -13 6 -24 -3 -37 -12 -15 -16 -16 -30 -5 -19 16 -20 33
-4 49 17 17 26 15 37 -7z"/>
<path d="M6240 3916 c-28 -35 11 -93 48 -70 35 22 22 84 -18 84 -10 0 -23 -7
-30 -14z m45 -32 c0 -32 -21 -39 -38 -12 -8 12 -7 21 3 32 19 24 35 14 35 -20z"/>
<path d="M6330 3883 c0 -23 5 -43 10 -43 6 0 10 16 10 35 0 28 5 38 23 44 19
8 18 9 -10 9 -32 -1 -33 -2 -33 -45z"/>
<path d="M6580 3885 c0 -25 5 -45 10 -45 6 0 10 20 10 45 0 25 -4 45 -10 45
-5 0 -10 -20 -10 -45z"/>
<path d="M6637 3923 c-15 -14 -6 -34 19 -43 28 -11 23 -35 -7 -27 -11 3 -19 1
-19 -4 0 -14 46 -11 59 5 12 15 2 27 -32 39 -24 9 -11 30 14 24 11 -3 19 -1
19 4 0 10 -43 12 -53 2z"/>
<path d="M6780 3883 c0 -23 5 -43 10 -43 6 0 10 13 10 29 0 19 8 35 21 45 21
14 21 15 -10 14 -30 -1 -31 -3 -31 -45z"/>
<path d="M6850 3885 c0 -25 5 -45 10 -45 6 0 10 20 10 45 0 25 -4 45 -10 45
-5 0 -10 -20 -10 -45z"/>
<path d="M7014 3890 c1 -44 2 -45 34 -46 32 -1 32 -1 30 45 -1 35 -2 39 -5 14
-5 -35 -29 -62 -43 -47 -5 5 -11 25 -13 44 -3 27 -4 25 -3 -10z"/>
<path d="M7180 3885 c0 -25 5 -45 10 -45 6 0 10 20 10 45 0 25 -4 45 -10 45
-5 0 -10 -20 -10 -45z"/>
<path d="M7230 3916 c-28 -35 11 -93 48 -70 35 22 22 84 -18 84 -10 0 -23 -7
-30 -14z m54 -19 c8 -12 7 -21 -6 -33 -20 -20 -38 -11 -38 20 0 39 23 46 44
13z"/>
<path d="M7332 3881 c1 -35 2 -39 5 -14 5 35 29 62 43 47 5 -5 11 -25 13 -44
3 -27 4 -25 3 10 -1 44 -2 45 -33 46 -33 1 -33 1 -31 -45z"/>
<path d="M9370 3921 c0 -5 8 -7 19 -4 10 3 22 0 25 -6 4 -7 -1 -11 -12 -11
-11 0 -25 -7 -32 -15 -18 -21 3 -44 41 -43 26 1 29 5 29 33 0 17 -5 36 -12 43
-14 14 -58 16 -58 3z m50 -45 c0 -8 -5 -18 -11 -22 -14 -8 -33 11 -25 25 10
16 36 13 36 -3z"/>
<path d="M9582 3918 c-7 -7 -12 -21 -12 -33 0 -12 5 -26 12 -33 13 -13 68 -17
68 -4 0 4 -12 8 -27 7 -14 0 -28 6 -30 13 -3 8 6 12 26 12 24 0 31 4 31 19 0
29 -45 42 -68 19z m56 -15 c2 -8 -6 -13 -22 -13 -25 0 -33 10 -19 24 10 10 36
3 41 -11z"/>
<path d="M10060 3916 c-28 -35 11 -93 48 -70 35 22 22 84 -18 84 -10 0 -23 -7
-30 -14z m49 -15 c7 -13 6 -24 -3 -37 -12 -15 -16 -16 -30 -5 -19 16 -20 33
-4 49 17 17 26 15 37 -7z"/>
<path d="M10210 3916 c-28 -35 11 -93 48 -70 35 22 22 84 -18 84 -10 0 -23 -7
-30 -14z m45 -32 c0 -32 -21 -39 -38 -12 -8 12 -7 21 3 32 19 24 35 14 35 -20z"/>
<path d="M10300 3883 c0 -23 5 -43 10 -43 6 0 10 16 10 35 0 28 5 38 23 44 19
8 18 9 -10 9 -32 -1 -33 -2 -33 -45z"/>
<path d="M10550 3885 c0 -25 5 -45 10 -45 6 0 10 20 10 45 0 25 -4 45 -10 45
-5 0 -10 -20 -10 -45z"/>
<path d="M10607 3923 c-15 -14 -6 -34 19 -43 28 -11 23 -35 -7 -27 -11 3 -19
1 -19 -4 0 -14 46 -11 59 5 12 15 2 27 -32 39 -24 9 -11 30 14 24 11 -3 19 -1
19 4 0 10 -43 12 -53 2z"/>
<path d="M10750 3883 c0 -23 5 -43 10 -43 6 0 10 13 10 29 0 19 8 35 21 45 21
14 21 15 -10 14 -30 -1 -31 -3 -31 -45z"/>
<path d="M10820 3885 c0 -25 5 -45 10 -45 6 0 10 20 10 45 0 25 -4 45 -10 45
-5 0 -10 -20 -10 -45z"/>
<path d="M10984 3890 c1 -44 2 -45 34 -46 32 -1 32 -1 30 45 -1 35 -2 39 -5
14 -5 -35 -29 -62 -43 -47 -5 5 -11 25 -13 44 -3 27 -4 25 -3 -10z"/>
<path d="M11150 3885 c0 -25 5 -45 10 -45 6 0 10 20 10 45 0 25 -4 45 -10 45
-5 0 -10 -20 -10 -45z"/>
<path d="M11200 3916 c-28 -35 11 -93 48 -70 35 22 22 84 -18 84 -10 0 -23 -7
-30 -14z m54 -19 c8 -12 7 -21 -6 -33 -20 -20 -38 -11 -38 20 0 39 23 46 44
13z"/>
<path d="M11302 3881 c1 -35 2 -39 5 -14 5 35 29 62 43 47 5 -5 11 -25 13 -44
3 -27 4 -25 3 10 -1 44 -2 45 -33 46 -33 1 -33 1 -31 -45z"/>
<path d="M13340 3921 c0 -5 8 -7 19 -4 10 3 22 0 25 -6 4 -7 -1 -11 -12 -11
-11 0 -25 -7 -32 -15 -18 -21 3 -44 41 -43 26 1 29 5 29 33 0 17 -5 36 -12 43
-14 14 -58 16 -58 3z m50 -45 c0 -8 -5 -18 -11 -22 -14 -8 -33 11 -25 25 10
16 36 13 36 -3z"/>
<path d="M13552 3918 c-7 -7 -12 -21 -12 -33 0 -12 5 -26 12 -33 13 -13 68
-17 68 -4 0 4 -12 8 -27 7 -14 0 -28 6 -30 13 -3 8 6 12 26 12 24 0 31 4 31
19 0 29 -45 42 -68 19z m56 -15 c2 -8 -6 -13 -22 -13 -25 0 -33 10 -19 24 10
10 36 3 41 -11z"/>
<path d="M14030 3916 c-28 -35 11 -93 48 -70 35 22 22 84 -18 84 -10 0 -23 -7
-30 -14z m49 -15 c7 -13 6 -24 -3 -37 -12 -15 -16 -16 -30 -5 -19 16 -20 33
-4 49 17 17 26 15 37 -7z"/>
<path d="M14180 3916 c-28 -35 11 -93 48 -70 35 22 22 84 -18 84 -10 0 -23 -7
-30 -14z m45 -32 c0 -32 -21 -39 -38 -12 -8 12 -7 21 3 32 19 24 35 14 35 -20z"/>
<path d="M14270 3883 c0 -23 5 -43 10 -43 6 0 10 16 10 35 0 28 5 38 23 44 19
8 18 9 -10 9 -32 -1 -33 -2 -33 -45z"/>
<path d="M14520 3885 c0 -25 5 -45 10 -45 6 0 10 20 10 45 0 25 -4 45 -10 45
-5 0 -10 -20 -10 -45z"/>
<path d="M14577 3923 c-15 -14 -6 -34 19 -43 28 -11 23 -35 -7 -27 -11 3 -19
1 -19 -4 0 -14 46 -11 59 5 12 15 2 27 -32 39 -24 9 -11 30 14 24 11 -3 19 -1
19 4 0 10 -43 12 -53 2z"/>
<path d="M14720 3883 c0 -23 5 -43 10 -43 6 0 10 13 10 29 0 19 8 35 21 45 21
14 21 15 -10 14 -30 -1 -31 -3 -31 -45z"/>
<path d="M14790 3885 c0 -25 5 -45 10 -45 6 0 10 20 10 45 0 25 -4 45 -10 45
-5 0 -10 -20 -10 -45z"/>
<path d="M14954 3890 c1 -44 2 -45 34 -46 32 -1 32 -1 30 45 -1 35 -2 39 -5
14 -5 -35 -29 -62 -43 -47 -5 5 -11 25 -13 44 -3 27 -4 25 -3 -10z"/>
<path d="M15120 3885 c0 -25 5 -45 10 -45 6 0 10 20 10 45 0 25 -4 45 -10 45
-5 0 -10 -20 -10 -45z"/>
<path d="M15170 3916 c-28 -35 11 -93 48 -70 35 22 22 84 -18 84 -10 0 -23 -7
-30 -14z m54 -19 c8 -12 7 -21 -6 -33 -20 -20 -38 -11 -38 20 0 39 23 46 44
13z"/>
<path d="M15272 3881 c1 -35 2 -39 5 -14 5 35 29 62 43 47 5 -5 11 -25 13 -44
3 -27 4 -25 3 10 -1 44 -2 45 -33 46 -33 1 -33 1 -31 -45z"/>
<path d="M17310 3921 c0 -5 8 -7 19 -4 10 3 22 0 25 -6 4 -7 -1 -11 -12 -11
-11 0 -25 -7 -32 -15 -18 -21 3 -44 41 -43 26 1 29 5 29 33 0 17 -5 36 -12 43
-14 14 -58 16 -58 3z m50 -45 c0 -8 -5 -18 -11 -22 -14 -8 -33 11 -25 25 10
16 36 13 36 -3z"/>
<path d="M17522 3918 c-7 -7 -12 -21 -12 -33 0 -12 5 -26 12 -33 13 -13 68
-17 68 -4 0 4 -12 8 -27 7 -14 0 -28 6 -30 13 -3 8 6 12 26 12 24 0 31 4 31
19 0 29 -45 42 -68 19z m56 -15 c2 -8 -6 -13 -22 -13 -25 0 -33 10 -19 24 10
10 36 3 41 -11z"/>
<path d="M18000 3916 c-28 -35 11 -93 48 -70 35 22 22 84 -18 84 -10 0 -23 -7
-30 -14z m49 -15 c7 -13 6 -24 -3 -37 -12 -15 -16 -16 -30 -5 -19 16 -20 33
-4 49 17 17 26 15 37 -7z"/>
<path d="M18150 3916 c-28 -35 11 -93 48 -70 35 22 22 84 -18 84 -10 0 -23 -7
-30 -14z m45 -32 c0 -32 -21 -39 -38 -12 -8 12 -7 21 3 32 19 24 35 14 35 -20z"/>
<path d="M18240 3883 c0 -23 5 -43 10 -43 6 0 10 16 10 35 0 28 5 38 23 44 19
8 18 9 -10 9 -32 -1 -33 -2 -33 -45z"/>
<path d="M18490 3885 c0 -25 5 -45 10 -45 6 0 10 20 10 45 0 25 -4 45 -10 45
-5 0 -10 -20 -10 -45z"/>
<path d="M18547 3923 c-15 -14 -6 -34 19 -43 28 -11 23 -35 -7 -27 -11 3 -19
1 -19 -4 0 -14 46 -11 59 5 12 15 2 27 -32 39 -24 9 -11 30 14 24 11 -3 19 -1
19 4 0 10 -43 12 -53 2z"/>
<path d="M18690 3883 c0 -23 5 -43 10 -43 6 0 10 13 10 29 0 19 8 35 21 45 21
14 21 15 -10 14 -30 -1 -31 -3 -31 -45z"/>
<path d="M18760 3885 c0 -25 5 -45 10 -45 6 0 10 20 10 45 0 25 -4 45 -10 45
-5 0 -10 -20 -10 -45z"/>
<path d="M18924 3890 c1 -44 2 -45 34 -46 32 -1 32 -1 30 45 -1 35 -2 39 -5
14 -5 -35 -29 -62 -43 -47 -5 5 -11 25 -13 44 -3 27 -4 25 -3 -10z"/>
<path d="M19090 3885 c0 -25 5 -45 10 -45 6 0 10 20 10 45 0 25 -4 45 -10 45
-5 0 -10 -20 -10 -45z"/>
<path d="M19140 3916 c-28 -35 11 -93 48 -70 35 22 22 84 -18 84 -10 0 -23 -7
-30 -14z m54 -19 c8 -12 7 -21 -6 -33 -20 -20 -38 -11 -38 20 0 39 23 46 44
13z"/>
<path d="M19242 3881 c1 -35 2 -39 5 -14 5 35 29 62 43 47 5 -5 11 -25 13 -44
3 -27 4 -25 3 10 -1 44 -2 45 -33 46 -33 1 -33 1 -31 -45z"/>
<path d="M800 3516 l0 -235 -27 -4 -28 -4 28 -2 27 -1 0 -359 0 -360 -27 -4
-28 -4 28 -2 27 -1 0 -354 0 -355 -27 -4 -28 -4 28 -2 27 -1 0 -354 0 -355
-27 -4 -28 -4 28 -2 27 -1 0 -354 0 -355 -27 -4 c-16 -2 101 -5 259 -6 l287
-1 4 -27 4 -28 2 28 1 27 1059 0 1060 0 4 -28 4 -27 2 28 1 27 260 0 260 0 0
1685 0 1685 -1590 0 -1590 0 0 -234z m3170 -1451 l0 -1675 -70 0 -70 0 0 535
0 535 -375 0 -375 0 0 -535 0 -535 -695 0 -695 0 0 1600 0 1600 -375 0 -375 0
0 -1600 0 -1600 -65 0 -65 0 0 1675 0 1675 1580 0 1580 0 0 -1675z"/>
<path d="M1181 3694 c-26 -33 -26 -44 -1 -44 11 0 20 -7 20 -15 0 -21 18 -19
22 3 5 26 -3 82 -12 82 -5 0 -18 -12 -29 -26z m19 -14 c0 -11 -7 -20 -15 -20
-13 0 -13 3 -3 20 7 11 14 20 15 20 2 0 3 -9 3 -20z"/>
<path d="M1257 3691 c-22 -37 -21 -41 3 -41 12 0 20 -7 20 -17 0 -15 2 -14 14
3 8 10 10 21 5 22 -5 2 -9 17 -9 33 0 37 -11 37 -33 0z m23 -11 c0 -11 -7 -20
-15 -20 -13 0 -14 4 -5 20 6 11 13 20 15 20 3 0 5 -9 5 -20z"/>
<path d="M1340 3714 c8 -3 22 -8 30 -11 13 -4 12 -6 -3 -18 -16 -11 -16 -13
-1 -19 22 -8 13 -29 -17 -38 -22 -6 -21 -7 6 -5 29 2 30 4 30 47 0 43 -1 45
-30 47 -16 1 -23 0 -15 -3z"/>
<path d="M1424 3706 c-9 -25 3 -46 27 -46 28 0 19 -23 -12 -31 -22 -6 -22 -7
-3 -8 30 -1 46 22 42 61 -2 25 -8 34 -26 36 -13 2 -25 -3 -28 -12z m41 -17 c0
-7 -8 -15 -17 -17 -18 -3 -25 18 -11 32 10 10 28 1 28 -15z"/>
<path d="M3300 1579 c0 -5 5 -7 10 -4 6 4 10 -10 10 -34 0 -22 -5 -42 -12 -44
-7 -3 3 -5 22 -5 19 0 27 2 18 5 -14 3 -18 15 -18 49 0 32 -4 44 -15 44 -8 0
-15 -5 -15 -11z"/>
<path d="M3387 1561 c-22 -37 -21 -41 3 -41 12 0 20 -7 20 -17 0 -15 2 -14 14
3 8 10 10 21 5 22 -5 2 -9 17 -9 33 0 37 -11 37 -33 0z m23 -11 c0 -11 -7 -20
-15 -20 -13 0 -14 4 -5 20 6 11 13 20 15 20 3 0 5 -9 5 -20z"/>
<path d="M3482 1583 l27 -4 -19 -45 c-11 -24 -16 -44 -11 -44 8 0 41 76 41 93
0 4 -15 6 -32 6 -30 -2 -30 -2 -6 -6z"/>
<path d="M3554 1576 c-9 -25 3 -46 27 -46 28 0 19 -23 -12 -31 -22 -6 -22 -7
-3 -8 30 -1 46 22 42 61 -2 25 -8 34 -26 36 -13 2 -25 -3 -28 -12z m41 -17 c0
-7 -8 -15 -17 -17 -18 -3 -25 18 -11 32 10 10 28 1 28 -15z"/>
<path d="M4770 3556 l0 -195 -27 -4 -28 -4 28 -2 27 -1 0 -364 0 -365 -27 -4
-28 -4 28 -2 27 -1 0 -369 0 -370 -27 -4 -28 -4 28 -2 27 -1 0 -364 0 -365
-27 -4 -28 -4 28 -2 27 -1 0 -364 0 -365 -27 -4 c-16 -2 101 -5 259 -6 l287
-1 4 -27 4 -28 2 28 1 27 1059 0 1060 0 4 -28 4 -27 2 28 1 27 260 0 260 0 0
1685 0 1685 -1590 0 -1590 0 0 -194z m3170 -1491 l0 -1675 -70 0 -70 0 0 570
0 570 -375 0 -375 0 0 -570 0 -570 -695 0 -695 0 0 1600 0 1600 -375 0 -375 0
0 -1600 0 -1600 -65 0 -65 0 0 1675 0 1675 1580 0 1580 0 0 -1675z"/>
<path d="M5151 3694 c-26 -33 -26 -44 -1 -44 11 0 20 -7 20 -15 0 -21 18 -19
22 3 5 26 -3 82 -12 82 -5 0 -18 -12 -29 -26z m19 -14 c0 -11 -7 -20 -15 -20
-13 0 -13 3 -3 20 7 11 14 20 15 20 2 0 3 -9 3 -20z"/>
<path d="M5229 3712 c29 -9 40 -32 15 -32 -17 0 -17 -1 1 -13 22 -17 11 -41
-16 -34 -11 3 -19 1 -19 -4 0 -14 46 -11 59 4 6 8 8 17 4 20 -3 4 -6 19 -7 34
-1 24 -6 28 -31 30 -27 2 -28 1 -6 -5z"/>
<path d="M5318 3713 c20 -8 15 -81 -5 -86 -10 -3 -2 -5 17 -5 19 0 29 2 23 5
-8 3 -13 23 -13 49 0 36 -3 44 -17 43 -11 0 -13 -3 -5 -6z"/>
<path d="M5390 3701 c0 -13 8 -21 23 -23 31 -4 29 -40 -3 -50 -23 -6 -23 -7 5
-5 25 2 31 7 33 29 3 22 -2 29 -22 34 -34 8 -33 22 2 27 25 4 25 4 -5 6 -26 1
-33 -3 -33 -18z"/>
<path d="M7270 1649 c0 -5 5 -7 10 -4 6 4 10 -10 10 -34 0 -22 -5 -42 -12 -44
-7 -3 3 -5 22 -5 19 0 27 2 18 5 -14 3 -18 15 -18 49 0 32 -4 44 -15 44 -8 0
-15 -5 -15 -11z"/>
<path d="M7340 1641 c0 -13 8 -21 23 -23 14 -2 22 -10 22 -23 0 -14 -6 -20
-22 -19 -13 0 -23 -3 -23 -8 0 -5 12 -8 28 -6 21 2 28 9 30 31 3 22 -1 30 -17
34 -28 7 -27 21 2 26 16 3 13 5 -10 6 -26 1 -33 -3 -33 -18z"/>
<path d="M7440 1654 c8 -3 22 -8 30 -11 13 -4 12 -6 -3 -18 -16 -11 -16 -13
-1 -19 22 -8 13 -29 -17 -38 -22 -6 -21 -7 6 -5 29 2 30 4 30 47 0 43 -1 45
-30 47 -16 1 -23 0 -15 -3z"/>
<path d="M7531 1646 c-7 -8 -11 -30 -9 -48 4 -38 34 -51 54 -23 18 25 0 59
-27 52 -13 -3 -19 -1 -16 6 2 6 14 14 28 18 22 6 22 7 3 8 -12 1 -27 -5 -33
-13z m36 -42 c8 -21 -13 -42 -28 -27 -13 13 -5 43 11 43 6 0 13 -7 17 -16z"/>
<path d="M8740 3521 l0 -230 -27 -4 -28 -4 28 -2 27 -1 0 -359 0 -360 -27 -4
-28 -4 28 -2 27 -1 0 -354 0 -355 -27 -4 -28 -4 28 -2 27 -1 0 -359 0 -360
-27 -4 -28 -4 28 -2 27 -1 0 -354 0 -355 -27 -4 c-16 -2 101 -5 259 -6 l287
-1 4 -27 4 -28 2 28 1 27 1059 0 1060 0 4 -28 4 -27 2 28 1 27 260 0 260 0 0
1685 0 1685 -1590 0 -1590 0 0 -229z m3170 -1456 l0 -1675 -70 0 -70 0 0 540
0 540 -375 0 -375 0 0 -540 0 -540 -695 0 -695 0 0 1600 0 1600 -375 0 -375 0
0 -1600 0 -1600 -65 0 -65 0 0 1675 0 1675 1580 0 1580 0 0 -1675z"/>
<path d="M9121 3694 c-26 -33 -26 -44 -1 -44 11 0 20 -7 20 -15 0 -21 18 -19
22 3 5 26 -3 82 -12 82 -5 0 -18 -12 -29 -26z m19 -14 c0 -11 -7 -20 -15 -20
-13 0 -13 3 -3 20 7 11 14 20 15 20 2 0 3 -9 3 -20z"/>
<path d="M9197 3691 c-22 -37 -21 -41 3 -41 12 0 20 -7 20 -17 0 -15 2 -14 14
3 8 10 10 21 5 22 -5 2 -9 17 -9 33 0 37 -11 37 -33 0z m23 -11 c0 -11 -7 -20
-15 -20 -13 0 -14 4 -5 20 6 11 13 20 15 20 3 0 5 -9 5 -20z"/>
<path d="M9270 3712 c0 -6 8 -8 19 -5 31 8 35 -17 7 -46 -34 -35 -33 -41 7
-40 25 1 27 3 9 6 l-24 5 22 23 c29 30 23 59 -13 63 -15 2 -27 -1 -27 -6z"/>
<path d="M9371 3706 c-7 -8 -11 -30 -9 -48 4 -38 34 -51 54 -23 18 25 0 59
-27 52 -13 -3 -19 -1 -16 6 2 6 14 14 28 18 22 6 22 7 3 8 -12 1 -27 -5 -33
-13z m36 -42 c8 -21 -13 -42 -28 -27 -13 13 -5 43 11 43 6 0 13 -7 17 -16z"/>
<path d="M11240 1589 c0 -5 5 -7 10 -4 6 4 10 -10 10 -34 0 -22 -5 -42 -12
-44 -7 -3 3 -5 22 -5 19 0 27 2 18 5 -14 3 -18 15 -18 49 0 32 -4 44 -15 44
-8 0 -15 -5 -15 -11z"/>
<path d="M11327 1571 c-22 -37 -21 -41 3 -41 12 0 20 -7 20 -17 0 -15 2 -14
14 3 8 10 10 21 5 22 -5 2 -9 17 -9 33 0 37 -11 37 -33 0z m23 -11 c0 -11 -7
-20 -15 -20 -13 0 -14 4 -5 20 6 11 13 20 15 20 3 0 5 -9 5 -20z"/>
<path d="M11404 1585 c-9 -24 3 -45 27 -45 28 0 19 -23 -12 -31 -20 -6 -21 -7
-4 -8 11 0 25 3 31 7 18 12 26 50 14 72 -13 23 -48 27 -56 5z m42 -6 c10 -17
-13 -36 -27 -22 -12 12 -4 33 11 33 5 0 12 -5 16 -11z"/>
<path d="M11508 1593 c26 -5 27 -12 8 -58 -8 -19 -11 -35 -6 -35 6 0 40 81 40
97 0 2 -15 2 -32 2 -24 -1 -27 -3 -10 -6z"/>
<path d="M12710 3676 c0 -74 0 -75 -27 -79 l-28 -4 28 -2 27 -1 0 -314 0 -315
-27 -4 -28 -4 28 -2 27 -1 0 -314 0 -315 -27 -4 -28 -4 28 -2 27 -1 0 -319 0
-320 -27 -4 -28 -4 28 -2 27 -1 0 -314 0 -315 -27 -4 -28 -4 28 -2 27 -1 0
-314 0 -315 -27 -4 c-16 -2 101 -5 259 -6 l287 -1 4 -27 4 -28 2 28 1 27 1059
0 1060 0 4 -28 4 -27 2 28 1 27 260 0 260 0 0 1685 0 1685 -1590 0 -1590 0 0
-74z m3170 -1611 l0 -1675 -70 0 -70 0 0 1600 0 1600 -375 0 -375 0 0 -1600 0
-1600 -695 0 -695 0 0 565 0 565 -375 0 -375 0 0 -565 0 -565 -65 0 -65 0 0
1675 0 1675 1580 0 1580 0 0 -1675z"/>
<path d="M15221 3694 c-26 -33 -26 -44 -1 -44 11 0 20 -7 20 -15 0 -21 18 -19
22 3 5 26 -3 82 -12 82 -5 0 -18 -12 -29 -26z m19 -14 c0 -11 -7 -20 -15 -20
-13 0 -13 3 -3 20 7 11 14 20 15 20 2 0 3 -9 3 -20z"/>
<path d="M15284 3705 c-9 -23 3 -45 26 -45 27 0 26 -18 -2 -30 l-23 -9 23 0
c31 -1 50 39 34 74 -13 28 -49 34 -58 10z m44 -18 c2 -10 -3 -17 -12 -17 -18
0 -29 16 -21 31 9 14 29 6 33 -14z"/>
<path d="M15376 3708 c-3 -7 -4 -29 -3 -48 2 -27 7 -36 23 -38 25 -4 49 22 38
40 -5 7 -8 22 -9 33 0 23 -43 34 -49 13z m44 -13 c0 -8 -6 -15 -14 -15 -17 0
-28 14 -19 24 12 12 33 6 33 -9z m0 -45 c0 -21 -24 -28 -35 -10 -8 14 3 30 21
30 8 0 14 -9 14 -20z"/>
<path d="M15460 3701 c0 -13 8 -21 23 -23 31 -4 29 -40 -3 -50 -23 -6 -23 -7
5 -5 25 2 31 7 33 29 3 22 -2 29 -22 34 -34 8 -33 22 2 27 25 4 25 4 -5 6 -26
1 -33 -3 -33 -18z"/>
<path d="M13070 1639 c0 -5 5 -7 10 -4 6 4 10 -10 10 -34 0 -22 -5 -42 -12
-44 -7 -3 3 -5 22 -5 19 0 27 2 18 5 -14 3 -18 15 -18 49 0 32 -4 44 -15 44
-8 0 -15 -5 -15 -11z"/>
<path d="M13162 1643 c28 -4 28 -4 13 -40 -21 -51 -17 -66 6 -18 26 56 24 65
-13 64 -31 -2 -31 -2 -6 -6z"/>
<path d="M13230 1631 c0 -13 8 -21 23 -23 31 -4 29 -40 -3 -50 -23 -6 -23 -7
5 -5 25 2 31 7 33 30 3 22 -1 30 -17 34 -28 7 -27 21 2 26 16 3 13 5 -10 6
-26 1 -33 -3 -33 -18z"/>
<path d="M13338 1643 c26 -5 27 -12 8 -58 -8 -19 -11 -35 -6 -35 6 0 40 81 40
97 0 2 -15 2 -32 2 -24 -1 -27 -3 -10 -6z"/>
<path d="M16680 3496 l0 -255 -27 -4 -28 -4 28 -2 27 -1 0 -349 0 -350 -27 -4
-28 -4 28 -2 27 -1 0 -349 0 -350 -27 -4 -28 -4 28 -2 27 -1 0 -354 0 -355
-27 -4 -28 -4 28 -2 27 -1 0 -349 0 -350 -27 -4 c-16 -2 101 -5 259 -6 l287
-1 4 -27 4 -28 2 28 1 27 1059 0 1060 0 4 -28 4 -27 2 28 1 27 260 0 260 0 0
1685 0 1685 -1590 0 -1590 0 0 -254z m3170 -1431 l0 -1675 -70 0 -70 0 0 525
0 525 -375 0 -375 0 0 -525 0 -525 -695 0 -695 0 0 1600 0 1600 -375 0 -375 0
0 -1600 0 -1600 -65 0 -65 0 0 1675 0 1675 1580 0 1580 0 0 -1675z"/>
<path d="M17061 3694 c-26 -33 -26 -44 -1 -44 11 0 20 -7 20 -15 0 -21 18 -19
22 3 5 26 -3 82 -12 82 -5 0 -18 -12 -29 -26z m19 -14 c0 -11 -7 -20 -15 -20
-13 0 -13 3 -3 20 7 11 14 20 15 20 2 0 3 -9 3 -20z"/>
<path d="M17137 3691 c-22 -37 -21 -41 3 -41 12 0 20 -7 20 -17 0 -15 2 -14
14 3 8 10 10 21 5 22 -5 2 -9 17 -9 33 0 37 -11 37 -33 0z m23 -11 c0 -11 -7
-20 -15 -20 -13 0 -14 4 -5 20 6 11 13 20 15 20 3 0 5 -9 5 -20z"/>
<path d="M17214 3705 c-9 -24 3 -45 27 -45 28 0 19 -23 -12 -31 -20 -6 -21 -7
-4 -8 11 0 25 3 31 7 18 12 26 50 14 72 -13 23 -48 27 -56 5z m42 -6 c10 -17
-13 -36 -27 -22 -12 12 -4 33 11 33 5 0 12 -5 16 -11z"/>
<path d="M17304 3707 c-3 -8 -4 -30 -2 -49 2 -28 7 -33 28 -33 23 0 25 4 25
45 0 39 -3 45 -23 48 -13 2 -24 -3 -28 -11z m41 -38 c0 -24 -5 -34 -15 -34
-16 0 -25 37 -16 62 10 26 31 8 31 -28z"/>
<path d="M19180 1559 c0 -5 5 -7 10 -4 6 4 10 -10 10 -34 0 -22 -5 -42 -12
-44 -7 -3 3 -5 22 -5 19 0 27 2 18 5 -14 3 -18 15 -18 49 0 32 -4 44 -15 44
-8 0 -15 -5 -15 -11z"/>
<path d="M19267 1541 c-22 -37 -21 -41 3 -41 12 0 20 -7 20 -17 0 -15 2 -14
14 3 8 10 10 21 5 22 -5 2 -9 17 -9 33 0 37 -11 37 -33 0z m23 -11 c0 -11 -7
-20 -15 -20 -13 0 -14 4 -5 20 6 11 13 20 15 20 3 0 5 -9 5 -20z"/>
<path d="M19352 1558 c-32 -32 1 -104 36 -81 24 15 21 46 -5 58 -13 5 -23 13
-23 17 0 3 10 9 23 11 20 4 20 4 2 6 -12 0 -26 -4 -33 -11z m38 -53 c0 -15
-18 -30 -26 -22 -3 3 -7 17 -8 31 -3 22 -1 24 15 15 11 -5 19 -16 19 -24z"/>
<path d="M19436 1558 c-3 -7 -4 -29 -3 -48 2 -30 5 -35 27 -35 23 0 25 4 25
45 0 39 -3 45 -23 48 -12 2 -24 -3 -26 -10z m39 -9 c10 -15 -1 -23 -20 -15 -9
3 -13 10 -10 16 8 13 22 13 30 -1z m1 -40 c10 -17 -13 -36 -27 -22 -12 12 -4
33 11 33 5 0 12 -5 16 -11z"/>
<path d="M12270 3631 c0 -13 8 -21 23 -23 14 -2 22 -10 22 -23 0 -14 -6 -20
-22 -19 -13 0 -23 -3 -23 -8 0 -15 49 -8 59 9 11 21 -3 53 -24 53 -24 0 -17
18 8 23 16 3 13 5 -10 6 -26 1 -33 -3 -33 -18z"/>
<path d="M12354 3625 c-10 -39 3 -75 26 -75 29 0 47 42 32 75 -7 15 -20 25
-32 25 -13 0 -22 -9 -26 -25z m41 -26 c0 -24 -5 -34 -15 -34 -16 0 -25 37 -16
62 10 26 31 8 31 -28z"/>
<path d="M12444 3636 c-3 -8 -4 -29 -2 -48 2 -25 8 -34 25 -36 31 -5 51 37 35
73 -13 27 -49 34 -58 11z m41 -37 c0 -24 -5 -34 -15 -34 -16 0 -25 37 -16 62
10 26 31 8 31 -28z"/>
<path d="M12534 3637 c-3 -8 -4 -30 -2 -49 2 -28 7 -33 28 -33 23 0 25 4 25
45 0 39 -3 45 -23 48 -13 2 -24 -3 -28 -11z m41 -38 c0 -24 -5 -34 -15 -34
-16 0 -25 37 -16 62 10 26 31 8 31 -28z"/>
<path d="M4351 3374 c-26 -33 -26 -44 -1 -44 11 0 20 -7 20 -15 0 -21 18 -19
22 3 5 26 -3 82 -12 82 -5 0 -18 -12 -29 -26z m19 -14 c0 -11 -7 -20 -15 -20
-13 0 -13 3 -3 20 7 11 14 20 15 20 2 0 3 -9 3 -20z"/>
<path d="M4414 3375 c-10 -39 3 -75 26 -75 29 0 47 42 32 75 -7 15 -20 25 -32
25 -13 0 -22 -9 -26 -25z m41 -26 c0 -24 -5 -34 -15 -34 -16 0 -25 37 -16 62
10 26 31 8 31 -28z"/>
<path d="M4504 3386 c-3 -8 -4 -29 -2 -48 2 -25 8 -34 25 -36 31 -5 51 37 35
73 -13 27 -49 34 -58 11z m41 -37 c0 -24 -5 -34 -15 -34 -16 0 -25 37 -16 62
10 26 31 8 31 -28z"/>
<path d="M4594 3387 c-3 -8 -4 -30 -2 -49 2 -28 7 -33 28 -33 23 0 25 4 25 45
0 39 -3 45 -23 48 -13 2 -24 -3 -28 -11z m41 -38 c0 -24 -5 -34 -15 -34 -16 0
-25 37 -16 62 10 26 31 8 31 -28z"/>
<path d="M8321 3304 c-26 -33 -26 -44 -1 -44 11 0 20 -7 20 -15 0 -21 18 -19
22 3 5 26 -3 82 -12 82 -5 0 -18 -12 -29 -26z m19 -14 c0 -11 -7 -20 -15 -20
-13 0 -13 3 -3 20 7 11 14 20 15 20 2 0 3 -9 3 -20z"/>
<path d="M8384 3305 c-10 -39 3 -75 26 -75 12 0 25 10 32 25 15 33 -3 75 -32
75 -13 0 -22 -9 -26 -25z m41 -26 c0 -24 -5 -34 -15 -34 -16 0 -25 37 -16 62
10 26 31 8 31 -28z"/>
<path d="M8474 3316 c-3 -8 -4 -29 -2 -48 2 -25 8 -34 25 -36 31 -5 51 37 35
73 -13 27 -49 34 -58 11z m41 -37 c0 -24 -5 -34 -15 -34 -16 0 -25 37 -16 62
10 26 31 8 31 -28z"/>
<path d="M8564 3317 c-3 -8 -4 -30 -2 -49 2 -28 7 -33 28 -33 23 0 25 4 25 45
0 39 -3 45 -23 48 -13 2 -24 -3 -28 -11z m41 -38 c0 -24 -5 -34 -15 -34 -16 0
-25 37 -16 62 10 26 31 8 31 -28z"/>
<path d="M381 3294 c-26 -33 -26 -44 -1 -44 11 0 20 -7 20 -15 0 -21 18 -19
22 3 5 26 -3 82 -12 82 -5 0 -18 -12 -29 -26z m19 -14 c0 -11 -7 -20 -15 -20
-13 0 -13 3 -3 20 7 11 14 20 15 20 2 0 3 -9 3 -20z"/>
<path d="M444 3295 c-10 -39 3 -75 26 -75 12 0 25 10 32 25 15 33 -3 75 -32
75 -13 0 -22 -9 -26 -25z m41 -26 c0 -24 -5 -34 -15 -34 -16 0 -25 37 -16 62
10 26 31 8 31 -28z"/>
<path d="M534 3306 c-3 -8 -4 -29 -2 -48 2 -25 8 -34 25 -36 31 -5 51 37 35
73 -13 27 -49 34 -58 11z m41 -37 c0 -24 -5 -34 -15 -34 -16 0 -25 37 -16 62
10 26 31 8 31 -28z"/>
<path d="M624 3307 c-3 -8 -4 -30 -2 -49 2 -28 7 -33 28 -33 23 0 25 4 25 45
0 39 -3 45 -23 48 -13 2 -24 -3 -28 -11z m41 -38 c0 -24 -5 -34 -15 -34 -16 0
-25 37 -16 62 10 26 31 8 31 -28z"/>
<path d="M16261 3264 c-26 -33 -26 -44 -1 -44 11 0 20 -7 20 -15 0 -21 18 -19
22 3 5 26 -3 82 -12 82 -5 0 -18 -12 -29 -26z m19 -14 c0 -11 -7 -20 -15 -20
-13 0 -13 3 -3 20 7 11 14 20 15 20 2 0 3 -9 3 -20z"/>
<path d="M16324 3265 c-10 -39 3 -75 26 -75 29 0 47 42 32 75 -7 15 -20 25
-32 25 -13 0 -22 -9 -26 -25z m41 -26 c0 -24 -5 -34 -15 -34 -16 0 -25 37 -16
62 10 26 31 8 31 -28z"/>
<path d="M16414 3276 c-3 -8 -4 -29 -2 -48 2 -25 8 -34 25 -36 31 -5 51 37 35
73 -13 27 -49 34 -58 11z m41 -37 c0 -24 -5 -34 -15 -34 -16 0 -25 37 -16 62
10 26 31 8 31 -28z"/>
<path d="M16504 3277 c-3 -8 -4 -30 -2 -49 2 -28 7 -33 28 -33 23 0 25 4 25
45 0 39 -3 45 -23 48 -13 2 -24 -3 -28 -11z m41 -38 c0 -24 -5 -34 -15 -34
-16 0 -25 37 -16 62 10 26 31 8 31 -28z"/>
<path d="M12291 2984 c-26 -33 -26 -44 -1 -44 11 0 20 -7 20 -15 0 -21 18 -19
22 3 5 26 -3 82 -12 82 -5 0 -18 -12 -29 -26z m19 -14 c0 -11 -7 -20 -15 -20
-13 0 -13 3 -3 20 7 11 14 20 15 20 2 0 3 -9 3 -20z"/>
<path d="M12354 2985 c-10 -39 3 -75 26 -75 29 0 47 42 32 75 -7 15 -20 25
-32 25 -13 0 -22 -9 -26 -25z m41 -26 c0 -24 -5 -34 -15 -34 -16 0 -25 37 -16
62 10 26 31 8 31 -28z"/>
<path d="M12444 2996 c-3 -8 -4 -29 -2 -48 2 -25 8 -34 25 -36 31 -5 51 37 35
73 -13 27 -49 34 -58 11z m41 -37 c0 -24 -5 -34 -15 -34 -16 0 -25 37 -16 62
10 26 31 8 31 -28z"/>
<path d="M12534 2997 c-3 -8 -4 -30 -2 -49 2 -28 7 -33 28 -33 23 0 25 4 25
45 0 39 -3 45 -23 48 -13 2 -24 -3 -28 -11z m41 -38 c0 -24 -5 -34 -15 -34
-16 0 -25 37 -16 62 10 26 31 8 31 -28z"/>
<path d="M4358 2650 c26 -11 29 -30 5 -30 -15 0 -15 -1 2 -13 22 -17 11 -41
-16 -34 -11 3 -19 1 -19 -4 0 -15 46 -10 60 6 6 8 8 20 4 27 -5 7 -8 22 -9 33
0 14 -8 21 -25 22 -25 3 -25 3 -2 -7z"/>
<path d="M4414 2635 c-10 -39 3 -75 26 -75 29 0 47 42 32 75 -7 15 -20 25 -32
25 -13 0 -22 -9 -26 -25z m41 -26 c0 -24 -5 -34 -15 -34 -16 0 -25 37 -16 62
10 26 31 8 31 -28z"/>
<path d="M4504 2646 c-3 -8 -4 -29 -2 -48 2 -25 8 -34 25 -36 31 -5 51 37 35
73 -13 27 -49 34 -58 11z m41 -37 c0 -24 -5 -34 -15 -34 -16 0 -25 37 -16 62
10 26 31 8 31 -28z"/>
<path d="M4594 2647 c-3 -8 -4 -30 -2 -49 2 -28 7 -33 28 -33 23 0 25 4 25 45
0 39 -3 45 -23 48 -13 2 -24 -3 -28 -11z m41 -38 c0 -24 -5 -34 -15 -34 -16 0
-25 37 -16 62 10 26 31 8 31 -28z"/>
<path d="M8328 2600 c26 -11 29 -30 5 -30 -15 0 -15 -1 2 -13 22 -17 11 -41
-16 -34 -11 3 -19 1 -19 -4 0 -15 46 -10 60 6 6 8 8 20 4 27 -5 7 -8 22 -9 33
0 14 -8 21 -25 22 -25 3 -25 3 -2 -7z"/>
<path d="M8384 2585 c-10 -39 3 -75 26 -75 12 0 25 10 32 25 15 33 -3 75 -32
75 -13 0 -22 -9 -26 -25z m41 -26 c0 -24 -5 -34 -15 -34 -16 0 -25 37 -16 62
10 26 31 8 31 -28z"/>
<path d="M8474 2596 c-3 -8 -4 -29 -2 -48 2 -25 8 -34 25 -36 31 -5 51 37 35
73 -13 27 -49 34 -58 11z m41 -37 c0 -24 -5 -34 -15 -34 -16 0 -25 37 -16 62
10 26 31 8 31 -28z"/>
<path d="M8564 2597 c-3 -8 -4 -30 -2 -49 2 -28 7 -33 28 -33 23 0 25 4 25 45
0 39 -3 45 -23 48 -13 2 -24 -3 -28 -11z m41 -38 c0 -24 -5 -34 -15 -34 -16 0
-25 37 -16 62 10 26 31 8 31 -28z"/>
<path d="M388 2590 c26 -11 29 -30 5 -30 -15 0 -15 -1 2 -13 22 -17 11 -41
-16 -34 -11 3 -19 1 -19 -4 0 -15 46 -10 60 6 6 8 8 20 4 27 -5 7 -8 22 -9 33
0 14 -8 21 -25 22 -25 3 -25 3 -2 -7z"/>
<path d="M444 2575 c-10 -39 3 -75 26 -75 12 0 25 10 32 25 15 33 -3 75 -32
75 -13 0 -22 -9 -26 -25z m41 -26 c0 -24 -5 -34 -15 -34 -16 0 -25 37 -16 62
10 26 31 8 31 -28z"/>
<path d="M534 2586 c-3 -8 -4 -29 -2 -48 2 -25 8 -34 25 -36 31 -5 51 37 35
73 -13 27 -49 34 -58 11z m41 -37 c0 -24 -5 -34 -15 -34 -16 0 -25 37 -16 62
10 26 31 8 31 -28z"/>
<path d="M624 2587 c-3 -8 -4 -30 -2 -49 2 -28 7 -33 28 -33 23 0 25 4 25 45
0 39 -3 45 -23 48 -13 2 -24 -3 -28 -11z m41 -38 c0 -24 -5 -34 -15 -34 -16 0
-25 37 -16 62 10 26 31 8 31 -28z"/>
<path d="M16268 2560 c26 -11 29 -30 5 -30 -15 0 -15 -1 2 -13 22 -17 11 -41
-16 -34 -11 3 -19 1 -19 -4 0 -15 46 -10 60 6 6 8 8 20 4 27 -5 7 -8 22 -9 33
0 14 -8 21 -25 22 -25 3 -25 3 -2 -7z"/>
<path d="M16324 2545 c-10 -39 3 -75 26 -75 12 0 25 10 32 25 15 33 -3 75 -32
75 -13 0 -22 -9 -26 -25z m41 -26 c0 -24 -5 -34 -15 -34 -16 0 -25 37 -16 62
10 26 31 8 31 -28z"/>
<path d="M16414 2556 c-3 -8 -4 -29 -2 -48 2 -25 8 -34 25 -36 31 -5 51 37 35
73 -13 27 -49 34 -58 11z m41 -37 c0 -24 -5 -34 -15 -34 -16 0 -25 37 -16 62
10 26 31 8 31 -28z"/>
<path d="M16504 2557 c-3 -8 -4 -30 -2 -49 2 -28 7 -33 28 -33 23 0 25 4 25
45 0 39 -3 45 -23 48 -13 2 -24 -3 -28 -11z m41 -38 c0 -24 -5 -34 -15 -34
-16 0 -25 37 -16 62 10 26 31 8 31 -28z"/>
<path d="M12298 2350 c26 -11 29 -30 5 -30 -15 0 -15 -1 2 -13 22 -17 11 -41
-16 -34 -11 3 -19 1 -19 -4 0 -15 46 -10 60 6 6 8 8 20 4 27 -5 7 -8 22 -9 33
0 14 -8 21 -25 22 -25 3 -25 3 -2 -7z"/>
<path d="M12354 2335 c-10 -39 3 -75 26 -75 29 0 47 42 32 75 -7 15 -20 25
-32 25 -13 0 -22 -9 -26 -25z m41 -26 c0 -24 -5 -34 -15 -34 -16 0 -25 37 -16
62 10 26 31 8 31 -28z"/>
<path d="M12444 2346 c-3 -8 -4 -29 -2 -48 2 -25 8 -34 25 -36 31 -5 51 37 35
73 -13 27 -49 34 -58 11z m41 -37 c0 -24 -5 -34 -15 -34 -16 0 -25 37 -16 62
10 26 31 8 31 -28z"/>
<path d="M12534 2347 c-3 -8 -4 -30 -2 -49 2 -28 7 -33 28 -33 23 0 25 4 25
45 0 39 -3 45 -23 48 -13 2 -24 -3 -28 -11z m41 -38 c0 -24 -5 -34 -15 -34
-16 0 -25 37 -16 62 10 26 31 8 31 -28z"/>
<path d="M181 2238 c0 -10 -7 -18 -13 -18 -10 0 -10 -2 0 -9 7 -4 29 -5 50 -2
26 5 38 12 40 26 2 18 2 19 -8 3 -6 -10 -22 -18 -35 -18 -14 0 -25 7 -28 18
-4 16 -5 16 -6 0z"/>
<path d="M4151 2238 c0 -10 -7 -18 -13 -18 -10 0 -10 -2 0 -9 7 -4 29 -5 50
-2 26 5 38 12 40 26 2 18 2 19 -8 3 -6 -10 -22 -18 -35 -18 -14 0 -25 7 -28
18 -4 16 -5 16 -6 0z"/>
<path d="M8121 2238 c0 -10 -7 -18 -13 -18 -10 0 -10 -2 0 -9 7 -4 29 -5 50
-2 26 5 38 12 40 26 2 18 2 19 -8 3 -6 -10 -22 -18 -35 -18 -14 0 -25 7 -28
18 -4 16 -5 16 -6 0z"/>
<path d="M12091 2238 c0 -10 -7 -18 -13 -18 -10 0 -10 -2 0 -9 7 -4 29 -5 50
-2 26 5 38 12 40 26 2 18 2 19 -8 3 -6 -10 -22 -18 -35 -18 -14 0 -25 7 -28
18 -4 16 -5 16 -6 0z"/>
<path d="M16061 2238 c0 -10 -7 -18 -13 -18 -10 0 -10 -2 0 -9 7 -4 29 -5 50
-2 26 5 38 12 40 26 2 18 2 19 -8 3 -6 -10 -22 -18 -35 -18 -14 0 -25 7 -28
18 -4 16 -5 16 -6 0z"/>
<path d="M192 2178 c-7 -7 -12 -22 -12 -35 0 -20 5 -23 40 -23 22 0 40 5 40
10 0 6 -16 10 -35 10 -24 0 -35 5 -35 15 0 10 11 15 35 15 19 0 35 5 35 10 0
14 -54 12 -68 -2z"/>
<path d="M4162 2178 c-7 -7 -12 -22 -12 -35 0 -20 5 -23 40 -23 22 0 40 5 40
10 0 6 -16 10 -35 10 -24 0 -35 5 -35 15 0 10 11 15 35 15 19 0 35 5 35 10 0
14 -54 12 -68 -2z"/>
<path d="M8132 2178 c-7 -7 -12 -22 -12 -35 0 -20 5 -23 40 -23 22 0 40 5 40
10 0 6 -16 10 -35 10 -24 0 -35 5 -35 15 0 10 11 15 35 15 19 0 35 5 35 10 0
14 -54 12 -68 -2z"/>
<path d="M12102 2178 c-7 -7 -12 -22 -12 -35 0 -20 5 -23 40 -23 22 0 40 5 40
10 0 6 -16 10 -35 10 -24 0 -35 5 -35 15 0 10 11 15 35 15 19 0 35 5 35 10 0
14 -54 12 -68 -2z"/>
<path d="M16072 2178 c-7 -7 -12 -22 -12 -35 0 -20 5 -23 40 -23 22 0 40 5 40
10 0 6 -16 10 -35 10 -24 0 -35 5 -35 15 0 10 11 15 35 15 19 0 35 5 35 10 0
14 -54 12 -68 -2z"/>
<path d="M180 2091 c0 -6 14 -11 32 -13 46 -4 49 -28 4 -28 -20 0 -36 -4 -36
-10 0 -14 54 -12 68 2 7 7 12 22 12 35 0 20 -5 23 -40 23 -22 0 -40 -4 -40 -9z"/>
<path d="M4150 2091 c0 -6 14 -11 32 -13 46 -4 49 -28 4 -28 -20 0 -36 -4 -36
-10 0 -14 54 -12 68 2 7 7 12 22 12 35 0 20 -5 23 -40 23 -22 0 -40 -4 -40 -9z"/>
<path d="M8120 2091 c0 -6 14 -11 32 -13 46 -4 49 -28 4 -28 -20 0 -36 -4 -36
-10 0 -14 54 -12 68 2 7 7 12 22 12 35 0 20 -5 23 -40 23 -22 0 -40 -4 -40 -9z"/>
<path d="M12090 2091 c0 -6 14 -11 32 -13 46 -4 49 -28 4 -28 -20 0 -36 -4
-36 -10 0 -14 54 -12 68 2 7 7 12 22 12 35 0 20 -5 23 -40 23 -22 0 -40 -4
-40 -9z"/>
<path d="M16060 2091 c0 -6 14 -11 32 -13 46 -4 49 -28 4 -28 -20 0 -36 -4
-36 -10 0 -14 54 -12 68 2 7 7 12 22 12 35 0 20 -5 23 -40 23 -22 0 -40 -4
-40 -9z"/>
<path d="M184 1996 c-12 -30 4 -47 38 -44 28 2 33 7 33 28 0 21 -5 26 -33 28
-22 2 -34 -2 -38 -12z m61 -16 c0 -18 -33 -26 -47 -12 -6 6 -7 15 -3 22 10 16
50 8 50 -10z"/>
<path d="M4154 1996 c-12 -30 4 -47 38 -44 28 2 33 7 33 28 0 21 -5 26 -33 28
-22 2 -34 -2 -38 -12z m61 -16 c0 -18 -33 -26 -47 -12 -6 6 -7 15 -3 22 10 16
50 8 50 -10z"/>
<path d="M8124 1996 c-12 -30 4 -47 38 -44 28 2 33 7 33 28 0 21 -5 26 -33 28
-22 2 -34 -2 -38 -12z m61 -16 c0 -18 -33 -26 -47 -12 -6 6 -7 15 -3 22 10 16
50 8 50 -10z"/>
<path d="M12094 1996 c-12 -30 4 -47 38 -44 28 2 33 7 33 28 0 21 -5 26 -33
28 -22 2 -34 -2 -38 -12z m61 -16 c0 -18 -33 -26 -47 -12 -6 6 -7 15 -3 22 10
16 50 8 50 -10z"/>
<path d="M16064 1996 c-12 -30 4 -47 38 -44 28 2 33 7 33 28 0 21 -5 26 -33
28 -22 2 -34 -2 -38 -12z m61 -16 c0 -18 -33 -26 -47 -12 -6 6 -7 15 -3 22 10
16 50 8 50 -10z"/>
<path d="M167 1933 c-11 -11 -8 -48 5 -61 7 -7 24 -12 38 -12 14 0 31 5 38 12
13 13 16 54 4 62 -4 2 -8 -7 -7 -21 0 -14 -8 -31 -17 -37 -25 -16 -53 4 -53
38 1 29 1 29 -8 19z"/>
<path d="M4137 1933 c-11 -11 -8 -48 5 -61 7 -7 24 -12 38 -12 14 0 31 5 38
12 13 13 16 54 4 62 -4 2 -8 -7 -7 -21 0 -14 -8 -31 -17 -37 -25 -16 -53 4
-53 38 1 29 1 29 -8 19z"/>
<path d="M8107 1933 c-11 -11 -8 -48 5 -61 7 -7 24 -12 38 -12 14 0 31 5 38
12 13 13 16 54 4 62 -4 2 -8 -7 -7 -21 0 -14 -8 -31 -17 -37 -25 -16 -53 4
-53 38 1 29 1 29 -8 19z"/>
<path d="M12077 1933 c-11 -11 -8 -48 5 -61 7 -7 24 -12 38 -12 14 0 31 5 38
12 13 13 16 54 4 62 -4 2 -8 -7 -7 -21 0 -14 -8 -31 -17 -37 -25 -16 -53 4
-53 38 1 29 1 29 -8 19z"/>
<path d="M16047 1933 c-11 -11 -8 -48 5 -61 7 -7 24 -12 38 -12 14 0 31 5 38
12 13 13 16 54 4 62 -4 2 -8 -7 -7 -21 0 -14 -8 -31 -17 -37 -25 -16 -53 4
-53 38 1 29 1 29 -8 19z"/>
<path d="M4336 1912 c-3 -6 2 -8 13 -5 31 8 35 -17 7 -46 -34 -35 -33 -41 7
-40 25 1 27 3 9 6 l-24 5 22 23 c12 13 20 31 18 42 -3 19 -42 30 -52 15z"/>
<path d="M4424 1895 c-10 -39 3 -75 26 -75 12 0 25 10 32 25 15 33 -3 75 -32
75 -13 0 -22 -9 -26 -25z m41 -26 c0 -24 -5 -34 -15 -34 -16 0 -25 37 -16 62
10 26 31 8 31 -28z"/>
<path d="M4514 1906 c-3 -8 -4 -29 -2 -48 2 -25 8 -34 25 -36 31 -5 51 37 35
73 -13 27 -49 34 -58 11z m41 -37 c0 -24 -5 -34 -15 -34 -16 0 -25 37 -16 62
10 26 31 8 31 -28z"/>
<path d="M4604 1907 c-3 -8 -4 -30 -2 -49 2 -28 7 -33 28 -33 23 0 25 4 25 45
0 39 -3 45 -23 48 -13 2 -24 -3 -28 -11z m41 -38 c0 -24 -5 -34 -15 -34 -16 0
-25 37 -16 62 10 26 31 8 31 -28z"/>
<path d="M366 1872 c-3 -6 2 -8 13 -5 31 8 35 -17 7 -46 -34 -35 -33 -41 7
-40 25 1 27 3 9 6 l-24 5 22 23 c12 13 20 31 18 42 -3 19 -42 30 -52 15z"/>
<path d="M454 1855 c-10 -39 3 -75 26 -75 12 0 25 10 32 25 15 33 -3 75 -32
75 -13 0 -22 -9 -26 -25z m41 -26 c0 -24 -5 -34 -15 -34 -16 0 -25 37 -16 62
10 26 31 8 31 -28z"/>
<path d="M544 1866 c-3 -8 -4 -29 -2 -48 2 -25 8 -34 25 -36 31 -5 51 37 35
73 -13 27 -49 34 -58 11z m41 -37 c0 -24 -5 -34 -15 -34 -16 0 -25 37 -16 62
10 26 31 8 31 -28z"/>
<path d="M634 1867 c-3 -8 -4 -30 -2 -49 2 -28 7 -33 28 -33 23 0 25 4 25 45
0 39 -3 45 -23 48 -13 2 -24 -3 -28 -11z m41 -38 c0 -24 -5 -34 -15 -34 -16 0
-25 37 -16 62 10 26 31 8 31 -28z"/>
<path d="M8306 1872 c-3 -6 2 -8 13 -5 31 8 35 -17 7 -46 -34 -35 -33 -41 7
-40 25 1 27 3 9 6 l-24 5 22 23 c12 13 20 31 18 42 -3 19 -42 30 -52 15z"/>
<path d="M8394 1855 c-10 -39 3 -75 26 -75 12 0 25 10 32 25 15 33 -3 75 -32
75 -13 0 -22 -9 -26 -25z m41 -26 c0 -24 -5 -34 -15 -34 -16 0 -25 37 -16 62
10 26 31 8 31 -28z"/>
<path d="M8484 1866 c-3 -8 -4 -29 -2 -48 2 -25 8 -34 25 -36 31 -5 51 37 35
73 -13 27 -49 34 -58 11z m41 -37 c0 -24 -5 -34 -15 -34 -16 0 -25 37 -16 62
10 26 31 8 31 -28z"/>
<path d="M8574 1867 c-3 -8 -4 -30 -2 -49 2 -28 7 -33 28 -33 23 0 25 4 25 45
0 39 -3 45 -23 48 -13 2 -24 -3 -28 -11z m41 -38 c0 -24 -5 -34 -15 -34 -16 0
-25 37 -16 62 10 26 31 8 31 -28z"/>
<path d="M16246 1852 c-3 -6 2 -8 13 -5 31 8 35 -17 7 -46 -34 -35 -33 -41 7
-40 25 1 27 3 9 6 l-24 5 22 23 c12 13 20 31 18 42 -3 19 -42 30 -52 15z"/>
<path d="M16334 1835 c-10 -39 3 -75 26 -75 12 0 25 10 32 25 15 33 -3 75 -32
75 -13 0 -22 -9 -26 -25z m41 -26 c0 -24 -5 -34 -15 -34 -16 0 -25 37 -16 62
10 26 31 8 31 -28z"/>
<path d="M16424 1846 c-3 -8 -4 -29 -2 -48 2 -25 8 -34 25 -36 31 -5 51 37 35
73 -13 27 -49 34 -58 11z m41 -37 c0 -24 -5 -34 -15 -34 -16 0 -25 37 -16 62
10 26 31 8 31 -28z"/>
<path d="M16514 1847 c-3 -8 -4 -30 -2 -49 2 -28 7 -33 28 -33 23 0 25 4 25
45 0 39 -3 45 -23 48 -13 2 -24 -3 -28 -11z m41 -38 c0 -24 -5 -34 -15 -34
-16 0 -25 37 -16 62 10 26 31 8 31 -28z"/>
<path d="M12276 1712 c-3 -6 2 -8 13 -5 31 8 35 -17 7 -46 -34 -35 -33 -41 7
-40 25 1 27 3 9 6 l-24 5 22 23 c12 13 20 31 18 42 -3 19 -42 30 -52 15z"/>
<path d="M12364 1695 c-10 -39 3 -75 26 -75 29 0 47 42 32 75 -7 15 -20 25
-32 25 -13 0 -22 -9 -26 -25z m41 -26 c0 -24 -5 -34 -15 -34 -16 0 -25 37 -16
62 10 26 31 8 31 -28z"/>
<path d="M12454 1706 c-3 -8 -4 -29 -2 -48 2 -25 8 -34 25 -36 31 -5 51 37 35
73 -13 27 -49 34 -58 11z m41 -37 c0 -24 -5 -34 -15 -34 -16 0 -25 37 -16 62
10 26 31 8 31 -28z"/>
<path d="M12544 1707 c-3 -8 -4 -30 -2 -49 2 -28 7 -33 28 -33 23 0 25 4 25
45 0 39 -3 45 -23 48 -13 2 -24 -3 -28 -11z m41 -38 c0 -24 -5 -34 -15 -34
-16 0 -25 37 -16 62 10 26 31 8 31 -28z"/>
<path d="M4340 1169 c0 -5 5 -7 10 -4 6 4 10 -10 10 -34 0 -22 -5 -42 -12 -44
-7 -3 3 -5 22 -5 19 0 27 2 18 5 -14 3 -18 15 -18 49 0 32 -4 44 -15 44 -8 0
-15 -5 -15 -11z"/>
<path d="M4414 1155 c-10 -39 3 -75 26 -75 29 0 47 42 32 75 -7 15 -20 25 -32
25 -13 0 -22 -9 -26 -25z m41 -26 c0 -24 -5 -34 -15 -34 -16 0 -25 37 -16 62
10 26 31 8 31 -28z"/>
<path d="M4504 1166 c-3 -8 -4 -29 -2 -48 2 -25 8 -34 25 -36 31 -5 51 37 35
73 -13 27 -49 34 -58 11z m41 -37 c0 -24 -5 -34 -15 -34 -16 0 -25 37 -16 62
10 26 31 8 31 -28z"/>
<path d="M4594 1167 c-3 -8 -4 -30 -2 -49 2 -28 7 -33 28 -33 23 0 25 4 25 45
0 39 -3 45 -23 48 -13 2 -24 -3 -28 -11z m41 -38 c0 -24 -5 -34 -15 -34 -16 0
-25 37 -16 62 10 26 31 8 31 -28z"/>
<path d="M8310 1149 c0 -5 5 -7 10 -4 6 4 10 -10 10 -34 0 -22 -5 -42 -12 -44
-7 -3 3 -5 22 -5 19 0 27 2 18 5 -14 3 -18 15 -18 49 0 32 -4 44 -15 44 -8 0
-15 -5 -15 -11z"/>
<path d="M8384 1135 c-10 -39 3 -75 26 -75 12 0 25 10 32 25 15 33 -3 75 -32
75 -13 0 -22 -9 -26 -25z m41 -26 c0 -24 -5 -34 -15 -34 -16 0 -25 37 -16 62
10 26 31 8 31 -28z"/>
<path d="M8474 1146 c-3 -8 -4 -29 -2 -48 2 -25 8 -34 25 -36 31 -5 51 37 35
73 -13 27 -49 34 -58 11z m41 -37 c0 -24 -5 -34 -15 -34 -16 0 -25 37 -16 62
10 26 31 8 31 -28z"/>
<path d="M8564 1147 c-3 -8 -4 -30 -2 -49 2 -28 7 -33 28 -33 23 0 25 4 25 45
0 39 -3 45 -23 48 -13 2 -24 -3 -28 -11z m41 -38 c0 -24 -5 -34 -15 -34 -16 0
-25 37 -16 62 10 26 31 8 31 -28z"/>
<path d="M370 1139 c0 -5 5 -7 10 -4 6 4 10 -10 10 -34 0 -22 -5 -42 -12 -44
-7 -3 3 -5 22 -5 19 0 27 2 18 5 -14 3 -18 15 -18 49 0 32 -4 44 -15 44 -8 0
-15 -5 -15 -11z"/>
<path d="M444 1125 c-10 -39 3 -75 26 -75 12 0 25 10 32 25 15 33 -3 75 -32
75 -13 0 -22 -9 -26 -25z m41 -26 c0 -24 -5 -34 -15 -34 -16 0 -25 37 -16 62
10 26 31 8 31 -28z"/>
<path d="M534 1136 c-3 -8 -4 -29 -2 -48 2 -25 8 -34 25 -36 31 -5 51 37 35
73 -13 27 -49 34 -58 11z m41 -37 c0 -24 -5 -34 -15 -34 -16 0 -25 37 -16 62
10 26 31 8 31 -28z"/>
<path d="M624 1137 c-3 -8 -4 -30 -2 -49 2 -28 7 -33 28 -33 23 0 25 4 25 45
0 39 -3 45 -23 48 -13 2 -24 -3 -28 -11z m41 -38 c0 -24 -5 -34 -15 -34 -16 0
-25 37 -16 62 10 26 31 8 31 -28z"/>
<path d="M16250 1139 c0 -5 5 -7 10 -4 6 4 10 -10 10 -34 0 -22 -5 -42 -12
-44 -7 -3 3 -5 22 -5 19 0 27 2 18 5 -14 3 -18 15 -18 49 0 32 -4 44 -15 44
-8 0 -15 -5 -15 -11z"/>
<path d="M16324 1125 c-10 -39 3 -75 26 -75 29 0 47 42 32 75 -7 15 -20 25
-32 25 -13 0 -22 -9 -26 -25z m41 -26 c0 -24 -5 -34 -15 -34 -16 0 -25 37 -16
62 10 26 31 8 31 -28z"/>
<path d="M16414 1136 c-3 -8 -4 -29 -2 -48 2 -25 8 -34 25 -36 31 -5 51 37 35
73 -13 27 -49 34 -58 11z m41 -37 c0 -24 -5 -34 -15 -34 -16 0 -25 37 -16 62
10 26 31 8 31 -28z"/>
<path d="M16504 1137 c-3 -8 -4 -30 -2 -49 2 -28 7 -33 28 -33 23 0 25 4 25
45 0 39 -3 45 -23 48 -13 2 -24 -3 -28 -11z m41 -38 c0 -24 -5 -34 -15 -34
-16 0 -25 37 -16 62 10 26 31 8 31 -28z"/>
<path d="M12280 1069 c0 -5 5 -7 10 -4 6 4 10 -10 10 -34 0 -22 -5 -42 -12
-44 -7 -3 3 -5 22 -5 19 0 27 2 18 5 -14 3 -18 15 -18 49 0 32 -4 44 -15 44
-8 0 -15 -5 -15 -11z"/>
<path d="M12354 1055 c-10 -39 3 -75 26 -75 29 0 47 42 32 75 -7 15 -20 25
-32 25 -13 0 -22 -9 -26 -25z m41 -26 c0 -24 -5 -34 -15 -34 -16 0 -25 37 -16
62 10 26 31 8 31 -28z"/>
<path d="M12444 1066 c-3 -8 -4 -29 -2 -48 2 -25 8 -34 25 -36 31 -5 51 37 35
73 -13 27 -49 34 -58 11z m41 -37 c0 -24 -5 -34 -15 -34 -16 0 -25 37 -16 62
10 26 31 8 31 -28z"/>
<path d="M12534 1067 c-3 -8 -4 -30 -2 -49 2 -28 7 -33 28 -33 23 0 25 4 25
45 0 39 -3 45 -23 48 -13 2 -24 -3 -28 -11z m41 -38 c0 -24 -5 -34 -15 -34
-16 0 -25 37 -16 62 10 26 31 8 31 -28z"/>
<path d="M642 418 c-17 -17 -15 -63 4 -79 22 -18 48 0 52 35 6 45 -29 71 -56
44z m38 -18 c11 -21 -2 -60 -20 -60 -5 0 -12 9 -15 20 -7 23 2 60 15 60 5 0
14 -9 20 -20z"/>
<path d="M4612 418 c-17 -17 -15 -63 4 -79 22 -18 48 0 52 35 6 45 -29 71 -56
44z m38 -18 c11 -21 -2 -60 -20 -60 -13 0 -22 37 -15 60 3 11 10 20 15 20 5 0
14 -9 20 -20z"/>
<path d="M8582 418 c-17 -17 -15 -63 4 -79 22 -18 48 0 52 35 6 45 -29 71 -56
44z m38 -18 c11 -21 -2 -60 -20 -60 -13 0 -22 37 -15 60 3 11 10 20 15 20 5 0
14 -9 20 -20z"/>
<path d="M12552 418 c-17 -17 -15 -63 4 -79 22 -18 48 0 52 35 6 45 -29 71
-56 44z m38 -18 c11 -21 -2 -60 -20 -60 -13 0 -22 37 -15 60 3 11 10 20 15 20
5 0 14 -9 20 -20z"/>
<path d="M16522 418 c-17 -17 -15 -63 4 -79 22 -18 48 0 52 35 6 45 -29 71
-56 44z m38 -18 c11 -21 -2 -60 -20 -60 -13 0 -22 37 -15 60 3 11 10 20 15 20
5 0 14 -9 20 -20z"/>
<path d="M1420 271 c0 -14 -5 -18 -19 -14 -13 3 -23 -2 -30 -16 -16 -30 2 -61
34 -59 23 2 25 6 25 55 0 29 -2 53 -5 53 -3 0 -5 -9 -5 -19z m-5 -51 c0 -13
-6 -25 -12 -27 -16 -6 -27 21 -19 43 9 23 31 11 31 -16z"/>
<path d="M5390 271 c0 -14 -5 -18 -19 -14 -13 3 -23 -2 -30 -16 -16 -30 2 -61
34 -59 23 2 25 6 25 55 0 29 -2 53 -5 53 -3 0 -5 -9 -5 -19z m-5 -51 c0 -13
-6 -25 -12 -27 -16 -6 -27 21 -19 43 9 23 31 11 31 -16z"/>
<path d="M9360 271 c0 -14 -5 -18 -19 -14 -13 3 -23 -2 -30 -16 -16 -30 2 -61
34 -59 23 2 25 6 25 55 0 29 -2 53 -5 53 -3 0 -5 -9 -5 -19z m-5 -51 c0 -13
-6 -25 -12 -27 -16 -6 -27 21 -19 43 9 23 31 11 31 -16z"/>
<path d="M13330 271 c0 -14 -5 -18 -19 -14 -13 3 -23 -2 -30 -16 -16 -30 2
-61 34 -59 23 2 25 6 25 55 0 29 -2 53 -5 53 -3 0 -5 -9 -5 -19z m-5 -51 c0
-13 -6 -25 -12 -27 -16 -6 -27 21 -19 43 9 23 31 11 31 -16z"/>
<path d="M17300 271 c0 -14 -5 -18 -19 -14 -13 3 -23 -2 -30 -16 -16 -30 2
-61 34 -59 23 2 25 6 25 55 0 29 -2 53 -5 53 -3 0 -5 -9 -5 -19z m-5 -51 c0
-13 -6 -25 -12 -27 -16 -6 -27 21 -19 43 9 23 31 11 31 -16z"/>
<path d="M1200 231 c0 -28 5 -51 10 -51 6 0 10 11 10 25 0 32 15 32 36 -1 12
-17 19 -21 24 -14 5 9 9 9 14 1 4 -6 17 -11 29 -10 21 1 21 1 -2 8 -38 10 -38
31 -1 31 33 0 37 15 8 34 -21 13 -48 -8 -48 -37 0 -11 -3 -17 -7 -13 -4 4 -7
21 -8 39 0 29 -3 32 -32 35 l-33 3 0 -50z m50 24 c0 -8 -7 -15 -15 -15 -8 0
-15 7 -15 15 0 8 7 15 15 15 8 0 15 -7 15 -15z m85 -15 c4 -6 -5 -10 -20 -10
-15 0 -24 4 -20 10 3 6 12 10 20 10 8 0 17 -4 20 -10z"/>
<path d="M3271 266 c-16 -19 -10 -66 10 -79 9 -5 28 -7 42 -3 20 5 27 13 27
31 0 19 -5 25 -22 24 -13 0 -17 -3 -10 -6 6 -2 12 -14 12 -25 0 -14 -6 -19
-21 -16 -52 8 -48 73 4 73 14 -1 23 3 21 7 -8 13 -51 9 -63 -6z"/>
<path d="M5170 231 c0 -28 5 -51 10 -51 6 0 10 11 10 25 0 32 15 32 36 -1 12
-17 19 -21 24 -14 5 9 9 9 14 1 4 -6 17 -11 29 -10 21 1 21 1 -2 8 -38 10 -38
31 -1 31 33 0 37 15 8 34 -21 13 -48 -8 -48 -37 0 -11 -3 -17 -7 -13 -4 4 -7
21 -8 39 0 29 -3 32 -32 35 l-33 3 0 -50z m50 24 c0 -8 -7 -15 -15 -15 -8 0
-15 7 -15 15 0 8 7 15 15 15 8 0 15 -7 15 -15z m85 -15 c4 -6 -5 -10 -20 -10
-15 0 -24 4 -20 10 3 6 12 10 20 10 8 0 17 -4 20 -10z"/>
<path d="M7241 266 c-16 -19 -10 -66 10 -79 9 -5 28 -7 42 -3 20 5 27 13 27
31 0 19 -5 25 -22 24 -13 0 -17 -3 -10 -6 6 -2 12 -14 12 -25 0 -14 -6 -19
-21 -16 -52 8 -48 73 4 73 14 -1 23 3 21 7 -8 13 -51 9 -63 -6z"/>
<path d="M9140 231 c0 -28 5 -51 10 -51 6 0 10 11 10 25 0 32 15 32 36 -1 12
-17 19 -21 24 -14 5 9 9 9 14 1 4 -6 17 -11 29 -10 21 1 21 1 -2 8 -38 10 -38
31 -1 31 33 0 37 15 8 34 -21 13 -48 -8 -48 -37 0 -11 -3 -17 -7 -13 -4 4 -7
21 -8 39 0 29 -3 32 -32 35 l-33 3 0 -50z m50 24 c0 -8 -7 -15 -15 -15 -8 0
-15 7 -15 15 0 8 7 15 15 15 8 0 15 -7 15 -15z m85 -15 c4 -6 -5 -10 -20 -10
-15 0 -24 4 -20 10 3 6 12 10 20 10 8 0 17 -4 20 -10z"/>
<path d="M11211 266 c-16 -19 -10 -66 10 -79 9 -5 28 -7 42 -3 20 5 27 13 27
31 0 19 -5 25 -22 24 -13 0 -17 -3 -10 -6 6 -2 12 -14 12 -25 0 -14 -6 -19
-21 -16 -52 8 -48 73 4 73 14 -1 23 3 21 7 -8 13 -51 9 -63 -6z"/>
<path d="M13110 231 c0 -28 5 -51 10 -51 6 0 10 11 10 25 0 32 15 32 36 -1 12
-17 19 -21 24 -14 5 9 9 9 14 1 4 -6 17 -11 29 -10 21 1 21 1 -2 8 -38 10 -38
31 -1 31 33 0 37 15 8 34 -21 13 -48 -8 -48 -37 0 -11 -3 -17 -7 -13 -4 4 -7
21 -8 39 0 29 -3 32 -32 35 l-33 3 0 -50z m50 24 c0 -8 -7 -15 -15 -15 -8 0
-15 7 -15 15 0 8 7 15 15 15 8 0 15 -7 15 -15z m85 -15 c4 -6 -5 -10 -20 -10
-15 0 -24 4 -20 10 3 6 12 10 20 10 8 0 17 -4 20 -10z"/>
<path d="M15181 266 c-16 -19 -10 -66 10 -79 9 -5 28 -7 42 -3 20 5 27 13 27
31 0 19 -5 25 -22 24 -13 0 -17 -3 -10 -6 6 -2 12 -14 12 -25 0 -14 -6 -19
-21 -16 -52 8 -48 73 4 73 14 -1 23 3 21 7 -8 13 -51 9 -63 -6z"/>
<path d="M17080 231 c0 -28 5 -51 10 -51 6 0 10 11 10 25 0 32 15 32 36 -1 12
-17 19 -21 24 -14 5 9 9 9 14 1 4 -6 17 -11 29 -10 21 1 21 1 -2 8 -38 10 -38
31 -1 31 33 0 37 15 8 34 -21 13 -48 -8 -48 -37 0 -11 -3 -17 -7 -13 -4 4 -7
21 -8 39 0 29 -3 32 -32 35 l-33 3 0 -50z m50 24 c0 -8 -7 -15 -15 -15 -8 0
-15 7 -15 15 0 8 7 15 15 15 8 0 15 -7 15 -15z m85 -15 c4 -6 -5 -10 -20 -10
-15 0 -24 4 -20 10 3 6 12 10 20 10 8 0 17 -4 20 -10z"/>
<path d="M19151 266 c-16 -19 -10 -66 10 -79 9 -5 28 -7 42 -3 20 5 27 13 27
31 0 19 -5 25 -22 24 -13 0 -17 -3 -10 -6 6 -2 12 -14 12 -25 0 -14 -6 -19
-21 -16 -52 8 -48 73 4 73 14 -1 23 3 21 7 -8 13 -51 9 -63 -6z"/>
<path d="M3361 215 c1 -41 3 -40 13 7 3 14 14 29 24 31 9 3 5 4 -10 4 -26 -1
-28 -4 -27 -42z"/>
<path d="M3422 248 c-25 -25 -6 -68 29 -68 10 0 20 4 23 9 4 5 -2 7 -12 4 -10
-2 -24 3 -31 11 -12 14 -9 16 18 16 17 0 31 4 31 8 0 12 -22 32 -35 32 -6 0
-16 -5 -23 -12z m43 -8 c4 -6 -5 -10 -20 -10 -15 0 -24 4 -20 10 3 6 12 10 20
10 8 0 17 -4 20 -10z"/>
<path d="M3504 246 c-12 -32 0 -61 29 -64 15 -2 27 1 27 6 0 5 -10 8 -21 8
-12 -1 -24 5 -26 12 -3 8 6 12 27 12 28 0 30 2 20 20 -12 23 -48 27 -56 6z
m41 -6 c3 -5 -3 -10 -15 -10 -12 0 -18 5 -15 10 3 6 10 10 15 10 5 0 12 -4 15
-10z"/>
<path d="M3580 219 c0 -21 5 -39 10 -39 6 0 10 13 10 29 0 28 15 49 27 38 3
-4 9 -21 14 -39 8 -33 8 -33 6 7 -2 38 -4 40 -34 42 -32 1 -33 0 -33 -38z"/>
<path d="M7331 215 c1 -41 3 -40 13 7 3 14 14 29 24 31 9 3 5 4 -10 4 -26 -1
-28 -4 -27 -42z"/>
<path d="M7392 248 c-25 -25 -6 -68 29 -68 10 0 20 4 23 9 4 5 -2 7 -12 4 -10
-2 -24 3 -31 11 -12 14 -9 16 18 16 17 0 31 4 31 8 0 12 -22 32 -35 32 -6 0
-16 -5 -23 -12z m43 -8 c4 -6 -5 -10 -20 -10 -15 0 -24 4 -20 10 3 6 12 10 20
10 8 0 17 -4 20 -10z"/>
<path d="M7474 246 c-12 -32 0 -61 29 -64 15 -2 27 1 27 6 0 5 -10 8 -21 8
-12 -1 -24 5 -26 12 -3 8 6 12 27 12 28 0 30 2 20 20 -12 23 -48 27 -56 6z
m41 -6 c3 -5 -3 -10 -15 -10 -12 0 -18 5 -15 10 3 6 10 10 15 10 5 0 12 -4 15
-10z"/>
<path d="M7550 219 c0 -21 5 -39 10 -39 6 0 10 13 10 29 0 28 15 49 27 38 3
-4 9 -21 14 -39 8 -33 8 -33 6 7 -2 38 -4 40 -34 42 -32 1 -33 0 -33 -38z"/>
<path d="M11301 215 c1 -41 3 -40 13 7 3 14 14 29 24 31 9 3 5 4 -10 4 -26 -1
-28 -4 -27 -42z"/>
<path d="M11362 248 c-25 -25 -6 -68 29 -68 10 0 20 4 23 9 4 5 -2 7 -12 4
-10 -2 -24 3 -31 11 -12 14 -9 16 18 16 17 0 31 4 31 8 0 12 -22 32 -35 32 -6
0 -16 -5 -23 -12z m43 -8 c4 -6 -5 -10 -20 -10 -15 0 -24 4 -20 10 3 6 12 10
20 10 8 0 17 -4 20 -10z"/>
<path d="M11444 246 c-12 -32 0 -61 29 -64 15 -2 27 1 27 6 0 5 -10 8 -21 8
-12 -1 -24 5 -26 12 -3 8 6 12 27 12 28 0 30 2 20 20 -12 23 -48 27 -56 6z
m41 -6 c3 -5 -3 -10 -15 -10 -12 0 -18 5 -15 10 3 6 10 10 15 10 5 0 12 -4 15
-10z"/>
<path d="M11520 219 c0 -21 5 -39 10 -39 6 0 10 13 10 29 0 28 15 49 27 38 3
-4 9 -21 14 -39 8 -33 8 -33 6 7 -2 38 -4 40 -34 42 -32 1 -33 0 -33 -38z"/>
<path d="M15271 215 c1 -41 3 -40 13 7 3 14 14 29 24 31 9 3 5 4 -10 4 -26 -1
-28 -4 -27 -42z"/>
<path d="M15332 248 c-25 -25 -6 -68 29 -68 10 0 20 4 23 9 4 5 -2 7 -12 4
-10 -2 -24 3 -31 11 -12 14 -9 16 18 16 17 0 31 4 31 8 0 12 -22 32 -35 32 -6
0 -16 -5 -23 -12z m43 -8 c4 -6 -5 -10 -20 -10 -15 0 -24 4 -20 10 3 6 12 10
20 10 8 0 17 -4 20 -10z"/>
<path d="M15414 246 c-12 -32 0 -61 29 -64 15 -2 27 1 27 6 0 5 -10 8 -21 8
-12 -1 -24 5 -26 12 -3 8 6 12 27 12 28 0 30 2 20 20 -12 23 -48 27 -56 6z
m41 -6 c3 -5 -3 -10 -15 -10 -12 0 -18 5 -15 10 3 6 10 10 15 10 5 0 12 -4 15
-10z"/>
<path d="M15490 219 c0 -21 5 -39 10 -39 6 0 10 13 10 29 0 28 15 49 27 38 3
-4 9 -21 14 -39 8 -33 8 -33 6 7 -2 38 -4 40 -34 42 -32 1 -33 0 -33 -38z"/>
<path d="M19241 215 c1 -41 3 -40 13 7 3 14 14 29 24 31 9 3 5 4 -10 4 -26 -1
-28 -4 -27 -42z"/>
<path d="M19302 248 c-25 -25 -6 -68 29 -68 10 0 20 4 23 9 4 5 -2 7 -12 4
-10 -2 -24 3 -31 11 -12 14 -9 16 18 16 17 0 31 4 31 8 0 12 -22 32 -35 32 -6
0 -16 -5 -23 -12z m43 -8 c4 -6 -5 -10 -20 -10 -15 0 -24 4 -20 10 3 6 12 10
20 10 8 0 17 -4 20 -10z"/>
<path d="M19384 246 c-12 -32 0 -61 29 -64 15 -2 27 1 27 6 0 5 -10 8 -21 8
-12 -1 -24 5 -26 12 -3 8 6 12 27 12 28 0 30 2 20 20 -12 23 -48 27 -56 6z
m41 -6 c3 -5 -3 -10 -15 -10 -12 0 -18 5 -15 10 3 6 10 10 15 10 5 0 12 -4 15
-10z"/>
<path d="M19460 219 c0 -21 5 -39 10 -39 6 0 10 13 10 29 0 28 15 49 27 38 3
-4 9 -21 14 -39 8 -33 8 -33 6 7 -2 38 -4 40 -34 42 -32 1 -33 0 -33 -38z"/>
</g>
</svg>
