<?xml version="1.0" standalone="no"?>
<!DOCTYPE svg PUBLIC "-//W3C//DTD SVG 20010904//EN"
 "http://www.w3.org/TR/2001/REC-SVG-20010904/DTD/svg10.dtd">
<svg version="1.0" xmlns="http://www.w3.org/2000/svg"
 width="2000.000000pt" height="500.000000pt" viewBox="0 0 2000.000000 500.000000"
 preserveAspectRatio="xMidYMid meet">

<g transform="translate(0.000000,500.000000) scale(0.100000,-0.100000)"
fill="#000000" stroke="none">
<path d="M8421 4838 c1 -35 4 -51 6 -35 5 34 25 35 51 2 25 -31 37 -33 21 -3
-7 12 -12 38 -13 58 -1 32 -4 35 -33 38 l-33 3 1 -63z m54 27 c0 -13 -8 -21
-22 -23 -19 -3 -23 1 -23 23 0 22 4 26 23 23 14 -2 22 -10 22 -23z"/>
<path d="M9201 4888 c0 -10 -6 -18 -13 -18 -9 0 -9 -3 0 -12 7 -7 12 -27 12
-45 0 -28 4 -33 23 -33 20 1 20 2 5 11 -11 6 -18 22 -18 39 0 19 6 30 18 33
15 4 15 5 0 6 -9 0 -19 9 -21 19 -4 16 -5 16 -6 0z"/>
<path d="M9363 4886 c-6 -10 -9 -26 -7 -35 12 -66 15 -71 37 -71 20 1 20 2 5
11 -11 6 -18 22 -18 39 0 19 6 30 18 33 15 4 15 5 0 6 -9 0 -18 9 -20 19 -3
16 -5 16 -15 -2z"/>
<path d="M9761 4878 c-5 -13 -16 -40 -24 -60 -9 -21 -12 -38 -6 -38 5 0 12 7
15 15 4 9 19 15 35 15 19 0 29 -5 29 -15 0 -8 5 -15 10 -15 13 0 13 0 -11 64
-24 61 -35 68 -48 34z m39 -50 c0 -4 -9 -8 -21 -8 -15 0 -19 4 -15 16 3 9 6
21 6 27 1 13 30 -22 30 -35z"/>
<path d="M10063 4840 c0 -36 2 -50 4 -32 2 17 2 47 0 65 -2 17 -4 3 -4 -33z"/>
<path d="M10700 4840 l0 -60 43 2 c36 1 38 2 10 5 -27 4 -33 9 -33 28 0 18 6
25 28 28 l27 4 -27 2 c-21 1 -28 6 -28 20 0 15 8 21 33 24 28 3 26 4 -10 5
l-43 2 0 -60z"/>
<path d="M11100 4840 c0 -66 17 -83 22 -22 2 25 8 37 18 37 10 0 16 -12 18
-37 4 -46 22 -51 22 -5 0 43 -13 61 -39 54 -16 -4 -21 -1 -21 14 0 10 -4 19
-10 19 -6 0 -10 -27 -10 -60z"/>
<path d="M11265 4883 c-12 -22 -8 -103 6 -103 5 0 9 18 9 39 0 22 5 42 13 44
10 4 10 6 0 6 -19 1 -16 19 5 24 14 4 14 5 -3 6 -11 0 -25 -7 -30 -16z"/>
<path d="M11583 4840 c0 -36 2 -50 4 -32 2 17 2 47 0 65 -2 17 -4 3 -4 -33z"/>
<path d="M10578 4879 c-2 -7 -1 -30 2 -53 4 -35 9 -41 30 -43 14 -1 18 0 8 3
-13 4 -18 16 -18 39 0 24 5 35 18 38 16 4 16 5 0 6 -10 0 -18 6 -18 11 0 14
-17 13 -22 -1z"/>
<path d="M8532 4858 c-29 -29 -7 -78 34 -78 13 0 25 4 28 8 2 4 -7 8 -21 7
-14 0 -28 6 -30 13 -3 8 6 12 26 12 19 0 31 5 31 13 0 18 -21 37 -40 37 -9 0
-21 -5 -28 -12z m48 -13 c11 -13 8 -15 -20 -15 -28 0 -31 2 -20 15 7 8 16 15
20 15 4 0 13 -7 20 -15z"/>
<path d="M8631 4805 c1 -33 4 -51 6 -39 3 16 10 20 28 16 19 -3 27 2 36 21 17
37 -3 68 -41 65 -30 -2 -30 -3 -29 -63z m54 19 c0 -32 -21 -39 -38 -12 -8 12
-7 21 3 32 19 24 35 14 35 -20z"/>
<path d="M8730 4823 c0 -23 5 -43 10 -43 6 0 10 16 10 35 0 28 5 38 23 44 19
8 18 9 -10 9 -32 -1 -33 -2 -33 -45z"/>
<path d="M8799 4849 c-18 -34 3 -69 41 -69 16 0 30 4 30 8 0 4 -12 8 -27 7
-14 0 -28 6 -30 13 -3 8 7 12 31 12 39 0 41 2 26 31 -14 26 -56 25 -71 -2z
m59 -6 c2 -8 -6 -13 -22 -13 -25 0 -33 10 -19 24 10 10 36 3 41 -11z"/>
<path d="M8907 4863 c-15 -14 -6 -34 19 -43 33 -13 21 -34 -15 -25 -19 5 -23
4 -15 -5 17 -17 58 -8 62 12 2 12 -6 21 -23 28 -29 11 -24 35 6 27 11 -3 19
-1 19 4 0 10 -43 12 -53 2z"/>
<path d="M8989 4849 c-18 -34 3 -69 41 -69 16 0 30 4 30 8 0 4 -12 8 -27 7
-14 0 -28 6 -30 13 -3 8 7 12 31 12 39 0 41 2 26 31 -14 26 -56 25 -71 -2z
m59 -6 c2 -8 -6 -13 -22 -13 -25 0 -33 10 -19 24 10 10 36 3 41 -11z"/>
<path d="M9090 4823 c0 -53 18 -58 22 -5 2 25 8 37 18 37 10 0 16 -12 18 -37
4 -42 22 -52 22 -12 0 42 -17 63 -50 62 -29 -1 -30 -3 -30 -45z"/>
<path d="M9280 4864 c43 -16 44 -17 15 -23 -24 -5 -30 -11 -30 -31 0 -21 5
-25 33 -26 33 -1 33 0 30 40 -3 38 -5 41 -33 43 -16 1 -23 0 -15 -3z m40 -43
c0 -5 -7 -14 -15 -21 -18 -15 -42 1 -31 19 8 13 46 15 46 2z"/>
<path d="M9430 4825 c0 -25 5 -45 10 -45 6 0 10 20 10 45 0 25 -4 45 -10 45
-5 0 -10 -20 -10 -45z"/>
<path d="M9482 4858 c-17 -17 -15 -53 3 -68 8 -7 25 -10 40 -6 20 5 25 12 25
40 0 43 -39 63 -68 34z m52 -21 c8 -12 7 -21 -6 -33 -20 -20 -38 -11 -38 20 0
39 23 46 44 13z"/>
<path d="M9581 4820 c1 -44 1 -44 9 -12 15 64 50 68 50 6 0 -19 5 -34 10 -34
13 0 13 31 0 64 -7 20 -15 25 -40 23 -29 -2 -30 -4 -29 -47z"/>
<path d="M9850 4823 c0 -53 18 -58 22 -5 2 25 8 37 18 37 10 0 16 -12 18 -37
4 -42 22 -52 22 -12 0 42 -17 63 -50 62 -29 -1 -30 -3 -30 -45z"/>
<path d="M9960 4861 c0 -5 8 -7 19 -4 10 3 21 0 25 -5 3 -5 -8 -12 -25 -16
-25 -5 -30 -10 -27 -28 2 -19 10 -23 41 -25 35 -1 37 0 37 31 0 18 -5 37 -12
44 -14 14 -58 16 -58 3z m50 -46 c0 -16 -27 -32 -37 -22 -3 4 -3 13 0 22 8 20
37 20 37 0z"/>
<path d="M10100 4868 c0 -4 7 -26 17 -49 16 -40 15 -42 -2 -55 -17 -13 -17
-14 -1 -14 18 0 74 106 62 117 -4 4 -12 -8 -18 -25 -13 -32 -28 -43 -28 -19 0
14 -29 58 -30 45z"/>
<path d="M10204 4855 c-8 -20 4 -35 27 -35 12 0 19 -5 16 -12 -2 -7 -14 -13
-26 -12 -11 0 -21 -3 -21 -8 0 -11 41 -10 59 1 20 13 7 39 -21 43 -28 4 -26
23 2 22 11 0 20 3 20 8 0 14 -50 9 -56 -7z"/>
<path d="M10290 4825 c0 -25 5 -45 10 -45 6 0 10 20 10 45 0 25 -4 45 -10 45
-5 0 -10 -20 -10 -45z"/>
<path d="M10341 4856 c-12 -15 -2 -27 32 -39 28 -10 9 -30 -22 -22 -19 5 -23
4 -15 -5 17 -17 58 -8 62 12 2 12 -6 21 -23 28 -29 11 -24 35 6 27 11 -3 19
-1 19 4 0 14 -46 11 -59 -5z"/>
<path d="M10486 4861 c-3 -4 5 -6 18 -4 13 3 27 0 30 -6 5 -7 -2 -11 -17 -11
-14 0 -30 -7 -37 -15 -18 -22 4 -45 41 -42 25 2 29 6 29 33 0 16 -5 35 -12 42
-14 14 -44 16 -52 3z m44 -45 c0 -8 -5 -18 -11 -22 -14 -8 -33 11 -25 25 10
16 36 13 36 -3z"/>
<path d="M10800 4808 c0 -32 4 -58 10 -58 6 0 10 8 10 19 0 14 6 17 25 14 19
-4 27 0 36 20 17 38 -2 67 -46 65 l-35 -1 0 -59z m65 16 c0 -32 -21 -39 -38
-12 -8 12 -7 21 3 32 19 24 35 14 35 -20z"/>
<path d="M10923 4863 c-7 -2 -13 -20 -13 -39 0 -28 4 -35 25 -40 31 -8 55 10
55 40 0 37 -30 55 -67 39z m42 -39 c0 -32 -21 -39 -38 -12 -8 12 -7 21 3 32
19 24 35 14 35 -20z"/>
<path d="M11022 4858 c-27 -27 -7 -78 29 -78 10 0 20 4 23 8 3 5 -4 8 -16 8
-29 -1 -46 28 -28 49 7 9 22 14 32 12 10 -3 16 -1 12 4 -8 13 -38 11 -52 -3z"/>
<path d="M11320 4825 c0 -25 5 -45 10 -45 6 0 10 20 10 45 0 25 -4 45 -10 45
-5 0 -10 -20 -10 -45z"/>
<path d="M11372 4821 c1 -35 2 -39 5 -14 5 35 29 62 43 47 5 -5 11 -25 13 -44
3 -27 4 -25 3 10 -1 44 -2 45 -33 46 -33 1 -33 1 -31 -45z"/>
<path d="M11490 4863 c42 -14 44 -16 15 -22 -24 -5 -30 -11 -30 -31 0 -22 5
-25 38 -27 41 -1 46 11 27 61 -7 20 -16 26 -37 25 -16 0 -21 -3 -13 -6z m40
-42 c0 -5 -7 -14 -15 -21 -18 -15 -42 1 -31 19 8 13 46 15 46 2z"/>
<path d="M1232 4493 l-2 -63 38 2 c36 1 36 1 5 5 -31 4 -32 5 -36 61 l-3 57
-2 -62z"/>
<path d="M1610 4490 c0 -33 4 -60 10 -60 6 0 10 27 10 60 0 33 -4 60 -10 60
-6 0 -10 -27 -10 -60z"/>
<path d="M1973 4490 c0 -36 2 -50 4 -32 2 17 2 47 0 65 -2 17 -4 3 -4 -33z"/>
<path d="M2083 4538 c-18 -23 -23 -65 -12 -97 6 -17 15 -31 19 -31 5 0 3 13
-3 30 -8 21 -8 41 -1 70 12 43 12 47 -3 28z"/>
<path d="M2153 4543 c20 -2 37 -7 37 -10 0 -3 -16 -25 -35 -49 -19 -23 -35
-45 -35 -48 0 -3 24 -5 53 -4 43 1 45 2 15 5 -21 2 -38 7 -38 10 0 3 16 25 35
49 19 23 35 45 35 48 0 3 -24 5 -52 4 -44 -1 -46 -2 -15 -5z"/>
<path d="M2332 4493 l-2 -63 38 1 c36 1 36 2 7 8 -28 6 -30 10 -36 61 l-6 55
-1 -62z"/>
<path d="M2431 4522 c11 -31 9 -61 -6 -107 -7 -20 -6 -20 9 -1 20 25 21 96 1
122 -13 17 -14 16 -4 -14z"/>
<path d="M2541 4495 c-1 -60 -1 -61 29 -63 38 -3 58 28 41 65 -9 19 -17 24
-36 21 -18 -4 -25 0 -28 16 -2 12 -5 -6 -6 -39z m54 -21 c0 -32 -21 -39 -38
-12 -8 12 -7 21 3 32 19 24 35 14 35 -20z"/>
<path d="M2790 4490 l0 -60 35 0 c39 0 75 28 75 60 0 32 -36 60 -75 60 l-35 0
0 -60z m71 40 c42 -23 16 -90 -35 -90 -12 0 -16 11 -16 50 0 53 10 61 51 40z"/>
<path d="M6163 4490 c0 -36 2 -50 4 -32 4 28 8 32 34 32 26 0 29 -3 29 -30 0
-16 5 -30 10 -30 6 0 10 27 10 60 0 33 -4 60 -10 60 -5 0 -10 -11 -10 -25 0
-21 -5 -25 -29 -25 -25 0 -30 5 -34 28 -2 15 -4 -2 -4 -38z"/>
<path d="M6430 4490 c0 -66 17 -83 22 -22 2 25 8 37 18 37 10 0 16 -12 18 -37
4 -47 22 -50 22 -4 0 37 -21 62 -45 52 -10 -4 -15 1 -15 14 0 11 -4 20 -10 20
-6 0 -10 -27 -10 -60z"/>
<path d="M6600 4490 c0 -33 4 -60 10 -60 6 0 10 27 10 60 0 33 -4 60 -10 60
-6 0 -10 -27 -10 -60z"/>
<path d="M6950 4490 c0 -33 4 -60 10 -60 6 0 10 27 10 60 0 33 -4 60 -10 60
-6 0 -10 -27 -10 -60z"/>
<path d="M7060 4524 c-15 -37 -12 -77 6 -100 14 -18 15 -18 8 6 -8 30 -8 72 1
100 9 29 -4 24 -15 -6z"/>
<path d="M7143 4541 l39 -6 -36 -45 c-20 -25 -36 -48 -36 -52 0 -5 24 -7 53
-6 50 1 51 2 9 5 l-43 4 36 48 c19 27 35 51 35 55 0 3 -21 5 -47 5 l-48 -2 38
-6z"/>
<path d="M7310 4490 c0 -33 4 -60 10 -60 6 0 10 14 10 30 0 27 3 30 30 30 27
0 30 -3 30 -30 0 -16 5 -30 10 -30 6 0 10 27 10 60 0 33 -4 60 -10 60 -5 0
-10 -11 -10 -25 0 -21 -5 -25 -30 -25 -25 0 -30 4 -30 25 0 14 -4 25 -10 25
-6 0 -10 -27 -10 -60z"/>
<path d="M7447 4525 c9 -38 9 -63 -1 -95 -7 -24 -6 -24 8 -6 20 25 20 86 1
112 -14 18 -15 17 -8 -11z"/>
<path d="M7550 4491 l0 -59 36 1 c42 2 57 26 43 66 -7 18 -15 22 -34 19 -19
-4 -25 -1 -25 13 0 11 -4 19 -10 19 -6 0 -10 -26 -10 -59z m65 -16 c0 -23 -4
-30 -20 -30 -21 0 -31 25 -21 51 11 28 41 12 41 -21z"/>
<path d="M7810 4490 l0 -60 31 0 c51 0 69 16 69 60 0 44 -18 60 -69 60 l-31 0
0 -60z m74 34 c31 -30 9 -84 -35 -84 -16 0 -19 7 -19 50 0 43 3 50 19 50 11 0
27 -7 35 -16z"/>
<path d="M11333 4541 l39 -6 -36 -45 c-20 -25 -36 -48 -36 -52 0 -5 24 -7 53
-6 l52 1 -42 6 -42 6 20 25 c11 14 29 37 40 53 l20 27 -53 -1 c-50 -2 -51 -2
-15 -8z"/>
<path d="M11500 4490 c0 -33 4 -60 10 -60 6 0 10 14 10 30 0 27 3 30 30 30 27
0 30 -3 30 -30 0 -16 5 -30 10 -30 6 0 10 27 10 60 0 33 -4 60 -10 60 -5 0
-10 -11 -10 -25 0 -21 -5 -25 -30 -25 -25 0 -30 4 -30 25 0 14 -4 25 -10 25
-6 0 -10 -27 -10 -60z"/>
<path d="M11680 4491 c0 -57 1 -59 28 -59 34 0 52 14 52 43 0 27 -24 49 -45
41 -10 -4 -15 1 -15 14 0 11 -4 20 -10 20 -6 0 -10 -26 -10 -59z m59 0 c7 -13
6 -23 -3 -36 -16 -22 -36 -12 -36 19 0 39 22 49 39 17z"/>
<path d="M11940 4490 l0 -60 43 1 42 2 -35 6 c-46 8 -50 43 -5 52 l30 7 -33 1
c-47 1 -41 34 8 42 l35 6 -42 2 -43 1 0 -60z"/>
<path d="M12941 4538 c0 -10 -6 -18 -13 -18 -9 0 -9 -3 0 -12 7 -7 12 -27 12
-45 0 -28 4 -33 23 -33 20 1 20 2 5 11 -11 6 -18 22 -18 39 0 19 6 30 18 33
15 4 15 5 0 6 -9 0 -19 9 -21 19 -4 16 -5 16 -6 0z"/>
<path d="M16603 4541 l39 -6 -36 -45 c-20 -25 -36 -48 -36 -52 0 -5 24 -7 53
-6 l52 1 -42 6 -42 6 20 25 c11 14 29 37 40 53 l20 27 -53 -1 c-50 -2 -51 -2
-15 -8z"/>
<path d="M16770 4490 c0 -33 4 -60 10 -60 6 0 10 14 10 30 0 27 3 30 30 30 27
0 30 -3 30 -30 0 -16 5 -30 10 -30 6 0 10 27 10 60 0 33 -4 60 -10 60 -5 0
-10 -11 -10 -25 0 -21 -5 -25 -30 -25 -25 0 -30 4 -30 25 0 14 -4 25 -10 25
-6 0 -10 -27 -10 -60z"/>
<path d="M16950 4491 c0 -57 1 -59 28 -59 34 0 52 14 52 43 0 27 -24 49 -45
41 -10 -4 -15 1 -15 14 0 11 -4 20 -10 20 -6 0 -10 -26 -10 -59z m59 0 c7 -13
6 -23 -3 -36 -16 -22 -36 -12 -36 19 0 39 22 49 39 17z"/>
<path d="M17211 4488 c1 -42 3 -55 8 -38 4 14 16 27 30 30 56 13 48 70 -10 70
-29 0 -29 0 -28 -62z m54 27 c0 -13 -8 -21 -22 -23 -17 -3 -23 2 -23 16 0 10
3 22 7 26 13 13 38 1 38 -19z"/>
<path d="M3118 4529 c-2 -7 -1 -30 2 -53 4 -35 9 -41 30 -43 14 -1 18 0 8 3
-13 4 -18 16 -18 39 0 24 5 35 18 38 16 4 16 5 0 6 -10 0 -18 6 -18 11 0 14
-17 13 -22 -1z"/>
<path d="M8138 4529 c-2 -7 -1 -30 2 -53 4 -35 9 -41 30 -43 14 -1 18 0 8 3
-13 4 -18 16 -18 39 0 24 5 35 18 38 16 4 16 5 0 6 -10 0 -18 6 -18 11 0 14
-17 13 -22 -1z"/>
<path d="M17518 4529 c-2 -7 -1 -30 2 -53 4 -35 9 -41 30 -43 14 -1 18 0 8 3
-13 4 -18 16 -18 39 0 24 5 35 18 38 16 4 16 5 0 6 -10 0 -18 6 -18 11 0 14
-17 13 -22 -1z"/>
<path d="M1320 4506 c-28 -35 11 -93 48 -70 35 22 22 84 -18 84 -10 0 -23 -7
-30 -14z m54 -19 c8 -13 6 -21 -7 -34 -17 -17 -19 -17 -32 1 -10 14 -11 24 -4
38 12 22 27 20 43 -5z"/>
<path d="M1410 4514 c0 -19 24 -84 31 -84 5 0 13 15 18 33 l9 32 12 -32 c15
-40 26 -42 34 -5 4 15 9 35 12 45 3 9 1 17 -4 17 -5 0 -13 -15 -17 -32 l-7
-33 -11 33 c-5 17 -14 32 -18 32 -5 0 -12 -15 -17 -32 l-8 -33 -12 33 c-10 28
-22 43 -22 26z"/>
<path d="M1672 4508 c-29 -29 -7 -78 34 -78 13 0 26 5 30 12 5 8 2 9 -11 4
-21 -8 -55 1 -55 15 0 5 16 9 35 9 22 0 35 5 35 13 0 18 -21 37 -40 37 -9 0
-21 -5 -28 -12z m46 -16 c2 -7 -7 -12 -23 -12 -24 0 -26 2 -15 15 14 17 31 16
38 -3z"/>
<path d="M1760 4510 c0 -20 29 -80 38 -80 6 0 17 18 26 40 19 47 19 50 7 50
-5 0 -12 -13 -16 -30 -9 -41 -22 -46 -30 -10 -6 29 -25 52 -25 30z"/>
<path d="M1872 4508 c-29 -29 -7 -78 34 -78 13 0 26 5 29 10 4 7 -2 9 -17 5
-16 -4 -29 -1 -37 9 -12 14 -9 16 23 16 23 0 36 5 36 13 0 18 -21 37 -40 37
-9 0 -21 -5 -28 -12z m46 -16 c2 -7 -7 -12 -23 -12 -24 0 -26 2 -15 15 14 17
31 16 38 -3z"/>
<path d="M2640 4510 c0 -5 8 -26 17 -46 17 -35 17 -36 -2 -50 -17 -12 -17 -14
-2 -14 11 0 26 20 42 56 28 63 28 64 17 64 -4 0 -14 -15 -21 -32 l-13 -33 -14
33 c-14 32 -24 41 -24 22z"/>
<path d="M2920 4475 c0 -25 5 -45 10 -45 6 0 10 20 10 45 0 25 -4 45 -10 45
-5 0 -10 -20 -10 -45z"/>
<path d="M2969 4498 c-17 -33 4 -72 37 -65 32 6 26 -15 -7 -24 -24 -7 -24 -7
3 -8 33 -1 37 6 45 67 l5 49 -36 1 c-27 1 -38 -4 -47 -20z m56 -23 c0 -23 -4
-30 -20 -30 -21 0 -31 25 -21 51 11 28 41 12 41 -21z"/>
<path d="M3083 4475 c0 -27 2 -38 4 -22 2 15 2 37 0 50 -2 12 -4 0 -4 -28z"/>
<path d="M6280 4475 c0 -25 5 -45 10 -45 6 0 10 20 10 45 0 25 -4 45 -10 45
-5 0 -10 -20 -10 -45z"/>
<path d="M6332 4508 c-30 -30 -2 -85 39 -75 16 4 18 3 8 -9 -6 -8 -18 -14 -27
-14 -8 0 -13 -3 -9 -6 3 -4 18 -4 32 0 23 6 25 11 25 59 0 51 -1 53 -28 55
-15 1 -33 -3 -40 -10z m52 -21 c8 -12 7 -21 -6 -33 -20 -20 -38 -11 -38 20 0
39 23 46 44 13z"/>
<path d="M6652 4508 c-7 -7 -12 -21 -12 -33 0 -12 5 -26 12 -33 13 -13 68 -17
68 -4 0 4 -12 8 -27 7 -14 0 -28 6 -30 13 -3 8 6 12 26 12 24 0 31 4 31 19 0
29 -45 42 -68 19z m56 -15 c2 -8 -6 -13 -22 -13 -25 0 -33 10 -19 24 10 10 36
3 41 -11z"/>
<path d="M6745 4503 c4 -10 12 -30 17 -45 14 -40 31 -34 49 17 20 54 7 61 -14
8 l-14 -37 -14 37 c-7 20 -17 37 -22 37 -5 0 -6 -8 -2 -17z"/>
<path d="M6849 4499 c-18 -34 3 -69 41 -69 16 0 30 4 30 8 0 4 -12 8 -27 7
-14 0 -28 6 -30 13 -3 8 7 12 31 12 39 0 41 2 26 31 -14 26 -56 25 -71 -2z
m59 -6 c2 -8 -6 -13 -22 -13 -25 0 -33 10 -19 24 10 10 36 3 41 -11z"/>
<path d="M7670 4475 c17 -40 17 -46 4 -60 -14 -13 -14 -15 0 -15 9 0 16 2 16
4 0 2 11 29 25 60 14 31 21 56 16 56 -5 0 -14 -14 -22 -32 l-13 -31 -15 31
c-23 49 -33 38 -11 -13z"/>
<path d="M7940 4475 c0 -25 5 -45 10 -45 6 0 10 20 10 45 0 25 -4 45 -10 45
-5 0 -10 -20 -10 -45z"/>
<path d="M7992 4508 c-30 -30 -2 -85 39 -75 16 4 18 3 8 -9 -6 -8 -18 -14 -27
-14 -8 0 -13 -3 -9 -6 3 -4 18 -4 32 0 23 6 25 11 25 59 0 51 -1 53 -28 55
-15 1 -33 -3 -40 -10z m52 -21 c8 -12 7 -21 -6 -33 -20 -20 -38 -11 -38 20 0
39 23 46 44 13z"/>
<path d="M8090 4475 c0 -25 5 -45 10 -45 6 0 10 20 10 45 0 25 -4 45 -10 45
-5 0 -10 -20 -10 -45z"/>
<path d="M11785 4503 c28 -69 28 -76 10 -90 -16 -11 -16 -13 -3 -13 20 0 31
14 52 69 20 51 13 70 -8 21 l-14 -34 -16 32 c-17 34 -33 44 -21 15z"/>
<path d="M12040 4474 c0 -54 18 -59 22 -6 2 25 8 37 18 37 10 0 16 -12 18 -37
4 -47 22 -50 22 -4 0 39 -14 54 -52 54 -26 0 -28 -3 -28 -44z"/>
<path d="M12140 4515 c0 -16 34 -85 42 -85 9 0 38 60 38 80 0 22 -19 -1 -25
-30 -8 -36 -21 -31 -30 10 -4 17 -11 30 -16 30 -5 0 -9 -2 -9 -5z"/>
<path d="M12253 4475 c0 -27 2 -38 4 -22 2 15 2 37 0 50 -2 12 -4 0 -4 -28z"/>
<path d="M12290 4473 c0 -23 5 -43 10 -43 6 0 10 16 10 35 0 28 5 38 23 44 19
8 18 9 -10 9 -32 -1 -33 -2 -33 -45z"/>
<path d="M12359 4499 c-16 -31 3 -69 36 -69 17 0 29 8 36 24 15 32 -4 66 -36
66 -15 0 -29 -9 -36 -21z m45 5 c21 -8 21 -50 0 -58 -22 -8 -34 1 -34 28 0 33
8 40 34 30z"/>
<path d="M12460 4473 c0 -53 18 -58 22 -5 2 25 8 37 18 37 10 0 16 -12 18 -37
4 -42 22 -52 22 -12 0 42 -17 63 -50 62 -29 -1 -30 -3 -30 -45z"/>
<path d="M12560 4474 c0 -54 18 -59 22 -6 2 25 8 37 18 37 10 0 16 -12 18 -37
2 -21 7 -38 12 -38 5 0 10 17 12 38 2 25 8 37 18 37 10 0 16 -12 18 -37 4 -47
22 -50 22 -4 0 44 -14 53 -82 53 l-58 0 0 -43z"/>
<path d="M12729 4499 c-18 -34 3 -69 41 -69 16 0 30 4 30 8 0 4 -12 8 -27 7
-14 0 -28 6 -30 13 -3 8 7 12 31 12 39 0 41 2 26 31 -14 26 -56 25 -71 -2z
m59 -6 c2 -8 -6 -13 -22 -13 -25 0 -33 10 -19 24 10 10 36 3 41 -11z"/>
<path d="M12830 4473 c0 -53 18 -58 22 -5 2 25 8 37 18 37 10 0 16 -12 18 -37
4 -42 22 -52 22 -12 0 42 -17 63 -50 62 -29 -1 -30 -3 -30 -45z"/>
<path d="M17055 4503 c28 -69 28 -76 10 -90 -16 -11 -16 -13 -3 -13 20 0 31
14 52 69 20 51 13 70 -8 21 l-14 -34 -16 32 c-17 34 -33 44 -21 15z"/>
<path d="M17320 4514 c43 -16 44 -17 15 -23 -24 -5 -30 -11 -30 -31 0 -21 5
-25 33 -26 33 -1 33 0 30 40 -3 38 -5 41 -33 43 -16 1 -23 0 -15 -3z m40 -43
c0 -5 -7 -14 -15 -21 -18 -15 -42 1 -31 19 8 13 46 15 46 2z"/>
<path d="M17400 4473 c0 -23 5 -43 10 -43 6 0 10 16 10 35 0 28 5 38 23 44 19
8 18 9 -10 9 -32 -1 -33 -2 -33 -45z"/>
<path d="M17470 4475 c0 -25 5 -45 10 -45 6 0 10 20 10 45 0 25 -4 45 -10 45
-5 0 -10 -20 -10 -45z"/>
<path d="M17585 4503 c28 -69 28 -76 10 -90 -16 -11 -16 -13 -3 -13 20 0 31
14 52 69 20 51 13 70 -8 21 l-14 -34 -16 32 c-17 34 -33 44 -21 15z"/>
<path d="M1558 4473 c6 -2 18 -2 25 0 6 3 1 5 -13 5 -14 0 -19 -2 -12 -5z"/>
<path d="M6543 4473 c9 -2 23 -2 30 0 6 3 -1 5 -18 5 -16 0 -22 -2 -12 -5z"/>
<path d="M2248 4393 c12 -2 32 -2 45 0 12 2 2 4 -23 4 -25 0 -35 -2 -22 -4z"/>
<path d="M7233 4393 c15 -2 37 -2 50 0 12 2 0 4 -28 4 -27 0 -38 -2 -22 -4z"/>
<path d="M11423 4393 c15 -2 37 -2 50 0 12 2 0 4 -28 4 -27 0 -38 -2 -22 -4z"/>
<path d="M16693 4393 c15 -2 37 -2 50 0 12 2 0 4 -28 4 -27 0 -38 -2 -22 -4z"/>
<path d="M540 4061 l0 -290 -27 -4 -28 -4 28 -2 27 -1 0 -304 0 -305 -27 -4
-28 -4 28 -2 27 -1 0 -309 0 -310 -27 -4 -28 -4 28 -2 27 -1 0 -309 0 -310
-27 -4 -28 -4 28 -2 27 -1 0 -304 0 -305 -27 -4 -28 -4 28 -2 27 -1 0 -309 0
-310 -27 -4 -28 -4 28 -2 27 -1 0 -125 0 -125 259 0 260 0 4 -27 4 -28 2 28 1
27 279 0 280 0 4 -27 4 -28 2 28 1 27 274 0 275 0 4 -27 4 -28 2 28 1 27 279
0 280 0 4 -27 4 -28 2 28 1 27 279 0 280 0 4 -27 4 -28 2 28 1 27 260 0 260 0
0 1985 0 1985 -1660 0 -1660 0 0 -289z m3310 -1696 l0 -1975 -1650 0 -1650 0
0 1975 0 1975 1650 0 1650 0 0 -1975z"/>
<path d="M2595 4038 c-9 -14 -11 -24 -5 -26 14 -5 40 17 40 34 0 21 -17 17
-35 -8z"/>
<path d="M2644 4016 c-36 -16 -49 -32 -34 -41 5 -3 10 -14 10 -23 1 -19 33
-62 48 -62 5 0 13 -15 18 -32 7 -23 17 -34 32 -36 51 -8 74 59 28 80 -18 7
-27 22 -31 49 -4 22 -14 48 -23 59 -15 17 -20 18 -48 6z"/>
<path d="M3086 3971 c-19 -21 -15 -53 11 -83 8 -9 12 -25 9 -36 -10 -31 10
-73 31 -66 11 4 14 3 7 -3 -22 -16 -27 -54 -8 -74 22 -24 36 -24 59 1 12 13
15 25 9 37 -4 10 -8 35 -9 55 -1 20 -8 44 -16 54 -8 9 -14 34 -15 55 0 38 -26
79 -49 79 -7 0 -20 -9 -29 -19z m49 -1 c3 -5 -2 -10 -12 -10 -11 0 -24 -5 -31
-12 -7 -7 -12 -8 -12 -2 0 26 42 44 55 24z m25 -60 c0 -17 -41 -33 -53 -21 -8
8 -5 11 10 11 12 0 25 5 28 10 8 13 15 13 15 0z m5 -50 c3 -5 -2 -10 -12 -10
-11 0 -24 -5 -31 -12 -7 -7 -12 -8 -12 -2 0 26 42 44 55 24z m20 -69 c-3 -6
-11 -11 -17 -11 -6 0 -6 6 2 15 14 17 26 13 15 -4z m10 -55 c0 -30 -31 -44
-51 -24 -24 24 -11 50 23 46 20 -2 28 -9 28 -22z"/>
<path d="M2850 3576 c0 -14 -4 -28 -10 -31 -17 -11 -11 -35 9 -35 11 0 22 -9
26 -19 6 -20 52 -35 61 -20 3 5 10 9 15 9 5 0 2 -11 -7 -25 -15 -23 -15 -25
10 -50 31 -31 56 -29 73 5 10 20 9 27 -2 41 -8 8 -15 21 -15 27 0 6 -11 14
-25 18 -14 3 -25 13 -25 23 0 21 -19 41 -40 41 -8 0 -21 9 -28 20 -17 28 -42
26 -42 -4z"/>
<path d="M3281 3267 c-58 -29 -52 -83 9 -80 32 1 70 27 70 48 0 14 -32 45 -46
45 -5 0 -20 -6 -33 -13z m59 -12 c7 -9 9 -22 5 -32 -7 -17 -8 -16 -13 2 -2 11
-9 26 -14 33 -7 8 -7 12 0 12 5 0 15 -7 22 -15z m-58 -52 c7 -9 7 -13 0 -13
-18 0 -34 29 -27 47 7 17 8 16 13 -2 2 -11 9 -26 14 -32z"/>
<path d="M3271 3038 c-5 -13 -7 -30 -5 -38 1 -8 3 -18 3 -23 1 -7 25 -4 74 10
27 7 20 30 -13 42 -16 5 -30 15 -30 20 0 20 -21 11 -29 -11z"/>
<path d="M3221 3014 c0 -11 3 -14 6 -6 3 7 2 16 -1 19 -3 4 -6 -2 -5 -13z"/>
<path d="M3385 2990 c-3 -5 -1 -10 4 -10 6 0 11 5 11 10 0 6 -2 10 -4 10 -3 0
-8 -4 -11 -10z"/>
<path d="M3398 2819 c-24 -13 -23 -44 2 -69 24 -24 26 -49 4 -65 -25 -18 -11
-63 21 -71 37 -9 58 13 50 50 -4 17 -8 36 -9 43 -1 7 -5 16 -9 19 -4 4 -7 16
-7 27 0 16 -3 17 -14 8 -12 -10 -15 -6 -18 28 -3 35 -5 38 -20 30z m52 -99 c0
-5 -2 -10 -4 -10 -3 0 -8 5 -11 10 -3 6 -1 10 4 10 6 0 11 -4 11 -10z"/>
<path d="M3590 2700 c-11 -8 -9 -9 11 -5 33 8 58 -18 42 -43 -6 -10 -20 -17
-32 -16 -15 0 -19 -2 -11 -10 12 -12 37 0 54 27 8 12 5 21 -8 36 -21 23 -34
26 -56 11z"/>
<path d="M3480 2570 c-16 -30 -3 -58 31 -65 34 -8 61 9 52 31 -5 13 -8 13 -23
-1 -16 -15 -18 -14 -22 15 -5 34 -5 34 25 19 21 -10 21 -10 3 5 -27 22 -53 20
-66 -4z"/>
<path d="M665 2350 c-21 -34 39 -76 70 -50 20 17 19 23 -7 39 -21 13 -22 13
-10 -2 15 -18 8 -37 -12 -37 -8 0 -20 7 -27 16 -11 14 -10 18 6 30 16 12 16
14 3 14 -9 0 -20 -5 -23 -10z"/>
<path d="M903 2299 c-7 -7 -13 -22 -13 -33 0 -19 1 -19 16 -4 9 8 14 23 12 32
-2 14 -5 15 -15 5z"/>
<path d="M931 2277 c-35 -43 -19 -127 25 -127 42 0 73 102 38 127 -23 17 -49
17 -63 0z"/>
<path d="M1029 2193 c-8 -9 -15 -36 -15 -60 -1 -34 3 -47 21 -61 12 -9 20 -23
17 -30 -5 -15 25 -52 43 -52 6 0 28 18 49 39 34 35 37 42 28 68 -5 15 -15 27
-21 25 -7 -1 -10 2 -6 7 6 11 -28 33 -39 26 -3 -3 -4 -2 -1 2 7 9 -35 53 -51
53 -6 0 -18 -7 -25 -17z m44 1 c6 -6 -35 -44 -47 -44 -11 0 -6 26 6 38 13 13
31 16 41 6z m-17 -93 c20 -16 22 -20 8 -25 -19 -7 -44 10 -44 30 0 19 7 18 36
-5z m104 -46 c-7 -9 -15 -13 -18 -10 -3 2 1 11 8 20 7 9 15 13 18 10 3 -2 -1
-11 -8 -20z m-56 -14 c19 -21 14 -41 -8 -41 -20 0 -39 27 -32 45 7 20 19 19
40 -4z"/>
<path d="M820 2020 c0 -5 5 -10 11 -10 5 0 7 5 4 10 -3 6 -8 10 -11 10 -2 0
-4 -4 -4 -10z"/>
<path d="M1147 1992 c-9 -10 -17 -23 -17 -29 0 -15 36 -45 52 -42 7 2 23 -1
36 -5 25 -8 62 15 62 39 0 18 -33 44 -55 44 -11 -1 -29 2 -40 6 -14 4 -27 0
-38 -13z m44 -4 c-1 -5 -1 -20 -1 -34 0 -18 -5 -25 -16 -22 -27 5 -40 34 -24
53 13 15 42 17 41 3z m73 -20 c8 -14 7 -21 -6 -34 -25 -25 -46 -12 -40 26 5
34 27 38 46 8z"/>
<path d="M1347 1632 c-10 -10 -17 -23 -17 -29 0 -20 37 -43 69 -43 18 0 42 -5
53 -11 20 -11 20 -11 2 14 -11 14 -22 23 -26 20 -4 -2 -5 3 -2 11 17 44 -46
74 -79 38z m26 -61 c-5 -7 -33 21 -33 33 0 7 6 18 13 25 10 10 13 6 17 -21 3
-18 5 -35 3 -37z"/>
<path d="M1122 1558 c-18 -18 -14 -42 11 -70 l23 -25 22 24 c26 29 28 46 6 67
-18 19 -45 21 -62 4z"/>
<path d="M993 1478 c-18 -23 -24 -78 -9 -84 8 -3 17 -17 20 -30 8 -31 30 -26
34 7 2 13 10 29 18 36 10 7 14 24 12 45 -3 29 -7 33 -34 36 -17 2 -35 -3 -41
-10z"/>
<path d="M1006 1255 c-8 -43 -2 -55 30 -55 17 0 28 8 36 26 15 32 1 58 -34 62
-22 3 -26 -2 -32 -33z"/>
<path d="M1535 1111 c-3 -5 -1 -12 4 -15 6 -4 4 -17 -5 -34 -13 -25 -12 -28 7
-44 27 -23 42 -23 64 2 16 18 17 23 4 46 -15 29 -65 59 -74 45z m69 -79 c-6
-9 -20 -19 -30 -21 -18 -3 -18 -2 -1 16 9 11 17 26 17 33 0 11 3 11 12 2 9 -9
10 -17 2 -30z"/>
<path d="M1506 749 c-17 -11 -17 -12 4 -23 26 -12 55 -104 39 -120 -22 -23 -9
-51 28 -63 44 -13 48 -12 69 29 11 22 13 33 5 41 -6 6 -11 23 -11 39 0 22 -6
29 -32 36 -31 8 -41 18 -52 55 -6 19 -22 21 -50 6z"/>
<path d="M5520 4291 c0 -57 -1 -60 -27 -64 l-28 -4 28 -2 27 -1 0 -324 0 -325
-27 -4 -28 -4 28 -2 27 -1 0 -319 0 -320 -27 -4 -28 -4 28 -2 27 -1 0 -324 0
-325 -27 -4 -28 -4 28 -2 27 -1 0 -319 0 -320 -27 -4 -28 -4 28 -2 27 -1 0
-324 0 -325 -27 -4 -28 -4 28 -2 27 -1 0 -280 0 -280 189 0 190 0 4 -28 4 -27
2 28 1 27 314 0 315 0 4 -27 4 -28 2 28 1 27 314 0 315 0 4 -28 4 -27 2 28 1
27 314 0 315 0 4 -27 4 -28 2 28 1 27 314 0 315 0 4 -27 4 -28 2 28 1 27 180
0 180 0 0 1985 0 1985 -1655 0 -1655 0 0 -59z m3300 -1926 l0 -1975 -1645 0
-1645 0 0 1975 0 1975 1645 0 1645 0 0 -1975z"/>
<path d="M7952 4156 c23 -17 13 -26 -22 -19 -23 4 -29 1 -36 -18 -4 -13 -7
-28 -6 -33 2 -4 3 -24 4 -43 1 -30 4 -34 24 -29 14 4 24 1 28 -9 8 -23 36 -6
36 22 0 22 2 24 15 13 9 -7 18 -10 22 -6 4 3 -2 13 -13 20 -10 8 -16 18 -12
22 4 4 14 2 22 -5 11 -9 15 -7 19 8 3 14 1 18 -9 14 -16 -6 -46 15 -39 27 6
10 -24 50 -38 50 -7 0 -4 -6 5 -14z"/>
<path d="M8005 4110 c-3 -5 -2 -10 4 -10 5 0 13 5 16 10 3 6 2 10 -4 10 -5 0
-13 -4 -16 -10z"/>
<path d="M7850 4065 c-7 -9 -8 -15 -2 -15 5 0 12 7 16 15 3 8 4 15 2 15 -2 0
-9 -7 -16 -15z"/>
<path d="M7905 3990 c3 -5 8 -10 11 -10 2 0 4 5 4 10 0 6 -5 10 -11 10 -5 0
-7 -4 -4 -10z"/>
<path d="M6172 3288 c-7 -7 -12 -18 -12 -25 0 -8 -7 -25 -17 -39 -15 -24 -15
-25 5 -31 13 -3 22 -13 22 -23 0 -10 9 -22 20 -25 11 -3 20 -15 20 -26 0 -20
20 -25 36 -9 5 5 21 11 34 13 17 3 24 10 22 21 -2 9 3 19 11 22 8 3 14 19 15
36 0 16 -2 27 -5 24 -10 -10 -33 15 -33 35 0 12 -7 19 -19 19 -11 0 -23 5 -26
10 -9 14 -58 13 -73 -2z"/>
<path d="M8482 3008 c-7 -7 -12 -22 -12 -35 0 -13 -6 -23 -14 -23 -18 0 -27
-23 -16 -41 5 -7 5 -18 0 -24 -5 -7 2 -17 21 -28 17 -9 27 -12 24 -7 -3 6 -3
10 2 10 4 0 16 12 26 26 18 25 18 26 0 39 -16 13 -16 14 -1 15 22 0 48 27 47
48 0 13 -3 11 -11 -5 -18 -37 -66 -23 -53 16 7 24 4 26 -13 9z m18 -98 c0 -5
-4 -10 -10 -10 -5 0 -10 5 -10 10 0 6 5 10 10 10 6 0 10 -4 10 -10z"/>
<path d="M8633 3008 c-13 -6 -23 -15 -23 -20 0 -4 -7 -8 -16 -8 -14 0 -14 -3
-4 -15 15 -18 44 -20 34 -2 -6 10 -4 10 7 0 21 -21 28 -15 26 22 -1 19 -2 35
-2 34 0 0 -10 -5 -22 -11z"/>
<path d="M8434 2539 c-19 -22 -13 -43 19 -63 12 -8 21 -5 36 8 26 23 26 38 3
59 -24 22 -35 21 -58 -4z m60 -11 c8 -14 7 -21 -6 -34 -30 -30 -75 9 -48 42
16 18 39 15 54 -8z"/>
<path d="M8477 2252 c-9 -10 -17 -22 -17 -26 0 -5 -11 -21 -25 -38 -29 -34
-31 -50 -10 -68 22 -18 18 -30 -8 -30 -24 0 -57 -27 -57 -47 0 -18 36 -43 62
-43 14 0 37 9 51 20 25 20 28 20 52 4 31 -20 49 -14 75 28 26 43 25 54 -5 82
-14 13 -25 32 -25 43 0 26 -41 87 -61 91 -8 1 -23 -6 -32 -16z m53 -7 c10 -13
9 -15 -8 -15 -12 0 -24 -5 -28 -11 -4 -7 -9 -8 -17 0 -7 7 -6 15 3 26 16 19
34 19 50 0z m30 -55 c0 -5 -2 -10 -4 -10 -3 0 -8 5 -11 10 -3 6 -1 10 4 10 6
0 11 -4 11 -10z m-170 -147 c0 -20 -3 -24 -11 -16 -7 7 -9 19 -6 27 10 24 17
19 17 -11z"/>
<path d="M5707 1472 c-10 -11 -19 -32 -20 -48 -1 -16 -10 -35 -19 -42 -24 -18
-23 -57 2 -82 23 -23 50 -26 68 -8 7 7 34 13 60 13 41 0 47 3 50 23 2 12 9 22
15 22 8 0 11 13 9 40 -3 31 -11 45 -39 66 -46 35 -102 43 -126 16z"/>
<path d="M8137 1473 c-4 -3 -7 -14 -7 -24 0 -27 -17 -32 -45 -13 -23 15 -25
15 -25 0 0 -24 47 -51 64 -37 19 16 44 -13 27 -33 -9 -11 -5 -15 20 -20 47 -9
50 -8 37 14 -10 16 -10 24 0 40 15 25 15 53 0 68 -13 13 -60 16 -71 5z"/>
<path d="M7994 1393 c-12 -2 -29 -12 -37 -21 -19 -22 -5 -62 23 -69 12 -3 19
-11 17 -17 -2 -6 0 -19 5 -28 7 -15 4 -18 -22 -18 -22 0 -30 5 -30 18 0 24
-19 42 -44 42 -18 0 -18 -1 -3 -18 12 -13 14 -21 6 -29 -16 -16 -3 -62 19 -70
9 -3 25 -13 34 -21 10 -8 28 -12 42 -10 19 4 27 0 31 -13 4 -11 12 -19 18 -19
7 0 17 -10 22 -22 23 -50 89 -50 101 0 4 15 11 33 17 40 7 9 4 12 -12 12 -16
0 -21 6 -21 25 0 18 5 25 20 25 11 0 20 5 20 10 0 6 -4 10 -10 10 -5 0 -10 8
-10 18 0 10 -5 23 -12 30 -9 9 -7 12 13 13 13 0 18 3 11 6 -7 3 -24 2 -37 -1
-20 -5 -25 -13 -25 -36 0 -22 -4 -28 -15 -24 -12 5 -12 10 -3 27 9 18 5 25
-32 57 -30 26 -39 39 -29 42 11 4 10 9 -5 27 -11 11 -22 20 -25 20 -3 -1 -16
-4 -27 -6z"/>
<path d="M7990 1131 c0 -6 9 -15 20 -21 13 -7 20 -7 20 -1 0 6 -9 15 -20 21
-13 7 -20 7 -20 1z"/>
<path d="M7950 1085 c0 -24 5 -35 15 -35 10 0 15 11 15 35 0 24 -5 35 -15 35
-10 0 -15 -11 -15 -35z"/>
<path d="M8010 1065 c-7 -9 -10 -18 -7 -22 8 -7 37 15 37 28 0 14 -16 11 -30
-6z"/>
<path d="M8070 1060 c0 -5 5 -10 10 -10 6 0 10 5 10 10 0 6 -4 10 -10 10 -5 0
-10 -4 -10 -10z"/>
<path d="M10490 4291 c0 -57 -1 -60 -27 -64 l-28 -4 28 -2 27 -1 0 -324 0
-325 -27 -4 -28 -4 28 -2 27 -1 0 -319 0 -320 -27 -4 -28 -4 28 -2 27 -1 0
-324 0 -325 -27 -4 -28 -4 28 -2 27 -1 0 -319 0 -320 -27 -4 -28 -4 28 -2 27
-1 0 -324 0 -325 -27 -4 -28 -4 28 -2 27 -1 0 -280 0 -280 194 0 195 0 4 -28
4 -27 2 28 1 27 314 0 315 0 4 -28 4 -27 2 28 1 27 309 0 310 0 4 -28 4 -27 2
28 1 27 314 0 315 0 4 -27 4 -28 2 28 1 27 314 0 315 0 4 -27 4 -28 2 28 1 27
185 0 185 0 0 1985 0 1985 -1660 0 -1660 0 0 -59z m3310 -1926 l0 -1975 -1650
0 -1650 0 0 1975 0 1975 1650 0 1650 0 0 -1975z"/>
<path d="M13007 4134 c-3 -4 1 -17 10 -30 14 -23 14 -26 -2 -44 -10 -11 -15
-23 -12 -27 4 -3 7 -1 7 5 0 7 7 12 16 12 13 0 15 7 10 31 -3 17 -6 38 -6 45
0 15 -12 19 -23 8z"/>
<path d="M12850 4000 c0 -13 11 -13 30 0 12 8 11 10 -7 10 -13 0 -23 -4 -23
-10z"/>
<path d="M12368 3350 c20 -34 62 -47 62 -19 0 20 -9 27 -49 39 l-29 8 16 -28z"/>
<path d="M12440 3250 c0 -19 3 -21 12 -12 9 9 9 15 0 24 -9 9 -12 7 -12 -12z"/>
<path d="M11267 3237 c-5 -12 -1 -17 13 -17 11 0 20 5 20 11 0 5 -4 8 -9 5 -5
-4 -11 -1 -13 6 -3 8 -7 6 -11 -5z"/>
<path d="M11160 3138 c0 -9 7 -22 17 -29 15 -13 15 -12 3 11 -17 34 -20 36
-20 18z"/>
<path d="M13478 3023 c7 -3 16 -2 19 1 4 3 -2 6 -13 5 -11 0 -14 -3 -6 -6z"/>
<path d="M13418 2923 c-25 -4 -28 -8 -28 -43 0 -29 5 -42 19 -50 29 -15 35
-12 20 8 -7 9 -9 14 -4 9 11 -10 45 22 45 43 0 9 5 21 12 28 13 13 -4 14 -64
5z"/>
<path d="M13420 2778 c0 -50 11 -69 38 -66 31 4 48 29 37 54 -8 18 -9 17 -12
-3 -3 -15 -11 -23 -25 -23 -17 0 -20 4 -14 30 4 22 2 30 -9 30 -9 0 -15 -9
-15 -22z"/>
<path d="M10910 2400 c-12 -8 -9 -10 13 -10 15 0 27 5 27 10 0 13 -20 13 -40
0z"/>
<path d="M13460 2214 c-19 -7 -27 -13 -17 -13 17 -1 27 -5 75 -30 12 -6 22 -7
22 -2 0 5 -7 12 -16 15 -10 4 -13 13 -9 26 7 23 -3 24 -55 4z"/>
<path d="M11957 2033 c-12 -12 -7 -25 7 -20 8 3 17 -1 20 -10 4 -9 9 -13 12
-10 7 7 -14 47 -25 47 -4 0 -11 -3 -14 -7z"/>
<path d="M11851 2011 c-11 -7 -11 -9 0 -14 11 -5 10 -8 -3 -17 -10 -6 -18 -16
-18 -22 0 -6 8 -4 18 5 10 10 26 17 35 17 22 0 33 20 16 31 -18 11 -30 11 -48
0z"/>
<path d="M12043 1824 c0 -18 2 -22 8 -13 11 18 11 39 0 39 -5 0 -8 -12 -8 -26z"/>
<path d="M10800 1430 c0 -11 -9 -25 -20 -32 -15 -10 -20 -24 -20 -55 0 -39 2
-43 25 -43 29 0 54 45 35 64 -13 13 -13 53 0 61 12 7 4 25 -11 25 -5 0 -9 -9
-9 -20z"/>
<path d="M13115 1360 c-3 -5 3 -10 15 -10 12 0 18 5 15 10 -3 6 -10 10 -15 10
-5 0 -12 -4 -15 -10z"/>
<path d="M12931 1345 c0 -18 26 -58 32 -49 3 5 -3 21 -14 34 -10 14 -18 21
-18 15z"/>
<path d="M12884 1285 c11 -8 27 -15 35 -15 13 1 12 4 -3 15 -11 8 -27 15 -35
15 -13 -1 -12 -4 3 -15z"/>
<path d="M13034 1131 c-5 -5 13 -36 32 -55 30 -31 84 -9 84 34 0 15 -10 19
-56 22 -31 1 -57 1 -60 -1z"/>
<path d="M11634 845 c-4 -8 -1 -21 5 -29 6 -7 9 -21 5 -30 -7 -19 17 -22 47
-6 16 9 19 7 19 -9 0 -22 19 -31 66 -31 37 0 43 14 23 53 -17 32 -17 32 -39
12 -16 -14 -22 -15 -35 -5 -8 7 -15 18 -15 26 0 29 -66 46 -76 19z m41 -15
c-3 -5 -10 -10 -16 -10 -5 0 -9 5 -9 10 0 6 7 10 16 10 8 0 12 -4 9 -10z"/>
<path d="M11820 803 c0 -23 17 -49 26 -41 9 10 -4 58 -16 58 -6 0 -10 -8 -10
-17z"/>
<path d="M11700 703 c0 -12 5 -25 10 -28 13 -8 13 15 0 35 -8 12 -10 11 -10
-7z"/>
<path d="M11520 597 c0 -21 48 -43 63 -28 6 6 0 12 -19 17 -16 4 -32 12 -36
18 -5 7 -8 4 -8 -7z"/>
<path d="M15460 4291 c0 -57 -1 -60 -27 -64 l-28 -4 28 -2 27 -1 0 -324 0
-325 -27 -4 -28 -4 28 -2 27 -1 0 -319 0 -320 -27 -4 -28 -4 28 -2 27 -1 0
-324 0 -325 -27 -4 -28 -4 28 -2 27 -1 0 -319 0 -320 -27 -4 -28 -4 28 -2 27
-1 0 -324 0 -325 -27 -4 -28 -4 28 -2 27 -1 0 -280 0 -280 194 0 195 0 4 -28
4 -27 2 28 1 27 314 0 315 0 4 -28 4 -27 2 28 1 27 314 0 315 0 4 -28 4 -27 2
28 1 27 314 0 315 0 4 -27 4 -28 2 28 1 27 314 0 315 0 4 -27 4 -28 2 28 1 27
180 0 180 0 0 1985 0 1985 -1660 0 -1660 0 0 -59z m3310 -1926 l0 -1975 -1650
0 -1650 0 0 1975 0 1975 1650 0 1650 0 0 -1975z"/>
<path d="M16108 3283 c-8 -10 -18 -33 -21 -51 -7 -34 -8 -32 75 -122 15 -17
18 -17 66 6 28 13 53 32 57 42 7 25 -32 112 -53 118 -9 3 -25 10 -34 15 -28
15 -74 10 -90 -8z"/>
<path d="M18539 3018 c-6 -13 -13 -24 -15 -26 -1 -2 -12 6 -24 18 -17 17 -28
19 -58 14 -51 -9 -90 -25 -74 -31 17 -7 15 -30 -4 -37 -13 -5 -14 -9 -5 -20 7
-9 9 -29 5 -55 -6 -39 -5 -41 26 -55 20 -8 28 -16 21 -20 -6 -4 -10 -27 -9
-52 3 -37 6 -44 24 -44 25 0 44 18 44 42 0 10 9 27 20 38 11 11 20 26 20 34 0
7 10 17 23 21 13 4 17 8 10 12 -15 6 -18 53 -3 53 6 0 10 7 10 16 0 13 3 14
14 5 16 -14 60 -5 77 15 19 23 2 60 -35 78 -45 21 -53 20 -67 -6z m-19 -68 c0
-11 -7 -20 -15 -20 -13 0 -13 3 -3 20 7 11 14 20 15 20 2 0 3 -9 3 -20z m-115
-108 c-3 -3 -11 0 -18 7 -9 10 -8 11 6 5 10 -3 15 -9 12 -12z m75 -23 c0 -15
-4 -19 -16 -15 -9 3 -18 6 -20 6 -2 0 -4 7 -4 15 0 8 9 15 20 15 14 0 20 -7
20 -21z m-32 -62 c2 -10 -3 -17 -12 -17 -10 0 -16 9 -16 21 0 24 23 21 28 -4z"/>
<path d="M16912 2018 c-21 -21 -22 -21 -16 -3 6 16 4 18 -6 8 -7 -7 -25 -9
-41 -6 -29 5 -42 -11 -16 -20 9 -3 7 -8 -5 -18 -20 -17 -27 -84 -10 -101 9 -9
20 -9 48 1 40 14 52 10 29 -9 -17 -14 -19 -38 -6 -59 5 -7 30 -17 56 -22 65
-12 89 7 80 64 -6 32 -3 43 15 62 20 21 21 26 8 52 -10 21 -20 28 -43 28 -21
0 -34 7 -43 23 -7 12 -16 22 -20 22 -4 0 -18 -10 -30 -22z m113 -48 c3 -5 -1
-10 -9 -10 -9 0 -16 5 -16 10 0 6 4 10 9 10 6 0 13 -4 16 -10z"/>
<path d="M16780 1845 c-7 -8 -8 -15 -2 -15 5 0 15 7 22 15 7 8 8 15 2 15 -5 0
-15 -7 -22 -15z"/>
<path d="M16808 1773 c6 -2 18 -2 25 0 6 3 1 5 -13 5 -14 0 -19 -2 -12 -5z"/>
<path d="M15660 1473 c-25 -30 -41 -63 -35 -72 2 -5 -2 -14 -10 -21 -21 -18
-19 -56 5 -80 23 -23 50 -26 68 -8 7 7 34 13 60 13 41 0 47 3 50 23 2 12 9 22
15 22 8 0 11 13 9 40 -3 31 -11 45 -39 66 -45 34 -103 43 -123 17z"/>
<path d="M16604 845 c-4 -8 -1 -21 4 -28 6 -7 9 -23 5 -35 -3 -12 0 -29 7 -37
10 -13 9 -15 -9 -15 -11 0 -21 -5 -21 -11 0 -5 -15 -16 -34 -24 -66 -28 -91
-106 -41 -125 14 -5 31 -7 39 -4 8 3 19 -3 26 -15 14 -27 50 -19 102 22 43 34
54 73 27 90 -11 7 -19 19 -19 29 0 9 -5 20 -10 23 -6 4 -7 11 -4 17 4 6 -1 17
-12 25 -16 12 -17 15 -4 23 11 7 16 5 19 -8 5 -24 20 -32 64 -32 40 0 47 13
26 53 -17 32 -17 32 -39 12 -16 -14 -22 -15 -35 -5 -8 7 -15 18 -15 26 0 29
-66 46 -76 19z m41 -15 c-3 -5 -10 -10 -16 -10 -5 0 -9 5 -9 10 0 6 7 10 16
10 8 0 12 -4 9 -10z"/>
<path d="M5270 4259 c0 -5 5 -7 10 -4 6 4 10 -10 10 -34 0 -22 -5 -42 -12 -44
-7 -3 3 -5 22 -5 19 0 27 2 18 5 -14 3 -18 15 -18 49 0 32 -4 44 -15 44 -8 0
-15 -5 -15 -11z"/>
<path d="M5340 4251 c0 -13 8 -21 23 -23 14 -2 22 -10 22 -23 0 -14 -6 -20
-22 -19 -13 0 -23 -3 -23 -8 0 -5 12 -8 28 -6 21 2 28 9 30 31 3 22 -1 30 -17
34 -28 7 -27 21 2 26 16 3 13 5 -10 6 -26 1 -33 -3 -33 -18z"/>
<path d="M10240 4259 c0 -5 5 -7 10 -4 6 4 10 -10 10 -34 0 -22 -5 -42 -12
-44 -7 -3 3 -5 22 -5 19 0 27 2 18 5 -14 3 -18 15 -18 49 0 32 -4 44 -15 44
-8 0 -15 -5 -15 -11z"/>
<path d="M10310 4251 c0 -13 8 -21 23 -23 14 -2 22 -10 22 -23 0 -14 -6 -20
-22 -19 -13 0 -23 -3 -23 -8 0 -5 12 -8 28 -6 21 2 28 9 30 31 3 22 -1 30 -17
34 -28 7 -27 21 2 26 16 3 13 5 -10 6 -26 1 -33 -3 -33 -18z"/>
<path d="M15220 4259 c0 -5 5 -7 10 -4 6 4 10 -10 10 -34 0 -22 -5 -42 -12
-44 -7 -3 3 -5 22 -5 19 0 27 2 18 5 -14 3 -18 15 -18 49 0 32 -4 44 -15 44
-8 0 -15 -5 -15 -11z"/>
<path d="M15290 4251 c0 -13 8 -21 23 -23 14 -2 22 -10 22 -23 0 -14 -6 -20
-22 -19 -13 0 -23 -3 -23 -8 0 -5 12 -8 28 -6 21 2 28 9 30 31 3 22 -1 30 -17
34 -28 7 -27 21 2 26 16 3 13 5 -10 6 -26 1 -33 -3 -33 -18z"/>
<path d="M4552 4198 c-17 -17 -15 -63 4 -79 22 -18 48 0 52 35 6 45 -29 71
-56 44z m38 -18 c11 -21 -2 -60 -20 -60 -13 0 -22 37 -15 60 3 11 10 20 15 20
5 0 14 -9 20 -20z"/>
<path d="M9532 4198 c-17 -17 -15 -63 4 -79 22 -18 48 0 52 35 6 45 -29 71
-56 44z m38 -18 c11 -21 -2 -60 -20 -60 -5 0 -12 9 -15 20 -7 23 2 60 15 60 5
0 14 -9 20 -20z"/>
<path d="M14480 4160 l0 -50 38 1 c30 2 32 3 10 6 -35 5 -39 40 -5 46 l22 4
-22 2 c-33 2 -29 29 5 34 22 3 20 4 -10 6 l-38 1 0 -50z"/>
<path d="M14790 4199 c0 -5 5 -7 10 -4 6 4 10 -10 10 -34 0 -22 -5 -42 -12
-44 -7 -3 3 -6 22 -6 28 0 32 2 18 10 -12 7 -18 22 -18 49 0 29 -4 40 -15 40
-8 0 -15 -5 -15 -11z"/>
<path d="M19460 4160 l0 -50 38 1 c30 2 32 3 10 6 -35 5 -39 40 -5 46 l22 4
-22 2 c-33 2 -29 29 5 34 22 3 20 4 -10 6 l-38 1 0 -50z"/>
<path d="M14571 4146 c1 -42 3 -41 13 7 9 37 29 30 38 -14 6 -34 6 -34 5 6 -2
36 -5 40 -29 41 -26 1 -28 -1 -27 -40z"/>
<path d="M14650 4186 c0 -13 32 -76 38 -76 9 0 34 71 27 78 -2 2 -10 -11 -18
-29 l-13 -34 -12 33 c-9 26 -22 43 -22 28z"/>
<path d="M19544 4153 c17 -49 32 -52 46 -8 15 46 6 57 -10 13 l-13 -33 -10 33
c-5 17 -14 32 -18 32 -4 0 -2 -17 5 -37z"/>
<path d="M19633 4183 c-7 -2 -13 -17 -13 -33 0 -28 16 -41 48 -39 10 1 7 4 -7
8 -37 10 -38 31 -2 31 33 0 39 8 19 28 -13 13 -24 14 -45 5z m37 -13 c0 -5 -9
-10 -21 -10 -11 0 -17 5 -14 10 3 6 13 10 21 10 8 0 14 -4 14 -10z"/>
<path d="M19711 4146 l2 -41 6 35 c4 22 12 35 21 35 9 0 18 -13 22 -35 l6 -35
-1 40 c-2 36 -5 40 -29 41 -26 1 -28 -1 -27 -40z"/>
<path d="M19620 3992 c0 -13 -7 -18 -22 -18 -20 1 -23 -4 -23 -34 0 -31 3 -35
28 -36 26 -1 27 1 27 52 0 30 -2 54 -5 54 -3 0 -5 -8 -5 -18z m-5 -52 c0 -27
-22 -39 -31 -16 -8 22 3 49 19 43 6 -2 12 -14 12 -27z"/>
<path d="M19710 3992 c0 -13 -7 -18 -22 -18 -20 1 -23 -4 -23 -34 0 -31 3 -35
28 -36 26 -1 27 1 27 52 0 30 -2 54 -5 54 -3 0 -5 -8 -5 -18z m-5 -52 c0 -13
-6 -25 -12 -27 -16 -6 -27 21 -19 43 9 23 31 11 31 -16z"/>
<path d="M4550 3989 c0 -5 5 -7 10 -4 6 4 10 -10 10 -34 0 -22 -5 -42 -12 -44
-7 -3 3 -5 22 -5 19 0 27 2 18 5 -14 3 -18 15 -18 49 0 32 -4 44 -15 44 -8 0
-15 -5 -15 -11z"/>
<path d="M9530 3989 c0 -5 5 -7 10 -4 6 4 10 -10 10 -34 0 -22 -5 -42 -12 -44
-7 -3 3 -5 22 -5 19 0 27 2 18 5 -14 3 -18 15 -18 49 0 32 -4 44 -15 44 -8 0
-15 -5 -15 -11z"/>
<path d="M14480 3950 l0 -50 38 1 c30 2 32 3 10 6 -35 5 -39 40 -5 46 l22 4
-22 2 c-33 2 -29 29 5 34 22 3 20 4 -10 6 l-38 1 0 -50z"/>
<path d="M14786 3992 c-3 -5 4 -8 16 -8 31 1 32 -18 3 -53 l-27 -31 39 1 c31
2 33 3 9 6 l-28 5 22 23 c12 13 20 31 18 42 -3 19 -42 31 -52 15z"/>
<path d="M19482 3988 c-7 -7 -12 -24 -12 -38 0 -31 17 -50 45 -50 28 0 45 19
45 50 0 31 -17 50 -45 50 -12 0 -26 -5 -33 -12z m58 -18 c20 -38 -19 -77 -48
-48 -23 23 -7 68 25 68 7 0 17 -9 23 -20z"/>
<path d="M14571 3936 c1 -42 3 -41 13 7 9 37 29 30 38 -14 6 -34 6 -34 5 6 -2
36 -5 40 -29 41 -26 1 -28 -1 -27 -40z"/>
<path d="M14650 3976 c0 -13 32 -76 38 -76 9 0 34 71 27 78 -2 2 -10 -11 -18
-29 l-13 -34 -12 33 c-9 26 -22 43 -22 28z"/>
<path d="M290 3809 c0 -5 5 -7 10 -4 6 4 10 -10 10 -34 0 -22 -5 -42 -12 -44
-7 -3 3 -5 22 -5 19 0 27 2 18 5 -14 3 -18 15 -18 49 0 32 -4 44 -15 44 -8 0
-15 -5 -15 -11z"/>
<path d="M364 3795 c-10 -39 3 -75 26 -75 12 0 25 10 32 25 15 33 -3 75 -32
75 -13 0 -22 -9 -26 -25z m41 -26 c0 -24 -5 -34 -15 -34 -16 0 -25 37 -16 62
10 26 31 8 31 -28z"/>
<path d="M4546 3782 c-3 -6 2 -8 13 -5 31 8 35 -17 7 -46 -34 -35 -33 -41 7
-40 25 1 27 3 9 6 l-24 5 22 23 c12 13 20 31 18 42 -3 19 -42 30 -52 15z"/>
<path d="M9516 3782 c-3 -6 2 -8 13 -5 31 8 35 -17 7 -46 -34 -35 -33 -41 7
-40 25 1 27 3 9 6 l-24 5 22 23 c12 13 20 31 18 42 -3 19 -42 30 -52 15z"/>
<path d="M5270 3609 c0 -5 5 -7 10 -4 6 4 10 -10 10 -34 0 -22 -5 -42 -12 -44
-7 -3 3 -5 22 -5 19 0 27 2 18 5 -14 3 -18 15 -18 49 0 32 -4 44 -15 44 -8 0
-15 -5 -15 -11z"/>
<path d="M5344 3595 c-10 -39 3 -75 26 -75 12 0 25 10 32 25 15 33 -3 75 -32
75 -13 0 -22 -9 -26 -25z m41 -26 c0 -24 -5 -34 -15 -34 -16 0 -25 37 -16 62
10 26 31 8 31 -28z"/>
<path d="M10240 3609 c0 -5 5 -7 10 -4 6 4 10 -10 10 -34 0 -22 -5 -42 -12
-44 -7 -3 3 -5 22 -5 19 0 27 2 18 5 -14 3 -18 15 -18 49 0 32 -4 44 -15 44
-8 0 -15 -5 -15 -11z"/>
<path d="M10314 3595 c-10 -39 3 -75 26 -75 29 0 47 42 32 75 -7 15 -20 25
-32 25 -13 0 -22 -9 -26 -25z m41 -26 c0 -24 -5 -34 -15 -34 -16 0 -25 37 -16
62 10 26 31 8 31 -28z"/>
<path d="M15220 3609 c0 -5 5 -7 10 -4 6 4 10 -10 10 -34 0 -22 -5 -42 -12
-44 -7 -3 3 -5 22 -5 19 0 27 2 18 5 -14 3 -18 15 -18 49 0 32 -4 44 -15 44
-8 0 -15 -5 -15 -11z"/>
<path d="M15294 3595 c-10 -39 3 -75 26 -75 29 0 47 42 32 75 -7 15 -20 25
-32 25 -13 0 -22 -9 -26 -25z m41 -26 c0 -24 -5 -34 -15 -34 -16 0 -25 37 -16
62 10 26 31 8 31 -28z"/>
<path d="M4568 3570 c26 -11 29 -30 5 -30 -15 0 -15 -1 2 -13 22 -17 11 -41
-16 -34 -11 3 -19 1 -19 -4 0 -15 46 -10 60 6 6 8 8 20 4 27 -5 7 -8 22 -9 33
0 14 -8 21 -25 22 -25 3 -25 3 -2 -7z"/>
<path d="M9538 3570 c26 -11 29 -30 5 -30 -15 0 -15 -1 2 -13 22 -17 11 -41
-16 -34 -11 3 -19 1 -19 -4 0 -15 46 -10 60 6 6 8 8 20 4 27 -5 7 -8 22 -9 33
0 14 -8 21 -25 22 -25 3 -25 3 -2 -7z"/>
<path d="M4254 3539 c-13 -15 -16 -24 -8 -36 20 -32 41 -38 63 -19 26 23 26
38 3 59 -24 22 -35 21 -58 -4z m60 -11 c8 -14 7 -21 -6 -34 -30 -30 -75 9 -48
42 16 18 39 15 54 -8z"/>
<path d="M9224 3539 c-19 -22 -13 -43 19 -63 12 -8 21 -5 36 8 26 23 26 38 3
59 -24 22 -35 21 -58 -4z m60 -11 c8 -14 7 -21 -6 -34 -30 -30 -75 9 -48 42
16 18 39 15 54 -8z"/>
<path d="M4561 3344 c-26 -33 -26 -44 -1 -44 11 0 20 -7 20 -15 0 -21 18 -19
22 3 5 26 -3 82 -12 82 -5 0 -18 -12 -29 -26z m19 -14 c0 -11 -7 -20 -15 -20
-13 0 -13 3 -3 20 7 11 14 20 15 20 2 0 3 -9 3 -20z"/>
<path d="M9541 3344 c-26 -33 -26 -44 -1 -44 11 0 20 -7 20 -15 0 -21 18 -19
22 3 5 26 -3 82 -12 82 -5 0 -18 -12 -29 -26z m19 -14 c0 -11 -7 -20 -15 -20
-13 0 -13 3 -3 20 7 11 14 20 15 20 2 0 3 -9 3 -20z"/>
<path d="M370 3171 c0 -13 8 -21 23 -23 14 -2 22 -10 22 -23 0 -14 -6 -20 -22
-19 -13 0 -23 -3 -23 -8 0 -15 49 -8 59 9 11 21 -3 53 -24 53 -24 0 -17 18 8
23 16 3 13 5 -10 6 -26 1 -33 -3 -33 -18z"/>
<path d="M4540 3141 c0 -13 8 -21 23 -23 14 -2 22 -10 22 -23 0 -14 -6 -20
-22 -19 -13 0 -23 -3 -23 -8 0 -15 49 -8 59 9 11 21 -3 53 -24 53 -24 0 -17
18 8 23 16 3 13 5 -10 6 -26 1 -33 -3 -33 -18z"/>
<path d="M9510 3141 c0 -13 8 -21 23 -23 14 -2 22 -10 22 -23 0 -14 -6 -20
-22 -19 -13 0 -23 -3 -23 -8 0 -15 49 -8 59 9 11 21 -3 53 -24 53 -24 0 -17
18 8 23 16 3 13 5 -10 6 -26 1 -33 -3 -33 -18z"/>
<path d="M4552 2948 c-32 -32 1 -104 36 -81 25 15 21 46 -8 60 l-24 12 24 10
c22 9 23 10 5 10 -12 1 -26 -4 -33 -11z m40 -40 c7 -19 -2 -38 -18 -38 -8 0
-14 8 -14 18 0 30 23 44 32 20z"/>
<path d="M5340 2941 c0 -13 8 -21 23 -23 14 -2 22 -10 22 -23 0 -14 -6 -20
-22 -19 -13 0 -23 -3 -23 -8 0 -15 49 -8 59 9 11 21 -3 53 -24 53 -24 0 -17
18 8 23 16 3 13 5 -10 6 -26 1 -33 -3 -33 -18z"/>
<path d="M9522 2948 c-32 -32 1 -104 36 -81 25 15 21 46 -8 60 l-24 12 24 10
c22 9 23 10 5 10 -12 1 -26 -4 -33 -11z m40 -40 c7 -19 -2 -38 -18 -38 -8 0
-14 8 -14 18 0 30 23 44 32 20z"/>
<path d="M10310 2941 c0 -13 8 -21 23 -23 14 -2 22 -10 22 -23 0 -14 -6 -20
-22 -19 -13 0 -23 -3 -23 -8 0 -15 49 -8 59 9 11 21 -3 53 -24 53 -24 0 -17
18 8 23 16 3 13 5 -10 6 -26 1 -33 -3 -33 -18z"/>
<path d="M15290 2941 c0 -13 8 -21 23 -23 14 -2 22 -10 22 -23 0 -14 -6 -20
-22 -19 -13 0 -23 -3 -23 -8 0 -15 49 -8 59 9 11 21 -3 53 -24 53 -24 0 -17
18 8 23 16 3 13 5 -10 6 -26 1 -33 -3 -33 -18z"/>
<path d="M4562 2743 c28 -4 28 -4 13 -40 -8 -19 -15 -40 -15 -46 0 -19 14 3
31 48 l17 45 -36 -1 c-30 -2 -32 -3 -10 -6z"/>
<path d="M9532 2743 c28 -4 28 -4 13 -40 -8 -19 -15 -40 -15 -46 0 -19 14 3
31 48 l17 45 -36 -1 c-30 -2 -32 -3 -10 -6z"/>
<path d="M382 2558 c-17 -17 -15 -63 4 -79 22 -18 48 0 52 35 6 45 -29 71 -56
44z m38 -18 c11 -21 -2 -60 -20 -60 -5 0 -12 9 -15 20 -7 23 2 60 15 60 5 0
14 -9 20 -20z"/>
<path d="M4549 2533 c0 -5 -1 -26 -2 -48 -2 -37 0 -40 26 -43 31 -4 46 20 28
42 -9 10 -9 16 -1 21 8 5 8 11 -1 21 -12 15 -48 19 -50 7z m41 -18 c0 -8 -7
-15 -15 -15 -8 0 -15 7 -15 15 0 8 7 15 15 15 8 0 15 -7 15 -15z m8 -42 c5
-17 -26 -29 -40 -15 -6 6 -7 15 -3 22 9 14 37 9 43 -7z"/>
<path d="M9519 2533 c0 -5 -1 -26 -2 -48 -2 -37 0 -40 26 -43 31 -4 46 20 28
42 -9 10 -9 16 -1 21 8 5 8 11 -1 21 -12 15 -48 19 -50 7z m41 -18 c0 -8 -7
-15 -15 -15 -8 0 -15 7 -15 15 0 8 7 15 15 15 8 0 15 -7 15 -15z m8 -42 c5
-17 -26 -29 -40 -15 -6 6 -7 15 -3 22 9 14 37 9 43 -7z"/>
<path d="M4544 2316 c-9 -24 3 -46 26 -46 27 0 26 -18 -2 -30 -23 -10 -23 -10
2 -7 30 3 50 48 34 75 -15 23 -52 28 -60 8z m44 -19 c2 -10 -3 -17 -12 -17
-18 0 -29 16 -21 31 9 14 29 6 33 -14z"/>
<path d="M9524 2316 c-9 -24 3 -46 26 -46 27 0 26 -18 -2 -30 -23 -10 -23 -10
2 -7 30 3 50 48 34 75 -15 23 -52 28 -60 8z m44 -19 c2 -10 -3 -17 -12 -17
-18 0 -29 16 -21 31 9 14 29 6 33 -14z"/>
<path d="M5362 2298 c-17 -17 -15 -63 4 -79 22 -18 48 0 52 35 6 45 -29 71
-56 44z m38 -18 c11 -21 -2 -60 -20 -60 -5 0 -12 9 -15 20 -7 23 2 60 15 60 5
0 14 -9 20 -20z"/>
<path d="M10332 2298 c-17 -17 -15 -63 4 -79 22 -18 48 0 52 35 6 45 -29 71
-56 44z m38 -18 c11 -21 -2 -60 -20 -60 -13 0 -22 37 -15 60 3 11 10 20 15 20
5 0 14 -9 20 -20z"/>
<path d="M15312 2298 c-17 -17 -15 -63 4 -79 22 -18 48 0 52 35 6 45 -29 71
-56 44z m38 -18 c11 -21 -2 -60 -20 -60 -13 0 -22 37 -15 60 3 11 10 20 15 20
5 0 14 -9 20 -20z"/>
<path d="M360 1921 c0 -13 8 -21 23 -23 31 -4 29 -40 -3 -50 -23 -6 -23 -7 5
-5 25 2 31 7 33 29 3 22 -2 29 -22 34 -34 8 -33 22 2 27 25 4 25 4 -5 6 -26 1
-33 -3 -33 -18z"/>
<path d="M273 1883 c15 -2 37 -2 50 0 12 2 0 4 -28 4 -27 0 -38 -2 -22 -4z"/>
<path d="M5340 1631 c0 -13 8 -21 23 -23 31 -4 29 -40 -3 -50 -23 -6 -23 -7 5
-5 25 2 31 7 33 29 3 22 -2 29 -22 34 -34 8 -33 22 2 27 25 4 25 4 -5 6 -26 1
-33 -3 -33 -18z"/>
<path d="M10310 1631 c0 -13 8 -21 23 -23 31 -4 29 -40 -3 -50 -23 -6 -23 -7
5 -5 25 2 31 7 33 29 3 22 -2 29 -22 34 -34 8 -33 22 2 27 25 4 25 4 -5 6 -26
1 -33 -3 -33 -18z"/>
<path d="M15290 1631 c0 -13 8 -21 23 -23 31 -4 29 -40 -3 -50 -23 -6 -23 -7
5 -5 25 2 31 7 33 29 3 22 -2 29 -22 34 -34 8 -33 22 2 27 25 4 25 4 -5 6 -26
1 -33 -3 -33 -18z"/>
<path d="M5253 1593 c15 -2 37 -2 50 0 12 2 0 4 -28 4 -27 0 -38 -2 -22 -4z"/>
<path d="M10223 1593 c15 -2 37 -2 50 0 12 2 0 4 -28 4 -27 0 -38 -2 -22 -4z"/>
<path d="M15203 1593 c15 -2 37 -2 50 0 12 2 0 4 -28 4 -27 0 -38 -2 -22 -4z"/>
<path d="M285 1300 c-4 -6 -1 -9 7 -8 8 2 14 -10 16 -34 2 -28 -1 -37 -15 -41
-10 -3 -2 -5 17 -5 19 0 29 2 23 5 -8 3 -13 23 -13 49 0 32 -4 44 -14 44 -8 0
-18 -5 -21 -10z"/>
<path d="M368 1286 c-16 -37 3 -79 35 -74 19 3 22 9 22 48 0 39 -3 45 -22 48
-16 2 -26 -4 -35 -22z m47 -27 c0 -24 -5 -34 -15 -34 -16 0 -25 37 -16 62 10
26 31 8 31 -28z"/>
<path d="M193 1253 c15 -2 37 -2 50 0 12 2 0 4 -28 4 -27 0 -38 -2 -22 -4z"/>
<path d="M5255 990 c-4 -6 -1 -9 7 -8 8 2 14 -10 16 -34 2 -28 -1 -37 -15 -41
-10 -3 -2 -5 17 -5 19 0 29 2 23 5 -8 3 -13 23 -13 49 0 32 -4 44 -14 44 -8 0
-18 -5 -21 -10z"/>
<path d="M5338 976 c-16 -37 3 -79 35 -74 19 3 22 9 22 48 0 39 -3 45 -22 48
-16 2 -26 -4 -35 -22z m47 -27 c0 -24 -5 -34 -15 -34 -16 0 -25 37 -16 62 10
26 31 8 31 -28z"/>
<path d="M10225 990 c-4 -6 -1 -9 7 -8 8 2 14 -10 16 -34 2 -28 -1 -37 -15
-41 -10 -3 -2 -5 17 -5 19 0 29 2 23 5 -8 3 -13 23 -13 49 0 32 -4 44 -14 44
-8 0 -18 -5 -21 -10z"/>
<path d="M10308 976 c-16 -37 3 -79 35 -74 19 3 22 9 22 48 0 39 -3 45 -22 48
-16 2 -26 -4 -35 -22z m47 -27 c0 -24 -5 -34 -15 -34 -16 0 -25 37 -16 62 10
26 31 8 31 -28z"/>
<path d="M15205 990 c-4 -6 -1 -9 7 -8 8 2 14 -10 16 -34 2 -28 -1 -37 -15
-41 -10 -3 -2 -5 17 -5 19 0 29 2 23 5 -8 3 -13 23 -13 49 0 32 -4 44 -14 44
-8 0 -18 -5 -21 -10z"/>
<path d="M15288 976 c-16 -37 3 -79 35 -74 19 3 22 9 22 48 0 39 -3 45 -22 48
-16 2 -26 -4 -35 -22z m47 -27 c0 -24 -5 -34 -15 -34 -16 0 -25 37 -16 62 10
26 31 8 31 -28z"/>
<path d="M5163 943 c15 -2 37 -2 50 0 12 2 0 4 -28 4 -27 0 -38 -2 -22 -4z"/>
<path d="M10133 943 c15 -2 37 -2 50 0 12 2 0 4 -28 4 -27 0 -38 -2 -22 -4z"/>
<path d="M15113 943 c15 -2 37 -2 50 0 12 2 0 4 -28 4 -27 0 -38 -2 -22 -4z"/>
<path d="M285 680 c-4 -6 -1 -9 7 -8 8 2 14 -10 16 -34 2 -28 -1 -37 -15 -41
-10 -3 -2 -5 17 -5 19 0 29 2 23 5 -8 3 -13 23 -13 49 0 32 -4 44 -14 44 -8 0
-18 -5 -21 -10z"/>
<path d="M370 671 c0 -13 8 -21 23 -23 31 -4 29 -40 -3 -49 -20 -6 -21 -7 -5
-8 48 -2 61 45 17 64 -28 12 -28 22 1 28 19 4 18 4 -5 6 -21 1 -28 -4 -28 -18z"/>
<path d="M193 633 c15 -2 37 -2 50 0 12 2 0 4 -28 4 -27 0 -38 -2 -22 -4z"/>
<path d="M1040 271 c0 -5 8 -7 19 -4 30 8 33 -13 6 -45 -32 -39 -32 -42 8 -41
23 1 26 3 10 6 l-23 4 22 29 c11 16 18 36 15 44 -7 17 -57 23 -57 7z"/>
<path d="M1128 256 c-16 -37 3 -79 35 -74 19 3 22 9 22 48 0 39 -3 45 -22 48
-16 2 -26 -4 -35 -22z m47 -27 c0 -24 -5 -34 -15 -34 -16 0 -25 37 -16 62 10
26 31 8 31 -28z"/>
<path d="M1605 270 c-4 -6 -1 -9 7 -8 8 2 14 -10 16 -34 2 -28 -1 -37 -15 -41
-10 -3 -2 -5 17 -5 19 0 29 2 23 5 -8 3 -13 23 -13 49 0 32 -4 44 -14 44 -8 0
-18 -5 -21 -10z"/>
<path d="M1688 256 c-16 -37 3 -79 35 -74 19 3 22 9 22 48 0 39 -3 45 -22 48
-16 2 -26 -4 -35 -22z m47 -27 c0 -24 -5 -34 -15 -34 -16 0 -25 37 -16 62 10
26 31 8 31 -28z"/>
<path d="M2182 268 c-17 -17 -15 -63 4 -79 22 -18 48 0 52 35 6 45 -29 71 -56
44z m38 -18 c11 -21 -2 -60 -20 -60 -5 0 -12 9 -15 20 -7 23 2 60 15 60 5 0
14 -9 20 -20z"/>
<path d="M2700 269 c0 -5 5 -7 10 -4 6 4 10 -10 10 -34 0 -22 -5 -42 -12 -44
-7 -3 3 -5 22 -5 19 0 27 2 18 5 -14 3 -18 15 -18 49 0 32 -4 44 -15 44 -8 0
-15 -5 -15 -11z"/>
<path d="M2774 255 c-10 -39 3 -75 26 -75 29 0 47 42 32 75 -7 15 -20 25 -32
25 -13 0 -22 -9 -26 -25z m41 -26 c0 -24 -5 -34 -15 -34 -16 0 -25 37 -16 62
10 26 31 8 31 -28z"/>
<path d="M3256 272 c-3 -6 2 -8 13 -5 31 8 35 -17 7 -46 -34 -35 -33 -41 7
-40 25 1 27 3 9 6 l-24 5 22 23 c12 13 20 31 18 42 -3 19 -42 30 -52 15z"/>
<path d="M3344 255 c-10 -39 3 -75 26 -75 29 0 47 42 32 75 -7 15 -20 25 -32
25 -13 0 -22 -9 -26 -25z m41 -26 c0 -24 -5 -34 -15 -34 -16 0 -25 37 -16 62
10 26 31 8 31 -28z"/>
<path d="M5885 270 c-4 -6 -1 -9 7 -8 8 2 14 -10 16 -34 2 -28 -1 -37 -15 -41
-10 -3 -2 -5 17 -5 19 0 29 2 23 5 -8 3 -13 23 -13 49 0 32 -4 44 -14 44 -8 0
-18 -5 -21 -10z"/>
<path d="M5968 256 c-16 -37 3 -79 35 -74 19 3 22 9 22 48 0 39 -3 45 -22 48
-16 2 -26 -4 -35 -22z m47 -27 c0 -24 -5 -34 -15 -34 -16 0 -25 37 -16 62 10
26 31 8 31 -28z"/>
<path d="M6560 261 c0 -13 8 -21 23 -23 31 -4 29 -40 -3 -50 -23 -6 -23 -7 5
-5 25 2 31 7 33 29 3 22 -2 29 -22 34 -34 8 -33 22 2 27 25 4 25 4 -5 6 -26 1
-33 -3 -33 -18z"/>
<path d="M7162 268 c-17 -17 -15 -63 4 -79 22 -18 48 0 52 35 6 45 -29 71 -56
44z m38 -18 c11 -21 -2 -60 -20 -60 -5 0 -12 9 -15 20 -7 23 2 60 15 60 5 0
14 -9 20 -20z"/>
<path d="M7790 261 c0 -13 8 -21 23 -23 14 -2 22 -10 22 -23 0 -14 -6 -20 -22
-19 -13 0 -23 -3 -23 -8 0 -15 49 -8 59 9 11 21 -3 53 -24 53 -24 0 -17 18 8
23 16 3 13 5 -10 6 -26 1 -33 -3 -33 -18z"/>
<path d="M8400 269 c0 -5 5 -7 10 -4 6 4 10 -10 10 -34 0 -22 -5 -42 -12 -44
-7 -3 3 -5 22 -5 19 0 27 2 18 5 -14 3 -18 15 -18 49 0 32 -4 44 -15 44 -8 0
-15 -5 -15 -11z"/>
<path d="M8474 255 c-10 -39 3 -75 26 -75 29 0 47 42 32 75 -7 15 -20 25 -32
25 -13 0 -22 -9 -26 -25z m41 -26 c0 -24 -5 -34 -15 -34 -16 0 -25 37 -16 62
10 26 31 8 31 -28z"/>
<path d="M10855 270 c-4 -6 -1 -9 7 -8 8 2 14 -10 16 -34 2 -28 -1 -37 -15
-41 -10 -3 -2 -5 17 -5 19 0 29 2 23 5 -8 3 -13 23 -13 49 0 32 -4 44 -14 44
-8 0 -18 -5 -21 -10z"/>
<path d="M10938 256 c-16 -37 3 -79 35 -74 19 3 22 9 22 48 0 39 -3 45 -22 48
-16 2 -26 -4 -35 -22z m47 -27 c0 -24 -5 -34 -15 -34 -16 0 -25 37 -16 62 10
26 31 8 31 -28z"/>
<path d="M11540 261 c0 -13 8 -21 23 -23 31 -4 29 -40 -3 -50 -23 -6 -23 -7 5
-5 25 2 31 7 33 29 3 22 -2 29 -22 34 -34 8 -33 22 2 27 25 4 25 4 -5 6 -26 1
-33 -3 -33 -18z"/>
<path d="M12142 268 c-17 -17 -15 -63 4 -79 22 -18 48 0 52 35 6 45 -29 71
-56 44z m38 -18 c11 -21 -2 -60 -20 -60 -13 0 -22 37 -15 60 3 11 10 20 15 20
5 0 14 -9 20 -20z"/>
<path d="M12760 261 c0 -13 8 -21 23 -23 14 -2 22 -10 22 -23 0 -14 -6 -20
-22 -19 -13 0 -23 -3 -23 -8 0 -15 49 -8 59 9 11 21 -3 53 -24 53 -24 0 -17
18 8 23 16 3 13 5 -10 6 -26 1 -33 -3 -33 -18z"/>
<path d="M13370 269 c0 -5 5 -7 10 -4 6 4 10 -10 10 -34 0 -22 -5 -42 -12 -44
-7 -3 3 -5 22 -5 19 0 27 2 18 5 -14 3 -18 15 -18 49 0 32 -4 44 -15 44 -8 0
-15 -5 -15 -11z"/>
<path d="M13444 255 c-10 -39 3 -75 26 -75 29 0 47 42 32 75 -7 15 -20 25 -32
25 -13 0 -22 -9 -26 -25z m41 -26 c0 -24 -5 -34 -15 -34 -16 0 -25 37 -16 62
10 26 31 8 31 -28z"/>
<path d="M15835 270 c-4 -6 -1 -9 7 -8 8 2 14 -10 16 -34 2 -28 -1 -37 -15
-41 -10 -3 -2 -5 17 -5 19 0 29 2 23 5 -8 3 -13 23 -13 49 0 32 -4 44 -14 44
-8 0 -18 -5 -21 -10z"/>
<path d="M15918 256 c-16 -37 3 -79 35 -74 19 3 22 9 22 48 0 39 -3 45 -22 48
-16 2 -26 -4 -35 -22z m47 -27 c0 -24 -5 -34 -15 -34 -16 0 -25 37 -16 62 10
26 31 8 31 -28z"/>
<path d="M16510 261 c0 -13 8 -21 23 -23 31 -4 29 -40 -3 -50 -23 -6 -23 -7 5
-5 25 2 31 7 33 29 3 22 -2 29 -22 34 -34 8 -33 22 2 27 25 4 25 4 -5 6 -26 1
-33 -3 -33 -18z"/>
<path d="M17112 268 c-17 -17 -15 -63 4 -79 22 -18 48 0 52 35 6 45 -29 71
-56 44z m38 -18 c11 -21 -2 -60 -20 -60 -13 0 -22 37 -15 60 3 11 10 20 15 20
5 0 14 -9 20 -20z"/>
<path d="M17730 261 c0 -13 8 -21 23 -23 14 -2 22 -10 22 -23 0 -14 -6 -20
-22 -19 -13 0 -23 -3 -23 -8 0 -15 49 -8 59 9 11 21 -3 53 -24 53 -24 0 -17
18 8 23 16 3 13 5 -10 6 -26 1 -33 -3 -33 -18z"/>
<path d="M18340 269 c0 -5 5 -7 10 -4 6 4 10 -10 10 -34 0 -22 -5 -42 -12 -44
-7 -3 3 -5 22 -5 19 0 27 2 18 5 -14 3 -18 15 -18 49 0 32 -4 44 -15 44 -8 0
-15 -5 -15 -11z"/>
<path d="M18414 255 c-10 -39 3 -75 26 -75 29 0 47 42 32 75 -7 15 -20 25 -32
25 -13 0 -22 -9 -26 -25z m41 -26 c0 -24 -5 -34 -15 -34 -16 0 -25 37 -16 62
10 26 31 8 31 -28z"/>
<path d="M953 223 c15 -2 37 -2 50 0 12 2 0 4 -28 4 -27 0 -38 -2 -22 -4z"/>
<path d="M1513 223 c15 -2 37 -2 50 0 12 2 0 4 -28 4 -27 0 -38 -2 -22 -4z"/>
<path d="M5793 223 c15 -2 37 -2 50 0 12 2 0 4 -28 4 -27 0 -38 -2 -22 -4z"/>
<path d="M6473 223 c15 -2 37 -2 50 0 12 2 0 4 -28 4 -27 0 -38 -2 -22 -4z"/>
<path d="M10763 223 c15 -2 37 -2 50 0 12 2 0 4 -28 4 -27 0 -38 -2 -22 -4z"/>
<path d="M11453 223 c15 -2 37 -2 50 0 12 2 0 4 -28 4 -27 0 -38 -2 -22 -4z"/>
<path d="M15743 223 c15 -2 37 -2 50 0 12 2 0 4 -28 4 -27 0 -38 -2 -22 -4z"/>
<path d="M16423 223 c15 -2 37 -2 50 0 12 2 0 4 -28 4 -27 0 -38 -2 -22 -4z"/>
</g>
</svg>
