<?xml version="1.0" standalone="no"?>
<!DOCTYPE svg PUBLIC "-//W3C//DTD SVG 20010904//EN"
 "http://www.w3.org/TR/2001/REC-SVG-20010904/DTD/svg10.dtd">
<svg version="1.0" xmlns="http://www.w3.org/2000/svg"
 width="960.000000pt" height="1280.000000pt" viewBox="0 0 960.000000 1280.000000"
 preserveAspectRatio="xMidYMid meet">

<g transform="translate(0.000000,1280.000000) scale(0.100000,-0.100000)"
fill="#000000" stroke="none">
<path d="M5708 12581 l-1377 -6 -43 -41 c-24 -22 -72 -67 -107 -100 -36 -32
-103 -95 -150 -139 -47 -45 -117 -110 -155 -145 -100 -93 -105 -97 -192 -180
-44 -41 -149 -140 -234 -220 -85 -80 -173 -163 -197 -186 -23 -22 -45 -39 -48
-36 -3 3 -5 42 -6 86 -1 45 -4 122 -8 171 l-6 90 -8 -130 c-9 -174 -9 -265 2
-265 21 0 31 -611 17 -1112 -8 -286 -13 -354 -28 -320 -1 4 -57 55 -123 114
-171 151 -159 130 -150 240 8 103 21 133 71 167 l33 23 40 -31 39 -31 6 52 c5
45 36 520 51 782 l4 79 -27 -24 c-51 -46 -146 -135 -256 -240 -61 -58 -142
-135 -180 -170 -39 -35 -114 -107 -169 -159 l-99 -95 60 -55 61 -55 6 -149 c6
-146 7 -150 33 -170 64 -50 1087 -960 1247 -1109 l60 -56 -55 -52 c-30 -28
-85 -81 -121 -116 l-67 -65 -93 83 c-52 46 -107 96 -124 110 -16 14 -77 68
-135 119 -58 51 -118 104 -135 119 -16 14 -102 90 -190 167 -132 117 -279 245
-455 398 -14 12 -122 104 -240 206 -118 102 -314 273 -435 381 -121 107 -328
292 -460 409 -132 118 -242 217 -245 220 -3 3 -192 172 -420 375 -228 202
-427 379 -442 393 l-28 26 3 -1578 2 -1577 798 1 799 0 66 -57 c60 -51 219
-193 262 -233 9 -8 63 -55 120 -105 57 -49 131 -115 164 -146 95 -87 222 -198
305 -267 42 -34 92 -75 111 -92 l35 -29 -130 -2 c-71 -2 -141 -2 -155 -2 -14
1 -43 -2 -65 -7 -35 -8 -437 -18 -825 -20 -88 0 -120 -4 -108 -11 10 -5 162
-12 360 -16 189 -3 350 -9 358 -14 9 -5 -25 -9 -85 -10 -55 -1 -113 -5 -130
-9 -16 -4 109 -8 279 -9 292 -1 362 -7 243 -22 -50 -6 -49 -6 28 -9 117 -5
-799 -26 -1226 -28 l-365 -3 -35 33 c-47 46 -424 395 -478 443 -25 22 -72 65
-105 96 -34 31 -97 88 -141 127 l-80 71 -8 -1332 c-4 -733 -6 -2587 -5 -4122
l3 -2790 3063 -3 c1684 -1 3062 2 3062 6 0 5 -42 48 -93 97 -208 201 -300 289
-467 445 -202 190 -277 260 -415 391 -55 53 -154 146 -220 209 -66 62 -124
120 -129 129 -5 9 27 -18 70 -59 67 -64 259 -244 384 -360 19 -18 109 -103
200 -189 91 -86 242 -229 335 -318 94 -89 213 -204 265 -257 l95 -96 170 0
170 0 -120 118 c-66 64 -178 172 -249 240 -148 141 -145 115 -22 235 91 89
487 482 675 671 l125 125 -85 79 c-46 44 -98 91 -115 105 -50 42 -64 83 -64
186 0 154 -9 179 -98 262 -108 101 -108 101 -72 139 17 18 30 41 30 51 0 10 4
19 9 19 5 0 11 7 13 16 4 19 98 -51 168 -124 41 -43 72 -69 124 -105 16 -12
25 -7 84 47 37 34 126 121 198 195 l132 134 34 -29 c20 -16 161 -146 314 -289
153 -143 299 -278 324 -301 25 -22 142 -131 260 -240 516 -477 978 -894 992
-894 3 0 7 497 8 1104 l1 1104 -28 22 c-28 21 -94 80 -287 255 -55 50 -143
128 -195 175 -324 290 -575 515 -1011 910 -375 339 -599 540 -622 558 -18 14
-21 12 -281 -238 -60 -58 -147 -141 -193 -185 l-84 -80 -3 -349 -2 -349 -155
140 c-85 78 -162 149 -170 159 -9 11 -31 31 -49 46 -18 15 -30 32 -27 37 3 5
0 11 -8 14 -9 4 -12 14 -9 26 4 17 1 21 -18 20 -13 0 -18 -3 -11 -6 6 -2 12
-12 12 -20 0 -13 -3 -13 -15 -3 -17 14 -20 50 -5 50 6 0 10 5 10 10 0 6 -12
10 -26 10 -20 0 -24 -4 -19 -19 5 -16 2 -18 -15 -14 l-21 6 7 -514 c8 -587 20
-532 -91 -428 -33 31 -90 82 -126 115 -105 95 -112 107 -105 206 3 46 6 90 7
98 2 8 0 27 -4 43 -6 21 -4 27 8 27 8 0 15 5 15 10 0 6 -6 10 -14 10 -8 0 -14
10 -14 23 1 12 -3 172 -7 354 l-8 332 -81 74 c-45 41 -103 95 -130 119 l-50
45 225 219 c123 120 298 291 389 379 91 88 456 450 813 805 356 355 652 647
657 648 6 2 10 8 10 13 0 5 -169 9 -412 9 l-411 0 -76 -72 c-194 -185 -551
-529 -706 -678 -93 -91 -230 -223 -304 -293 l-133 -127 -62 0 -61 0 100 97
c381 371 511 496 870 838 294 280 365 347 420 398 l50 47 217 0 217 0 48 41
c26 23 80 72 118 109 263 251 237 230 257 207 10 -11 18 -21 18 -22 0 -1 -16
-1 -35 1 -19 1 -35 -2 -35 -7 0 -5 7 -9 16 -9 12 0 15 -6 10 -25 -4 -15 -2
-25 4 -25 6 0 8 5 4 11 -4 7 1 10 12 7 12 -2 22 -18 29 -44 5 -23 15 -48 21
-55 6 -8 14 -32 18 -54 4 -22 12 -59 18 -82 12 -41 14 -43 50 -43 35 0 38 2
39 28 0 15 0 119 -1 231 0 154 -4 212 -14 233 -14 28 -14 28 17 28 18 1 120 1
227 0 l195 0 -54 30 c-56 31 -123 85 -232 184 -131 121 -240 218 -287 256 -76
60 -182 165 -182 179 0 6 5 9 10 6 6 -3 10 -1 10 4 0 6 -10 10 -22 8 -19 -2
-25 6 -36 43 -7 25 -23 77 -34 115 -37 123 -105 241 -188 327 l-75 78 -110 1
c-61 1 -182 5 -270 9 -147 6 -139 7 98 6 283 -1 274 -4 176 54 -23 14 -58 40
-78 57 -20 18 -59 49 -88 70 l-52 38 -3 335 -3 335 111 110 c122 121 512 487
707 665 26 23 45 45 43 47 -3 3 17 26 43 51 49 49 373 358 433 413 18 17 59
55 91 85 l57 54 0 162 0 161 98 96 c54 53 146 141 205 196 58 55 181 174 274
265 92 91 212 206 266 255 l97 90 0 118 0 117 -672 0 c-370 0 -887 2 -1148 3
-261 2 -1095 1 -1852 -2z m692 -900 l0 -340 -372 0 -373 0 30 26 c17 14 57 51
90 83 33 31 85 78 115 105 30 26 107 96 170 155 208 193 335 310 337 310 2 0
3 -153 3 -339z m-266 -878 c-3 -40 -10 -73 -16 -73 -6 0 -8 6 -5 14 3 8 2 16
-3 18 -6 2 -6 26 0 63 5 33 11 150 12 260 l1 200 9 -205 c4 -113 6 -238 2
-277z m-59 157 c7 -216 14 -300 26 -300 5 0 9 14 9 30 0 17 5 30 11 30 5 0 7
-5 4 -10 -4 -6 -4 -18 -1 -26 5 -12 9 -11 28 5 214 179 293 247 321 276 19 19
37 35 41 35 12 0 6 -29 -8 -37 -7 -4 -27 -20 -45 -35 l-32 -28 27 -25 c23 -22
26 -29 17 -44 -12 -18 -8 -31 9 -31 15 0 9 77 -7 84 -23 8 -18 23 13 38 l27
14 0 -154 c0 -85 3 -156 8 -159 11 -7 9 -63 -3 -63 -5 0 -10 -6 -10 -13 0 -17
-54 -22 -272 -22 l-168 0 0 -120 c1 -143 10 -198 38 -228 19 -20 21 -36 23
-185 1 -89 6 -162 10 -162 8 0 268 280 309 333 12 15 25 25 29 22 14 -8 20
-99 9 -150 -10 -47 -53 -125 -95 -170 -34 -36 -65 -85 -54 -85 6 0 11 4 11 8
0 4 25 39 56 76 42 51 59 65 65 55 7 -12 9 -12 9 0 0 8 2 12 5 10 2 -3 -2 -28
-9 -57 -14 -50 -78 -156 -132 -217 -43 -49 -91 -122 -68 -105 75 58 122 103
161 155 25 33 49 59 54 58 5 -2 6 3 3 11 -7 17 8 27 24 17 9 -5 6 -13 -8 -29
-25 -27 -104 -171 -98 -178 3 -2 37 25 75 60 l70 65 -4 -172 c-2 -99 0 -178 5
-186 8 -11 33 6 113 76 l104 90 3 -240 c1 -140 -2 -245 -7 -250 -13 -13 -40 8
-146 113 -51 49 -96 90 -102 90 -5 0 -26 -15 -45 -32 -61 -58 -151 -132 -180
-150 -16 -10 -44 -18 -64 -18 -31 0 -34 2 -24 19 7 13 7 22 0 26 -17 11 -11
24 15 31 18 4 25 13 25 30 0 17 8 27 25 34 14 5 25 14 25 20 0 6 6 8 13 4 9
-5 9 -4 0 6 -9 10 -55 15 -160 18 l-148 5 -108 103 c-59 57 -136 125 -170 151
-34 26 -111 92 -172 147 -60 56 -115 106 -121 111 -187 167 -190 169 -199 155
-4 -6 -4 -38 0 -71 6 -51 12 -65 38 -87 17 -15 51 -46 76 -69 25 -24 52 -43
59 -43 7 0 15 -7 18 -15 4 -8 12 -15 19 -15 6 0 28 -15 47 -34 20 -19 39 -32
44 -28 4 4 4 1 0 -5 -4 -8 5 -20 26 -33 18 -11 29 -20 23 -20 -5 0 -4 -5 3
-12 8 -8 15 -8 27 2 12 10 15 10 15 -3 0 -8 5 -17 10 -19 6 -2 -10 -30 -35
-63 -38 -49 -46 -65 -41 -88 3 -16 3 -67 -1 -113 l-6 -84 -71 0 -70 0 -58 -57
c-32 -32 -58 -61 -58 -65 0 -4 59 -8 130 -8 l130 0 0 -293 c0 -328 -9 -539
-22 -531 -4 3 -6 10 -2 15 3 5 0 8 -8 7 -7 -2 -12 3 -10 10 1 6 -1 11 -5 11
-19 -3 -27 2 -15 10 11 7 10 9 -3 14 -9 4 -13 3 -10 -3 11 -17 -11 -11 -28 8
-10 10 -14 22 -10 27 5 4 2 5 -5 1 -8 -5 -37 17 -81 59 -38 37 -83 74 -100 83
-16 10 -108 86 -203 171 -95 84 -226 194 -290 243 l-118 91 0 382 c0 210 -3
456 -7 547 -6 153 -5 165 12 172 10 4 21 2 25 -4 5 -7 11 -6 20 5 8 10 9 15 1
15 -16 0 -13 30 4 36 8 4 15 16 15 29 0 16 11 30 36 44 23 14 34 27 30 36 -3
9 3 19 14 25 11 6 20 19 20 30 0 10 5 20 12 22 6 2 -13 26 -42 54 -69 64 -69
63 -112 101 l-37 32 62 53 c34 30 82 70 107 88 25 19 47 37 50 40 3 4 73 60
155 125 83 65 182 149 221 186 83 78 98 82 299 77 l120 -3 3 -290 c1 -173 6
-293 12 -299 7 -7 10 -5 11 5 0 7 47 57 104 109 101 92 119 117 128 170 4 24
4 24 6 -2 1 -36 14 -35 40 1 17 24 21 46 22 118 l2 88 8 -75 c4 -41 12 -76 18
-78 6 -2 12 -27 12 -55 l2 -52 8 55 c22 149 28 217 30 355 2 184 6 165 14 -65z
m331 138 c-18 -26 -22 -17 -5 14 6 11 13 17 16 15 3 -3 -2 -16 -11 -29z m-409
-210 c-3 -7 -5 -2 -5 12 0 14 2 19 5 13 2 -7 2 -19 0 -25z m1399 2 c28 0 32
-3 27 -17 -4 -10 -15 -24 -25 -31 -22 -16 -15 -32 13 -32 11 0 24 10 29 23 8
21 9 21 9 -5 1 -23 -3 -28 -24 -28 -14 0 -25 -5 -25 -11 0 -7 9 -9 21 -6 18 5
20 2 15 -21 -6 -27 -6 -27 10 3 22 41 24 42 34 25 7 -12 12 -12 22 -2 8 8 8
12 1 12 -6 0 -14 12 -17 28 -4 15 -9 35 -12 44 -4 13 -1 16 9 12 8 -3 17 -22
21 -42 7 -44 25 -74 33 -54 8 21 23 13 23 -12 0 -35 10 -56 26 -56 17 0 18 12
2 28 -8 8 -8 15 2 27 12 14 11 18 -1 26 -11 7 -11 9 3 9 10 0 24 -13 33 -30
16 -31 29 -37 40 -20 12 19 22 10 17 -15 -3 -19 -11 -25 -30 -25 -19 0 -23 -3
-15 -11 8 -8 17 -8 33 1 12 6 22 10 23 8 1 -2 10 -17 20 -35 14 -26 15 -36 6
-51 -13 -21 -5 -57 11 -47 5 3 10 16 10 27 0 28 8 19 20 -21 6 -23 6 -30 -3
-24 -13 7 12 -27 28 -40 12 -9 -633 -6 -750 3 -44 4 -70 7 -58 8 12 1 25 7 29
14 5 8 -5 9 -37 5 -24 -3 -36 -3 -26 0 20 5 22 14 6 30 -8 8 -8 13 0 17 6 4
11 0 11 -8 0 -21 19 -20 55 4 l29 19 -42 7 c-23 4 -42 10 -42 15 0 5 14 6 30
3 19 -4 30 -2 30 5 0 6 -4 11 -10 11 -5 0 -10 5 -10 11 0 6 9 9 20 6 11 -3 20
-2 20 3 0 18 55 61 72 57 11 -3 22 2 28 13 5 10 22 21 37 25 16 3 37 13 48 21
16 12 18 18 7 34 -15 24 -16 50 -2 50 6 0 10 -7 10 -15 0 -10 10 -15 29 -15
32 0 50 15 29 23 -7 3 2 6 20 6 23 1 32 6 33 19 0 10 3 12 6 5 2 -7 20 -13 39
-13z m154 -30 c0 -5 -5 -10 -11 -10 -5 0 -7 5 -4 10 3 6 8 10 11 10 2 0 4 -4
4 -10z m50 -20 c0 -5 -4 -10 -10 -10 -5 0 -10 5 -10 10 0 6 5 10 10 10 6 0 10
-4 10 -10z m-380 -26 c0 -8 -9 -14 -20 -14 -17 0 -19 3 -8 19 13 21 28 19 28
-5z m330 6 c0 -5 -4 -10 -10 -10 -5 0 -10 5 -10 10 0 6 5 10 10 10 6 0 10 -4
10 -10z m-404 -27 c-10 -10 -19 5 -10 18 6 11 8 11 12 0 2 -7 1 -15 -2 -18z
m-578 -728 c-6 -14 -13 -23 -15 -21 -5 5 15 46 22 46 3 0 -1 -11 -7 -25z
m-2710 -54 c2 -1 -4 -8 -12 -17 -18 -17 -38 -11 -30 10 5 12 15 13 42 7z m11
-221 c-1 -96 -4 -213 -8 -259 l-6 -83 -80 69 c-136 118 -141 123 -125 133 8 5
11 12 7 17 -5 4 -12 1 -17 -7 -8 -13 -12 -12 -27 4 -10 10 -13 16 -6 12 7 -4
25 0 41 8 25 13 28 20 30 72 3 62 8 76 21 55 5 -7 14 -10 20 -6 9 5 9 10 1 20
-7 9 -6 16 5 25 8 7 15 25 15 41 0 27 14 40 22 20 2 -4 12 -5 23 0 19 7 19 8
-2 8 -17 1 -23 7 -23 25 0 20 4 22 26 18 15 -3 29 -13 31 -23 3 -11 12 -19 20
-19 10 0 13 6 9 16 -4 9 -4 26 0 37 15 48 24 -18 23 -183z m2641 170 c-6 -11
-13 -20 -16 -20 -2 0 0 9 6 20 6 11 13 20 16 20 2 0 0 -9 -6 -20z m84 -75
c-14 -19 -30 -35 -35 -35 -5 0 5 16 22 35 18 19 34 35 36 35 2 0 -8 -16 -23
-35z m-45 -66 c-8 -16 -39 -17 -39 -2 0 3 7 2 16 -1 11 -4 15 -2 11 7 -3 8 1
14 8 14 10 0 11 -5 4 -18z m-3830 -302 c69 -60 129 -115 134 -122 4 -8 6 -98
5 -201 l-3 -187 -485 -3 c-267 -2 -527 0 -579 4 l-94 7 219 210 c120 115 291
280 379 366 l159 158 69 -62 c38 -34 126 -111 196 -170z m3782 -389 c19 -6 58
-29 88 -51 40 -29 50 -42 40 -48 -18 -11 -299 -12 -299 -1 0 18 93 95 136 112
1 0 16 -5 35 -12z m-293 -171 c16 4 22 1 22 -10 0 -23 -25 -44 -61 -52 -39 -9
-184 4 -173 15 19 18 159 57 175 49 9 -4 25 -5 37 -2z m480 -144 c2 -8 -5 -13
-17 -13 -21 0 -35 13 -24 24 10 10 36 3 41 -11z m-2665 -70 c4 -38 7 -114 7
-170 0 -57 4 -105 10 -108 6 -3 10 -11 10 -16 0 -6 -4 -7 -10 -4 -6 4 -7 -1
-3 -11 5 -14 3 -16 -11 -11 -11 4 -15 3 -11 -4 4 -6 13 -8 20 -6 7 3 39 -16
71 -42 33 -26 74 -56 92 -67 31 -18 34 -18 43 -2 6 10 27 21 50 24 42 7 59 21
36 29 -18 8 -10 62 11 70 8 3 20 1 26 -5 5 -5 33 -10 61 -10 63 0 125 -10 125
-20 0 -4 -21 -11 -47 -15 -81 -12 -92 -19 -84 -57 l7 -33 100 -5 101 -5 48
-46 48 -47 -64 5 c-35 2 -84 6 -109 8 -25 2 -88 4 -140 5 -63 1 -88 4 -75 10
18 8 17 9 -7 9 -16 1 -28 6 -28 11 0 6 -13 10 -30 10 -41 0 -38 20 3 21 32 0
32 0 7 11 -14 6 -120 13 -242 16 -213 4 -216 4 -235 -18 -10 -12 -64 -62 -121
-112 -57 -50 -101 -92 -99 -95 10 -9 511 -2 517 8 4 5 6 -32 6 -83 -1 -84 1
-96 24 -126 25 -34 71 -62 99 -62 14 1 13 2 -1 11 -20 11 -24 34 -8 44 5 3 23
-1 39 -9 16 -9 48 -18 70 -22 23 -4 40 -10 39 -15 -2 -4 -31 -40 -65 -78 -35
-38 -63 -73 -63 -78 1 -4 44 -44 97 -88 53 -44 112 -94 131 -110 l34 -31 -41
-41 c-34 -34 -41 -47 -41 -79 1 -22 7 -56 14 -77 12 -33 12 -39 -1 -44 -29
-11 -337 3 -363 17 -36 19 -80 58 -207 183 -103 101 -127 129 -105 126 25 -4
72 2 68 9 -7 12 59 31 83 25 10 -3 22 0 25 6 4 6 15 11 24 11 9 0 29 14 43 32
l26 31 27 -24 c59 -55 119 -72 66 -19 -11 11 -20 26 -20 34 0 8 -4 18 -10 21
-5 3 -10 17 -10 29 0 13 -7 37 -15 52 -8 16 -15 37 -15 47 0 9 -4 17 -9 17 -6
0 -18 14 -28 30 l-17 30 -156 0 c-276 0 -679 13 -674 22 3 4 22 9 42 9 29 1
32 3 12 7 l-25 5 25 8 c24 7 24 7 3 8 -25 1 -31 16 -10 24 9 3 9 7 0 17 -9 10
-7 17 10 31 20 17 20 20 6 31 -9 7 -15 20 -14 29 2 12 -3 15 -16 12 -32 -9
-21 10 33 57 133 116 238 212 443 411 245 237 315 299 335 299 4 0 10 -30 13
-67z m1977 -183 c-4 -121 -8 -154 -18 -152 -7 1 -40 5 -73 9 -32 3 -59 7 -59
9 0 2 26 56 58 121 32 65 64 134 70 153 21 59 27 20 22 -140z m604 -112 c22
-32 1 -53 -37 -39 -30 12 -35 1 -11 -24 19 -18 12 -30 -11 -21 -25 9 -29 36
-10 72 21 39 47 44 69 12z m-2381 -195 c-7 -2 -19 -2 -25 0 -7 3 -2 5 12 5 14
0 19 -2 13 -5z m1787 -25 c0 -36 -10 -32 -14 6 -2 14 1 26 5 26 5 0 9 -14 9
-32z m-55 -30 c-6 -22 -6 -22 14 2 22 27 22 27 25 -40 1 -36 -3 -37 -38 -5
-23 21 -25 27 -14 45 17 26 21 25 13 -2z m757 -305 l3 -222 -23 -11 c-28 -12
-128 -2 -142 15 -6 7 -12 78 -14 158 l-4 146 41 43 c64 67 119 110 128 101 4
-4 10 -108 11 -230z m-1714 28 c1 -9 1 -74 1 -145 l1 -129 36 -34 c20 -18 39
-33 42 -33 2 0 10 -8 17 -17 11 -15 37 -18 196 -20 101 -2 192 -3 202 -3 14 0
17 -9 17 -52 0 -29 -4 -58 -8 -64 -4 -6 -56 -15 -117 -20 -89 -7 -110 -12
-113 -25 -2 -9 5 -24 14 -33 11 -11 13 -21 7 -27 -19 -19 -379 309 -437 397
-19 29 -28 59 -33 107 -3 37 -10 67 -14 67 -5 0 -9 8 -9 18 0 14 -2 15 -10 2
-8 -13 -10 -13 -10 2 0 15 13 18 88 20 48 2 96 4 108 4 12 1 21 -5 22 -15z
m357 -86 c61 -49 120 -99 132 -110 l22 -20 -129 3 -129 4 -39 36 c-22 21 -69
62 -105 92 -101 86 -102 85 27 85 l111 0 110 -90z m1167 -87 l3 -183 128 -2
c71 -1 131 -4 135 -7 3 -3 -64 -6 -149 -6 -136 0 -162 -3 -219 -24 -191 -68
-247 -86 -291 -92 -52 -7 -59 -1 -34 32 24 31 17 52 -27 84 -24 17 -67 49 -97
71 l-55 39 -143 0 c-89 0 -143 4 -143 10 0 12 9 13 155 17 61 2 151 6 200 9
90 6 91 6 104 -20 8 -14 17 -26 20 -26 3 0 20 -12 36 -26 17 -14 22 -23 13
-20 -10 3 -26 9 -35 12 -10 3 -5 -3 11 -14 l29 -20 22 21 c12 12 35 40 50 62
16 22 43 53 60 69 16 16 69 66 117 112 48 46 92 84 97 84 7 0 12 -68 13 -182z
m-3339 135 c-7 -2 -21 -2 -30 0 -10 3 -4 5 12 5 17 0 24 -2 18 -5z m1017 -23
c0 -5 -4 -10 -10 -10 -5 0 -10 5 -10 10 0 6 5 10 10 10 6 0 10 -4 10 -10z
m3543 -107 c4 -2 7 -13 7 -24 0 -11 7 -19 18 -20 35 -1 -22 -16 -93 -24 -74
-9 -88 -9 -177 -7 l-58 2 0 38 c0 21 3 42 8 46 7 8 280 -2 295 -11z m-205
-180 c94 -3 172 -10 172 -15 0 -4 -153 -8 -340 -8 -204 0 -340 4 -340 9 0 5
12 12 28 14 46 7 299 7 480 0z m-1640 -148 c3 -126 3 -130 30 -158 56 -58 88
-71 189 -73 52 -1 96 -4 100 -7 13 -14 -56 -28 -119 -25 -55 3 -74 9 -106 33
-22 17 -69 53 -106 80 l-66 50 0 86 c0 48 -3 101 -6 118 l-7 32 44 -3 44 -3 3
-130z m-2395 -847 l-3 -943 -63 -60 c-302 -287 -389 -365 -426 -385 l-44 -22
5 -63 6 -63 -152 -7 c-83 -3 -225 -5 -316 -3 l-165 3 -1 75 -1 75 -269 1
c-148 0 -306 -1 -352 -4 l-83 -4 6 -29 7 -29 -381 0 -380 0 -3 33 -3 32 -97 3
-98 3 0 88 0 88 158 6 c86 4 196 7 245 7 l87 0 -2 -85 -3 -85 -102 0 c-56 0
-109 -3 -118 -6 -46 -18 36 -24 338 -24 l328 0 67 51 66 51 33 -37 33 -38 0
55 c0 68 4 70 115 67 l80 -2 0 372 0 373 35 30 c19 17 249 242 511 500 262
258 487 478 500 489 13 11 44 40 69 63 25 23 57 46 73 49 19 5 27 14 27 30 0
15 41 63 132 153 73 73 135 132 138 133 3 1 4 -423 3 -941z m2982 616 c21 -5
24 -13 27 -67 4 -60 -10 -107 -31 -107 -8 0 -33 117 -30 137 4 21 -4 35 -43
73 l-43 42 48 -36 c27 -20 59 -39 72 -42z m-1058 29 c35 -21 61 -43 59 -49 -2
-6 4 -18 15 -27 13 -12 19 -13 19 -4 1 6 7 -3 15 -20 8 -18 21 -33 30 -33 9 0
13 -4 10 -10 -3 -5 3 -20 14 -32 12 -12 21 -26 21 -30 0 -8 -18 7 -99 82 -15
14 -57 51 -94 84 -61 53 -79 76 -60 76 3 0 35 -17 70 -37z m423 -50 c0 -10
-39 19 -70 53 -35 37 -35 37 18 -6 28 -24 52 -45 52 -47z m-1105 -98 c28 -26
96 -92 153 -148 l102 -102 78 -6 77 -6 -89 -1 -90 -2 -158 157 c-87 86 -158
161 -158 165 0 14 31 -7 85 -57z m135 -30 c18 -21 -5 -27 -30 -7 -21 17 -21
18 -2 19 12 1 26 -4 32 -12z m37 -44 c-4 -7 28 -40 41 -42 4 -1 6 -5 5 -10 -2
-5 0 -9 5 -9 4 0 20 -11 36 -25 31 -27 28 -32 -7 -13 -33 17 -117 100 -111
109 5 9 36 0 31 -10z m-1099 -440 c-2 -209 0 -382 4 -386 4 -4 56 -8 115 -9
186 -4 176 -2 169 -31 -13 -50 -7 -211 9 -279 28 -117 63 -173 147 -236 42
-31 40 -40 -11 -40 -106 1 -256 63 -348 144 -48 42 -208 230 -265 311 -62 89
-70 122 -78 320 -13 304 10 414 107 507 36 35 113 77 141 78 10 0 12 -78 10
-379z m638 325 c-3 -11 -6 -55 -7 -96 -1 -56 -3 -67 -9 -45 -4 17 -8 22 -9 11
-1 -12 -6 -16 -16 -12 -8 3 -15 1 -15 -4 0 -6 -7 -10 -15 -10 -9 0 -12 6 -9
15 5 11 -1 15 -25 15 -17 0 -31 -4 -31 -8 0 -5 -10 -8 -22 -7 -17 1 -24 9 -26
31 -2 16 -10 37 -19 46 -9 10 -13 30 -11 50 l3 33 90 5 c114 6 128 4 121 -24z
m1369 -17 c36 -17 90 -103 99 -156 9 -58 7 -263 -3 -263 -5 0 -72 57 -148 128
-76 70 -171 154 -211 187 -56 47 -72 66 -72 87 0 24 4 27 38 31 86 9 267 1
297 -14z m-671 -10 c8 -9 1 -10 -29 -5 -22 3 -55 6 -72 6 -18 0 -33 4 -33 9 0
13 122 3 134 -10z m-757 -145 c-3 -3 -12 -4 -19 -1 -8 3 -5 6 6 6 11 1 17 -2
13 -5z m-191 -57 c-1 -13 -5 -28 -9 -33 -4 -7 12 -10 49 -8 30 2 75 -1 100 -5
41 -8 44 -7 39 10 -7 20 0 22 65 20 56 -3 151 -55 207 -114 54 -57 111 -160
134 -242 18 -64 18 -322 1 -385 -38 -133 -118 -275 -175 -311 -25 -16 -43 -19
-81 -15 -27 3 -54 10 -59 15 -6 6 13 33 53 73 65 67 130 182 149 268 15 65 13
234 -4 312 -7 37 -28 96 -46 132 -43 86 -123 176 -105 118 5 -13 -1 -22 -16
-30 -18 -8 -19 -11 -5 -11 9 -1 17 -6 17 -12 0 -7 -10 -9 -25 -7 -13 3 -22 1
-19 -3 2 -4 6 -32 9 -61 2 -29 1 -45 -2 -35 -3 11 -11 16 -19 13 -8 -3 -17 1
-20 9 -8 19 -24 19 -24 0 0 -8 5 -15 10 -15 6 0 10 -5 10 -11 0 -7 -11 -8 -29
-4 -16 3 -32 2 -35 -4 -7 -11 -57 -8 -77 5 -8 4 -9 3 -5 -4 5 -8 -4 -12 -26
-12 -18 -1 -51 -7 -73 -15 -22 -8 -49 -15 -60 -15 -17 0 -18 -2 -5 -11 13 -10
13 -10 0 -6 -8 2 -41 10 -72 17 -32 7 -58 18 -58 25 0 6 -11 17 -24 24 -21 12
-22 16 -15 59 10 49 26 80 68 126 l26 29 -37 -28 c-41 -30 -43 -28 -28 27 15
52 93 111 175 131 38 9 44 7 41 -16z m549 -36 c184 -83 297 -425 255 -771 -35
-286 -152 -454 -325 -468 -54 -4 -65 -2 -65 10 0 20 52 44 112 53 59 9 112 60
161 153 61 117 78 189 84 357 7 189 -10 284 -70 399 -46 88 -130 181 -171 192
-14 3 -26 10 -26 15 0 5 -7 9 -15 9 -8 0 -15 5 -15 10 0 6 -6 10 -12 10 -7 0
-22 7 -33 16 -17 13 -18 16 -5 24 24 15 82 11 125 -9z m5 -111 c0 -5 -2 -10
-4 -10 -3 0 -8 5 -11 10 -3 6 -1 10 4 10 6 0 11 -4 11 -10z m-440 -220 c0 -5
-7 -7 -15 -4 -8 4 -15 8 -15 10 0 2 7 4 15 4 8 0 15 -4 15 -10z m2447 -315
c-7 -7 -7 -6 -3 3 4 7 4 18 -2 25 -8 11 -9 42 -2 92 2 11 6 -9 10 -45 4 -38 3
-69 -3 -75z m-2687 -747 l1 -343 24 -40 c21 -34 25 -52 25 -122 0 -146 -39
-196 -150 -189 -30 2 -57 4 -58 5 -2 0 11 19 28 41 18 23 36 56 40 75 8 38 -2
114 -18 124 -5 3 -12 15 -15 26 -5 19 -5 19 -12 -2 -4 -13 -11 -20 -16 -17 -5
3 -9 -6 -9 -20 0 -15 -8 -31 -19 -38 -11 -6 -17 -18 -13 -26 4 -12 -1 -14 -21
-10 -15 3 -27 2 -27 -3 0 -5 -18 -13 -39 -19 -22 -6 -41 -16 -43 -22 -5 -14
-38 -3 -38 13 0 7 52 63 116 126 l117 113 -484 0 c-479 0 -484 1 -454 19 27
17 59 20 300 25 273 6 447 24 376 39 -18 4 -120 7 -225 8 -119 0 -181 4 -163
9 46 14 466 15 479 2 7 -7 18 -12 25 -12 6 0 16 -6 20 -14 4 -7 23 -17 42 -21
23 -5 31 -4 27 4 -5 7 -1 9 8 5 9 -3 16 -2 16 4 0 5 8 9 18 8 16 -1 17 20 20
291 l2 291 46 0 c25 0 48 3 52 6 3 3 9 6 14 6 4 0 8 -154 8 -342z m1088 -314
c-3 -464 -4 -476 -23 -487 -11 -6 -67 -56 -125 -111 -58 -56 -148 -141 -200
-191 -52 -49 -140 -133 -195 -186 -55 -52 -145 -138 -200 -190 -55 -53 -140
-133 -188 -180 -49 -46 -93 -86 -99 -88 -5 -2 -30 11 -54 29 l-44 31 0 -155
c0 -86 -3 -156 -6 -156 -14 0 -204 185 -204 198 0 8 96 111 213 230 116 118
218 220 225 228 7 8 11 18 7 24 -4 6 1 7 12 3 10 -3 15 -3 11 2 -4 4 -2 17 3
28 9 16 8 22 -5 29 -12 7 -14 14 -6 28 7 13 7 21 -1 26 -8 4 -4 13 12 25 l24
19 -22 0 c-26 0 -30 20 -11 50 14 22 3 39 -14 22 -16 -16 -26 -15 -30 4 -2 10
53 72 145 164 115 115 147 153 147 174 0 26 1 26 68 26 47 0 63 3 52 10 -8 5
-29 10 -47 10 -26 0 -31 3 -26 18 5 14 52 75 101 132 50 57 67 81 89 130 13
30 29 64 36 75 6 11 14 61 17 110 l5 91 160 151 c88 84 164 152 168 152 4 1 6
-213 5 -475z m-2818 107 c0 -10 -61 -41 -81 -41 -17 0 51 49 69 50 6 0 12 -4
12 -9z m-75 -71 c-3 -5 -12 -7 -20 -3 -21 7 -19 13 6 13 11 0 18 -4 14 -10z
m1813 -448 c13 -17 17 -169 4 -188 -4 -6 -21 -14 -38 -18 -32 -7 -43 -36 -15
-36 15 -1 15 -2 0 -13 -9 -7 -19 -25 -23 -40 -4 -17 -11 -25 -18 -21 -7 5 -9
0 -6 -14 4 -15 2 -22 -9 -22 -8 0 -13 -8 -12 -17 3 -35 -1 -43 -26 -43 -26 0
-34 15 -12 23 9 3 9 7 0 19 -7 8 -9 19 -5 23 4 5 2 5 -5 1 -6 -3 -14 -2 -18 4
-3 5 1 10 9 10 24 0 30 21 7 27 -12 3 -21 9 -21 14 0 5 -13 6 -30 3 -19 -4
-30 -2 -30 5 0 6 5 11 11 11 6 0 8 7 5 16 -9 22 11 44 40 44 28 0 27 -4 24
120 l-2 96 29 10 c39 14 125 6 141 -14z m-1032 -161 c81 -1 144 -15 144 -32 0
-5 -102 -9 -235 -9 -150 0 -235 4 -235 10 0 6 -8 10 -17 10 -15 0 -16 -2 -3
-10 11 -7 7 -10 -18 -10 -18 0 -31 4 -28 9 3 5 -4 11 -16 14 -37 10 -17 15 80
20 51 2 95 6 97 9 2 2 37 1 77 -3 40 -4 109 -8 154 -8z m-489 -17 c-3 -3 -12
-4 -19 -1 -8 3 -5 6 6 6 11 1 17 -2 13 -5z m393 -74 c19 -5 64 -10 100 -11
102 -2 173 -13 178 -27 3 -11 -41 -13 -254 -8 -143 4 -371 8 -507 11 -141 3
-256 9 -267 15 -19 10 -60 16 -160 21 -50 2 -47 3 30 10 124 10 838 1 880 -11z
m930 -60 c0 -5 -4 -10 -10 -10 -5 0 -10 5 -10 10 0 6 5 10 10 10 6 0 10 -4 10
-10z m338 -60 c-7 -11 -17 -20 -22 -20 -5 0 -1 9 9 20 10 11 20 20 22 20 2 0
-2 -9 -9 -20z m-1128 -20 c10 -6 -36 -10 -138 -10 -100 0 -151 3 -147 10 8 13
265 13 285 0z m867 -36 c-3 -3 -12 -4 -19 -1 -8 3 -5 6 6 6 11 1 17 -2 13 -5z
m-742 -74 c7 -11 -136 -12 -255 0 -62 6 -48 7 87 8 99 1 164 -2 168 -8z m121
-117 c29 -27 98 -88 153 -138 56 -49 101 -94 101 -99 0 -5 -24 -6 -52 -2 -29
3 -645 9 -1368 12 l-1315 7 44 44 44 43 883 0 c703 0 882 3 879 13 -7 18 68
45 148 53 51 5 67 10 63 20 -4 10 8 13 50 12 32 -1 58 3 62 9 4 7 40 11 91 11
46 0 88 5 94 11 6 6 22 11 35 11 14 0 21 4 17 11 -4 6 -21 10 -39 9 -17 -1
-69 -1 -116 1 -82 2 -83 2 -30 9 30 4 88 7 129 8 l74 2 53 -47z m1424 -174
c11 -8 7 -9 -17 -5 -19 3 -33 1 -33 -4 0 -6 10 -10 23 -11 21 0 21 -1 2 -9
-11 -5 -16 -9 -12 -9 13 -1 -18 -28 -37 -32 -9 -2 -18 -8 -19 -13 -1 -6 26 -9
61 -7 75 3 150 -19 186 -56 15 -14 24 -29 21 -32 -7 -6 -98 -4 -268 5 -98 5
-117 9 -113 21 4 9 1 13 -6 10 -7 -2 -12 -10 -10 -16 1 -7 -20 -11 -63 -11
-41 0 -65 4 -65 11 0 19 57 84 99 113 22 15 59 34 83 41 52 17 147 19 168 4z
m-1719 -312 c53 -50 253 -245 445 -433 192 -188 417 -408 501 -489 84 -81 150
-152 147 -156 -3 -5 -36 -6 -74 -3 -64 6 -73 10 -112 47 l-42 40 -320 -5
c-177 -3 -330 -2 -341 3 -25 9 56 11 395 9 l255 -2 -29 31 -30 31 -328 -2
c-206 -1 -332 2 -338 8 -7 7 102 10 320 9 l330 0 -24 24 -24 23 -341 2 c-271
1 -343 4 -353 15 -11 11 42 12 331 7 l344 -7 -30 25 c-30 25 -36 26 -159 26
-224 0 -536 13 -522 21 16 11 298 10 483 0 77 -5 142 -6 145 -4 3 3 -10 18
-28 34 l-32 29 -238 1 c-130 1 -280 5 -332 9 l-95 7 80 2 c155 4 471 1 520 -5
l50 -6 -33 33 c-27 29 -40 34 -80 35 -598 6 -619 7 -507 16 61 5 207 6 325 4
118 -3 208 -2 200 1 -8 3 -23 17 -33 29 l-18 24 -312 2 -312 3 293 9 c285 8
292 9 271 27 -46 39 -267 247 -403 378 -68 65 -68 66 -62 110 3 24 6 63 6 87
0 24 3 44 8 44 4 0 50 -42 103 -93z m2426 37 c40 -6 68 -43 98 -131 14 -39 32
-71 46 -81 13 -8 60 -47 105 -86 45 -39 113 -98 152 -131 39 -33 71 -64 71
-70 1 -11 -925 -10 -986 0 -32 6 -48 35 -19 35 7 0 26 12 41 26 15 14 38 30
51 34 15 6 22 15 18 24 -4 10 3 17 21 22 17 4 24 11 21 20 -3 9 1 14 12 14 13
0 14 2 4 9 -10 6 -8 10 9 14 26 7 18 22 -16 30 -11 3 5 6 35 7 30 1 60 3 65 5
6 1 16 3 24 3 8 1 2 15 -18 38 -17 19 -29 39 -26 44 3 6 0 8 -7 5 -7 -3 -50
27 -96 65 l-83 70 -337 1 c-311 1 -535 11 -412 19 25 1 56 4 70 7 97 16 1064
23 1157 7z m-216 -590 c5 -3 9 -12 9 -20 0 -8 4 -14 9 -14 5 0 5 -20 0 -47 -5
-26 -10 -94 -12 -152 l-2 -106 33 -5 c18 -3 34 -9 35 -15 3 -12 -41 -22 -113
-25 -51 -2 -122 -17 -92 -19 23 -2 64 -39 50 -44 -18 -8 99 -12 220 -8 56 2
102 -1 101 -5 -1 -5 0 -11 1 -14 1 -3 4 -24 6 -47 4 -41 2 -43 -33 -62 -105
-53 -271 -79 -324 -51 -13 7 -49 32 -80 56 -31 24 -67 48 -80 55 -13 6 -35 25
-49 42 l-24 30 104 -6 c102 -6 104 -6 80 11 -13 9 -46 36 -73 60 -26 23 -54
42 -62 42 -8 0 -26 11 -41 23 -27 24 -27 24 -15 88 18 88 61 180 97 204 48 33
218 52 255 29z m-1473 -511 c-87 -2 -229 -2 -315 0 -87 1 -16 3 157 3 173 0
244 -2 158 -3z m-2086 -167 c167 -160 372 -359 540 -523 l157 -153 -790 0
c-434 0 -789 3 -789 7 0 11 764 773 772 771 4 -2 53 -48 110 -102z m3453 15
c32 -1 36 -4 23 -11 -9 -6 -60 -8 -115 -6 -54 2 -366 6 -693 7 -327 2 -543 5
-480 8 103 5 1166 7 1265 2z m-785 -71 c10 -7 -83 -8 -280 -4 -162 4 -297 8
-299 10 -11 9 565 3 579 -6z m810 0 c-17 -11 -71 -11 -115 0 -22 6 -8 8 50 9
55 0 75 -2 65 -9z m-557 -7 c-13 -2 -33 -2 -45 0 -13 2 -3 4 22 4 25 0 35 -2
23 -4z m64 1 c-3 -3 -12 -4 -19 -1 -8 3 -5 6 6 6 11 1 17 -2 13 -5z m106 -1
c-7 -2 -19 -2 -25 0 -7 3 -2 5 12 5 14 0 19 -2 13 -5z m404 -49 c-3 -3 -12 -4
-19 -1 -8 3 -5 6 6 6 11 1 17 -2 13 -5z m-739 -27 c-1 -1 -147 0 -323 3 l-320
5 305 5 c168 3 313 1 323 -3 10 -5 17 -9 15 -10z m68 -63 c18 -15 18 -15 -6
-10 -14 3 -151 7 -305 8 l-280 2 225 6 c124 3 253 6 286 7 43 1 68 -3 80 -13z
m581 -1 c-20 -2 -52 -2 -70 0 -17 2 0 4 38 4 39 0 53 -2 32 -4z m90 1 c-3 -3
-12 -4 -19 -1 -8 3 -5 6 6 6 11 1 17 -2 13 -5z m86 -81 c-57 -2 -149 -2 -205
0 -57 1 -11 3 102 3 113 0 159 -2 103 -3z m65 -150 c-10 -2 -28 -2 -40 0 -13
2 -5 4 17 4 22 1 32 -1 23 -4z m80 -10 c-10 -2 -28 -2 -40 0 -13 2 -5 4 17 4
22 1 32 -1 23 -4z m49 -29 c-7 -7 -138 -7 -145 1 -3 3 30 5 73 5 43 0 76 -3
72 -6z"/>
<path d="M6470 10898 c0 -4 7 -8 15 -8 8 0 15 4 15 8 0 5 -7 9 -15 9 -8 0 -15
-4 -15 -9z"/>
<path d="M6408 10873 c7 -3 16 -2 19 1 4 3 -2 6 -13 5 -11 0 -14 -3 -6 -6z"/>
<path d="M6364 10839 c-19 -22 -19 -22 4 -10 12 6 22 16 22 21 0 15 -5 12 -26
-11z"/>
<path d="M6420 10845 c-7 -8 -8 -15 -2 -15 5 0 15 7 22 15 7 8 8 15 2 15 -5 0
-15 -7 -22 -15z"/>
<path d="M6410 10805 c0 -7 63 -35 68 -30 3 3 3 7 0 10 -7 7 -68 25 -68 20z"/>
<path d="M6460 10750 c-13 -9 -7 -14 13 -11 4 0 7 -6 7 -14 0 -8 5 -15 11 -15
13 0 8 42 -6 47 -5 1 -17 -2 -25 -7z"/>
<path d="M6490 10656 c0 -9 5 -16 10 -16 6 0 10 4 10 9 0 6 -4 13 -10 16 -5 3
-10 -1 -10 -9z"/>
<path d="M6505 10597 c-4 -10 -5 -21 -1 -24 10 -10 18 4 13 24 -4 17 -4 17
-12 0z"/>
<path d="M6030 10403 c0 -136 13 -192 25 -111 11 70 2 231 -13 236 -9 3 -12
-29 -12 -125z"/>
<path d="M5960 10443 c0 -43 5 -85 10 -93 7 -10 10 12 10 72 0 48 -4 90 -10
93 -6 4 -10 -22 -10 -72z"/>
<path d="M6239 9773 c-13 -16 -12 -17 4 -4 9 7 17 15 17 17 0 8 -8 3 -21 -13z"/>
<path d="M5505 8231 c-3 -5 -2 -12 3 -15 5 -3 9 1 9 9 0 17 -3 19 -12 6z"/>
<path d="M7342 10873 c-6 -2 -10 -9 -6 -14 8 -14 21 -11 28 6 6 15 1 17 -22 8z"/>
<path d="M7511 10744 c0 -11 3 -14 6 -6 3 7 2 16 -1 19 -3 4 -6 -2 -5 -13z"/>
<path d="M3746 9851 c-4 -7 -5 -15 -2 -18 9 -9 19 4 14 18 -4 11 -6 11 -12 0z"/>
<path d="M3686 9744 c-4 -10 -1 -14 6 -12 15 5 23 28 10 28 -5 0 -13 -7 -16
-16z"/>
<path d="M3230 8021 c0 -4 11 -6 25 -3 14 2 25 6 25 8 0 2 -11 4 -25 4 -14 0
-25 -4 -25 -9z"/>
<path d="M3298 8013 c6 -2 18 -2 25 0 6 3 1 5 -13 5 -14 0 -19 -2 -12 -5z"/>
<path d="M3288 7893 c7 -3 16 -2 19 1 4 3 -2 6 -13 5 -11 0 -14 -3 -6 -6z"/>
<path d="M5970 8175 c-11 -13 -10 -14 4 -9 9 3 16 10 16 15 0 13 -6 11 -20 -6z"/>
<path d="M4850 7046 c0 -2 7 -7 16 -10 8 -3 12 -2 9 4 -6 10 -25 14 -25 6z"/>
<path d="M4495 6530 c3 -5 8 -10 11 -10 2 0 4 5 4 10 0 6 -5 10 -11 10 -5 0
-7 -4 -4 -10z"/>
<path d="M4275 4170 c-3 -5 -1 -10 4 -10 6 0 11 5 11 10 0 6 -2 10 -4 10 -3 0
-8 -4 -11 -10z"/>
<path d="M4312 3986 c7 -8 15 -12 17 -11 5 6 -10 25 -20 25 -5 0 -4 -6 3 -14z"/>
<path d="M3063 3853 c9 -2 23 -2 30 0 6 3 -1 5 -18 5 -16 0 -22 -2 -12 -5z"/>
<path d="M1471 11144 c164 -167 412 -399 709 -663 52 -47 110 -98 128 -115
l33 -31 -3 109 -3 109 -49 17 c-56 18 -203 126 -356 260 -58 51 -134 117 -170
146 -36 29 -96 81 -135 114 -41 35 -79 60 -93 60 -13 0 -21 4 -18 9 4 5 -4 7
-16 3 -13 -3 -19 -1 -15 5 3 5 -10 15 -30 21 l-37 11 55 -55z"/>
<path d="M3107 10571 c-4 -17 -3 -21 5 -13 5 5 8 16 6 23 -3 8 -7 3 -11 -10z"/>
<path d="M7796 9803 c-9 -265 -6 -716 5 -734 5 -8 9 177 9 459 0 259 -2 472
-3 472 -2 0 -7 -89 -11 -197z"/>
<path d="M7426 9483 c-4 -4 -6 -98 -6 -209 l1 -203 156 -3 c85 -2 157 -1 159
1 3 3 -20 30 -50 60 -30 31 -85 106 -122 166 -78 129 -129 197 -138 188z"/>
<path d="M8563 9081 c2 -11 -1 -25 -7 -30 -8 -7 -152 -11 -387 -13 -505 -3
-749 -11 -749 -23 0 -6 71 -12 182 -15 l183 -5 0 -245 c0 -221 2 -248 18 -272
21 -30 54 -45 69 -30 14 14 27 79 28 135 0 60 13 61 84 7 29 -22 59 -40 67
-40 9 0 7 5 -6 12 -11 6 -39 30 -63 53 -38 36 -43 46 -40 77 l3 36 65 -39 65
-40 3 61 c2 42 7 60 16 60 8 0 56 -37 108 -82 53 -46 107 -93 121 -105 15 -13
33 -19 45 -16 12 3 32 -6 53 -24 54 -47 147 -113 159 -113 5 0 10 -7 10 -15 0
-8 5 -15 10 -15 21 0 9 31 -20 49 -16 10 -28 20 -25 23 6 5 -51 59 -155 148
-35 30 -83 71 -105 90 -55 48 -149 127 -210 175 -27 22 -59 48 -70 58 -11 11
-31 26 -45 36 -23 15 -3 16 330 21 396 6 395 5 306 68 -43 30 -48 32 -43 13z"/>
<path d="M8360 8554 c0 -7 57 -56 79 -68 15 -8 -33 50 -54 66 -12 9 -25 10
-25 2z"/>
<path d="M7551 8453 c-1 -18 4 -33 9 -33 12 0 12 17 0 45 -7 17 -9 15 -9 -12z"/>
<path d="M7581 8315 c1 -19 18 -51 18 -35 0 8 -4 22 -9 30 -5 8 -9 11 -9 5z"/>
<path d="M7600 8250 c0 -5 7 -10 15 -10 8 0 15 5 15 10 0 6 -7 10 -15 10 -8 0
-15 -4 -15 -10z"/>
<path d="M8078 7269 c-3 -170 -3 -172 20 -180 12 -5 22 -15 22 -23 0 -18 12
-22 59 -18 32 3 50 16 112 79 l74 75 -65 60 c-70 64 -207 178 -214 178 -3 0
-6 -77 -8 -171z"/>
<path d="M7755 7380 c-3 -5 -1 -10 4 -10 6 0 11 5 11 10 0 6 -2 10 -4 10 -3 0
-8 -4 -11 -10z"/>
<path d="M7710 7319 c0 -5 5 -7 10 -4 6 3 10 8 10 11 0 2 -4 4 -10 4 -5 0 -10
-5 -10 -11z"/>
<path d="M7815 7190 c3 -5 8 -10 11 -10 2 0 4 5 4 10 0 6 -5 10 -11 10 -5 0
-7 -4 -4 -10z"/>
<path d="M8615 6950 c3 -5 8 -10 11 -10 2 0 4 5 4 10 0 6 -5 10 -11 10 -5 0
-7 -4 -4 -10z"/>
<path d="M8640 6944 c0 -12 -13 -36 -29 -53 -16 -17 -25 -31 -19 -31 5 0 2 -7
-7 -16 -18 -18 -190 -33 -400 -34 -115 0 -119 -1 -99 -18 12 -9 60 -50 107
-89 47 -40 88 -73 90 -73 3 0 7 10 11 23 8 34 64 96 106 117 22 11 78 24 129
30 49 5 102 15 118 21 34 13 93 57 93 69 0 5 -19 19 -42 31 -24 12 -46 27 -50
33 -5 6 -8 2 -8 -10z"/>
<path d="M7563 6628 c-22 -24 -128 -129 -234 -234 -254 -252 -807 -817 -837
-857 -22 -30 -23 -38 -18 -117 l6 -85 52 -48 c35 -32 59 -46 71 -43 13 3 17 0
13 -10 -3 -8 -2 -14 2 -14 10 0 42 38 42 51 0 5 6 9 13 8 30 -4 37 3 37 34 0
22 3 28 9 18 11 -17 32 -6 25 13 -3 8 -1 17 5 21 6 3 11 13 11 21 0 9 7 22 15
31 8 8 13 18 10 22 -2 5 7 13 21 20 14 6 23 15 20 19 -3 5 8 24 25 43 22 26
29 30 29 16 0 -10 5 -15 10 -12 6 3 10 19 10 34 0 31 54 81 63 58 5 -12 11 16
8 39 -1 6 6 17 14 24 8 7 15 18 15 26 0 7 9 16 20 19 20 6 28 25 10 25 -5 0 1
15 13 34 12 19 36 57 52 85 17 28 33 51 38 51 4 0 7 5 7 12 0 6 7 19 16 29 8
9 17 26 19 36 1 10 8 17 14 15 6 -1 11 4 11 12 0 8 7 16 15 20 8 3 15 12 15
21 0 8 11 33 25 55 14 22 25 44 25 50 0 5 7 10 15 10 9 0 19 8 22 18 4 9 15
28 25 41 10 13 18 32 18 43 0 10 11 30 25 44 27 27 50 65 47 76 -1 4 5 5 13 2
8 -4 15 -1 15 4 0 6 14 31 30 55 17 25 30 52 30 61 0 9 9 21 20 28 11 7 20 21
20 31 0 10 10 21 22 26 16 6 18 10 8 16 -10 6 -7 12 11 26 13 10 19 19 14 19
-6 0 -29 -19 -52 -42z m-213 -358 c0 -5 -4 -10 -10 -10 -5 0 -10 5 -10 10 0 6
5 10 10 10 6 0 10 -4 10 -10z"/>
<path d="M6690 5230 c0 -5 5 -10 10 -10 6 0 10 5 10 10 0 6 -4 10 -10 10 -5 0
-10 -4 -10 -10z"/>
<path d="M5971 4688 c86 -84 161 -163 168 -175 6 -12 11 -53 11 -92 0 -38 4
-72 9 -75 11 -7 22 118 15 164 -7 45 -13 51 -111 135 -241 206 -272 221 -92
43z"/>
<path d="M6191 4404 c0 -11 3 -14 6 -6 3 7 2 16 -1 19 -3 4 -6 -2 -5 -13z"/>
<path d="M6180 4345 c0 -14 2 -25 4 -25 2 0 6 11 8 25 3 14 1 25 -3 25 -5 0
-9 -11 -9 -25z"/>
<path d="M6900 2284 c0 -8 5 -12 10 -9 6 3 10 10 10 16 0 5 -4 9 -10 9 -5 0
-10 -7 -10 -16z"/>
<path d="M9165 170 c-3 -5 -1 -10 4 -10 6 0 11 5 11 10 0 6 -2 10 -4 10 -3 0
-8 -4 -11 -10z"/>
</g>
</svg>
