<?xml version="1.0" standalone="no"?>
<!DOCTYPE svg PUBLIC "-//W3C//DTD SVG 20010904//EN"
 "http://www.w3.org/TR/2001/REC-SVG-20010904/DTD/svg10.dtd">
<svg version="1.0" xmlns="http://www.w3.org/2000/svg"
 width="4000.000000pt" height="2250.000000pt" viewBox="0 0 4000.000000 2250.000000"
 preserveAspectRatio="xMidYMid meet">

<g transform="translate(0.000000,2250.000000) scale(0.100000,-0.100000)"
fill="#000000" stroke="none">
<path d="M16355 21144 c-187 -33 -352 -157 -434 -326 -97 -201 -117 -494 -49
-718 68 -221 226 -379 439 -437 90 -25 319 -24 409 1 173 47 307 159 384 317
65 135 77 190 83 367 6 175 -5 266 -46 384 -115 323 -410 478 -786 412z m248
-154 c91 -15 169 -55 230 -119 98 -103 144 -230 154 -423 19 -383 -140 -621
-430 -644 -325 -26 -519 197 -519 596 0 146 18 240 67 348 86 187 275 279 498
242z"/>
<path d="M21243 21128 c-12 -6 -29 -26 -39 -46 -37 -78 25 -158 116 -149 93
10 134 114 71 178 -25 24 -37 29 -78 28 -26 0 -58 -5 -70 -11z"/>
<path d="M18690 20732 c-163 -43 -271 -162 -316 -349 -22 -91 -22 -275 0 -367
58 -241 226 -376 471 -376 226 0 384 112 424 298 6 30 9 58 5 63 -3 5 -43 9
-89 9 -92 0 -87 4 -100 -73 -4 -25 -20 -52 -48 -81 -108 -113 -327 -95 -422
34 -36 49 -64 130 -71 210 l-7 70 369 2 369 3 -3 95 c-5 216 -85 363 -236 434
-100 47 -232 58 -346 28z m270 -158 c77 -42 130 -138 130 -236 l0 -38 -276 0
-276 0 6 48 c10 67 64 171 108 206 79 62 215 71 308 20z"/>
<path d="M22008 20740 c-168 -29 -298 -163 -344 -356 -23 -93 -23 -277 0 -368
35 -145 125 -269 234 -325 128 -65 325 -68 461 -5 108 49 195 166 203 274 l3
45 -87 3 c-95 3 -90 7 -102 -68 -8 -45 -57 -105 -107 -131 -87 -44 -230 -32
-307 25 -72 53 -117 147 -128 266 l-7 70 369 2 369 3 -3 95 c-3 113 -23 194
-64 273 -84 157 -273 233 -490 197z m187 -141 c103 -29 171 -118 182 -238 l6
-61 -278 0 -277 0 6 48 c10 67 64 171 108 206 62 49 169 68 253 45z"/>
<path d="M19903 20726 c-62 -20 -107 -51 -163 -114 l-50 -56 0 87 0 88 -87 -3
-88 -3 0 -530 0 -530 93 -3 92 -3 0 379 0 378 44 47 c67 69 145 104 246 109
l55 3 3 83 3 82 -53 -1 c-29 0 -72 -6 -95 -13z"/>
<path d="M17300 20724 c0 -7 252 -698 344 -944 l43 -115 101 -3 100 -3 18 48
c10 26 98 266 194 533 l176 485 -89 3 c-49 1 -91 1 -93 -1 -5 -4 -56 -151
-186 -536 -55 -162 -104 -306 -110 -320 -9 -24 -14 -14 -54 104 -24 72 -92
271 -150 443 l-106 312 -94 0 c-52 0 -94 -3 -94 -6z"/>
<path d="M20100 20724 c0 -7 252 -698 344 -944 l43 -115 101 -3 100 -3 18 48
c10 26 98 266 194 533 l176 485 -89 3 c-49 1 -91 1 -93 -1 -5 -4 -56 -151
-186 -536 -55 -162 -104 -306 -110 -320 -9 -24 -14 -14 -54 104 -24 72 -92
271 -150 443 l-106 312 -94 0 c-52 0 -94 -3 -94 -6z"/>
<path d="M21217 20716 c-3 -8 -5 -248 -4 -533 l2 -518 93 -3 92 -3 0 536 0
535 -89 0 c-68 0 -90 -3 -94 -14z"/>
<path d="M22670 20723 c0 -5 76 -244 169 -533 l169 -525 98 0 99 0 100 331
c55 182 113 375 129 428 16 53 31 94 34 92 2 -3 62 -196 132 -428 l127 -423
98 0 99 0 168 525 c92 289 168 528 168 533 0 4 -40 7 -88 7 l-88 0 -124 -425
c-68 -234 -126 -422 -129 -419 -3 3 -63 193 -132 422 l-125 417 -104 0 -103 0
-126 -422 c-69 -233 -128 -420 -132 -415 -5 5 -198 651 -246 825 -5 15 -18 17
-99 17 -52 0 -94 -3 -94 -7z"/>
<path d="M24566 18329 c-1041 -59 -1870 -497 -2016 -1064 -31 -119 -29 -263 5
-378 46 -161 118 -273 264 -417 326 -322 850 -533 1531 -616 181 -22 667 -25
835 -6 367 44 639 106 900 207 561 217 901 542 965 923 l12 72 109 0 109 0 0
30 0 30 -109 0 -110 0 -6 48 c-27 201 -125 382 -293 544 -378 363 -1006 586
-1767 628 -199 11 -228 11 -429 -1z m687 -83 c645 -82 1157 -289 1463 -591
116 -114 188 -218 235 -338 28 -71 32 -98 37 -202 5 -145 -8 -210 -72 -340
-201 -407 -798 -729 -1556 -839 -380 -55 -837 -52 -1205 10 -910 151 -1539
596 -1562 1104 -11 218 76 412 267 600 318 313 893 541 1515 600 61 5 126 12
145 14 82 9 622 -4 733 -18z"/>
<path d="M34675 18330 c-1687 -62 -2974 -542 -3099 -1155 l-12 -60 -82 -3 -82
-3 0 -29 0 -30 84 0 83 0 6 -44 c17 -119 102 -261 228 -380 372 -350 1177
-625 2149 -735 396 -45 588 -55 1050 -55 462 0 654 10 1050 55 1116 126 2002
470 2279 884 80 120 95 169 95 310 0 107 -2 127 -26 181 -205 484 -1112 870
-2378 1013 -397 45 -944 66 -1345 51z m-1200 -1011 c97 -43 138 -111 139 -229
1 -66 -3 -85 -29 -136 -26 -51 -38 -63 -84 -86 -51 -26 -63 -28 -178 -28
l-123 0 0 243 c0 134 3 247 8 251 11 13 234 0 267 -15z m1672 2 c43 -20 73
-62 73 -101 0 -16 -6 -20 -35 -20 -25 0 -35 4 -35 15 0 9 -11 27 -25 40 -19
19 -35 25 -70 25 -69 0 -105 -23 -105 -67 0 -35 33 -57 130 -86 58 -18 101
-38 123 -56 29 -27 32 -34 32 -89 0 -74 -23 -110 -86 -134 -86 -33 -210 -12
-251 43 -11 14 -23 42 -28 62 l-8 37 39 0 c32 0 39 -4 39 -19 0 -11 11 -33 24
-48 22 -25 30 -28 91 -28 61 0 69 3 91 28 52 61 18 106 -107 144 -51 15 -103
38 -122 54 -30 25 -32 31 -32 87 0 67 16 94 70 118 45 20 143 17 192 -5z
m-968 -53 c-1 -7 -1 -25 0 -40 1 -26 4 -28 41 -28 38 0 40 -2 40 -30 0 -28 -2
-30 -40 -30 l-40 0 0 -113 c0 -124 5 -137 56 -137 28 0 31 -3 26 -25 -4 -23
-9 -25 -52 -25 -32 0 -56 6 -71 19 -23 18 -24 27 -27 150 l-4 131 -29 0 c-26
0 -29 4 -29 30 0 27 3 30 30 30 28 0 30 2 30 40 0 39 1 40 35 40 23 0 35 -5
34 -12z m-229 -87 c38 -27 49 -73 49 -213 l1 -128 -35 0 c-29 0 -35 4 -35 21
l0 20 -29 -20 c-58 -42 -163 -36 -196 12 -24 34 -20 109 8 134 25 24 86 43
137 43 59 0 80 10 80 36 0 60 -96 89 -140 42 -11 -12 -20 -28 -20 -35 0 -8
-13 -13 -35 -13 -40 0 -44 13 -20 60 25 48 88 72 165 64 25 -3 56 -13 70 -23z
m620 9 c8 -5 24 -18 35 -30 18 -19 20 -39 24 -171 l3 -149 -36 0 c-30 0 -36 4
-36 21 l0 20 -26 -20 c-29 -23 -101 -36 -140 -27 -14 4 -37 18 -50 31 -34 34
-34 106 0 140 24 24 82 45 127 45 79 0 101 18 83 65 -22 57 -154 40 -154 -19
0 -12 -10 -16 -35 -16 -39 0 -41 6 -21 55 15 35 40 53 91 66 32 8 111 1 135
-11z m1010 -9 c42 -29 60 -78 60 -161 0 -119 -41 -177 -133 -187 -36 -4 -54
-1 -82 16 -20 11 -38 21 -41 21 -2 0 -4 -35 -4 -79 l0 -79 -30 -4 -30 -5 0
249 0 248 30 0 c25 0 30 -4 30 -26 l0 -25 33 24 c17 14 41 27 52 30 32 8 88
-2 115 -22z m384 9 c51 -19 61 -51 64 -207 l4 -143 -36 0 c-30 0 -36 4 -36 21
l0 20 -30 -21 c-62 -44 -171 -34 -200 19 -19 36 -12 100 14 126 24 24 82 45
127 45 15 0 41 3 58 6 36 7 41 35 15 72 -30 43 -144 21 -144 -29 0 -15 -7 -19
-35 -19 -39 0 -41 6 -21 55 27 65 128 90 220 55z m371 9 c50 -13 81 -42 95
-87 8 -31 8 -32 -26 -32 -19 0 -34 5 -34 10 0 6 -11 22 -25 35 -32 33 -84 33
-121 2 -23 -20 -28 -34 -32 -85 -8 -109 18 -152 93 -152 46 0 70 16 86 57 6
15 16 23 33 23 34 0 38 -11 24 -56 -27 -80 -160 -109 -242 -53 -45 30 -66 82
-66 160 0 97 30 147 107 175 47 16 54 17 108 3z m430 -15 c40 -19 64 -61 72
-124 l6 -50 -104 -1 c-163 -2 -154 0 -151 -33 4 -41 28 -73 64 -85 51 -18 102
2 119 46 6 17 16 23 39 23 34 0 36 -7 16 -53 -19 -46 -59 -69 -130 -74 -54 -4
-66 -1 -103 23 -52 35 -73 82 -73 166 0 151 112 225 245 162z"/>
<path d="M33270 17085 l0 -185 72 0 c139 0 197 55 198 188 0 76 -25 131 -73
161 -28 17 -51 21 -116 21 l-81 0 0 -185z"/>
<path d="M33813 16999 c-65 -19 -80 -85 -25 -108 59 -24 142 26 142 86 0 32
-1 33 -42 32 -24 0 -58 -5 -75 -10z"/>
<path d="M34443 16999 c-44 -13 -67 -48 -54 -82 27 -71 171 -21 171 60 0 32
-1 33 -42 32 -24 0 -58 -5 -75 -10z"/>
<path d="M35414 17116 c-32 -32 -34 -38 -34 -104 0 -66 2 -72 31 -96 91 -76
189 14 159 147 -14 62 -39 87 -88 87 -25 0 -43 -9 -68 -34z"/>
<path d="M35875 17005 c-5 -2 -22 -6 -37 -9 -33 -8 -62 -48 -53 -74 9 -30 57
-47 97 -33 49 17 78 49 78 88 0 32 -2 33 -37 32 -21 0 -42 -2 -48 -4z"/>
<path d="M36623 17135 c-11 -8 -26 -28 -31 -45 l-11 -30 95 0 c83 0 94 2 94
18 0 9 -11 30 -25 45 -30 31 -86 37 -122 12z"/>
<path d="M5435 18099 c-64 -18 -139 -73 -177 -129 -69 -101 -69 -99 -66 -837
3 -737 -1 -695 78 -799 30 -40 56 -61 107 -86 l68 -33 1462 -3 1463 -2 0 -525
0 -525 -40 0 c-22 0 -40 -2 -40 -5 0 -3 23 -50 50 -105 28 -55 47 -100 43
-100 -5 0 -665 -1 -1468 -2 l-1460 -3 -56 -26 c-79 -37 -131 -88 -170 -166
l-34 -68 0 -690 0 -690 33 -68 c38 -76 103 -139 179 -171 48 -21 58 -21 1506
-24 l1458 -2 35 -35 c19 -19 51 -43 72 -53 701 -351 4559 -635 8017 -591 2171
27 4168 159 5520 365 470 72 902 169 984 223 23 15 25 14 56 -24 l33 -39 52
105 c29 57 54 105 55 107 2 2 39 -15 84 -37 282 -142 688 -255 1051 -292 63
-7 120 -15 127 -18 7 -4 -166 -37 -385 -75 -579 -101 -596 -104 -1322 -231
-366 -64 -807 -141 -980 -171 -173 -30 -364 -63 -425 -74 -248 -43 -2509 -438
-3010 -525 -297 -52 -787 -137 -1090 -190 -554 -97 -788 -138 -2005 -350 -366
-64 -714 -124 -775 -135 -403 -70 -798 -139 -1170 -204 -236 -41 -626 -109
-865 -151 -239 -42 -446 -77 -459 -78 -22 -2 -26 4 -33 40 l-9 43 -88 -65 -89
-65 -3050 0 c-2970 0 -3052 0 -3111 -19 -113 -35 -207 -135 -231 -244 -8 -37
-10 -251 -8 -722 l3 -670 28 -57 c34 -68 114 -144 184 -173 48 -20 78 -20
3084 -23 l3035 -2 27 -93 c29 -102 326 -1148 406 -1431 28 -99 51 -183 51
-187 0 -4 -19 -14 -42 -21 l-41 -14 77 -85 77 -84 -4183 -5 -4183 -5 -57 -28
c-73 -36 -150 -119 -175 -189 -17 -49 -18 -99 -18 -739 l0 -686 35 -69 c42
-82 110 -142 190 -167 52 -16 550 -17 8440 -15 l8385 3 58 29 c70 36 120 89
156 165 l26 56 3 347 3 346 37 6 c20 3 74 8 120 12 45 3 82 9 82 13 0 3 -9 17
-20 31 -11 14 -20 30 -20 35 0 6 24 24 53 41 57 34 990 597 1597 964 212 128
462 279 555 335 94 56 312 188 485 292 173 105 423 256 555 335 132 80 481
290 775 468 294 177 540 326 546 331 6 5 1304 10 3060 11 l3049 3 55 26 c101
48 165 120 195 221 14 49 15 133 13 729 -3 672 -3 674 -25 722 -31 66 -105
142 -172 174 l-56 28 -6100 0 -6100 0 -67 -33 c-81 -39 -139 -102 -168 -179
-20 -54 -20 -69 -18 -752 l3 -696 23 -46 c50 -102 149 -173 267 -190 33 -5
1366 -9 2994 -9 1614 0 2936 -1 2938 -3 2 -2 -232 -146 -519 -319 -288 -173
-707 -427 -933 -563 -225 -136 -545 -329 -710 -429 -165 -99 -371 -223 -457
-276 -87 -52 -352 -212 -590 -356 -238 -143 -620 -374 -849 -512 -229 -139
-421 -252 -427 -252 -6 0 -20 16 -32 36 l-22 35 -57 -90 -56 -90 -5 322 c-5
303 -7 325 -28 370 -30 66 -104 142 -171 174 l-56 28 -4192 3 c-3981 2 -4193
3 -4193 20 0 9 9 62 19 117 11 55 18 101 16 103 -2 2 -20 -1 -40 -8 -20 -7
-39 -9 -42 -6 -3 3 -45 144 -93 313 -263 923 -390 1373 -390 1380 0 4 1322 7
2937 5 1616 -1 2983 2 3039 6 118 10 175 33 238 97 23 23 53 64 67 91 l24 49
0 710 0 710 -23 46 c-36 74 -87 125 -160 161 l-67 33 -2865 5 c-2205 4 -2849
8 -2795 16 39 7 500 87 1025 179 525 91 1029 179 1120 195 91 16 217 38 280
49 63 11 518 90 1010 176 1075 187 1973 344 2205 385 141 25 895 156 1520 265
83 14 382 67 665 116 283 50 616 108 740 129 215 37 507 88 745 130 61 11 551
96 1090 190 539 94 1068 186 1175 205 107 19 326 57 485 84 160 28 353 62 430
75 87 15 202 27 305 31 588 22 1123 163 1518 400 137 82 207 136 311 238 161
159 251 322 280 506 6 35 12 65 14 67 2 2 49 0 106 -4 56 -4 104 -6 107 -3 2
2 4 17 4 32 l0 27 -110 7 -109 7 -6 47 c-28 203 -125 383 -300 549 -51 49
-128 114 -171 144 -717 505 -1993 632 -2984 298 -499 -169 -870 -451 -1008
-766 -35 -80 -62 -180 -62 -235 0 -20 -3 -38 -6 -42 -4 -3 -51 16 -105 43 -54
28 -101 50 -103 50 -3 0 -6 -19 -8 -42 l-3 -43 -1637 -3 -1637 -2 -3 337 c-3
320 -4 340 -25 383 -47 100 -135 171 -242 196 -45 11 -332 14 -1488 14 -788 0
-1433 2 -1433 5 0 3 23 50 50 105 l50 100 -45 0 -45 0 0 525 0 525 1468 2
1467 3 46 23 c75 37 125 87 161 160 l33 67 0 695 0 696 -34 68 c-38 73 -87
122 -160 158 l-46 23 -2965 0 -2965 0 -46 -23 c-71 -35 -122 -84 -160 -154
l-34 -63 0 -705 0 -705 27 -52 c40 -76 79 -115 150 -154 l63 -34 1468 -3 1467
-2 0 -525 0 -525 -45 0 -45 0 50 -100 c27 -55 50 -103 50 -107 0 -5 -638 -7
-1417 -5 -858 1 -1442 -1 -1480 -7 -34 -5 -78 -17 -98 -27 -59 -28 -132 -101
-162 -162 l-28 -57 0 -700 0 -700 27 -56 c36 -72 94 -131 166 -166 l57 -28
2930 -3 c2916 -2 2930 -2 2997 18 84 25 164 95 205 178 l28 57 3 335 3 335
1640 -3 1639 -2 0 -40 c0 -22 2 -40 5 -40 3 0 50 22 105 50 67 33 102 45 105
37 2 -7 6 -40 10 -74 25 -253 239 -532 557 -728 41 -26 65 -46 57 -49 -8 -2
-56 -12 -106 -21 -51 -10 -93 -21 -93 -25 0 -4 10 -20 21 -35 27 -33 24 -36
-86 -69 -792 -242 -2894 -451 -5285 -526 -2722 -85 -5938 38 -7900 301 -629
84 -1129 199 -1228 282 -12 9 287 13 1434 17 l1449 5 57 27 c69 32 135 96 168
163 l25 50 0 710 0 710 -30 53 c-56 102 -138 162 -249 183 -31 5 -604 8 -1479
7 -785 -2 -1427 0 -1427 4 0 5 21 50 48 100 26 51 48 96 50 100 2 4 -16 8 -40
10 l-43 3 -3 522 -2 523 1467 2 1468 3 47 23 c71 36 134 96 165 160 l28 57 0
705 c0 701 0 705 -22 752 -30 66 -96 133 -162 165 l-56 28 -2950 2 c-1678 1
-2963 -3 -2980 -8z m13379 -73 c50 -25 100 -75 128 -129 l23 -42 3 -676 c2
-661 2 -678 -18 -731 -25 -66 -77 -122 -145 -154 l-50 -24 -2936 0 -2936 0
-62 31 c-65 33 -98 67 -130 139 -20 44 -21 64 -21 715 0 757 -3 727 78 811 47
49 93 73 161 83 24 3 1354 4 2955 1 2854 -5 2912 -5 2950 -24z m-7452 14 c53
-15 118 -68 153 -125 l30 -48 0 -706 0 -706 -27 -47 c-16 -25 -45 -60 -65 -77
-80 -66 171 -61 -3057 -61 l-2931 0 -50 24 c-65 30 -131 104 -150 169 -23 77
-22 1319 1 1396 19 66 81 136 149 167 l50 24 2930 0 c1988 0 2942 -3 2967 -10z
m13898 -2884 c627 -80 1131 -281 1441 -574 199 -189 292 -379 290 -597 -2
-199 -87 -378 -263 -553 -131 -132 -269 -225 -483 -327 -416 -199 -894 -296
-1450 -297 -424 0 -774 52 -1136 168 -403 129 -733 338 -910 577 -376 504 -72
1072 748 1401 250 100 565 174 868 205 61 6 126 13 145 15 83 9 642 -4 750
-18z m-13868 -294 c56 -28 112 -87 139 -146 18 -39 19 -77 19 -718 0 -765 4
-725 -79 -811 -29 -30 -64 -54 -99 -67 -52 -20 -83 -20 -2966 -20 -2681 0
-2918 1 -2965 17 -65 21 -119 67 -156 134 l-30 54 -3 668 c-2 429 1 681 8 706
24 90 106 172 198 197 38 10 631 12 2967 11 l2920 -2 47 -23z m7420 -5 c69
-34 124 -96 144 -163 11 -39 14 -166 14 -699 0 -752 3 -724 -83 -809 -96 -95
232 -86 -3066 -86 -3288 0 -2974 -9 -3066 83 -89 89 -85 53 -85 812 0 735 -2
714 67 794 36 42 94 78 148 92 17 4 1344 6 2950 6 l2920 -2 57 -28z m-954
-4431 c57 -32 102 -81 130 -143 15 -35 17 -96 20 -686 2 -563 1 -656 -13 -710
-23 -89 -69 -146 -155 -189 l-45 -23 -6085 0 -6085 0 -57 28 c-32 16 -74 47
-93 70 -67 78 -66 68 -63 818 3 670 3 674 25 714 31 57 92 113 149 135 48 19
148 19 6134 17 l6085 -2 53 -29z m13952 18 c39 -12 66 -29 105 -67 89 -89 85
-54 85 -807 0 -729 1 -721 -65 -797 -20 -23 -61 -54 -93 -70 l-57 -28 -6085 0
-6085 0 -48 24 c-63 31 -130 107 -148 168 -11 39 -14 174 -14 713 0 663 0 665
22 712 30 64 91 122 154 146 l54 21 6061 0 c5499 1 6065 0 6114 -15z m-11134
-3831 c32 -11 66 -34 99 -67 89 -89 86 -59 83 -832 l-3 -669 -31 -55 c-39 -70
-116 -126 -193 -140 -78 -14 -16662 -14 -16730 1 -76 16 -150 73 -186 144
l-30 59 -3 665 c-3 768 -6 738 83 827 30 31 68 57 95 67 41 14 816 15 8406 16
7797 1 8364 0 8410 -16z"/>
<path d="M13360 17165 l0 -245 160 0 160 0 0 25 c0 29 8 27 -135 29 l-110 1
-3 88 -3 87 116 0 115 0 0 25 0 25 -115 0 -115 0 0 80 0 80 125 0 125 0 0 25
0 25 -160 0 -160 0 0 -245z"/>
<path d="M14527 17403 c-14 -13 -7 -43 12 -53 34 -18 68 10 55 45 -6 15 -55
21 -67 8z"/>
<path d="M18064 17390 c-33 -13 -74 -69 -74 -101 0 -26 4 -29 30 -29 24 0 30
4 30 20 0 31 44 70 79 70 48 0 77 -16 91 -50 28 -66 -12 -125 -192 -283 -40
-34 -58 -57 -58 -73 l0 -24 165 0 165 0 0 25 0 25 -115 0 c-63 0 -115 3 -115
8 0 4 41 45 90 91 98 90 130 139 130 199 0 45 -33 100 -70 119 -28 14 -124 16
-156 3z"/>
<path d="M17230 17320 c0 -38 -2 -40 -30 -40 -25 0 -30 -4 -30 -25 0 -21 5
-25 29 -25 l29 0 3 -130 c5 -154 13 -169 98 -178 50 -4 51 -4 51 22 0 23 -4
26 -35 26 -47 0 -55 22 -55 156 l0 104 45 0 c41 0 45 2 45 25 0 23 -4 25 -45
25 l-45 0 0 40 c0 38 -2 40 -30 40 -28 0 -30 -2 -30 -40z"/>
<path d="M13780 17100 l0 -180 30 0 29 0 3 132 3 132 34 23 c34 23 85 30 108
15 24 -15 33 -66 33 -183 l0 -119 30 0 30 0 0 130 c0 142 -10 185 -51 214 -36
25 -107 21 -152 -9 l-37 -26 0 26 c0 21 -5 25 -30 25 l-30 0 0 -180z"/>
<path d="M14131 17272 c2 -4 33 -86 69 -180 l65 -172 35 0 35 0 67 178 c62
164 65 177 46 180 -11 2 -25 2 -31 -1 -7 -3 -35 -68 -62 -146 -28 -77 -52
-141 -55 -141 -3 0 -27 64 -55 143 l-50 142 -34 3 c-18 2 -32 -1 -30 -6z"/>
<path d="M14530 17100 l0 -180 30 0 30 0 0 180 0 180 -30 0 -30 0 0 -180z"/>
<path d="M14710 17101 l0 -181 30 0 30 0 0 128 c0 146 4 155 76 170 33 6 40
12 42 35 3 23 0 27 -21 27 -13 0 -40 -11 -60 -24 l-36 -25 -3 22 c-2 16 -11
23 -30 25 l-28 3 0 -180z"/>
<path d="M15010 17262 c-105 -56 -106 -266 -2 -326 46 -26 128 -26 171 -1 59
35 76 67 79 153 3 86 -13 130 -62 166 -38 29 -139 33 -186 8z m168 -72 c20
-30 23 -45 20 -102 -4 -77 -29 -113 -84 -124 -76 -14 -129 50 -121 149 6 70
26 104 70 115 51 13 89 1 115 -38z"/>
<path d="M15360 17100 l0 -180 30 0 29 0 3 132 3 132 34 23 c34 23 85 30 108
15 24 -15 33 -66 33 -183 l0 -119 30 0 30 0 0 130 c0 142 -10 185 -51 214 -36
25 -109 21 -153 -9 l-36 -24 0 24 c0 21 -5 25 -30 25 l-30 0 0 -180z"/>
<path d="M15780 17100 l0 -180 30 0 29 0 3 132 3 132 34 23 c44 30 95 30 115
1 13 -18 16 -51 16 -155 l0 -133 30 0 29 0 3 132 3 132 34 23 c44 30 95 30
115 1 13 -18 16 -51 16 -155 l0 -133 30 0 30 0 0 151 0 151 -30 30 c-28 28
-35 30 -85 26 -37 -3 -64 -12 -87 -30 l-33 -25 -26 28 c-36 39 -109 41 -163 4
l-36 -24 0 24 c0 21 -5 25 -30 25 l-30 0 0 -180z"/>
<path d="M16472 17260 c-99 -61 -94 -266 8 -325 48 -27 139 -27 177 1 34 25
67 84 54 97 -16 16 -61 -1 -61 -23 0 -11 -12 -26 -30 -35 -61 -32 -120 -11
-146 51 -27 64 -28 64 117 64 l130 0 -7 48 c-9 63 -29 99 -67 122 -44 27 -131
27 -175 0z m155 -52 c13 -13 23 -33 23 -50 l0 -28 -95 0 c-52 0 -95 4 -95 9 0
4 5 23 11 41 21 59 106 75 156 28z"/>
<path d="M16810 17101 l0 -181 30 0 29 0 3 132 3 132 34 23 c34 23 85 30 108
15 24 -15 33 -66 33 -183 l0 -119 30 0 30 0 0 130 c0 144 -11 187 -54 215 -35
23 -113 16 -154 -14 l-31 -21 -3 22 c-2 17 -11 24 -30 26 l-28 3 0 -180z"/>
<path d="M17662 17260 c-99 -61 -94 -266 8 -325 45 -26 135 -27 173 -2 30 20
54 53 59 82 2 16 -2 20 -22 19 -37 -2 -37 -2 -44 -27 -10 -43 -90 -62 -134
-31 -26 18 -52 65 -52 94 0 19 6 20 131 20 l130 0 -6 48 c-9 63 -34 103 -75
124 -48 24 -126 23 -168 -2z m156 -56 c12 -14 22 -36 22 -50 0 -24 -1 -24 -96
-24 l-96 0 7 28 c19 78 111 104 163 46z"/>
<path d="M5950 17165 l0 -245 161 0 160 0 -3 26 -3 27 -108 -1 c-59 -1 -115 2
-123 5 -11 4 -14 25 -14 89 l0 84 115 0 115 0 0 25 0 25 -115 0 -115 0 0 80 0
80 125 0 125 0 0 25 0 25 -160 0 -160 0 0 -245z"/>
<path d="M7107 17403 c-14 -13 -7 -43 12 -53 34 -18 68 10 55 45 -6 15 -55 21
-67 8z"/>
<path d="M10686 17365 c-21 -19 -51 -37 -67 -40 -24 -5 -29 -12 -29 -36 0 -36
12 -36 76 -4 27 14 50 25 52 25 1 0 2 -88 2 -195 l0 -195 30 0 30 0 0 240 0
240 -27 0 c-17 -1 -43 -14 -67 -35z"/>
<path d="M9820 17320 c0 -38 -2 -40 -30 -40 -25 0 -30 -4 -30 -25 0 -21 5 -25
29 -25 l29 0 3 -131 c4 -129 4 -131 32 -155 21 -18 40 -24 73 -24 40 0 44 2
44 25 0 22 -4 25 -35 25 -47 0 -55 22 -55 156 l0 104 45 0 c41 0 45 2 45 25 0
23 -4 25 -45 25 l-45 0 0 40 c0 38 -2 40 -30 40 -28 0 -30 -2 -30 -40z"/>
<path d="M6360 17100 l0 -180 30 0 29 0 3 132 3 132 34 23 c34 23 85 30 108
15 24 -15 33 -66 33 -183 l0 -119 30 0 30 0 0 130 c0 142 -10 185 -51 214 -36
25 -107 21 -152 -9 l-37 -26 0 26 c0 21 -5 25 -30 25 l-30 0 0 -180z"/>
<path d="M6711 17272 c2 -4 33 -86 69 -180 l65 -172 35 0 35 0 63 168 c34 92
62 173 62 180 0 9 -10 12 -27 10 -25 -3 -31 -13 -79 -148 -41 -114 -54 -141
-61 -125 -4 11 -28 76 -53 145 -45 124 -45 125 -79 128 -18 2 -32 -1 -30 -6z"/>
<path d="M7110 17100 l0 -180 30 0 30 0 0 180 0 180 -30 0 -30 0 0 -180z"/>
<path d="M7290 17101 l0 -181 30 0 30 0 0 129 0 130 28 19 c15 11 41 22 57 24
25 2 31 8 33 32 4 28 3 29 -34 23 -20 -3 -47 -16 -60 -28 l-22 -21 -4 24 c-2
17 -10 24 -30 26 l-28 3 0 -180z"/>
<path d="M7590 17261 c-73 -39 -103 -165 -61 -257 33 -72 106 -104 191 -84 82
20 122 80 121 183 0 71 -24 123 -71 155 -43 29 -130 30 -180 3z m141 -41 c47
-26 65 -138 33 -206 -28 -59 -122 -70 -163 -18 -41 52 -38 168 5 211 25 25 89
32 125 13z"/>
<path d="M7940 17100 l0 -180 30 0 29 0 3 132 3 132 34 23 c34 23 85 30 108
15 24 -15 33 -66 33 -183 l0 -119 30 0 30 0 0 130 c0 142 -10 185 -51 214 -36
25 -107 21 -152 -9 l-37 -26 0 26 c0 21 -5 25 -30 25 l-30 0 0 -180z"/>
<path d="M8360 17100 l0 -180 30 0 29 0 3 132 3 132 34 23 c44 30 95 30 115 1
13 -18 16 -51 16 -155 l0 -133 30 0 29 0 3 132 3 132 34 23 c41 28 92 30 114
5 14 -15 17 -42 17 -155 l0 -137 31 0 30 0 -3 156 -3 156 -28 24 c-41 35 -111
33 -163 -4 l-39 -29 -27 29 c-36 38 -106 40 -161 3 l-37 -26 0 26 c0 21 -5 25
-30 25 l-30 0 0 -180z"/>
<path d="M9052 17260 c-95 -58 -95 -262 -1 -319 93 -56 229 -17 241 69 3 22
-1 25 -27 25 -24 0 -31 -5 -33 -23 -7 -44 -95 -68 -140 -36 -26 18 -52 65 -52
94 0 19 6 20 129 20 l130 0 -5 47 c-6 61 -31 104 -74 125 -48 24 -126 23 -168
-2z m156 -52 c13 -13 22 -33 22 -50 l0 -28 -95 0 c-52 0 -95 4 -95 9 0 25 24
70 43 79 54 26 88 23 125 -10z"/>
<path d="M9390 17100 l0 -180 30 0 29 0 3 132 3 132 34 23 c34 23 85 30 108
15 24 -15 33 -66 33 -183 l0 -119 30 0 30 0 0 130 c0 142 -10 185 -51 214 -36
25 -107 21 -152 -9 l-37 -26 0 26 c0 21 -5 25 -30 25 l-30 0 0 -180z"/>
<path d="M10242 17260 c-69 -42 -94 -172 -49 -260 56 -113 224 -119 279 -10
20 39 16 50 -17 50 -19 0 -28 -9 -39 -34 -12 -28 -22 -36 -52 -42 -67 -12
-116 23 -130 93 l-6 32 128 3 129 3 -3 45 c-8 93 -58 140 -152 140 -38 0 -65
-6 -88 -20z m155 -52 c13 -13 23 -33 23 -50 l0 -28 -95 0 c-62 0 -95 4 -95 11
0 27 34 79 58 88 37 14 81 5 109 -21z"/>
<path d="M6460 13994 l0 -246 128 4 c107 3 134 7 169 26 78 41 113 111 113
226 0 85 -21 138 -73 183 -49 43 -91 53 -224 53 l-113 0 0 -246z m225 185 c81
-22 118 -80 118 -185 0 -80 -17 -122 -66 -158 -23 -17 -46 -22 -118 -24 l-89
-4 0 191 0 191 58 0 c31 0 75 -5 97 -11z"/>
<path d="M9160 13994 l0 -246 128 4 c107 3 134 7 169 26 78 41 113 111 113
226 0 85 -21 138 -73 183 -49 43 -91 53 -224 53 l-113 0 0 -246z m261 170 c69
-41 99 -126 78 -224 -21 -96 -71 -130 -194 -130 l-75 0 0 191 0 192 79 -5 c53
-3 89 -11 112 -24z"/>
<path d="M10186 14195 c-21 -19 -51 -37 -67 -40 -24 -5 -29 -12 -29 -36 0 -36
12 -36 76 -4 27 14 50 25 52 25 1 0 2 -88 2 -195 l0 -195 30 0 30 0 0 240 0
240 -27 0 c-17 -1 -43 -14 -67 -35z"/>
<path d="M7370 14151 c0 -36 -3 -40 -27 -43 -20 -2 -29 -9 -31 -25 -3 -20 1
-23 27 -23 l29 0 4 -131 c3 -129 3 -131 31 -155 21 -18 40 -24 73 -24 40 0 44
2 44 25 0 22 -4 25 -35 25 -47 0 -55 22 -55 156 l0 104 45 0 c41 0 45 2 45 25
0 23 -4 25 -45 25 l-45 0 0 40 c0 38 -2 40 -30 40 -28 0 -30 -2 -30 -39z"/>
<path d="M8770 14150 c0 -38 -2 -40 -30 -40 -25 0 -30 -4 -30 -25 0 -21 5 -25
29 -25 l29 0 4 -131 c3 -129 3 -131 31 -155 21 -18 40 -24 73 -24 40 0 44 2
44 25 0 22 -4 25 -35 25 -47 0 -55 22 -55 156 l0 104 45 0 c41 0 45 2 45 25 0
23 -4 25 -45 25 l-45 0 0 40 c0 38 -2 40 -30 40 -28 0 -30 -2 -30 -40z"/>
<path d="M7035 14101 c-29 -12 -54 -43 -65 -80 -8 -30 -7 -31 20 -31 22 0 32
7 42 27 17 36 60 56 98 48 42 -9 60 -31 60 -69 l0 -33 -74 -6 c-119 -9 -166
-42 -166 -116 0 -67 82 -115 156 -91 22 7 49 21 60 32 21 19 22 19 28 -6 5
-19 13 -26 31 -26 l25 0 0 140 c0 151 -7 178 -50 203 -30 18 -129 22 -165 8z
m155 -220 c0 -33 -5 -43 -30 -61 -63 -45 -150 -31 -150 23 0 50 43 75 133 76
l47 1 0 -39z"/>
<path d="M7664 14100 c-30 -12 -64 -58 -64 -86 0 -19 5 -24 25 -24 15 0 28 7
32 18 17 49 80 75 124 51 32 -16 39 -28 39 -65 l0 -31 -74 -6 c-41 -3 -90 -13
-109 -22 -84 -40 -73 -155 18 -185 43 -14 83 -6 129 25 l34 23 6 -24 c5 -17
13 -24 31 -24 l25 0 0 140 c0 160 -9 191 -61 209 -37 13 -125 14 -155 1z m156
-219 c0 -33 -5 -43 -30 -61 -63 -45 -150 -31 -150 23 0 50 43 75 133 76 l47 1
0 -39z"/>
<path d="M8038 14094 c-33 -17 -48 -43 -48 -81 0 -50 25 -71 115 -98 104 -32
128 -62 85 -105 -39 -39 -150 -18 -150 29 0 18 -42 35 -55 23 -12 -13 -3 -44
23 -72 51 -57 167 -62 226 -10 25 23 31 36 31 69 0 56 -27 80 -122 111 -82 27
-105 48 -87 77 28 45 117 35 139 -15 7 -15 18 -22 37 -22 16 0 28 5 28 10 0
25 -32 71 -60 85 -37 19 -127 19 -162 -1z"/>
<path d="M8412 14090 c-99 -61 -94 -266 8 -325 47 -27 140 -26 178 2 33 24 65
84 53 96 -17 17 -56 -1 -68 -32 -8 -23 -19 -31 -48 -37 -68 -12 -117 23 -131
94 l-6 32 130 0 130 0 -5 47 c-10 98 -59 143 -153 143 -38 0 -65 -6 -88 -20z
m155 -52 c13 -13 23 -33 23 -50 l0 -28 -96 0 -96 0 7 28 c19 77 105 104 162
50z"/>
<path d="M9732 14090 c-99 -61 -94 -266 8 -325 48 -27 139 -27 177 1 30 22 66
82 57 96 -3 4 -16 8 -30 8 -19 0 -28 -7 -35 -29 -17 -48 -91 -67 -138 -35 -13
9 -29 32 -37 50 -27 64 -28 64 117 64 l131 0 -7 47 c-9 64 -29 100 -68 123
-44 27 -131 27 -175 0z m156 -52 c13 -13 22 -33 22 -50 l0 -28 -96 0 -96 0 7
28 c19 76 105 103 163 50z"/>
<path d="M13870 13994 l0 -246 128 4 c107 3 134 7 169 26 78 41 113 111 113
226 0 85 -21 138 -73 183 -49 43 -91 53 -224 53 l-113 0 0 -246z m261 170 c69
-41 99 -126 78 -224 -21 -96 -71 -130 -194 -130 l-75 0 0 191 0 192 79 -5 c53
-3 89 -11 112 -24z"/>
<path d="M16580 13994 l0 -246 128 4 c113 3 132 6 172 28 24 14 57 44 74 67
26 37 30 53 34 128 6 105 -12 158 -68 209 -51 46 -92 56 -227 56 l-113 0 0
-246z m225 185 c81 -22 119 -81 119 -185 -1 -80 -19 -122 -67 -158 -23 -17
-46 -22 -118 -24 l-89 -4 0 191 0 191 58 0 c31 0 75 -5 97 -11z"/>
<path d="M17554 14221 c-34 -15 -74 -70 -74 -102 0 -26 4 -29 30 -29 24 0 30
4 30 20 0 31 44 70 79 70 76 0 114 -49 92 -120 -12 -42 -54 -88 -179 -199 -51
-45 -72 -71 -72 -87 l0 -24 165 0 165 0 0 25 0 25 -115 0 c-63 0 -115 3 -115
7 0 3 42 46 94 95 69 64 99 100 112 133 23 62 14 119 -25 159 -27 27 -38 31
-98 33 -38 2 -77 -1 -89 -6z"/>
<path d="M14790 14150 c0 -38 -2 -40 -30 -40 -25 0 -30 -4 -30 -25 0 -21 5
-25 29 -25 l29 0 4 -131 c3 -129 3 -131 31 -155 21 -18 40 -24 73 -24 40 0 44
2 44 25 0 22 -4 25 -35 25 -47 0 -55 22 -55 156 l0 104 45 0 c41 0 45 2 45 25
0 23 -4 25 -45 25 l-45 0 0 40 c0 38 -2 40 -30 40 -28 0 -30 -2 -30 -40z"/>
<path d="M16190 14151 c0 -36 -3 -40 -27 -43 -20 -2 -29 -9 -31 -25 -3 -20 1
-23 27 -23 l29 0 4 -130 c4 -154 12 -169 97 -178 50 -4 51 -4 51 22 0 23 -4
26 -35 26 -47 0 -55 22 -55 156 l0 104 45 0 c41 0 45 2 45 25 0 23 -4 25 -45
25 l-45 0 0 40 c0 38 -2 40 -30 40 -28 0 -30 -2 -30 -39z"/>
<path d="M14454 14100 c-30 -12 -64 -58 -64 -86 0 -20 5 -24 30 -24 22 0 30 5
30 18 0 43 77 75 121 52 32 -17 39 -29 39 -67 0 -32 -1 -33 -45 -33 -80 0
-142 -19 -170 -52 -48 -56 -23 -134 50 -158 43 -14 83 -6 129 25 l34 23 6 -24
c5 -17 13 -24 31 -24 l25 0 0 140 c0 160 -9 191 -61 209 -37 13 -125 14 -155
1z m156 -219 c0 -33 -5 -43 -30 -61 -63 -45 -150 -31 -150 23 0 50 43 75 133
76 l47 1 0 -39z"/>
<path d="M15084 14100 c-30 -12 -64 -58 -64 -86 0 -20 5 -24 30 -24 22 0 30 5
30 18 0 42 65 71 115 52 36 -14 45 -26 45 -66 l0 -31 -74 -6 c-119 -9 -166
-42 -166 -116 0 -86 129 -129 206 -69 25 20 39 18 39 -5 0 -7 12 -13 28 -15
l27 -3 0 141 c0 160 -9 191 -61 209 -37 13 -125 14 -155 1z m156 -219 c0 -33
-5 -43 -30 -61 -63 -45 -150 -31 -150 23 0 50 43 75 133 76 l47 1 0 -39z"/>
<path d="M15448 14094 c-33 -17 -48 -43 -48 -81 0 -50 25 -71 115 -98 104 -32
128 -62 85 -105 -37 -37 -134 -21 -146 25 -5 19 -12 25 -35 25 -32 0 -36 -13
-18 -53 33 -73 189 -86 249 -22 17 18 25 38 25 65 0 55 -31 83 -120 109 -40
12 -79 28 -85 36 -18 21 -8 48 23 63 40 19 85 6 106 -29 11 -21 24 -29 44 -29
15 0 27 5 27 10 0 25 -32 71 -60 85 -37 19 -127 19 -162 -1z"/>
<path d="M15832 14090 c-67 -41 -93 -168 -53 -257 30 -66 99 -99 181 -87 82
12 149 113 82 122 -17 3 -25 -3 -33 -26 -17 -49 -91 -68 -138 -36 -13 9 -29
32 -37 50 -27 63 -27 63 114 66 l127 3 -3 45 c-8 93 -58 140 -152 140 -38 0
-65 -6 -88 -20z m156 -56 c12 -14 22 -36 22 -50 0 -24 -1 -24 -95 -24 -52 0
-95 4 -95 9 0 4 5 22 11 39 21 62 110 77 157 26z"/>
<path d="M17142 14090 c-99 -61 -94 -266 8 -325 47 -27 140 -26 178 2 29 21
64 81 56 95 -3 4 -16 8 -30 8 -19 0 -28 -7 -35 -29 -17 -48 -91 -67 -138 -35
-13 9 -29 32 -37 50 -27 64 -28 64 117 64 l131 0 -7 47 c-9 64 -29 100 -68
123 -44 27 -131 27 -175 0z m155 -52 c13 -13 23 -33 23 -50 l0 -28 -95 0 c-62
0 -95 4 -95 11 0 27 34 79 58 88 37 14 81 5 109 -21z"/>
<path d="M16607 9806 c-50 -18 -64 -31 -77 -72 -29 -88 14 -142 150 -184 50
-16 100 -36 111 -46 19 -17 25 -57 13 -89 -16 -41 -126 -60 -184 -30 -17 9
-33 28 -40 50 -10 30 -16 35 -42 35 -30 0 -30 -1 -25 -36 12 -75 78 -117 182
-118 133 0 204 75 175 183 -13 49 -57 78 -165 110 -94 27 -115 43 -115 86 0
26 6 39 25 51 55 36 156 15 174 -37 8 -24 16 -29 42 -29 30 0 31 1 25 33 -16
83 -143 130 -249 93z"/>
<path d="M6180 9565 l0 -245 150 0 150 0 0 30 0 30 -115 0 -115 0 0 215 0 215
-35 0 -35 0 0 -245z"/>
<path d="M7757 9804 c-9 -10 -8 -366 2 -408 12 -51 29 -66 80 -73 39 -5 41 -4
41 21 0 18 -5 26 -18 26 -39 0 -42 17 -42 232 l0 208 -28 0 c-16 0 -31 -3 -35
-6z"/>
<path d="M9075 9800 c-8 -14 -4 -350 5 -401 10 -52 27 -69 79 -76 39 -5 41 -4
41 21 0 18 -5 26 -18 26 -39 0 -42 17 -42 232 l0 208 -29 0 c-17 0 -33 -4 -36
-10z"/>
<path d="M13147 9803 c-14 -13 -7 -43 12 -53 34 -18 68 10 55 45 -6 15 -55 21
-67 8z"/>
<path d="M14913 9798 c-23 -11 -43 -55 -43 -94 0 -20 -5 -24 -30 -24 -25 0
-30 -4 -30 -25 0 -21 5 -25 30 -25 l30 0 0 -155 0 -155 30 0 30 0 0 155 0 155
46 0 c41 0 45 2 42 23 -2 18 -10 23 -45 25 -35 3 -43 7 -43 23 0 33 18 57 49
64 28 6 46 27 34 39 -10 10 -76 6 -100 -6z"/>
<path d="M14425 9770 c-16 -17 -46 -36 -67 -42 -32 -9 -38 -15 -38 -40 0 -15
5 -28 10 -28 18 0 84 30 102 47 17 15 18 7 18 -185 l0 -202 30 0 30 0 0 240 0
240 -28 0 c-18 0 -38 -11 -57 -30z"/>
<path d="M17066 9765 c-21 -19 -51 -37 -67 -40 -24 -5 -29 -12 -29 -36 0 -36
12 -36 76 -4 27 14 50 25 52 25 1 0 2 -88 2 -195 l0 -195 30 0 30 0 0 240 0
240 -27 0 c-17 -1 -43 -14 -67 -35z"/>
<path d="M12290 9720 c0 -38 -2 -40 -30 -40 -25 0 -30 -4 -30 -25 0 -21 5 -25
29 -25 l29 0 3 -131 c4 -129 4 -131 32 -155 21 -18 40 -24 73 -24 40 0 44 2
44 25 0 22 -4 25 -35 25 -47 0 -55 22 -55 156 l0 104 45 0 c41 0 45 2 45 25 0
23 -4 25 -45 25 l-45 0 0 40 c0 38 -2 40 -30 40 -28 0 -30 -2 -30 -40z"/>
<path d="M12920 9720 c0 -38 -2 -40 -30 -40 -25 0 -30 -4 -30 -25 0 -21 5 -25
29 -25 l29 0 3 -131 c4 -129 4 -131 32 -155 21 -18 40 -24 73 -24 40 0 44 2
44 25 0 22 -4 25 -35 25 -47 0 -55 22 -55 156 l0 104 45 0 c41 0 45 2 45 25 0
23 -4 25 -45 25 l-45 0 0 40 c0 38 -2 40 -30 40 -28 0 -30 -2 -30 -40z"/>
<path d="M6610 9662 c-105 -56 -106 -266 -2 -326 46 -26 128 -26 171 -1 59 35
76 67 79 153 3 86 -13 130 -62 166 -38 29 -139 33 -186 8z m168 -72 c20 -30
23 -45 20 -102 -4 -77 -29 -113 -84 -124 -76 -14 -129 50 -121 149 6 70 26
104 70 115 51 13 89 1 115 -38z"/>
<path d="M6910 9668 c0 -7 24 -87 53 -178 l53 -165 34 0 34 0 38 124 c20 68
40 131 44 140 3 10 23 -40 48 -124 l42 -140 34 0 34 0 53 165 c29 91 53 171
53 178 0 9 -10 12 -27 10 -26 -3 -29 -10 -67 -140 -22 -76 -42 -135 -45 -133
-2 3 -23 65 -45 138 l-41 132 -34 0 -33 0 -41 -137 c-23 -76 -44 -135 -47
-130 -4 4 -24 67 -45 140 -37 129 -39 132 -67 132 -16 0 -28 -5 -28 -12z"/>
<path d="M8002 9660 c-69 -42 -94 -172 -49 -260 56 -113 224 -119 279 -10 20
39 16 50 -17 50 -19 0 -28 -9 -39 -34 -12 -28 -22 -36 -52 -42 -67 -12 -116
23 -130 93 l-6 32 128 3 129 3 -3 45 c-8 93 -58 140 -152 140 -38 0 -65 -6
-88 -20z m155 -52 c13 -13 23 -33 23 -50 l0 -28 -95 0 c-62 0 -95 4 -95 11 0
27 34 79 58 88 37 14 81 5 109 -21z"/>
<path d="M8291 9672 c2 -4 33 -86 69 -180 l65 -172 35 0 35 0 67 178 c62 164
65 177 46 180 -11 2 -25 2 -31 -1 -7 -3 -35 -68 -62 -146 -28 -77 -52 -141
-55 -141 -3 0 -27 64 -55 143 l-50 142 -34 3 c-18 2 -32 -1 -30 -6z"/>
<path d="M8732 9660 c-95 -58 -95 -262 -1 -319 93 -56 229 -17 241 69 3 22 -1
25 -27 25 -24 0 -31 -5 -33 -23 -7 -44 -95 -68 -140 -36 -26 18 -52 65 -52 94
0 19 6 20 129 20 l130 0 -5 47 c-6 61 -31 104 -74 125 -48 24 -126 23 -168 -2z
m156 -52 c13 -13 22 -33 22 -50 l0 -28 -95 0 c-52 0 -95 4 -95 9 0 25 24 70
43 79 54 26 88 23 125 -10z"/>
<path d="M9410 9501 l0 -181 30 0 30 0 0 129 0 130 28 19 c15 11 41 22 57 24
25 2 31 8 33 32 4 28 3 29 -34 23 -20 -3 -47 -16 -60 -28 l-22 -21 -4 24 c-2
17 -10 24 -30 26 l-28 3 0 -180z"/>
<path d="M9702 9660 c-99 -61 -94 -266 8 -325 48 -27 139 -27 177 1 37 27 67
85 50 96 -25 16 -48 8 -58 -21 -17 -48 -91 -67 -138 -35 -13 9 -29 32 -37 50
-27 63 -27 63 114 66 l127 3 -3 39 c-8 98 -58 146 -152 146 -38 0 -65 -6 -88
-20z m156 -56 c12 -14 22 -36 22 -50 0 -24 -1 -24 -96 -24 l-96 0 7 28 c19 79
111 105 163 46z"/>
<path d="M10050 9435 l0 -245 30 0 30 0 0 86 0 85 28 -19 c73 -53 172 -29 211
50 44 92 18 239 -50 273 -44 23 -110 19 -153 -10 l-36 -24 0 24 c0 21 -5 25
-30 25 l-30 0 0 -245z m233 163 c29 -39 34 -131 10 -178 -25 -48 -61 -64 -112
-50 -57 15 -71 40 -71 128 0 70 2 76 32 103 26 26 38 30 76 27 35 -2 49 -9 65
-30z"/>
<path d="M10470 9501 l0 -181 30 0 30 0 0 128 c0 146 4 155 76 170 33 6 40 12
42 35 3 23 0 27 -21 27 -13 0 -40 -11 -60 -24 l-36 -25 -3 22 c-2 16 -11 23
-30 25 l-28 3 0 -180z"/>
<path d="M10762 9660 c-99 -61 -94 -266 8 -325 44 -25 137 -26 174 -1 29 18
53 52 58 80 2 14 -4 20 -25 23 -23 3 -29 -1 -38 -25 -17 -49 -91 -68 -138 -36
-13 9 -29 32 -37 50 -27 63 -27 63 114 66 l127 3 -3 45 c-4 54 -34 105 -72
125 -42 22 -128 19 -168 -5z m156 -56 c12 -14 22 -36 22 -50 0 -24 -1 -24 -95
-24 -62 0 -95 4 -95 11 0 6 7 26 16 45 28 58 108 67 152 18z"/>
<path d="M11138 9664 c-33 -17 -48 -43 -48 -81 0 -56 25 -75 142 -108 65 -17
84 -39 68 -79 -11 -29 -45 -41 -96 -33 -43 7 -64 23 -64 48 0 14 -7 19 -30 19
-33 0 -37 -13 -19 -53 32 -71 185 -85 248 -23 19 19 26 36 26 65 0 56 -30 84
-119 109 -40 12 -79 28 -85 36 -19 22 -9 49 22 64 40 19 85 6 106 -29 11 -21
24 -29 44 -29 15 0 27 5 27 10 0 25 -32 71 -60 85 -37 19 -127 19 -162 -1z"/>
<path d="M11522 9660 c-69 -42 -94 -172 -49 -260 56 -113 224 -119 279 -10 20
39 16 50 -17 50 -19 0 -28 -9 -39 -34 -12 -28 -22 -36 -52 -42 -67 -12 -116
23 -130 93 l-6 32 128 3 129 3 -3 45 c-8 93 -58 140 -152 140 -38 0 -65 -6
-88 -20z m155 -52 c13 -13 23 -33 23 -50 l0 -28 -95 0 c-62 0 -95 4 -95 11 0
27 34 79 58 88 37 14 81 5 109 -21z"/>
<path d="M11860 9500 l0 -180 30 0 29 0 3 132 3 132 34 23 c34 23 85 30 108
15 24 -15 33 -66 33 -183 l0 -119 30 0 30 0 0 130 c0 142 -10 185 -51 214 -36
25 -107 21 -152 -9 l-37 -26 0 26 c0 21 -5 25 -30 25 l-30 0 0 -180z"/>
<path d="M12580 9673 c-60 -22 -97 -113 -46 -113 17 0 29 9 38 27 17 36 60 56
98 48 42 -9 60 -31 60 -69 l0 -33 -74 -6 c-74 -5 -130 -26 -153 -56 -7 -9 -13
-32 -13 -52 0 -74 75 -122 157 -100 22 6 46 18 53 26 17 20 27 19 35 -5 4 -13
15 -20 31 -20 l24 0 0 140 c0 152 -8 183 -51 206 -27 14 -128 18 -159 7z m150
-222 c0 -33 -5 -43 -30 -61 -63 -45 -150 -31 -150 23 0 50 43 75 133 76 l47 1
0 -39z"/>
<path d="M13150 9500 l0 -180 30 0 30 0 0 180 0 180 -30 0 -30 0 0 -180z"/>
<path d="M13390 9662 c-73 -40 -103 -166 -61 -258 33 -72 106 -104 191 -84 82
20 122 79 122 182 0 66 -23 121 -65 152 -39 29 -140 34 -187 8z m141 -42 c35
-19 51 -67 47 -137 -5 -84 -35 -118 -104 -118 -37 0 -50 5 -69 28 -45 52 -45
168 0 213 26 26 90 33 126 14z"/>
<path d="M13740 9500 l0 -180 30 0 29 0 3 132 3 132 34 23 c34 23 85 30 108
15 24 -15 33 -66 33 -183 l0 -119 30 0 30 0 0 130 c0 144 -11 187 -54 215 -35
23 -117 16 -157 -14 l-29 -22 0 26 c0 21 -5 25 -30 25 l-30 0 0 -180z"/>
<path d="M15090 9501 l0 -181 30 0 30 0 0 129 0 130 28 19 c15 11 41 22 57 24
25 2 31 8 33 32 4 28 3 29 -34 23 -20 -3 -47 -16 -60 -28 l-22 -21 -4 24 c-2
17 -10 24 -30 26 l-28 3 0 -180z"/>
<path d="M15390 9662 c-73 -40 -103 -166 -61 -258 33 -72 106 -104 191 -84 82
20 122 79 122 182 0 66 -23 121 -65 152 -39 29 -140 34 -187 8z m141 -42 c35
-19 51 -67 47 -137 -5 -84 -35 -118 -104 -118 -37 0 -50 5 -69 28 -45 52 -45
168 0 213 26 26 90 33 126 14z"/>
<path d="M15740 9500 l0 -180 30 0 29 0 3 132 3 132 34 23 c44 30 95 30 115 1
13 -18 16 -51 16 -155 l0 -133 30 0 29 0 3 132 3 132 34 23 c44 30 95 30 115
1 13 -18 16 -51 16 -155 l0 -133 31 0 30 0 -3 156 -3 156 -28 24 c-41 35 -111
33 -163 -4 l-39 -29 -27 29 c-36 38 -108 40 -162 3 l-36 -24 0 24 c0 21 -5 25
-30 25 l-30 0 0 -180z"/>
<path d="M7480 9500 l0 -29 88 2 c87 2 87 2 90 30 l3 27 -90 0 -91 0 0 -30z"/>
<path d="M30581 9799 c-51 -26 -76 -74 -67 -128 9 -57 49 -88 156 -121 53 -16
104 -38 113 -48 17 -19 22 -57 11 -87 -16 -41 -126 -60 -184 -30 -17 9 -33 28
-40 50 -10 30 -16 35 -42 35 -30 0 -30 -1 -25 -36 12 -75 78 -117 183 -117
112 0 179 51 179 137 0 81 -37 116 -170 155 -94 28 -115 43 -115 86 0 59 75
89 149 59 32 -13 43 -23 48 -45 5 -25 10 -29 39 -29 40 0 44 18 14 67 -26 43
-71 65 -145 70 -48 3 -69 0 -104 -18z"/>
<path d="M20180 9565 l0 -245 150 0 150 0 0 30 0 30 -115 0 -115 0 0 215 0
215 -35 0 -35 0 0 -245z"/>
<path d="M21757 9804 c-9 -10 -8 -366 2 -408 12 -51 29 -66 80 -73 39 -5 41
-4 41 21 0 18 -5 26 -18 26 -39 0 -42 17 -42 232 l0 208 -28 0 c-16 0 -31 -3
-35 -6z"/>
<path d="M23075 9800 c-8 -14 -4 -350 5 -401 10 -52 27 -69 79 -76 39 -5 41
-4 41 21 0 18 -5 26 -18 26 -39 0 -42 17 -42 232 l0 208 -29 0 c-17 0 -33 -4
-36 -10z"/>
<path d="M27147 9803 c-14 -13 -7 -43 12 -53 34 -18 68 10 55 45 -6 15 -55 21
-67 8z"/>
<path d="M28913 9798 c-23 -11 -43 -55 -43 -94 0 -20 -5 -24 -30 -24 -25 0
-30 -4 -30 -25 0 -21 5 -25 30 -25 l30 0 0 -155 0 -155 30 0 30 0 0 155 0 155
46 0 c41 0 45 2 42 23 -2 18 -10 23 -45 25 -35 3 -43 7 -43 23 0 33 18 57 49
64 28 6 46 27 34 39 -10 10 -76 6 -100 -6z"/>
<path d="M28374 9790 c-33 -13 -74 -69 -74 -101 0 -26 4 -29 30 -29 22 0 30 5
30 18 0 48 65 83 125 68 39 -10 62 -65 47 -114 -13 -42 -43 -77 -169 -193 -54
-50 -83 -84 -83 -98 0 -21 4 -21 165 -21 l165 0 0 25 0 25 -115 0 c-63 0 -115
3 -115 8 0 4 41 45 90 91 98 90 130 139 130 199 0 45 -33 100 -70 119 -28 14
-124 16 -156 3z"/>
<path d="M31024 9790 c-33 -13 -74 -69 -74 -101 0 -26 4 -29 30 -29 24 0 30 4
30 20 0 31 44 70 79 70 48 0 77 -16 91 -50 28 -66 -12 -125 -192 -283 -40 -34
-58 -57 -58 -73 l0 -24 165 0 165 0 0 25 0 25 -115 0 c-63 0 -115 3 -115 8 0
4 41 45 90 91 98 90 130 139 130 199 0 45 -33 100 -70 119 -28 14 -124 16
-156 3z"/>
<path d="M26280 9720 c0 -38 -2 -40 -30 -40 -25 0 -30 -4 -30 -25 0 -21 5 -25
29 -25 l29 0 3 -131 c4 -129 4 -131 32 -155 21 -18 40 -24 73 -24 40 0 44 2
44 25 0 22 -4 25 -35 25 -47 0 -55 22 -55 156 l0 104 45 0 c41 0 45 2 45 25 0
23 -4 25 -45 25 l-45 0 0 40 c0 38 -2 40 -30 40 -28 0 -30 -2 -30 -40z"/>
<path d="M26920 9720 c0 -38 -2 -40 -30 -40 -25 0 -30 -4 -30 -25 0 -21 5 -25
29 -25 l29 0 3 -131 c4 -129 4 -131 32 -155 21 -18 40 -24 73 -24 40 0 44 2
44 25 0 22 -4 25 -35 25 -47 0 -55 22 -55 156 l0 104 45 0 c41 0 45 2 45 25 0
23 -4 25 -45 25 l-45 0 0 40 c0 38 -2 40 -30 40 -28 0 -30 -2 -30 -40z"/>
<path d="M20610 9662 c-105 -56 -106 -266 -2 -326 46 -26 128 -26 171 -1 59
35 76 67 79 153 3 86 -13 130 -62 166 -38 29 -139 33 -186 8z m168 -72 c20
-30 23 -45 20 -102 -4 -77 -29 -113 -84 -124 -76 -14 -129 50 -121 149 6 70
26 104 70 115 51 13 89 1 115 -38z"/>
<path d="M20910 9668 c0 -7 24 -87 53 -178 l53 -165 34 0 34 0 38 124 c20 68
40 131 44 140 3 10 23 -40 48 -124 l42 -140 34 0 34 0 53 165 c29 91 53 171
53 178 0 9 -10 12 -27 10 -26 -3 -29 -10 -67 -140 -22 -76 -42 -135 -45 -133
-2 3 -23 65 -45 138 l-41 132 -34 0 -33 0 -41 -137 c-23 -76 -44 -135 -47
-130 -4 4 -24 67 -45 140 -37 129 -39 132 -67 132 -16 0 -28 -5 -28 -12z"/>
<path d="M22002 9660 c-69 -42 -94 -172 -49 -260 56 -113 224 -119 279 -10 20
39 16 50 -17 50 -19 0 -28 -9 -39 -34 -12 -28 -22 -36 -52 -42 -67 -12 -116
23 -130 93 l-6 32 128 3 129 3 -3 45 c-8 93 -58 140 -152 140 -38 0 -65 -6
-88 -20z m155 -52 c13 -13 23 -33 23 -50 l0 -28 -95 0 c-62 0 -95 4 -95 11 0
27 34 79 58 88 37 14 81 5 109 -21z"/>
<path d="M22291 9672 c2 -4 33 -86 69 -180 l65 -172 35 0 35 0 67 178 c62 164
65 177 46 180 -11 2 -25 2 -31 -1 -7 -3 -35 -68 -62 -146 -28 -77 -52 -141
-55 -141 -3 0 -27 64 -55 143 l-50 142 -34 3 c-18 2 -32 -1 -30 -6z"/>
<path d="M22732 9660 c-95 -58 -95 -262 -1 -319 93 -56 229 -17 241 69 3 22
-1 25 -27 25 -24 0 -31 -5 -33 -23 -7 -44 -95 -68 -140 -36 -26 18 -52 65 -52
94 0 19 6 20 129 20 l130 0 -5 47 c-6 61 -31 104 -74 125 -48 24 -126 23 -168
-2z m156 -52 c13 -13 22 -33 22 -50 l0 -28 -95 0 c-52 0 -95 4 -95 9 0 25 24
70 43 79 54 26 88 23 125 -10z"/>
<path d="M23410 9501 l0 -181 30 0 30 0 0 129 0 130 28 19 c15 11 41 22 57 24
25 2 31 8 33 32 4 28 3 29 -34 23 -20 -3 -47 -16 -60 -28 l-22 -21 -4 24 c-2
17 -10 24 -30 26 l-28 3 0 -180z"/>
<path d="M23702 9660 c-99 -61 -94 -266 8 -325 48 -27 139 -27 177 1 37 27 67
85 50 96 -25 16 -48 8 -58 -21 -17 -48 -91 -67 -138 -35 -13 9 -29 32 -37 50
-27 63 -27 63 114 66 l127 3 -3 39 c-8 98 -58 146 -152 146 -38 0 -65 -6 -88
-20z m156 -56 c12 -14 22 -36 22 -50 0 -24 -1 -24 -96 -24 l-96 0 7 28 c19 79
111 105 163 46z"/>
<path d="M24050 9435 l0 -245 30 0 30 0 0 86 0 85 28 -19 c73 -53 172 -29 211
50 44 92 18 239 -50 273 -44 23 -110 19 -153 -10 l-36 -24 0 24 c0 21 -5 25
-30 25 l-30 0 0 -245z m233 163 c29 -39 34 -131 10 -178 -25 -48 -61 -64 -112
-50 -57 15 -71 40 -71 128 0 70 2 76 32 103 26 26 38 30 76 27 35 -2 49 -9 65
-30z"/>
<path d="M24470 9501 l0 -181 30 0 30 0 0 128 c0 146 4 155 76 170 33 6 40 12
42 35 3 23 0 27 -21 27 -13 0 -40 -11 -60 -24 l-36 -25 -3 22 c-2 16 -11 23
-30 25 l-28 3 0 -180z"/>
<path d="M24762 9660 c-99 -61 -94 -266 8 -325 44 -25 137 -26 174 -1 29 18
53 52 58 80 2 14 -4 20 -25 23 -23 3 -29 -1 -38 -25 -17 -49 -91 -68 -138 -36
-13 9 -29 32 -37 50 -27 63 -27 63 114 66 l127 3 -3 45 c-4 54 -34 105 -72
125 -42 22 -128 19 -168 -5z m156 -56 c12 -14 22 -36 22 -50 0 -24 -1 -24 -95
-24 -62 0 -95 4 -95 11 0 6 7 26 16 45 28 58 108 67 152 18z"/>
<path d="M25138 9664 c-33 -17 -48 -43 -48 -81 0 -56 25 -75 142 -108 65 -17
84 -39 68 -79 -11 -29 -45 -41 -96 -33 -43 7 -64 23 -64 48 0 14 -7 19 -30 19
-33 0 -37 -13 -19 -53 32 -71 185 -85 248 -23 19 19 26 36 26 65 0 56 -30 84
-119 109 -40 12 -79 28 -85 36 -19 22 -9 49 22 64 40 19 85 6 106 -29 11 -21
24 -29 44 -29 15 0 27 5 27 10 0 25 -32 71 -60 85 -37 19 -127 19 -162 -1z"/>
<path d="M25522 9660 c-69 -42 -94 -172 -49 -260 56 -113 224 -119 279 -10 20
39 16 50 -17 50 -19 0 -28 -9 -39 -34 -12 -28 -22 -36 -52 -42 -67 -12 -116
23 -130 93 l-6 32 128 3 129 3 -3 45 c-8 93 -58 140 -152 140 -38 0 -65 -6
-88 -20z m155 -52 c13 -13 23 -33 23 -50 l0 -28 -95 0 c-62 0 -95 4 -95 11 0
27 34 79 58 88 37 14 81 5 109 -21z"/>
<path d="M25860 9500 l0 -180 30 0 29 0 3 132 3 132 34 23 c34 23 85 30 108
15 24 -15 33 -66 33 -183 l0 -119 30 0 30 0 0 130 c0 142 -10 185 -51 214 -36
25 -107 21 -152 -9 l-37 -26 0 26 c0 21 -5 25 -30 25 l-30 0 0 -180z"/>
<path d="M26580 9673 c-60 -22 -97 -113 -46 -113 17 0 29 9 38 27 17 36 60 56
98 48 42 -9 60 -31 60 -69 l0 -33 -74 -6 c-74 -5 -130 -26 -153 -56 -7 -9 -13
-32 -13 -52 0 -74 75 -122 157 -100 22 6 46 18 53 26 17 20 27 19 35 -5 4 -13
15 -20 31 -20 l24 0 0 140 c0 152 -8 183 -51 206 -27 14 -128 18 -159 7z m150
-222 c0 -33 -5 -43 -30 -61 -63 -45 -150 -31 -150 23 0 50 43 75 133 76 l47 1
0 -39z"/>
<path d="M27150 9500 l0 -180 30 0 30 0 0 180 0 180 -30 0 -30 0 0 -180z"/>
<path d="M27390 9662 c-73 -40 -103 -166 -61 -258 33 -72 106 -104 191 -84 82
20 122 79 122 182 0 66 -23 121 -65 152 -39 29 -140 34 -187 8z m141 -42 c35
-19 51 -67 47 -137 -5 -84 -35 -118 -104 -118 -37 0 -50 5 -69 28 -45 52 -45
168 0 213 26 26 90 33 126 14z"/>
<path d="M27740 9500 l0 -180 30 0 29 0 3 132 3 132 34 23 c34 23 85 30 108
15 24 -15 33 -66 33 -183 l0 -119 30 0 30 0 0 130 c0 144 -11 187 -54 215 -35
23 -117 16 -157 -14 l-29 -22 0 26 c0 21 -5 25 -30 25 l-30 0 0 -180z"/>
<path d="M29090 9501 l0 -181 30 0 30 0 0 129 0 130 28 19 c15 11 41 22 57 24
25 2 31 8 33 32 4 28 3 29 -34 23 -20 -3 -47 -16 -60 -28 l-22 -21 -4 24 c-2
17 -10 24 -30 26 l-28 3 0 -180z"/>
<path d="M29380 9662 c-73 -39 -103 -166 -60 -259 43 -95 174 -119 259 -47 37
31 53 78 52 151 0 67 -25 119 -71 151 -42 28 -129 30 -180 4z m168 -72 c20
-30 23 -44 20 -103 -3 -57 -8 -71 -31 -95 -39 -39 -109 -39 -142 0 -45 52 -44
170 1 215 20 20 32 24 76 21 47 -3 55 -6 76 -38z"/>
<path d="M29740 9500 l0 -180 30 0 29 0 3 132 3 132 34 23 c44 30 95 30 115 1
13 -18 16 -51 16 -155 l0 -133 30 0 29 0 3 132 3 132 34 23 c44 30 95 30 115
1 13 -18 16 -51 16 -155 l0 -133 31 0 30 0 -3 156 -3 156 -28 24 c-41 35 -111
33 -163 -4 l-39 -29 -27 29 c-36 38 -108 40 -162 3 l-36 -24 0 24 c0 21 -5 25
-30 25 l-30 0 0 -180z"/>
<path d="M21480 9500 l0 -29 88 2 c87 2 87 2 90 30 l3 27 -90 0 -91 0 0 -30z"/>
<path d="M4380 5735 l0 -245 35 0 35 0 0 115 0 115 135 0 135 0 0 -116 0 -115
33 3 32 3 3 243 2 242 -35 0 -35 0 0 -100 0 -100 -135 0 -135 0 0 100 0 100
-35 0 -35 0 0 -245z"/>
<path d="M4907 5973 c-14 -13 -7 -43 12 -53 34 -18 68 10 55 45 -6 15 -55 21
-67 8z"/>
<path d="M5450 5735 l0 -245 30 0 29 0 3 132 3 132 34 23 c34 23 85 30 108 15
24 -15 33 -66 33 -183 l0 -119 30 0 30 0 0 130 c0 142 -10 185 -51 214 -36 25
-107 21 -152 -9 l-37 -26 0 91 0 90 -30 0 -30 0 0 -245z"/>
<path d="M6116 5972 c-9 -14 -5 -365 4 -406 11 -51 28 -66 79 -73 39 -5 41 -4
41 21 0 18 -5 26 -18 26 -39 0 -42 17 -42 232 l0 208 -29 0 c-17 0 -32 -4 -35
-8z"/>
<path d="M7437 5973 c-10 -9 -8 -350 2 -401 11 -55 28 -72 80 -79 39 -5 41 -4
41 21 0 18 -5 26 -18 26 -39 0 -42 17 -42 232 l0 208 -28 0 c-16 0 -32 -3 -35
-7z"/>
<path d="M11506 5965 c-13 -35 21 -63 55 -45 20 11 23 19 13 44 -8 20 -60 21
-68 1z"/>
<path d="M13288 5973 c-20 -5 -48 -62 -48 -97 0 -22 -4 -26 -30 -26 -25 0 -30
-4 -30 -25 0 -21 5 -25 30 -25 l30 0 0 -155 0 -155 30 0 30 0 0 155 0 155 46
0 c41 0 45 2 42 23 -2 18 -10 23 -45 25 -35 3 -43 7 -43 23 0 34 19 59 45 59
23 0 38 13 41 38 2 12 -59 15 -98 5z"/>
<path d="M16037 5973 c-14 -13 -7 -43 12 -53 34 -18 68 10 55 45 -6 15 -55 21
-67 8z"/>
<path d="M12786 5935 c-21 -19 -51 -37 -67 -40 -24 -5 -29 -12 -29 -36 0 -36
12 -36 76 -4 27 14 50 25 52 25 1 0 2 -88 2 -195 l0 -195 30 0 30 0 0 240 0
240 -27 0 c-17 -1 -43 -14 -67 -35z"/>
<path d="M19235 5940 c-16 -17 -46 -36 -67 -42 -32 -9 -38 -15 -38 -40 0 -15
5 -28 10 -28 18 0 84 30 102 47 17 15 18 7 18 -185 l0 -202 30 0 30 0 0 240 0
240 -28 0 c-18 0 -38 -11 -57 -30z"/>
<path d="M19954 5960 c-33 -13 -74 -69 -74 -101 0 -26 4 -29 30 -29 24 0 30 4
30 20 0 12 11 32 25 45 42 43 123 29 144 -23 27 -65 -5 -117 -156 -253 -67
-59 -93 -89 -93 -106 l0 -23 165 0 165 0 0 25 0 25 -115 0 c-63 0 -115 3 -115
7 0 4 41 45 90 91 50 46 100 102 110 123 56 108 -7 210 -129 208 -31 0 -65 -4
-77 -9z"/>
<path d="M10650 5890 c0 -38 -2 -40 -30 -40 -25 0 -30 -4 -30 -25 0 -21 5 -25
29 -25 l29 0 4 -131 c3 -129 3 -131 31 -155 21 -18 40 -24 73 -24 40 0 44 2
44 25 0 22 -4 25 -35 25 -47 0 -55 22 -55 156 l0 104 45 0 c41 0 45 2 45 25 0
23 -4 25 -45 25 l-45 0 0 40 c0 38 -2 40 -30 40 -28 0 -30 -2 -30 -40z"/>
<path d="M11280 5890 c0 -38 -2 -40 -30 -40 -25 0 -30 -4 -30 -25 0 -21 5 -25
29 -25 l29 0 4 -131 c3 -129 3 -131 31 -155 21 -18 40 -24 73 -24 40 0 44 2
44 25 0 22 -4 25 -35 25 -47 0 -55 22 -55 156 l0 104 45 0 c41 0 45 2 45 25 0
23 -4 25 -45 25 l-45 0 0 40 c0 38 -2 40 -30 40 -28 0 -30 -2 -30 -40z"/>
<path d="M18750 5890 c0 -38 -2 -40 -30 -40 -25 0 -30 -4 -30 -25 0 -21 5 -25
29 -25 l29 0 3 -130 c5 -154 13 -169 98 -178 50 -4 51 -4 51 22 0 23 -4 26
-35 26 -47 0 -55 22 -55 156 l0 104 45 0 c41 0 45 2 45 25 0 23 -4 25 -45 25
l-45 0 0 40 c0 38 -2 40 -30 40 -28 0 -30 -2 -30 -40z"/>
<path d="M5303 5866 c-24 -20 -36 -23 -83 -19 -67 5 -114 -20 -136 -72 -19
-46 -18 -63 6 -108 l20 -37 -20 -20 c-25 -25 -25 -45 -2 -68 18 -18 18 -19 -5
-40 -29 -26 -31 -84 -4 -111 56 -56 218 -52 276 6 25 26 33 71 19 108 -11 28
-65 47 -150 53 -95 6 -114 13 -95 36 10 11 31 16 73 16 72 0 110 18 132 64 21
44 20 63 -4 111 -22 42 -16 55 28 55 17 0 22 6 22 25 0 33 -38 34 -77 1z m-38
-81 c31 -30 32 -73 4 -109 -45 -57 -139 -19 -139 56 0 39 40 78 80 78 19 0 40
-9 55 -25z m18 -286 c32 -8 37 -14 37 -39 0 -42 -32 -60 -107 -60 -50 0 -67 4
-83 20 -11 11 -20 26 -20 33 0 17 21 43 40 50 26 9 93 7 133 -4z"/>
<path d="M4910 5670 l0 -180 30 0 30 0 0 180 0 180 -30 0 -30 0 0 -180z"/>
<path d="M6372 5830 c-95 -58 -95 -262 -1 -319 44 -27 98 -35 147 -21 73 19
129 120 66 120 -19 0 -28 -7 -35 -29 -17 -48 -91 -67 -137 -35 -26 18 -52 65
-52 94 0 19 6 20 131 20 l130 0 -7 48 c-9 63 -29 99 -67 122 -44 27 -131 27
-175 0z m156 -57 c12 -13 22 -35 22 -49 0 -24 -1 -24 -96 -24 l-96 0 7 28 c19
78 110 103 163 45z"/>
<path d="M6651 5842 c2 -5 33 -86 69 -180 l65 -172 35 0 35 0 44 118 c24 64
55 145 68 180 l23 63 -32 -3 c-31 -3 -32 -5 -84 -148 -60 -166 -48 -169 -117
25 -42 119 -43 120 -76 123 -18 2 -32 -1 -30 -6z"/>
<path d="M7102 5830 c-99 -61 -94 -266 8 -325 48 -27 139 -27 177 1 30 22 66
82 57 96 -3 4 -16 8 -30 8 -19 0 -28 -7 -35 -29 -17 -48 -91 -67 -137 -35 -26
18 -52 65 -52 94 0 19 6 20 131 20 l131 0 -7 47 c-9 64 -29 100 -68 123 -44
27 -131 27 -175 0z m156 -56 c12 -14 22 -36 22 -50 0 -24 -1 -24 -95 -24 -62
0 -95 4 -95 11 0 6 7 26 16 45 28 58 108 67 152 18z"/>
<path d="M7780 5671 l0 -181 30 0 30 0 0 129 0 130 28 19 c15 11 41 22 57 24
25 2 31 8 33 32 4 28 3 29 -34 23 -20 -3 -47 -16 -60 -28 l-22 -21 -4 24 c-2
17 -10 24 -30 26 l-28 3 0 -180z"/>
<path d="M8072 5830 c-99 -61 -94 -266 8 -325 48 -27 139 -27 177 1 30 22 66
82 57 96 -3 4 -16 8 -30 8 -19 0 -28 -7 -35 -29 -17 -48 -91 -67 -138 -35 -13
9 -29 32 -37 50 -27 64 -28 64 115 64 l129 0 -5 47 c-10 98 -59 143 -153 143
-38 0 -65 -6 -88 -20z m155 -52 c13 -13 23 -33 23 -50 l0 -28 -96 0 -96 0 7
28 c19 77 105 104 162 50z"/>
<path d="M8410 5605 l0 -245 30 0 30 0 0 85 0 86 30 -23 c37 -27 110 -29 156
-5 97 50 99 283 3 332 -56 29 -152 12 -178 -32 -9 -15 -10 -12 -11 15 0 29 -3
32 -30 32 l-30 0 0 -245z m233 163 c29 -39 34 -131 10 -178 -25 -48 -64 -66
-114 -51 -55 17 -69 42 -69 129 0 70 2 76 32 103 26 26 38 30 76 27 35 -2 49
-9 65 -30z"/>
<path d="M8830 5671 l0 -181 30 0 30 0 0 129 0 130 29 20 c16 12 36 21 44 21
31 0 47 13 47 37 0 24 -3 25 -36 20 -20 -4 -47 -16 -60 -28 l-22 -21 -4 24
c-2 17 -10 24 -30 26 l-28 3 0 -180z"/>
<path d="M9122 5830 c-99 -61 -94 -266 8 -325 48 -27 139 -27 177 1 30 22 66
82 57 96 -3 4 -16 8 -29 8 -19 0 -28 -9 -39 -34 -12 -28 -22 -36 -52 -42 -67
-12 -116 23 -130 93 l-6 32 128 3 129 3 -3 45 c-8 93 -58 140 -152 140 -38 0
-65 -6 -88 -20z m156 -56 c12 -14 22 -36 22 -50 0 -24 -1 -24 -95 -24 -52 0
-95 4 -95 9 0 30 25 71 53 85 41 21 86 13 115 -20z"/>
<path d="M9508 5834 c-33 -17 -48 -43 -48 -81 0 -50 25 -71 116 -99 64 -20 88
-33 96 -49 22 -49 -26 -83 -98 -72 -43 7 -64 23 -64 48 0 14 -7 19 -30 19 -73
0 -1 -103 81 -115 96 -14 174 32 174 105 0 55 -31 83 -120 109 -40 12 -79 28
-85 36 -18 21 -8 48 23 63 40 19 85 6 106 -29 11 -21 24 -29 44 -29 15 0 27 5
27 10 0 25 -32 71 -60 85 -37 19 -127 19 -162 -1z"/>
<path d="M9882 5830 c-99 -61 -94 -266 8 -325 48 -27 139 -27 177 1 30 22 66
82 57 96 -3 4 -16 8 -30 8 -19 0 -28 -7 -35 -29 -17 -48 -91 -67 -138 -35 -13
9 -29 32 -37 50 -27 63 -27 63 114 66 l127 3 -3 45 c-8 93 -58 140 -152 140
-38 0 -65 -6 -88 -20z m156 -56 c12 -14 22 -36 22 -50 0 -24 -1 -24 -96 -24
l-96 0 7 28 c19 78 110 104 163 46z"/>
<path d="M10230 5670 l0 -180 30 0 29 0 3 132 3 132 34 23 c34 23 85 30 108
15 24 -15 33 -66 33 -183 l0 -119 30 0 30 0 0 123 c0 141 -10 188 -47 217 -37
29 -109 27 -157 -5 l-36 -24 0 24 c0 21 -5 25 -30 25 l-30 0 0 -180z"/>
<path d="M10944 5840 c-30 -12 -64 -58 -64 -86 0 -36 45 -33 62 3 37 77 158
60 158 -22 l0 -32 -72 -5 c-83 -6 -141 -30 -157 -65 -52 -114 89 -197 197
-116 17 13 33 22 33 19 1 -4 3 -10 4 -16 1 -5 3 -14 4 -20 0 -5 12 -10 26 -10
l25 0 0 140 c0 160 -9 191 -61 209 -37 13 -125 14 -155 1z m156 -219 c0 -33
-5 -43 -30 -61 -63 -45 -150 -31 -150 23 0 50 43 75 133 76 l47 1 0 -39z"/>
<path d="M11510 5670 l0 -180 30 0 30 0 0 180 0 180 -30 0 -30 0 0 -180z"/>
<path d="M11750 5832 c-73 -39 -103 -166 -60 -259 43 -95 174 -119 259 -47 76
64 70 238 -12 298 -39 29 -140 34 -187 8z m150 -47 c27 -17 42 -69 38 -132 -3
-53 -9 -68 -31 -91 -34 -34 -103 -38 -136 -8 -43 39 -52 158 -16 213 25 37 99
47 145 18z"/>
<path d="M12110 5671 l0 -181 30 0 29 0 3 132 3 132 34 23 c34 23 85 30 108
15 24 -15 33 -66 33 -183 l0 -119 30 0 30 0 0 130 c0 142 -10 185 -51 214 -36
25 -107 21 -151 -9 l-37 -25 -3 23 c-2 16 -11 23 -30 25 l-28 3 0 -180z"/>
<path d="M13450 5671 l0 -181 30 0 30 0 0 129 0 130 28 19 c15 11 41 22 57 24
25 2 31 8 33 32 4 28 3 29 -34 23 -20 -3 -47 -16 -60 -28 l-22 -21 -4 24 c-2
17 -10 24 -30 26 l-28 3 0 -180z"/>
<path d="M13750 5832 c-73 -39 -103 -166 -60 -259 43 -95 174 -119 259 -47 76
64 70 238 -12 298 -39 29 -140 34 -187 8z m150 -47 c27 -17 42 -69 38 -132 -3
-53 -9 -68 -31 -91 -34 -34 -103 -38 -136 -8 -43 39 -52 158 -16 213 25 37 99
47 145 18z"/>
<path d="M14100 5670 l0 -180 30 0 29 0 3 132 3 132 34 23 c44 30 95 30 115 1
13 -18 16 -51 16 -155 l0 -133 30 0 29 0 3 132 3 132 34 23 c44 30 95 30 115
1 13 -18 16 -51 16 -155 l0 -133 30 0 30 0 0 151 0 151 -29 29 c-41 41 -111
41 -167 1 l-39 -29 -27 29 c-36 38 -108 40 -162 3 l-36 -24 0 24 c0 21 -5 25
-30 25 l-30 0 0 -180z"/>
<path d="M14952 5830 c-99 -61 -94 -266 8 -325 48 -27 139 -27 177 1 30 22 66
82 57 96 -3 4 -16 8 -30 8 -19 0 -28 -7 -35 -29 -17 -48 -91 -67 -138 -35 -13
9 -29 32 -37 50 -27 64 -28 64 115 64 l129 0 -5 47 c-10 98 -59 143 -153 143
-38 0 -65 -6 -88 -20z m155 -52 c13 -13 23 -33 23 -50 l0 -28 -96 0 -96 0 7
28 c19 77 105 104 162 50z"/>
<path d="M15290 5671 l0 -181 30 0 29 0 3 132 3 132 34 23 c34 23 85 30 108
15 24 -15 33 -66 33 -183 l0 -119 30 0 30 0 0 130 c0 142 -10 185 -51 214 -36
25 -107 21 -151 -9 l-37 -25 -3 23 c-2 16 -11 23 -30 25 l-28 3 0 -180z"/>
<path d="M15641 5842 c2 -5 33 -86 69 -180 l65 -172 35 0 35 0 63 168 c34 92
62 173 62 180 0 8 -10 12 -27 10 -24 -3 -30 -14 -77 -145 -28 -79 -53 -143
-56 -143 -3 0 -27 64 -55 143 l-50 142 -34 3 c-18 2 -32 -1 -30 -6z"/>
<path d="M16040 5670 l0 -180 30 0 30 0 0 180 0 180 -30 0 -30 0 0 -180z"/>
<path d="M16220 5670 l0 -180 30 0 30 0 0 128 c0 146 6 160 78 171 32 5 37 10
40 35 4 28 3 29 -34 23 -20 -3 -47 -16 -60 -28 l-24 -22 0 26 c0 23 -4 27 -30
27 l-30 0 0 -180z"/>
<path d="M16520 5832 c-73 -41 -103 -166 -61 -259 43 -94 175 -119 260 -47 77
64 70 237 -12 298 -39 29 -140 34 -187 8z m150 -47 c27 -17 42 -69 38 -132 -3
-53 -9 -68 -31 -91 -34 -34 -103 -38 -136 -8 -43 39 -52 158 -16 213 25 37 99
47 145 18z"/>
<path d="M16870 5670 l0 -180 30 0 29 0 3 132 3 132 34 23 c34 23 85 30 108
15 24 -15 33 -66 33 -183 l0 -119 30 0 30 0 0 123 c0 141 -10 188 -47 217 -37
29 -109 27 -157 -5 l-36 -24 0 24 c0 21 -5 25 -30 25 l-30 0 0 -180z"/>
<path d="M17290 5671 l0 -181 30 0 29 0 3 132 3 132 34 23 c44 30 95 30 115 1
13 -18 16 -51 16 -155 l0 -133 30 0 29 0 3 132 3 132 34 23 c44 30 95 30 115
1 13 -18 16 -51 16 -155 l0 -133 29 0 30 0 3 108 c4 155 -2 200 -36 228 -43
38 -146 27 -184 -18 -11 -14 -16 -12 -42 13 -38 39 -110 41 -163 5 l-36 -25
-3 22 c-2 16 -11 23 -30 25 l-28 3 0 -180z"/>
<path d="M17982 5830 c-99 -61 -94 -266 8 -325 48 -27 139 -27 177 1 30 22 66
82 57 96 -3 4 -16 8 -30 8 -19 0 -28 -7 -35 -29 -17 -48 -91 -67 -137 -35 -26
18 -52 65 -52 94 0 19 6 20 131 20 l131 0 -7 47 c-9 64 -29 100 -68 123 -44
27 -131 27 -175 0z m156 -56 c12 -14 22 -36 22 -50 0 -24 -1 -24 -95 -24 -62
0 -95 4 -95 11 0 6 7 26 16 45 28 58 108 67 152 18z"/>
<path d="M18320 5670 l0 -180 30 0 29 0 3 132 3 132 34 23 c34 23 85 30 108
15 24 -15 33 -66 33 -183 l0 -119 30 0 30 0 0 130 c0 144 -11 187 -54 215 -35
23 -117 16 -157 -14 l-29 -22 0 26 c0 21 -5 25 -30 25 l-30 0 0 -180z"/>
<path d="M5850 5670 l0 -31 88 3 c87 3 87 3 90 31 l3 27 -90 0 -91 0 0 -30z"/>
<path d="M19536 5564 c-22 -22 -20 -50 5 -68 21 -14 21 -16 5 -40 -9 -15 -21
-26 -26 -26 -13 0 -13 -27 0 -35 14 -9 59 24 76 56 17 34 18 101 2 117 -17 17
-44 15 -62 -4z"/>
<path d="M27470 17080 l0 -31 123 3 122 3 3 28 3 27 -125 0 -126 0 0 -30z"/>
<path d="M27902 17083 l3 -28 123 -3 122 -3 0 31 0 30 -126 0 -125 0 3 -27z"/>
<path d="M28340 17080 l0 -30 125 0 125 0 0 30 0 30 -125 0 -125 0 0 -30z"/>
<path d="M28780 17080 l0 -30 125 0 125 0 0 30 0 30 -125 0 -125 0 0 -30z"/>
<path d="M29220 17080 l0 -31 123 3 122 3 3 28 3 27 -125 0 -126 0 0 -30z"/>
<path d="M29650 17080 l0 -30 125 0 125 0 0 30 0 30 -125 0 -125 0 0 -30z"/>
<path d="M30090 17080 l0 -30 125 0 125 0 0 30 0 30 -125 0 -125 0 0 -30z"/>
<path d="M30530 17080 l0 -30 125 0 125 0 0 30 0 30 -125 0 -125 0 0 -30z"/>
<path d="M30968 17080 l4 -31 122 3 121 3 3 28 3 27 -129 0 -129 0 5 -30z"/>
<path d="M33345 15104 c-1597 -47 -2985 -270 -3780 -609 -388 -165 -635 -374
-670 -568 l-8 -39 -56 4 -56 3 0 -30 c0 -29 1 -30 53 -33 30 -2 55 -8 57 -15
41 -141 71 -192 169 -287 304 -295 1031 -550 2051 -719 1966 -326 4612 -259
6272 158 485 122 880 275 1123 436 112 73 239 205 281 290 31 64 34 77 34 160
0 85 -2 96 -38 168 -162 327 -836 623 -1877 826 -611 118 -1263 193 -2080 236
-264 14 -1218 27 -1475 19z m-2254 -1005 c59 -20 119 -89 119 -139 0 -16 -6
-20 -30 -20 -24 0 -33 7 -50 40 -25 49 -64 70 -128 70 -87 0 -147 -60 -159
-158 -7 -59 11 -142 39 -177 24 -31 79 -55 125 -55 65 0 133 54 133 105 0 11
11 15 36 15 l37 0 -6 -37 c-27 -162 -295 -195 -395 -49 -31 46 -42 90 -42 171
0 114 51 200 137 230 47 17 138 19 184 4z m1869 -200 c0 -190 2 -213 18 -225
9 -7 24 -14 33 -14 12 0 16 -8 15 -25 -1 -21 -6 -25 -33 -25 -55 0 -81 16 -92
57 -12 41 -15 425 -4 436 3 4 19 7 35 7 l28 0 0 -211z m527 190 c44 -21 73
-60 73 -99 0 -16 -6 -20 -35 -20 -25 0 -35 4 -35 15 0 9 -11 27 -25 40 -19 20
-34 25 -75 25 -41 0 -56 -5 -75 -25 -54 -53 -24 -90 105 -128 120 -36 152 -64
157 -138 8 -105 -50 -154 -182 -154 -116 0 -165 32 -185 120 l-8 35 39 0 c32
0 39 -4 39 -19 0 -11 10 -32 23 -47 50 -57 186 -36 203 32 12 45 -21 75 -122
109 -114 39 -130 49 -150 87 -20 39 -14 110 12 140 46 51 163 65 241 27z
m2511 -11 c3 -24 0 -28 -22 -28 -44 0 -56 -10 -56 -46 0 -33 1 -34 41 -34 38
0 40 -1 37 -27 -3 -25 -8 -28 -43 -31 l-40 -3 3 -149 3 -150 -35 0 -36 0 0
150 0 150 -30 0 c-27 0 -30 3 -30 30 0 27 3 30 30 30 28 0 30 2 30 39 0 67 42
101 120 97 19 -1 26 -7 28 -28z m459 13 c43 -20 73 -62 73 -101 0 -16 -6 -20
-33 -20 -27 0 -35 5 -44 30 -28 73 -193 62 -193 -13 0 -42 28 -60 148 -96 100
-30 132 -60 138 -131 4 -44 1 -61 -15 -87 -32 -51 -74 -68 -166 -67 -116 0
-165 32 -185 119 l-8 35 38 0 c34 0 38 -3 43 -30 10 -46 59 -72 126 -67 44 3
59 9 78 31 49 57 17 105 -91 137 -143 43 -183 81 -173 166 8 76 60 112 162
112 38 0 75 -6 102 -18z m385 -241 l-3 -240 -34 0 -35 0 0 190 0 190 -37 -20
c-21 -11 -48 -20 -60 -20 -19 0 -23 6 -23 29 0 24 6 31 33 40 18 6 49 25 68
41 21 18 46 29 64 30 l30 0 -3 -240z m-5292 102 c38 -29 49 -75 49 -214 l1
-128 -35 0 c-27 0 -35 4 -35 19 0 17 -3 17 -47 -5 -53 -28 -102 -30 -143 -9
-37 19 -50 43 -50 95 0 64 62 110 151 110 61 0 89 12 89 36 0 13 -9 33 -20 44
-39 39 -140 17 -140 -31 0 -15 -7 -19 -35 -19 -19 0 -35 5 -35 10 0 26 30 80
52 91 61 33 154 33 198 1z m785 5 c33 -17 46 -35 52 -72 5 -34 4 -35 -25 -35
-23 0 -32 6 -38 22 -10 32 -33 47 -72 48 -43 0 -72 -16 -72 -40 0 -23 35 -43
108 -60 31 -7 64 -24 83 -41 29 -27 31 -33 26 -76 -6 -58 -38 -89 -101 -98
-95 -15 -167 17 -185 82 -11 37 -7 43 31 43 21 0 28 -5 28 -18 0 -47 89 -78
135 -48 32 21 33 59 3 78 -13 8 -43 20 -68 27 -86 25 -109 40 -120 82 -18 66
17 109 100 122 32 5 89 -3 115 -16z m405 -6 c38 -27 49 -73 49 -213 l1 -128
-35 0 c-29 0 -35 4 -35 20 0 20 -1 20 -43 -5 -24 -14 -58 -25 -76 -25 -43 0
-97 24 -110 48 -18 33 -13 97 8 124 21 26 79 48 128 48 63 0 93 11 93 34 0 76
-137 95 -156 22 -5 -22 -12 -26 -41 -26 -33 0 -35 1 -29 28 4 15 15 38 25 52
35 49 165 61 221 21z m1190 0 c42 -29 62 -84 62 -163 -1 -79 -21 -129 -66
-162 -36 -28 -135 -29 -163 -3 -11 9 -23 17 -26 17 -4 0 -7 -37 -7 -82 l0 -83
-30 1 -31 1 0 244 0 244 31 3 c27 3 30 0 30 -24 l0 -27 24 22 c45 42 124 48
176 12z m400 0 c38 -27 49 -73 49 -213 l1 -128 -35 0 c-27 0 -35 4 -35 19 0
17 -3 17 -47 -5 -53 -28 -102 -30 -143 -9 -38 20 -50 43 -50 99 0 36 5 48 26
65 31 24 80 39 144 42 25 2 51 5 58 7 19 6 14 50 -8 72 -40 40 -140 15 -140
-35 0 -10 -11 -15 -35 -15 -19 0 -35 5 -35 10 0 26 30 80 52 91 60 32 153 32
198 0z m355 18 c50 -13 81 -42 95 -87 8 -31 8 -32 -26 -32 -19 0 -34 5 -34 10
0 6 -11 22 -25 35 -32 33 -84 33 -120 2 -49 -42 -52 -162 -5 -213 45 -47 130
-26 153 39 8 21 55 23 63 2 3 -8 -4 -32 -17 -54 -45 -81 -174 -96 -247 -28
-39 36 -53 74 -53 142 0 104 39 166 116 184 54 12 51 12 100 0z m425 -18 c33
-23 70 -96 70 -138 l0 -33 -124 0 c-69 0 -127 -4 -130 -8 -10 -17 19 -85 42
-100 51 -33 142 -7 142 40 0 14 8 18 35 18 39 0 41 -6 21 -53 -18 -44 -57 -67
-120 -74 -117 -12 -186 57 -186 185 0 97 37 161 106 182 39 12 114 3 144 -19z
m515 19 c146 -33 169 -288 31 -351 -74 -34 -146 -22 -203 33 -64 62 -61 218 6
282 44 42 94 53 166 36z m-3855 -135 c0 -125 1 -136 22 -155 12 -11 32 -20 45
-20 36 0 90 26 102 48 6 12 11 74 11 141 l0 121 30 0 30 0 0 -180 0 -180 -34
0 c-29 0 -33 3 -29 20 5 20 3 20 -42 -5 -57 -30 -108 -32 -152 -5 -43 26 -53
67 -53 223 l0 127 35 0 35 0 0 -135z"/>
<path d="M31413 13769 c-38 -11 -67 -50 -58 -77 9 -30 57 -47 97 -33 49 17 78
49 78 88 0 32 -1 33 -42 32 -24 0 -58 -5 -75 -10z"/>
<path d="M32635 13775 c-5 -2 -22 -6 -37 -9 -59 -13 -73 -87 -20 -107 59 -23
142 28 142 87 0 33 -1 34 -37 33 -21 0 -42 -2 -48 -4z"/>
<path d="M33765 13889 c-34 -30 -35 -33 -35 -101 0 -64 3 -72 29 -99 59 -59
142 -30 161 57 30 134 -65 222 -155 143z"/>
<path d="M34194 13769 c-69 -20 -84 -84 -24 -109 58 -24 140 26 140 87 0 32
-1 33 -42 32 -24 0 -57 -5 -74 -10z"/>
<path d="M34963 13905 c-11 -8 -26 -28 -31 -45 l-11 -30 95 0 c88 0 94 1 94
20 0 12 -11 32 -25 45 -28 29 -88 34 -122 10z"/>
<path d="M35509 13891 c-26 -27 -29 -36 -29 -96 0 -99 25 -134 95 -135 52 0
82 21 95 68 14 51 13 85 -6 130 -26 68 -104 84 -155 33z"/>
<path d="M19807 14846 c-50 -18 -64 -31 -77 -72 -29 -88 14 -142 150 -184 50
-16 100 -36 111 -46 19 -17 25 -57 13 -89 -16 -41 -126 -60 -184 -30 -17 9
-33 28 -40 50 -10 30 -16 35 -42 35 -30 0 -30 -1 -25 -36 12 -75 78 -117 182
-118 133 0 204 75 175 183 -13 49 -57 78 -165 110 -94 27 -115 43 -115 86 0
26 6 39 25 51 55 36 156 15 174 -37 8 -24 16 -29 42 -29 30 0 31 1 25 33 -16
83 -143 130 -249 93z"/>
<path d="M20580 14605 l0 -245 30 0 c24 0 30 4 30 21 l0 20 25 -19 c40 -32 96
-37 148 -14 64 29 91 87 85 187 -8 117 -49 165 -142 165 -29 0 -55 -8 -80 -25
l-36 -24 0 89 0 90 -30 0 -30 0 0 -245z m233 33 c29 -39 34 -131 10 -178 -25
-48 -64 -66 -114 -51 -55 17 -69 42 -69 129 0 68 2 76 30 103 26 26 36 30 76
27 38 -2 51 -9 67 -30z"/>
<path d="M21770 14760 c0 -38 -2 -40 -30 -40 -25 0 -30 -4 -30 -25 0 -21 5
-25 29 -25 l29 0 4 -131 c3 -129 3 -131 31 -155 21 -18 40 -24 73 -24 40 0 44
2 44 25 0 22 -4 25 -35 25 -47 0 -55 22 -55 156 l0 104 45 0 c41 0 45 2 45 25
0 23 -4 25 -45 25 l-45 0 0 40 c0 38 -2 40 -30 40 -28 0 -30 -2 -30 -40z"/>
<path d="M20160 14572 c0 -135 2 -152 20 -175 40 -50 129 -53 192 -7 l28 21 0
-26 c0 -21 5 -25 30 -25 l30 0 0 180 0 180 -30 0 -29 0 -3 -132 -3 -132 -34
-23 c-42 -28 -101 -31 -124 -5 -13 14 -17 45 -19 152 l-3 135 -27 3 -28 3 0
-149z"/>
<path d="M21038 14704 c-33 -17 -48 -43 -48 -81 0 -56 26 -76 143 -108 75 -22
96 -56 57 -95 -38 -38 -138 -19 -150 28 -3 13 -8 23 -12 23 -5 -1 -17 -1 -28
-1 -24 0 -26 -20 -5 -59 34 -67 183 -77 244 -17 19 19 26 36 26 66 0 54 -34
86 -111 106 -77 20 -106 39 -102 67 8 54 107 58 137 6 11 -21 24 -29 44 -29
15 0 27 5 27 10 0 25 -32 71 -60 85 -37 19 -127 19 -162 -1z"/>
<path d="M21422 14700 c-99 -61 -94 -266 8 -325 45 -26 135 -27 173 -2 30 20
54 53 59 82 2 16 -2 20 -22 19 -37 -2 -37 -2 -44 -27 -10 -43 -90 -62 -134
-31 -26 18 -52 65 -52 94 0 19 6 20 131 20 l130 0 -6 48 c-9 63 -34 103 -75
124 -48 24 -126 23 -168 -2z m156 -56 c12 -14 22 -36 22 -50 0 -24 -1 -24 -96
-24 l-96 0 7 28 c19 78 111 104 163 46z"/>
<path d="M27467 13976 c-16 -40 -9 -44 81 -50 48 -4 104 -9 125 -11 37 -5 37
-5 37 30 0 34 -1 35 -37 35 -21 0 -74 3 -119 6 -71 6 -82 5 -87 -10z"/>
<path d="M27900 13932 c0 -34 -6 -32 178 -47 l72 -6 0 30 c0 36 -3 37 -147 46
l-103 7 0 -30z"/>
<path d="M28338 13901 c-4 -28 -2 -31 26 -36 17 -2 74 -6 126 -7 l95 -3 3 27
c3 29 7 28 -174 43 l-72 6 -4 -30z"/>
<path d="M19314 13199 c-64 -18 -103 -84 -89 -148 10 -47 53 -77 154 -110 52
-17 102 -38 112 -47 19 -17 25 -58 13 -89 -16 -41 -126 -60 -184 -30 -17 9
-33 28 -40 50 -10 30 -16 35 -42 35 -30 0 -30 -1 -25 -36 12 -75 78 -117 183
-117 112 0 179 51 179 137 0 81 -37 116 -170 155 -87 25 -115 44 -115 77 0 74
74 99 172 59 9 -4 21 -20 27 -36 8 -24 16 -29 42 -29 30 0 31 1 25 32 -3 17
-14 40 -24 51 -42 48 -140 69 -218 46z"/>
<path d="M20080 12955 l0 -245 30 0 c24 0 30 4 30 21 l0 20 25 -19 c68 -54
175 -29 214 50 44 92 18 239 -50 273 -44 23 -110 19 -153 -10 l-36 -24 0 89 0
90 -30 0 -30 0 0 -245z m232 34 c29 -38 34 -134 11 -179 -25 -48 -64 -66 -114
-51 -55 17 -69 42 -69 129 0 70 2 76 32 103 26 26 38 30 76 27 35 -2 49 -9 64
-29z"/>
<path d="M21270 13110 c0 -38 -2 -40 -30 -40 -25 0 -30 -4 -30 -25 0 -21 5
-25 29 -25 l29 0 4 -131 c3 -129 3 -131 31 -155 21 -18 40 -24 73 -24 40 0 44
2 44 25 0 22 -4 25 -35 25 -47 0 -55 22 -55 156 l0 104 45 0 c41 0 45 2 45 25
0 23 -4 25 -45 25 l-45 0 0 40 c0 38 -2 40 -30 40 -28 0 -30 -2 -30 -40z"/>
<path d="M19660 12922 c0 -135 2 -152 20 -175 41 -52 132 -54 194 -6 l26 20 0
-25 c0 -22 4 -26 30 -26 l30 0 0 180 0 180 -30 0 -29 0 -3 -132 -3 -132 -34
-23 c-42 -28 -101 -31 -124 -5 -13 14 -17 45 -19 152 l-3 135 -27 3 -28 3 0
-149z"/>
<path d="M20538 13054 c-33 -17 -48 -43 -48 -81 0 -56 26 -76 143 -108 75 -22
96 -56 57 -95 -41 -41 -150 -16 -150 34 0 8 -6 16 -12 19 -21 7 -48 -4 -48
-20 0 -26 33 -72 59 -82 109 -43 213 -6 227 81 9 52 -28 91 -108 113 -77 21
-108 39 -108 65 0 29 44 54 82 46 35 -7 68 -32 68 -53 0 -8 12 -13 30 -13 17
0 30 5 30 10 0 25 -32 71 -60 85 -37 19 -127 19 -162 -1z"/>
<path d="M20922 13050 c-99 -61 -94 -266 8 -325 48 -27 139 -27 177 1 30 22
66 82 57 96 -3 4 -16 8 -30 8 -19 0 -28 -7 -35 -29 -17 -48 -91 -67 -138 -35
-13 9 -29 32 -37 50 -27 63 -27 63 114 66 l127 3 -3 44 c-6 92 -58 141 -152
141 -38 0 -65 -6 -88 -20z m156 -53 c13 -12 22 -32 22 -49 l0 -28 -96 0 -96 0
7 28 c19 76 104 103 163 49z"/>
<path d="M34780 10974 c-220 -18 -315 -29 -437 -50 -567 -95 -1028 -300 -1314
-583 -168 -167 -253 -316 -285 -502 -53 -310 113 -628 456 -875 704 -507 1984
-639 2978 -308 736 245 1159 709 1078 1183 -32 186 -117 335 -285 502 -322
319 -868 539 -1531 614 -128 15 -563 27 -660 19z m405 -64 c385 -21 663 -72
975 -176 565 -190 943 -507 1026 -862 24 -102 15 -265 -21 -362 -50 -137 -133
-259 -250 -369 -326 -304 -837 -505 -1490 -583 -69 -8 -226 -13 -425 -13 -199
0 -356 5 -425 13 -817 98 -1434 399 -1678 818 -63 108 -89 196 -94 319 -8 173
30 294 138 450 67 98 222 245 341 324 211 141 556 282 853 349 271 62 451 83
840 100 17 1 111 -3 210 -8z"/>
<path d="M34755 7284 c-664 -50 -1211 -225 -1592 -511 -91 -68 -258 -243 -301
-316 -54 -90 -100 -206 -112 -281 -6 -39 -14 -83 -18 -98 l-7 -27 -105 44
c-58 25 -106 45 -107 45 -2 0 -3 -20 -3 -45 0 -25 -3 -45 -6 -45 -21 0 -224
-46 -299 -67 -296 -85 -595 -248 -845 -461 -279 -237 -471 -539 -536 -844 -20
-97 -20 -290 1 -392 92 -445 476 -881 1010 -1149 244 -122 511 -200 775 -227
63 -7 118 -17 121 -22 4 -5 9 -36 12 -67 4 -32 19 -94 35 -138 142 -402 636
-741 1321 -904 482 -116 1066 -134 1568 -49 793 135 1396 504 1554 950 70 197
57 395 -37 583 -52 102 -87 150 -183 250 -332 345 -866 561 -1596 648 -67 8
-224 14 -405 14 -299 0 -393 -7 -640 -47 -469 -74 -899 -241 -1185 -458 -98
-74 -242 -217 -292 -290 -72 -106 -143 -285 -143 -365 0 -58 -7 -60 -127 -48
-402 43 -840 223 -1152 476 -310 250 -508 539 -575 837 -59 261 -3 528 168
804 221 356 641 671 1093 819 113 37 322 87 364 87 5 0 9 -18 9 -40 0 -24 5
-40 12 -40 6 0 53 25 105 55 51 30 93 51 93 47 0 -4 5 -36 10 -72 68 -430 491
-792 1170 -1001 506 -156 1170 -196 1735 -103 897 147 1544 589 1613 1102 5
34 11 64 14 67 10 11 222 -16 337 -41 368 -82 707 -270 982 -544 139 -139 229
-257 303 -399 94 -183 133 -317 143 -496 19 -378 -195 -794 -574 -1113 -250
-211 -612 -383 -900 -428 l-43 -7 0 42 c0 30 -4 42 -13 39 -19 -5 -217 -122
-217 -129 0 -3 48 -25 108 -48 59 -24 113 -45 120 -48 8 -4 12 8 12 39 l0 45
88 18 c140 29 317 90 457 159 520 255 893 690 1002 1168 25 110 22 336 -5 455
-48 205 -150 406 -302 598 -61 76 -224 234 -316 308 -324 255 -763 426 -1127
438 -49 2 -58 5 -61 23 -3 12 -10 53 -16 92 -12 76 -58 192 -112 281 -43 73
-210 248 -301 316 -341 256 -810 422 -1392 493 -113 14 -581 26 -690 18z m660
-80 c518 -56 966 -202 1304 -426 112 -74 273 -225 338 -317 97 -138 143 -273
143 -422 0 -275 -166 -530 -485 -744 -424 -284 -1043 -445 -1715 -445 -672 0
-1291 161 -1715 445 -319 214 -485 469 -485 744 1 212 89 392 288 583 462 443
1409 680 2327 582z m5 -3110 c520 -58 959 -202 1296 -423 104 -68 262 -214
330 -304 59 -78 119 -203 140 -293 22 -94 15 -266 -14 -347 -73 -202 -206
-365 -422 -518 -331 -234 -795 -390 -1345 -451 -72 -8 -234 -13 -405 -13 -374
0 -595 25 -907 101 -587 143 -1046 431 -1212 761 -59 116 -73 169 -77 293 -4
138 10 209 65 324 50 106 110 184 228 296 267 253 723 452 1230 539 132 22
369 49 483 55 136 6 473 -5 610 -20z"/>
<path d="M4241 3620 c-90 -33 -168 -107 -207 -200 -18 -42 -19 -82 -22 -693
-2 -419 1 -668 8 -704 20 -113 88 -205 186 -254 l49 -24 9357 -3 9357 -2 55
20 c76 29 139 88 178 168 l33 67 0 695 0 695 -26 55 c-33 71 -98 136 -168 169
l-56 26 -9345 2 c-9207 2 -9346 2 -9399 -17z m18784 -67 c47 -25 105 -84 131
-133 18 -33 19 -72 19 -730 l0 -695 -22 -41 c-36 -67 -70 -101 -131 -131 l-57
-28 -9335 0 -9335 0 -55 26 c-67 32 -111 75 -142 137 l-23 47 0 685 0 685 27
50 c36 68 91 118 155 141 32 11 1584 13 9383 11 l9345 -2 40 -22z"/>
<path d="M5180 2685 l1 -245 35 0 34 0 0 115 0 115 135 0 135 0 0 -116 0 -115
33 3 32 3 3 243 3 242 -35 0 -36 0 0 -100 0 -100 -135 0 -135 0 0 100 0 100
-35 0 -36 0 1 -245z"/>
<path d="M5707 2923 c-14 -13 -7 -43 12 -53 34 -18 68 10 55 45 -6 15 -55 21
-67 8z"/>
<path d="M6250 2685 l0 -245 30 0 29 0 3 132 3 132 34 23 c34 23 85 30 108 15
24 -15 33 -66 33 -183 l0 -119 30 0 30 0 0 130 c0 144 -11 187 -54 215 -35 23
-113 16 -155 -14 l-31 -22 0 90 0 91 -30 0 -30 0 0 -245z"/>
<path d="M6926 2717 c1 -143 6 -221 13 -236 13 -24 49 -41 87 -41 19 0 24 5
24 25 0 17 -5 25 -18 25 -39 0 -42 17 -42 232 l0 208 -32 0 -33 0 1 -213z"/>
<path d="M8246 2913 c-10 -24 -5 -357 5 -400 10 -48 28 -63 78 -70 39 -5 41
-4 41 21 0 18 -5 26 -18 26 -39 0 -42 17 -42 232 l0 208 -29 0 c-18 0 -31 -6
-35 -17z"/>
<path d="M12316 2914 c-10 -25 -7 -33 13 -44 34 -18 68 10 55 45 -8 20 -60 19
-68 -1z"/>
<path d="M13944 2920 c-23 -9 -44 -56 -44 -96 0 -20 -5 -24 -30 -24 -25 0 -30
-4 -30 -25 0 -21 5 -25 30 -25 l30 0 0 -155 0 -155 30 0 30 0 0 155 0 155 46
0 c41 0 45 2 42 23 -2 18 -10 23 -45 25 -35 3 -43 7 -43 23 0 36 19 58 56 65
25 5 34 11 32 23 -4 18 -69 26 -104 11z"/>
<path d="M15570 2839 l0 -91 -32 27 c-29 24 -38 27 -90 23 -47 -3 -64 -10 -88
-33 -66 -63 -68 -226 -3 -297 40 -44 142 -43 191 2 l22 21 0 -26 c0 -21 5 -25
30 -25 l30 0 0 245 0 245 -30 0 -30 0 0 -91z m-31 -115 c30 -25 31 -29 31
-103 0 -71 -2 -79 -27 -103 -16 -15 -45 -30 -65 -33 -33 -6 -41 -3 -67 22 -51
51 -54 171 -6 219 34 34 93 33 134 -2z"/>
<path d="M17428 2916 c-20 -15 -38 -58 -38 -92 0 -20 -5 -24 -30 -24 -25 0
-30 -4 -30 -25 0 -21 5 -25 30 -25 l30 0 0 -155 0 -155 30 0 30 0 0 155 0 155
45 0 c41 0 45 2 41 23 -2 18 -10 23 -44 25 -37 3 -42 6 -42 28 0 29 36 68 56
60 14 -6 38 27 27 38 -11 11 -88 6 -105 -8z"/>
<path d="M18884 2908 c-6 -20 15 -48 36 -48 3 0 14 6 24 13 28 21 13 57 -24
57 -21 0 -31 -6 -36 -22z"/>
<path d="M11450 2840 c0 -38 -2 -40 -30 -40 -25 0 -30 -4 -30 -25 0 -21 5 -25
29 -25 l29 0 4 -131 c3 -129 3 -131 31 -155 21 -18 40 -24 73 -24 40 0 44 2
44 25 0 22 -4 25 -35 25 -47 0 -55 22 -55 156 l0 104 45 0 c41 0 45 2 45 25 0
23 -4 25 -45 25 l-45 0 0 40 c0 38 -2 40 -30 40 -28 0 -30 -2 -30 -40z"/>
<path d="M12090 2840 c0 -38 -2 -40 -30 -40 -25 0 -30 -4 -30 -25 0 -21 5 -25
29 -25 l29 0 4 -131 c3 -129 3 -131 31 -155 21 -18 40 -24 73 -24 40 0 44 2
44 25 0 22 -4 25 -35 25 -47 0 -55 22 -55 156 l0 104 45 0 c41 0 45 2 45 25 0
23 -4 25 -45 25 l-45 0 0 40 c0 38 -2 40 -30 40 -28 0 -30 -2 -30 -40z"/>
<path d="M16580 2840 c0 -38 -2 -40 -30 -40 -25 0 -30 -4 -30 -25 0 -21 5 -25
29 -25 l29 0 3 -131 c4 -129 4 -131 32 -155 21 -18 40 -24 73 -24 40 0 44 2
44 25 0 22 -4 25 -35 25 -48 0 -55 19 -55 149 l0 111 45 0 c41 0 45 2 45 25 0
23 -4 25 -45 25 l-45 0 0 40 c0 38 -2 40 -30 40 -28 0 -30 -2 -30 -40z"/>
<path d="M21600 2840 c0 -38 -2 -40 -30 -40 -25 0 -30 -4 -30 -25 0 -21 5 -25
29 -25 l29 0 4 -130 c4 -154 12 -169 97 -178 50 -4 51 -4 51 22 0 23 -4 26
-35 26 -47 0 -55 22 -55 156 l0 104 45 0 c41 0 45 2 45 25 0 23 -4 25 -45 25
l-45 0 0 40 c0 38 -2 40 -30 40 -28 0 -30 -2 -30 -40z"/>
<path d="M6103 2816 c-24 -20 -37 -24 -70 -19 -116 15 -194 -81 -144 -177 21
-40 21 -40 1 -60 -25 -25 -25 -45 -2 -68 18 -18 18 -19 -5 -40 -35 -31 -32
-83 7 -116 67 -56 226 -43 277 23 17 22 16 82 -2 108 -17 25 -89 43 -168 43
-64 0 -87 12 -68 34 10 11 31 16 73 16 72 0 110 18 132 64 21 44 20 63 -4 111
-22 42 -16 55 28 55 17 0 22 6 22 25 0 34 -38 34 -77 1z m-30 -87 c23 -28 22
-70 -4 -103 -16 -20 -29 -26 -59 -26 -62 0 -99 65 -69 121 23 43 99 47 132 8z
m10 -280 c32 -8 37 -14 37 -39 0 -42 -32 -60 -107 -60 -50 0 -67 4 -83 20 -11
11 -20 26 -20 33 0 17 21 43 40 50 26 9 93 7 133 -4z"/>
<path d="M5710 2620 l0 -180 30 0 30 0 0 180 0 180 -30 0 -30 0 0 -180z"/>
<path d="M7172 2780 c-95 -58 -95 -262 -1 -319 93 -56 229 -17 241 69 2 21 -2
26 -25 28 -23 3 -29 -2 -38 -26 -17 -49 -91 -68 -138 -36 -13 9 -29 32 -37 50
-27 64 -28 64 117 64 l131 0 -7 47 c-9 64 -29 100 -68 123 -44 27 -131 27
-175 0z m156 -56 c12 -14 22 -36 22 -50 0 -24 -1 -24 -95 -24 -52 0 -95 4 -95
9 0 4 5 22 11 39 21 62 110 77 157 26z"/>
<path d="M7460 2798 c0 -2 31 -82 68 -178 l68 -175 34 -3 35 -3 67 178 c61
165 65 178 46 181 -11 2 -25 2 -31 -1 -7 -3 -35 -68 -62 -146 -28 -77 -52
-141 -55 -141 -3 0 -27 64 -55 143 -50 141 -50 142 -82 145 -18 2 -33 2 -33 0z"/>
<path d="M7902 2780 c-99 -61 -94 -266 8 -325 45 -26 135 -27 173 -2 30 20 54
53 59 82 2 16 -2 20 -22 19 -37 -2 -37 -2 -44 -27 -10 -43 -90 -62 -134 -31
-26 18 -52 65 -52 94 0 19 6 20 131 20 l130 0 -6 48 c-9 63 -34 103 -75 124
-48 24 -126 23 -168 -2z m156 -56 c12 -14 22 -36 22 -50 0 -24 -1 -24 -96 -24
l-96 0 7 28 c19 78 111 104 163 46z"/>
<path d="M8580 2621 l0 -181 30 0 30 0 0 129 0 130 28 19 c15 11 41 22 57 24
25 2 31 8 33 32 4 28 3 29 -34 23 -20 -3 -47 -16 -60 -28 l-22 -21 -4 24 c-2
17 -10 24 -30 26 l-28 3 0 -180z"/>
<path d="M8872 2780 c-99 -61 -94 -266 8 -325 48 -27 139 -27 177 1 34 25 67
84 54 97 -16 16 -61 -1 -61 -23 0 -11 -12 -26 -30 -35 -61 -32 -120 -11 -146
51 -27 64 -28 64 117 64 l130 0 -7 48 c-9 63 -29 99 -67 122 -44 27 -131 27
-175 0z m155 -52 c13 -13 23 -33 23 -50 l0 -28 -95 0 c-52 0 -95 4 -95 9 0 4
5 23 11 41 21 59 106 75 156 28z"/>
<path d="M9210 2555 l0 -245 30 0 30 0 0 85 0 86 30 -23 c41 -30 125 -30 168
0 87 62 81 281 -9 327 -57 30 -138 15 -176 -33 -11 -13 -13 -11 -13 16 0 29
-3 32 -30 32 l-30 0 0 -245z m234 162 c30 -40 30 -153 0 -193 -25 -35 -68 -47
-111 -33 -50 16 -63 43 -63 127 0 70 2 76 32 103 26 26 38 30 76 27 36 -2 49
-9 66 -31z"/>
<path d="M9640 2621 l0 -181 30 0 30 0 0 129 0 130 28 19 c15 11 41 22 57 24
24 2 31 8 33 31 3 24 0 27 -27 27 -17 0 -42 -11 -60 -25 l-30 -26 -3 23 c-2
17 -11 24 -30 26 l-28 3 0 -180z"/>
<path d="M9922 2780 c-69 -42 -94 -172 -49 -260 56 -113 224 -119 279 -10 20
39 16 50 -17 50 -19 0 -28 -9 -39 -34 -12 -28 -22 -36 -52 -42 -67 -12 -116
23 -130 93 l-6 32 128 3 129 3 -3 45 c-8 93 -58 140 -152 140 -38 0 -65 -6
-88 -20z m155 -52 c13 -13 23 -33 23 -50 l0 -28 -95 0 c-62 0 -95 4 -95 11 0
27 34 79 58 88 37 14 81 5 109 -21z"/>
<path d="M10308 2784 c-33 -17 -48 -43 -48 -81 0 -50 25 -71 115 -98 104 -32
128 -62 85 -105 -40 -40 -150 -17 -150 31 0 14 -7 19 -30 19 -34 0 -38 -15
-15 -59 34 -67 174 -79 239 -21 25 23 31 36 31 68 0 57 -29 84 -119 110 -40
12 -79 28 -85 36 -19 22 -9 49 22 64 40 19 85 6 106 -29 11 -21 24 -29 44 -29
30 0 32 6 17 44 -22 59 -144 87 -212 50z"/>
<path d="M10682 2780 c-99 -61 -94 -266 8 -325 44 -25 137 -26 174 -1 29 18
53 52 58 80 2 14 -4 20 -25 23 -23 3 -29 -1 -38 -25 -17 -49 -91 -68 -138 -36
-13 9 -29 32 -37 50 -27 63 -27 63 114 66 l127 3 -3 45 c-4 54 -34 105 -72
125 -42 22 -128 19 -168 -5z m156 -56 c12 -14 22 -36 22 -50 0 -24 -1 -24 -95
-24 -62 0 -95 4 -95 11 0 6 7 26 16 45 28 58 108 67 152 18z"/>
<path d="M11030 2621 l0 -181 30 0 29 0 3 132 3 132 34 23 c34 23 85 30 108
15 24 -15 33 -66 33 -183 l0 -119 30 0 30 0 0 130 c0 144 -11 187 -54 215 -35
23 -113 16 -154 -14 l-31 -21 -3 22 c-2 17 -11 24 -30 26 l-28 3 0 -180z"/>
<path d="M11744 2790 c-30 -12 -64 -58 -64 -86 0 -20 5 -24 30 -24 22 0 30 5
30 18 0 43 77 75 121 52 32 -17 39 -29 39 -67 0 -32 -1 -33 -45 -33 -72 0
-141 -19 -169 -47 -56 -55 -18 -154 64 -168 41 -7 119 20 136 46 6 10 10 7 14
-11 4 -18 14 -26 33 -28 l27 -3 0 140 c0 153 -8 184 -51 207 -30 15 -131 18
-165 4z m156 -219 c0 -33 -5 -43 -30 -61 -46 -33 -103 -37 -129 -11 -56 56 -3
108 112 110 l47 1 0 -39z"/>
<path d="M12320 2620 l0 -180 30 0 30 0 0 180 0 180 -30 0 -30 0 0 -180z"/>
<path d="M12550 2781 c-73 -39 -103 -165 -61 -257 33 -72 106 -104 191 -84 82
20 122 80 121 183 0 71 -24 123 -71 155 -43 29 -130 30 -180 3z m141 -41 c47
-26 65 -138 33 -206 -28 -59 -122 -70 -163 -18 -41 52 -38 168 5 211 25 25 89
32 125 13z"/>
<path d="M12910 2620 l0 -180 30 0 29 0 3 132 3 132 34 23 c34 23 85 30 108
15 24 -15 33 -66 33 -183 l0 -119 30 0 30 0 0 130 c0 142 -10 185 -51 214 -36
25 -107 21 -152 -9 l-37 -26 0 26 c0 21 -5 25 -30 25 l-30 0 0 -180z"/>
<path d="M13540 2782 c-73 -39 -103 -166 -60 -259 43 -95 174 -119 259 -47 37
31 53 78 52 151 0 67 -25 119 -71 151 -42 28 -129 30 -180 4z m168 -72 c20
-30 23 -44 20 -103 -3 -57 -8 -71 -31 -95 -39 -39 -109 -39 -142 0 -45 52 -44
170 1 215 20 20 32 24 76 21 47 -3 55 -6 76 -38z"/>
<path d="M14260 2555 l0 -245 30 0 30 0 0 86 0 85 25 -19 c40 -32 96 -37 148
-14 64 29 91 87 85 187 -8 117 -49 165 -142 165 -29 0 -55 -8 -80 -25 l-36
-24 0 24 c0 21 -5 25 -30 25 l-30 0 0 -245z m233 163 c29 -39 34 -131 10 -178
-25 -48 -64 -66 -114 -51 -55 17 -69 42 -69 129 0 68 2 76 30 103 26 26 36 30
76 27 38 -2 51 -9 67 -30z"/>
<path d="M14680 2621 l0 -181 30 0 30 0 0 129 0 130 28 19 c15 11 41 22 57 24
24 2 31 8 33 31 3 24 0 27 -27 27 -17 0 -42 -11 -60 -25 l-30 -26 -3 23 c-2
17 -11 24 -30 26 l-28 3 0 -180z"/>
<path d="M14980 2782 c-73 -39 -103 -166 -60 -259 43 -95 174 -119 259 -47 37
31 53 78 52 151 0 67 -25 119 -71 151 -42 28 -129 30 -180 4z m168 -72 c20
-30 23 -44 20 -103 -3 -57 -8 -71 -31 -95 -39 -39 -109 -39 -142 0 -45 52 -44
170 1 215 20 20 32 24 76 21 47 -3 55 -6 76 -38z"/>
<path d="M15750 2796 c-1 -3 -1 -58 -1 -121 0 -63 0 -128 1 -144 0 -41 42 -87
84 -94 43 -7 95 7 130 34 l26 20 0 -25 c0 -22 4 -26 30 -26 l30 0 0 180 0 180
-30 0 -29 0 -3 -132 -3 -132 -34 -23 c-42 -28 -101 -31 -124 -5 -13 14 -17 45
-19 152 l-3 135 -27 3 c-16 2 -28 1 -28 -2z"/>
<path d="M16230 2782 c-73 -38 -103 -166 -61 -258 22 -47 50 -70 105 -85 82
-22 186 31 186 97 0 20 -5 24 -30 24 -22 0 -30 -5 -30 -18 0 -43 -82 -74 -130
-50 -54 28 -75 120 -44 198 19 48 38 60 93 60 43 0 81 -26 81 -55 0 -10 10
-15 30 -15 34 0 38 15 15 59 -29 58 -144 80 -215 43z"/>
<path d="M17020 2782 c-105 -55 -106 -266 -2 -326 70 -39 177 -18 223 44 42
57 41 181 -2 242 -41 57 -149 77 -219 40z m150 -47 c27 -17 42 -69 38 -132 -3
-53 -9 -68 -31 -91 -34 -34 -103 -38 -136 -8 -44 40 -52 155 -15 211 26 39 97
49 144 20z"/>
<path d="M17802 2780 c-99 -61 -94 -266 8 -325 44 -25 137 -26 174 -1 29 18
53 52 58 80 2 14 -4 20 -25 23 -23 3 -29 -1 -38 -25 -17 -49 -91 -68 -138 -36
-13 9 -29 32 -37 50 -27 63 -27 63 114 66 l127 3 -3 45 c-4 54 -34 105 -72
125 -42 22 -128 19 -168 -5z m156 -56 c12 -14 22 -36 22 -50 0 -24 -1 -24 -95
-24 -62 0 -95 4 -95 11 0 6 7 26 16 45 28 58 108 67 152 18z"/>
<path d="M18140 2620 l0 -180 30 0 29 0 3 132 3 132 34 23 c34 23 85 30 108
15 24 -15 33 -66 33 -183 l0 -119 30 0 30 0 0 130 c0 144 -11 187 -54 215 -35
23 -117 16 -157 -14 l-29 -22 0 26 c0 21 -5 25 -30 25 l-30 0 0 -180z"/>
<path d="M18491 2792 c2 -4 33 -86 69 -180 l65 -172 35 0 35 0 63 168 c34 92
62 173 62 180 0 9 -10 12 -27 10 -25 -3 -31 -13 -78 -145 -27 -79 -52 -143
-55 -143 -3 0 -27 64 -55 143 l-50 142 -34 3 c-18 2 -32 -1 -30 -6z"/>
<path d="M18890 2620 l0 -180 30 0 30 0 0 180 0 180 -30 0 -30 0 0 -180z"/>
<path d="M19070 2621 l0 -181 30 0 30 0 0 129 0 130 28 19 c15 11 41 22 57 24
25 2 31 8 33 32 4 28 3 29 -34 23 -20 -3 -47 -16 -60 -28 l-22 -21 -4 24 c-2
17 -10 24 -30 26 l-28 3 0 -180z"/>
<path d="M19370 2782 c-73 -39 -103 -166 -61 -259 43 -94 175 -119 260 -47 77
65 70 236 -12 298 -39 29 -140 34 -187 8z m141 -42 c44 -24 64 -125 38 -198
-22 -64 -126 -80 -168 -26 -42 53 -39 167 4 210 26 26 90 33 126 14z"/>
<path d="M19730 2620 l0 -180 30 0 29 0 3 132 3 132 34 23 c34 23 85 30 108
15 24 -15 33 -66 33 -183 l0 -119 30 0 30 0 0 130 c0 142 -10 185 -51 214 -36
25 -107 21 -152 -9 l-37 -26 0 26 c0 21 -5 25 -30 25 l-30 0 0 -180z"/>
<path d="M20140 2620 l0 -180 30 0 29 0 3 132 3 132 34 23 c44 30 95 30 115 1
13 -18 16 -51 16 -155 l0 -133 30 0 29 0 3 132 3 132 34 23 c44 30 95 30 115
1 13 -18 16 -51 16 -155 l0 -133 31 0 30 0 -3 156 -3 156 -28 24 c-41 35 -111
33 -163 -4 l-39 -29 -27 29 c-36 38 -108 40 -162 3 l-36 -24 0 24 c0 21 -5 25
-30 25 l-30 0 0 -180z"/>
<path d="M20832 2780 c-99 -61 -94 -266 8 -325 47 -27 140 -26 178 2 29 21 64
81 56 95 -3 4 -16 8 -30 8 -19 0 -28 -7 -35 -29 -17 -48 -91 -67 -137 -35 -26
18 -52 65 -52 94 0 19 6 20 130 20 l130 0 -7 48 c-8 63 -27 99 -66 122 -44 27
-131 27 -175 0z m156 -56 c12 -14 22 -36 22 -50 0 -24 -1 -24 -96 -24 l-96 0
7 28 c19 79 111 105 163 46z"/>
<path d="M21180 2620 l0 -180 30 0 29 0 3 132 3 132 34 23 c34 23 85 30 108
15 24 -15 33 -66 33 -183 l0 -119 30 0 30 0 0 130 c0 144 -11 187 -54 215 -35
23 -117 16 -157 -14 l-29 -22 0 26 c0 21 -5 25 -30 25 l-30 0 0 -180z"/>
<path d="M21868 2784 c-33 -17 -48 -43 -48 -81 0 -56 26 -76 143 -108 75 -22
96 -56 57 -95 -39 -39 -131 -21 -148 28 -8 25 -14 29 -36 25 -41 -8 -27 -67
22 -95 100 -58 237 -11 237 81 0 56 -30 84 -120 110 -40 12 -79 28 -85 36 -18
21 -8 48 23 63 40 19 85 6 106 -29 11 -21 24 -29 44 -29 15 0 27 5 27 10 0 25
-32 71 -60 85 -37 19 -127 19 -162 -1z"/>
<path d="M6650 2621 l0 -29 90 1 90 0 0 28 0 29 -90 0 -90 0 0 -29z"/>
</g>
</svg>
