<svg width="8599" height="2915" xmlns="http://www.w3.org/2000/svg" xmlns:xlink="http://www.w3.org/1999/xlink" xml:space="preserve" overflow="hidden"><defs><clipPath id="clip0"><rect x="100" y="1457" width="8599" height="2915"/></clipPath><clipPath id="clip1"><rect x="100" y="1457" width="8599" height="2915"/></clipPath></defs><g clip-path="url(#clip0)" transform="translate(-100 -1457)"><g clip-path="url(#clip1)"><rect x="104" y="1459" width="8593" height="2911" fill="#FFFFFF" fill-opacity="1"/><g><path d="M663.022 2404.08 768.025 2404.08 768.025 4159 663.022 4159ZM1399.05 2601.09 1504.05 2601.09 1504.05 4159 1399.05 4159ZM2135.07 2664.09 2240.07 2664.09 2240.07 4159 2135.07 4159ZM2871.09 2592.08 2977.1 2592.08 2977.1 4159 2871.09 4159ZM3608.12 2151.07 3713.12 2151.07 3713.12 4159 3608.12 4159ZM4344.14 2549.08 4449.15 2549.08 4449.15 4159 4344.14 4159ZM5080.17 2856.09 5186.17 2856.09 5186.17 4159 5080.17 4159ZM5817.19 2454.08 5922.19 2454.08 5922.19 4159 5817.19 4159ZM6553.21 3353.11 6658.22 3353.11 6658.22 4159 6553.21 4159ZM7289.24 2591.08 7395.24 2591.08 7395.24 4159 7289.24 4159ZM8026.26 2638.09 8131.27 2638.09 8131.27 4159 8026.26 4159Z" fill="#0F62FE" fill-rule="nonzero" fill-opacity="1"/></g><g><path d="M796.026 2718.09 901.03 2718.09 901.03 4159 796.026 4159ZM1532.05 2800.09 1638.05 2800.09 1638.05 4159 1532.05 4159ZM2269.07 2570.08 2374.08 2570.08 2374.08 4159 2269.07 4159ZM3005.1 2744.09 3110.1 2744.09 3110.1 4159 3005.1 4159ZM3741.12 2161.07 3847.13 2161.07 3847.13 4159 3741.12 4159ZM4478.15 2172.07 4583.15 2172.07 4583.15 4159 4478.15 4159ZM5214.17 3070.1 5319.17 3070.1 5319.17 4159 5214.17 4159ZM5950.2 2344.08 6055.2 2344.08 6055.2 4159 5950.2 4159ZM6687.22 3346.11 6792.22 3346.11 6792.22 4159 6687.22 4159ZM7423.24 2557.08 7528.25 2557.08 7528.25 4159 7423.24 4159ZM8159.27 2732.09 8264.27 2732.09 8264.27 4159 8159.27 4159Z" fill="#A56EFF" fill-rule="nonzero" fill-opacity="0.501961"/></g><g><path d="M930.03 2715.09 1035.03 2715.09 1035.03 4159 930.03 4159ZM1666.05 2717.09 1771.06 2717.09 1771.06 4159 1666.05 4159ZM2402.08 2637.09 2508.08 2637.09 2508.08 4159 2402.08 4159ZM3139.1 2667.09 3244.11 2667.09 3244.11 4159 3139.1 4159ZM3875.13 2235.07 3980.13 2235.07 3980.13 4159 3875.13 4159ZM4611.15 2272.07 4716.15 2272.07 4716.15 4159 4611.15 4159ZM5348.18 3211.11 5453.18 3211.11 5453.18 4159 5348.18 4159ZM6084.2 2336.08 6189.2 2336.08 6189.2 4159 6084.2 4159ZM6820.22 3299.11 6925.23 3299.11 6925.23 4159 6820.22 4159ZM7556.25 2543.08 7662.25 2543.08 7662.25 4159 7556.25 4159ZM8293.27 2707.09 8398.28 2707.09 8398.28 4159 8293.27 4159Z" fill="#003A6D" fill-rule="nonzero" fill-opacity="0.501961"/></g><g><path d="M1063.03 2667.09 1169.04 2667.09 1169.04 4159 1063.03 4159ZM1800.06 2828.09 1905.06 2828.09 1905.06 4159 1800.06 4159ZM2536.08 2643.09 2641.09 2643.09 2641.09 4159 2536.08 4159ZM3272.11 2940.1 3377.11 2940.1 3377.11 4159 3272.11 4159ZM4009.13 2290.08 4114.13 2290.08 4114.13 4159 4009.13 4159ZM4745.16 2816.09 4850.16 2816.09 4850.16 4159 4745.16 4159ZM5481.18 2962.1 5586.18 2962.1 5586.18 4159 5481.18 4159ZM6217.2 2547.08 6323.21 2547.08 6323.21 4159 6217.2 4159ZM6954.23 3440.11 7059.23 3440.11 7059.23 4159 6954.23 4159ZM7690.25 2745.09 7795.26 2745.09 7795.26 4159 7690.25 4159ZM8426.28 2836.09 8532.28 2836.09 8532.28 4159 8426.28 4159Z" fill="#009D9A" fill-rule="nonzero" fill-opacity="0.509804"/></g><g><path d="M547.5 4158.5 8647.5 4158.5" stroke="#D9D9D9" stroke-width="3.4375" stroke-linecap="butt" stroke-linejoin="round" stroke-miterlimit="10" stroke-opacity="1" fill="none" fill-rule="evenodd"/></g><g><text fill="#0F62FE" fill-opacity="1" font-family="IBM Plex Sans Light,IBM Plex Sans Light_MSFontService,sans-serif" font-style="normal" font-variant="normal" font-weight="700" font-stretch="normal" font-size="64" text-anchor="start" direction="ltr" writing-mode="lr-tb" unicode-bidi="normal" text-decoration="none" transform="matrix(1 0 0 1 646.515 2366)">0.87</text></g><g><text fill="#0F62FE" fill-opacity="1" font-family="IBM Plex Sans Light,IBM Plex Sans Light_MSFontService,sans-serif" font-style="normal" font-variant="normal" font-weight="700" font-stretch="normal" font-size="64" text-anchor="start" direction="ltr" writing-mode="lr-tb" unicode-bidi="normal" text-decoration="none" transform="matrix(1 0 0 1 1382.85 2563)">0.78</text></g><g><text fill="#0F62FE" fill-opacity="1" font-family="IBM Plex Sans Light,IBM Plex Sans Light_MSFontService,sans-serif" font-style="normal" font-variant="normal" font-weight="700" font-stretch="normal" font-size="64" text-anchor="start" direction="ltr" writing-mode="lr-tb" unicode-bidi="normal" text-decoration="none" transform="matrix(1 0 0 1 2119.18 2626)">0.74</text></g><g><text fill="#0F62FE" fill-opacity="1" font-family="IBM Plex Sans Light,IBM Plex Sans Light_MSFontService,sans-serif" font-style="normal" font-variant="normal" font-weight="700" font-stretch="normal" font-size="64" text-anchor="start" direction="ltr" writing-mode="lr-tb" unicode-bidi="normal" text-decoration="none" transform="matrix(1 0 0 1 2855.51 2554)">0.78</text></g><g><text fill="#0F62FE" fill-opacity="1" font-family="IBM Plex Sans Light,IBM Plex Sans Light_MSFontService,sans-serif" font-style="normal" font-variant="normal" font-weight="700" font-stretch="normal" font-size="64" text-anchor="start" direction="ltr" writing-mode="lr-tb" unicode-bidi="normal" text-decoration="none" transform="matrix(1 0 0 1 3591.84 2113)">1.00</text></g><g><text fill="#0F62FE" fill-opacity="1" font-family="IBM Plex Sans Light,IBM Plex Sans Light_MSFontService,sans-serif" font-style="normal" font-variant="normal" font-weight="700" font-stretch="normal" font-size="64" text-anchor="start" direction="ltr" writing-mode="lr-tb" unicode-bidi="normal" text-decoration="none" transform="matrix(1 0 0 1 4328.17 2511)">0.80</text></g><g><text fill="#0F62FE" fill-opacity="1" font-family="IBM Plex Sans Light,IBM Plex Sans Light_MSFontService,sans-serif" font-style="normal" font-variant="normal" font-weight="700" font-stretch="normal" font-size="64" text-anchor="start" direction="ltr" writing-mode="lr-tb" unicode-bidi="normal" text-decoration="none" transform="matrix(1 0 0 1 5064.5 2818)">0.65</text></g><g><text fill="#0F62FE" fill-opacity="1" font-family="IBM Plex Sans Light,IBM Plex Sans Light_MSFontService,sans-serif" font-style="normal" font-variant="normal" font-weight="700" font-stretch="normal" font-size="64" text-anchor="start" direction="ltr" writing-mode="lr-tb" unicode-bidi="normal" text-decoration="none" transform="matrix(1 0 0 1 5800.83 2416)">0.85</text></g><g><text fill="#0F62FE" fill-opacity="1" font-family="IBM Plex Sans Light,IBM Plex Sans Light_MSFontService,sans-serif" font-style="normal" font-variant="normal" font-weight="700" font-stretch="normal" font-size="64" text-anchor="start" direction="ltr" writing-mode="lr-tb" unicode-bidi="normal" text-decoration="none" transform="matrix(1 0 0 1 6537.16 3315)">0.40</text></g><g><text fill="#0F62FE" fill-opacity="1" font-family="IBM Plex Sans Light,IBM Plex Sans Light_MSFontService,sans-serif" font-style="normal" font-variant="normal" font-weight="700" font-stretch="normal" font-size="64" text-anchor="start" direction="ltr" writing-mode="lr-tb" unicode-bidi="normal" text-decoration="none" transform="matrix(1 0 0 1 7273.49 2553)">0.78</text></g><g><text fill="#0F62FE" fill-opacity="1" font-family="IBM Plex Sans Light,IBM Plex Sans Light_MSFontService,sans-serif" font-style="normal" font-variant="normal" font-weight="700" font-stretch="normal" font-size="64" text-anchor="start" direction="ltr" writing-mode="lr-tb" unicode-bidi="normal" text-decoration="none" transform="matrix(1 0 0 1 8009.82 2600)">0.76</text></g><g><text fill="#404040" fill-opacity="1" font-family="IBM Plex Sans Light,IBM Plex Sans Light_MSFontService,sans-serif" font-style="normal" font-variant="normal" font-weight="300" font-stretch="normal" font-size="64" text-anchor="start" direction="ltr" writing-mode="lr-tb" unicode-bidi="normal" text-decoration="none" transform="matrix(1 0 0 1 782.673 2680)">0.72</text></g><g><text fill="#404040" fill-opacity="1" font-family="IBM Plex Sans Light,IBM Plex Sans Light_MSFontService,sans-serif" font-style="normal" font-variant="normal" font-weight="300" font-stretch="normal" font-size="64" text-anchor="start" direction="ltr" writing-mode="lr-tb" unicode-bidi="normal" text-decoration="none" transform="matrix(1 0 0 1 1519 2762)">0.68</text></g><g><text fill="#404040" fill-opacity="1" font-family="IBM Plex Sans Light,IBM Plex Sans Light_MSFontService,sans-serif" font-style="normal" font-variant="normal" font-weight="300" font-stretch="normal" font-size="64" text-anchor="start" direction="ltr" writing-mode="lr-tb" unicode-bidi="normal" text-decoration="none" transform="matrix(1 0 0 1 2255.33 2532)">0.79</text></g><g><text fill="#404040" fill-opacity="1" font-family="IBM Plex Sans Light,IBM Plex Sans Light_MSFontService,sans-serif" font-style="normal" font-variant="normal" font-weight="300" font-stretch="normal" font-size="64" text-anchor="start" direction="ltr" writing-mode="lr-tb" unicode-bidi="normal" text-decoration="none" transform="matrix(1 0 0 1 2991.66 2706)">0.70</text></g><g><text fill="#404040" fill-opacity="1" font-family="IBM Plex Sans Light,IBM Plex Sans Light_MSFontService,sans-serif" font-style="normal" font-variant="normal" font-weight="300" font-stretch="normal" font-size="64" text-anchor="start" direction="ltr" writing-mode="lr-tb" unicode-bidi="normal" text-decoration="none" transform="matrix(1 0 0 1 3727.99 2123)">1.00</text></g><g><text fill="#404040" fill-opacity="1" font-family="IBM Plex Sans Light,IBM Plex Sans Light_MSFontService,sans-serif" font-style="normal" font-variant="normal" font-weight="300" font-stretch="normal" font-size="64" text-anchor="start" direction="ltr" writing-mode="lr-tb" unicode-bidi="normal" text-decoration="none" transform="matrix(1 0 0 1 4464.33 2134)">0.99</text></g><g><text fill="#404040" fill-opacity="1" font-family="IBM Plex Sans Light,IBM Plex Sans Light_MSFontService,sans-serif" font-style="normal" font-variant="normal" font-weight="300" font-stretch="normal" font-size="64" text-anchor="start" direction="ltr" writing-mode="lr-tb" unicode-bidi="normal" text-decoration="none" transform="matrix(1 0 0 1 5200.66 3032)">0.54</text></g><g><text fill="#404040" fill-opacity="1" font-family="IBM Plex Sans Light,IBM Plex Sans Light_MSFontService,sans-serif" font-style="normal" font-variant="normal" font-weight="300" font-stretch="normal" font-size="64" text-anchor="start" direction="ltr" writing-mode="lr-tb" unicode-bidi="normal" text-decoration="none" transform="matrix(1 0 0 1 5936.99 2306)">0.90</text></g><g><text fill="#404040" fill-opacity="1" font-family="IBM Plex Sans Light,IBM Plex Sans Light_MSFontService,sans-serif" font-style="normal" font-variant="normal" font-weight="300" font-stretch="normal" font-size="64" text-anchor="start" direction="ltr" writing-mode="lr-tb" unicode-bidi="normal" text-decoration="none" transform="matrix(1 0 0 1 6673.32 3308)">0.40</text></g><g><text fill="#404040" fill-opacity="1" font-family="IBM Plex Sans Light,IBM Plex Sans Light_MSFontService,sans-serif" font-style="normal" font-variant="normal" font-weight="300" font-stretch="normal" font-size="64" text-anchor="start" direction="ltr" writing-mode="lr-tb" unicode-bidi="normal" text-decoration="none" transform="matrix(1 0 0 1 7409.65 2519)">0.80</text></g><g><text fill="#404040" fill-opacity="1" font-family="IBM Plex Sans Light,IBM Plex Sans Light_MSFontService,sans-serif" font-style="normal" font-variant="normal" font-weight="300" font-stretch="normal" font-size="64" text-anchor="start" direction="ltr" writing-mode="lr-tb" unicode-bidi="normal" text-decoration="none" transform="matrix(1 0 0 1 8145.98 2694)">0.71</text></g><g><text fill="#404040" fill-opacity="1" font-family="IBM Plex Sans Light,IBM Plex Sans Light_MSFontService,sans-serif" font-style="normal" font-variant="normal" font-weight="300" font-stretch="normal" font-size="64" text-anchor="start" direction="ltr" writing-mode="lr-tb" unicode-bidi="normal" text-decoration="none" transform="matrix(1 0 0 1 916.264 2677)">0.72</text></g><g><text fill="#404040" fill-opacity="1" font-family="IBM Plex Sans Light,IBM Plex Sans Light_MSFontService,sans-serif" font-style="normal" font-variant="normal" font-weight="300" font-stretch="normal" font-size="64" text-anchor="start" direction="ltr" writing-mode="lr-tb" unicode-bidi="normal" text-decoration="none" transform="matrix(1 0 0 1 1652.59 2679)">0.72</text></g><g><text fill="#404040" fill-opacity="1" font-family="IBM Plex Sans Light,IBM Plex Sans Light_MSFontService,sans-serif" font-style="normal" font-variant="normal" font-weight="300" font-stretch="normal" font-size="64" text-anchor="start" direction="ltr" writing-mode="lr-tb" unicode-bidi="normal" text-decoration="none" transform="matrix(1 0 0 1 2388.93 2599)">0.76</text></g><g><text fill="#404040" fill-opacity="1" font-family="IBM Plex Sans Light,IBM Plex Sans Light_MSFontService,sans-serif" font-style="normal" font-variant="normal" font-weight="300" font-stretch="normal" font-size="64" text-anchor="start" direction="ltr" writing-mode="lr-tb" unicode-bidi="normal" text-decoration="none" transform="matrix(1 0 0 1 3125.26 2629)">0.74</text></g><g><text fill="#404040" fill-opacity="1" font-family="IBM Plex Sans Light,IBM Plex Sans Light_MSFontService,sans-serif" font-style="normal" font-variant="normal" font-weight="300" font-stretch="normal" font-size="64" text-anchor="start" direction="ltr" writing-mode="lr-tb" unicode-bidi="normal" text-decoration="none" transform="matrix(1 0 0 1 3861.59 2197)">0.96</text></g><g><text fill="#404040" fill-opacity="1" font-family="IBM Plex Sans Light,IBM Plex Sans Light_MSFontService,sans-serif" font-style="normal" font-variant="normal" font-weight="300" font-stretch="normal" font-size="64" text-anchor="start" direction="ltr" writing-mode="lr-tb" unicode-bidi="normal" text-decoration="none" transform="matrix(1 0 0 1 4597.92 2234)">0.94</text></g><g><text fill="#404040" fill-opacity="1" font-family="IBM Plex Sans Light,IBM Plex Sans Light_MSFontService,sans-serif" font-style="normal" font-variant="normal" font-weight="300" font-stretch="normal" font-size="64" text-anchor="start" direction="ltr" writing-mode="lr-tb" unicode-bidi="normal" text-decoration="none" transform="matrix(1 0 0 1 5334.25 3173)">0.47</text></g><g><text fill="#404040" fill-opacity="1" font-family="IBM Plex Sans Light,IBM Plex Sans Light_MSFontService,sans-serif" font-style="normal" font-variant="normal" font-weight="300" font-stretch="normal" font-size="64" text-anchor="start" direction="ltr" writing-mode="lr-tb" unicode-bidi="normal" text-decoration="none" transform="matrix(1 0 0 1 6070.58 2298)">0.91</text></g><g><text fill="#404040" fill-opacity="1" font-family="IBM Plex Sans Light,IBM Plex Sans Light_MSFontService,sans-serif" font-style="normal" font-variant="normal" font-weight="300" font-stretch="normal" font-size="64" text-anchor="start" direction="ltr" writing-mode="lr-tb" unicode-bidi="normal" text-decoration="none" transform="matrix(1 0 0 1 6806.91 3261)">0.43</text></g><g><text fill="#404040" fill-opacity="1" font-family="IBM Plex Sans Light,IBM Plex Sans Light_MSFontService,sans-serif" font-style="normal" font-variant="normal" font-weight="300" font-stretch="normal" font-size="64" text-anchor="start" direction="ltr" writing-mode="lr-tb" unicode-bidi="normal" text-decoration="none" transform="matrix(1 0 0 1 7543.24 2505)">0.81</text></g><g><text fill="#404040" fill-opacity="1" font-family="IBM Plex Sans Light,IBM Plex Sans Light_MSFontService,sans-serif" font-style="normal" font-variant="normal" font-weight="300" font-stretch="normal" font-size="64" text-anchor="start" direction="ltr" writing-mode="lr-tb" unicode-bidi="normal" text-decoration="none" transform="matrix(1 0 0 1 8279.57 2669)">0.72</text></g><g><text fill="#404040" fill-opacity="1" font-family="IBM Plex Sans Light,IBM Plex Sans Light_MSFontService,sans-serif" font-style="normal" font-variant="normal" font-weight="300" font-stretch="normal" font-size="64" text-anchor="start" direction="ltr" writing-mode="lr-tb" unicode-bidi="normal" text-decoration="none" transform="matrix(1 0 0 1 1049.86 2629)">0.74</text></g><g><text fill="#404040" fill-opacity="1" font-family="IBM Plex Sans Light,IBM Plex Sans Light_MSFontService,sans-serif" font-style="normal" font-variant="normal" font-weight="300" font-stretch="normal" font-size="64" text-anchor="start" direction="ltr" writing-mode="lr-tb" unicode-bidi="normal" text-decoration="none" transform="matrix(1 0 0 1 1786.19 2790)">0.66</text></g><g><text fill="#404040" fill-opacity="1" font-family="IBM Plex Sans Light,IBM Plex Sans Light_MSFontService,sans-serif" font-style="normal" font-variant="normal" font-weight="300" font-stretch="normal" font-size="64" text-anchor="start" direction="ltr" writing-mode="lr-tb" unicode-bidi="normal" text-decoration="none" transform="matrix(1 0 0 1 2522.52 2605)">0.76</text></g><g><text fill="#404040" fill-opacity="1" font-family="IBM Plex Sans Light,IBM Plex Sans Light_MSFontService,sans-serif" font-style="normal" font-variant="normal" font-weight="300" font-stretch="normal" font-size="64" text-anchor="start" direction="ltr" writing-mode="lr-tb" unicode-bidi="normal" text-decoration="none" transform="matrix(1 0 0 1 3258.85 2902)">0.61</text></g><g><text fill="#404040" fill-opacity="1" font-family="IBM Plex Sans Light,IBM Plex Sans Light_MSFontService,sans-serif" font-style="normal" font-variant="normal" font-weight="300" font-stretch="normal" font-size="64" text-anchor="start" direction="ltr" writing-mode="lr-tb" unicode-bidi="normal" text-decoration="none" transform="matrix(1 0 0 1 3995.18 2252)">0.93</text></g><g><text fill="#404040" fill-opacity="1" font-family="IBM Plex Sans Light,IBM Plex Sans Light_MSFontService,sans-serif" font-style="normal" font-variant="normal" font-weight="300" font-stretch="normal" font-size="64" text-anchor="start" direction="ltr" writing-mode="lr-tb" unicode-bidi="normal" text-decoration="none" transform="matrix(1 0 0 1 4731.51 2778)">0.67</text></g><g><text fill="#404040" fill-opacity="1" font-family="IBM Plex Sans Light,IBM Plex Sans Light_MSFontService,sans-serif" font-style="normal" font-variant="normal" font-weight="300" font-stretch="normal" font-size="64" text-anchor="start" direction="ltr" writing-mode="lr-tb" unicode-bidi="normal" text-decoration="none" transform="matrix(1 0 0 1 5467.84 2924)">0.60</text></g><g><text fill="#404040" fill-opacity="1" font-family="IBM Plex Sans Light,IBM Plex Sans Light_MSFontService,sans-serif" font-style="normal" font-variant="normal" font-weight="300" font-stretch="normal" font-size="64" text-anchor="start" direction="ltr" writing-mode="lr-tb" unicode-bidi="normal" text-decoration="none" transform="matrix(1 0 0 1 6204.17 2509)">0.80</text></g><g><text fill="#404040" fill-opacity="1" font-family="IBM Plex Sans Light,IBM Plex Sans Light_MSFontService,sans-serif" font-style="normal" font-variant="normal" font-weight="300" font-stretch="normal" font-size="64" text-anchor="start" direction="ltr" writing-mode="lr-tb" unicode-bidi="normal" text-decoration="none" transform="matrix(1 0 0 1 6940.5 3402)">0.36</text></g><g><text fill="#404040" fill-opacity="1" font-family="IBM Plex Sans Light,IBM Plex Sans Light_MSFontService,sans-serif" font-style="normal" font-variant="normal" font-weight="300" font-stretch="normal" font-size="64" text-anchor="start" direction="ltr" writing-mode="lr-tb" unicode-bidi="normal" text-decoration="none" transform="matrix(1 0 0 1 7676.83 2707)">0.70</text></g><g><text fill="#404040" fill-opacity="1" font-family="IBM Plex Sans Light,IBM Plex Sans Light_MSFontService,sans-serif" font-style="normal" font-variant="normal" font-weight="300" font-stretch="normal" font-size="64" text-anchor="start" direction="ltr" writing-mode="lr-tb" unicode-bidi="normal" text-decoration="none" transform="matrix(1 0 0 1 8413.16 2798)">0.66</text></g><g><text fill="#000000" fill-opacity="1" font-family="IBM Plex Sans Light,IBM Plex Sans Light_MSFontService,sans-serif" font-style="normal" font-variant="normal" font-weight="700" font-stretch="normal" font-size="73" text-anchor="start" direction="ltr" writing-mode="lr-tb" unicode-bidi="normal" text-decoration="none" transform="matrix(1 0 0 1 317.739 4184)">0.00</text></g><g><text fill="#000000" fill-opacity="1" font-family="IBM Plex Sans Light,IBM Plex Sans Light_MSFontService,sans-serif" font-style="normal" font-variant="normal" font-weight="700" font-stretch="normal" font-size="73" text-anchor="start" direction="ltr" writing-mode="lr-tb" unicode-bidi="normal" text-decoration="none" transform="matrix(1 0 0 1 317.739 3783)">0.20</text></g><g><text fill="#000000" fill-opacity="1" font-family="IBM Plex Sans Light,IBM Plex Sans Light_MSFontService,sans-serif" font-style="normal" font-variant="normal" font-weight="700" font-stretch="normal" font-size="73" text-anchor="start" direction="ltr" writing-mode="lr-tb" unicode-bidi="normal" text-decoration="none" transform="matrix(1 0 0 1 317.739 3381)">0.40</text></g><g><text fill="#000000" fill-opacity="1" font-family="IBM Plex Sans Light,IBM Plex Sans Light_MSFontService,sans-serif" font-style="normal" font-variant="normal" font-weight="700" font-stretch="normal" font-size="73" text-anchor="start" direction="ltr" writing-mode="lr-tb" unicode-bidi="normal" text-decoration="none" transform="matrix(1 0 0 1 317.739 2980)">0.60</text></g><g><text fill="#000000" fill-opacity="1" font-family="IBM Plex Sans Light,IBM Plex Sans Light_MSFontService,sans-serif" font-style="normal" font-variant="normal" font-weight="700" font-stretch="normal" font-size="73" text-anchor="start" direction="ltr" writing-mode="lr-tb" unicode-bidi="normal" text-decoration="none" transform="matrix(1 0 0 1 317.739 2578)">0.80</text></g><g><text fill="#000000" fill-opacity="1" font-family="IBM Plex Sans Light,IBM Plex Sans Light_MSFontService,sans-serif" font-style="normal" font-variant="normal" font-weight="700" font-stretch="normal" font-size="73" text-anchor="start" direction="ltr" writing-mode="lr-tb" unicode-bidi="normal" text-decoration="none" transform="matrix(1 0 0 1 317.739 2177)">1.00</text></g><g><text fill="#000000" fill-opacity="1" font-family="IBM Plex Sans Light,IBM Plex Sans Light_MSFontService,sans-serif" font-style="normal" font-variant="normal" font-weight="700" font-stretch="normal" font-size="73" text-anchor="start" direction="ltr" writing-mode="lr-tb" unicode-bidi="normal" text-decoration="none" transform="matrix(1 0 0 1 317.739 1775)">1.20</text></g><g><text fill="#000000" fill-opacity="1" font-family="IBM Plex Sans Light,IBM Plex Sans Light_MSFontService,sans-serif" font-style="normal" font-variant="normal" font-weight="300" font-stretch="normal" font-size="92" text-anchor="start" direction="ltr" writing-mode="lr-tb" unicode-bidi="normal" text-decoration="none" transform="matrix(1 0 0 1 590.098 4315)">AegisSafetyTest</text></g><g><text fill="#000000" fill-opacity="1" font-family="IBM Plex Sans Light,IBM Plex Sans Light_MSFontService,sans-serif" font-style="normal" font-variant="normal" font-weight="300" font-stretch="normal" font-size="92" text-anchor="start" direction="ltr" writing-mode="lr-tb" unicode-bidi="normal" text-decoration="none" transform="matrix(1 0 0 1 1415.25 4315)">BeaverTails</text></g><g><text fill="#000000" fill-opacity="1" font-family="IBM Plex Sans Light,IBM Plex Sans Light_MSFontService,sans-serif" font-style="normal" font-variant="normal" font-weight="300" font-stretch="normal" font-size="92" text-anchor="start" direction="ltr" writing-mode="lr-tb" unicode-bidi="normal" text-decoration="none" transform="matrix(1 0 0 1 2064.36 4315)">OAI moderation</text></g><g><text fill="#000000" fill-opacity="1" font-family="IBM Plex Sans Light,IBM Plex Sans Light_MSFontService,sans-serif" font-style="normal" font-variant="normal" font-weight="300" font-stretch="normal" font-size="92" text-anchor="start" direction="ltr" writing-mode="lr-tb" unicode-bidi="normal" text-decoration="none" transform="matrix(1 0 0 1 2818.25 4315)">SafeRLHF(test)</text></g><g><text fill="#000000" fill-opacity="1" font-family="IBM Plex Sans Light,IBM Plex Sans Light_MSFontService,sans-serif" font-style="normal" font-variant="normal" font-weight="300" font-stretch="normal" font-size="92" text-anchor="start" direction="ltr" writing-mode="lr-tb" unicode-bidi="normal" text-decoration="none" transform="matrix(1 0 0 1 3505.58 4315)">SimpleSafetyTest</text></g><g><text fill="#000000" fill-opacity="1" font-family="IBM Plex Sans Light,IBM Plex Sans Light_MSFontService,sans-serif" font-style="normal" font-variant="normal" font-weight="300" font-stretch="normal" font-size="92" text-anchor="start" direction="ltr" writing-mode="lr-tb" unicode-bidi="normal" text-decoration="none" transform="matrix(1 0 0 1 4355.95 4315)">HarmBench</text></g><g><text fill="#000000" fill-opacity="1" font-family="IBM Plex Sans Light,IBM Plex Sans Light_MSFontService,sans-serif" font-style="normal" font-variant="normal" font-weight="300" font-stretch="normal" font-size="92" text-anchor="start" direction="ltr" writing-mode="lr-tb" unicode-bidi="normal" text-decoration="none" transform="matrix(1 0 0 1 5132.24 4315)">ToxicChat</text></g><g><text fill="#000000" fill-opacity="1" font-family="IBM Plex Sans Light,IBM Plex Sans Light_MSFontService,sans-serif" font-style="normal" font-variant="normal" font-weight="300" font-stretch="normal" font-size="92" text-anchor="start" direction="ltr" writing-mode="lr-tb" unicode-bidi="normal" text-decoration="none" transform="matrix(1 0 0 1 5860.69 4315)">xstest_RH</text></g><g><text fill="#000000" fill-opacity="1" font-family="IBM Plex Sans Light,IBM Plex Sans Light_MSFontService,sans-serif" font-style="normal" font-variant="normal" font-weight="300" font-stretch="normal" font-size="92" text-anchor="start" direction="ltr" writing-mode="lr-tb" unicode-bidi="normal" text-decoration="none" transform="matrix(1 0 0 1 6600 4315)">xstest_RR</text></g><g><text fill="#000000" fill-opacity="1" font-family="IBM Plex Sans Light,IBM Plex Sans Light_MSFontService,sans-serif" font-style="normal" font-variant="normal" font-weight="300" font-stretch="normal" font-size="92" text-anchor="start" direction="ltr" writing-mode="lr-tb" unicode-bidi="normal" text-decoration="none" transform="matrix(1 0 0 1 7279.91 4315)">xstest_RR(h)</text></g><g><text fill="#000000" fill-opacity="1" font-family="IBM Plex Sans Light,IBM Plex Sans Light_MSFontService,sans-serif" font-style="normal" font-variant="normal" font-weight="300" font-stretch="normal" font-size="92" text-anchor="start" direction="ltr" writing-mode="lr-tb" unicode-bidi="normal" text-decoration="none" transform="matrix(1 0 0 1 7997.49 4315)">Aggregate F1</text></g><g><text fill="#595959" fill-opacity="1" font-family="IBM Plex Sans Light,IBM Plex Sans Light_MSFontService,sans-serif" font-style="normal" font-variant="normal" font-weight="300" font-stretch="normal" font-size="110" text-anchor="start" direction="ltr" writing-mode="lr-tb" unicode-bidi="normal" text-decoration="none" transform="matrix(6.12323e-17 -1 1 6.12323e-17 246.491 2886)">F1</text></g><g><rect x="1647" y="1628" width="74.9999" height="74.9999" fill="#0F62FE" fill-opacity="1"/></g><g><text fill="#595959" fill-opacity="1" font-family="IBM Plex Sans Light,IBM Plex Sans Light_MSFontService,sans-serif" font-style="normal" font-variant="normal" font-weight="300" font-stretch="normal" font-size="128" text-anchor="start" direction="ltr" writing-mode="lr-tb" unicode-bidi="normal" text-decoration="none" transform="matrix(1 0 0 1 1758.31 1703)">Granite-Guardian-3.0-8B</text></g><g><rect x="3432" y="1628" width="75" height="74.9999" fill="#A56EFF" fill-opacity="0.501961"/></g><g><text fill="#595959" fill-opacity="1" font-family="IBM Plex Sans Light,IBM Plex Sans Light_MSFontService,sans-serif" font-style="normal" font-variant="normal" font-weight="300" font-stretch="normal" font-size="128" text-anchor="start" direction="ltr" writing-mode="lr-tb" unicode-bidi="normal" text-decoration="none" transform="matrix(1 0 0 1 3542.9 1703)">LlamaGuard-3-8B</text></g><g><rect x="4811" y="1628" width="76" height="74.9999" fill="#003A6D" fill-opacity="0.501961"/></g><g><text fill="#595959" fill-opacity="1" font-family="IBM Plex Sans Light,IBM Plex Sans Light_MSFontService,sans-serif" font-style="normal" font-variant="normal" font-weight="300" font-stretch="normal" font-size="128" text-anchor="start" direction="ltr" writing-mode="lr-tb" unicode-bidi="normal" text-decoration="none" transform="matrix(1 0 0 1 4922.34 1703)">LlamaGuard-2-8B</text></g><g><rect x="6191" y="1628" width="75" height="74.9999" fill="#009D9A" fill-opacity="0.509804"/></g><g><text fill="#595959" fill-opacity="1" font-family="IBM Plex Sans Light,IBM Plex Sans Light_MSFontService,sans-serif" font-style="normal" font-variant="normal" font-weight="300" font-stretch="normal" font-size="128" text-anchor="start" direction="ltr" writing-mode="lr-tb" unicode-bidi="normal" text-decoration="none" transform="matrix(1 0 0 1 6301.78 1703)">LlamaGuard-7B</text></g></g></g></svg>